<svg xmlns="http://www.w3.org/2000/svg" width="1920" height="500" viewBox="0 0 1920 500"><title>logos2</title><g id="structured_IV" data-name="structured IV"><g id="cutout"><path d="M952.42,192.12c-2.8-.86-5.86,2.35-6.83,4.63-1.19,2.81,1.09,4.54,3.47,5.93,3.34,1.95,5.47.06,7.84-2.31C959,198.24,954.36,192.72,952.42,192.12Z"/><path d="M981.77,360.61c-1.83-.52-1.48.36-1.58,1.88-.06,1-.55,4.53.1,5.39.85,1.12,4.9-1,5.57-2.17C987,363.68,983.48,361.11,981.77,360.61Z"/><path d="M867.37,362.27c-5.84,1.84-1,9.05,2.34,6.62,1.75-1.25,3.41-2.16,2-4.36C870.6,362.71,869.54,361.59,867.37,362.27Z"/><path d="M886.24,201.09c1.69-2.9-3.39-6.57-5.83-7.27-2.62-.76-2.12.5-2.26,2.67-.09,1.47-.79,6.48.13,7.69C879.5,205.79,885.29,202.72,886.24,201.09Z"/><path d="M948.87,134c2.5-1.8,4.86-3.09,2.9-6.23-1.62-2.6-3.15-4.2-6.24-3.23C937.19,127.18,944,137.49,948.87,134Z"/><path d="M1032.21,359.43c-2-.61-4.11,1.64-4.78,3.24-.84,2,.76,3.18,2.43,4.15,2.33,1.37,3.83.05,5.49-1.62C1036.82,363.71,1033.57,359.85,1032.21,359.43Z"/><path d="M822.27,359.84c-1.94-1.08-2,.17-2,1.84,0,1.1-.75,4.54-.12,5.39.94,1.27,4.53-1.68,5.09-2.75C826.48,362,823.89,360.75,822.27,359.84Z"/><path d="M885.39,127.49c1.76-3.33-1.94-5.11-4.25-6.4-2.77-1.55-2.85.24-2.84,2.63,0,1.57-1.07,6.49-.18,7.69C879.47,133.24,884.59,129,885.39,127.49Z"/><path d="M0,0V516.14H1920V0ZM1744.93,103.9c3.54-1.09,14.75,8,20.2,12.9s14.78-14.58,16.43-14.27c6.29,1.2,7.41,32.72,3.1,50.89-16.79.54-39.84,2-43.36.81C1738.88,129.27,1740.61,105.22,1744.93,103.9Zm-37,.21c32.16-1.63,13.54,48.33,13.54,48.33s-22,1.45-32.16,0C1686.46,149.19,1675.75,105.74,1707.91,104.11Zm-336.67,7.36a3.19,3.19,0,0,1,4.22-2.23c3.47,1.31,9.12,3.69,13,6.58a3.21,3.21,0,0,0,4-.12c4.55-3.94,9.85-8.34,12.58-11.79a3.17,3.17,0,0,1,5.26.38c5.83,10.09,12.7,35.57,10.58,44.25a3,3,0,0,1-2,2.15c-8.27,2.61-34.25,3.29-42.72,3.44a3.16,3.16,0,0,1-3.18-2.61C1371.65,144.08,1368.42,122.85,1371.24,111.47Zm53.39,96.9c.06,2.28-1.53,10.08-3.6,11.06-11.1,5.23-25.23,7.6-45,5a5.8,5.8,0,0,1-4.89-5.18c-1-9.91.86-25.5,3.26-34.84a5.88,5.88,0,0,1,8.59-3.69,38.68,38.68,0,0,1,5.12,3.42,5.86,5.86,0,0,0,7.83-.3c3.6-3.5,8.34-7.88,12.12-11a5.87,5.87,0,0,1,9.42,3c1.63,5.89,2.56,13.32,3.67,16.36C1422.49,195.68,1424.49,203.17,1424.63,208.37Zm-432-104.82c2.46.26,5.15,4,7.06,5.39,3.15,2.31,6.74,7.08,10.54,8.25,6,1.86,10.58-8,13.56-11.88,1.39-1.82,3.58-5.27,6.29-4.54,2.45.66,3.2,4.77,3.88,6.87,4.78,14.69,4.69,28.93,5,44.12,0,1.79-1.31,2.56-2.8,3a8.77,8.77,0,0,1-2.66,0,4.16,4.16,0,0,1-2.37-1.54c-2.81-3-3.12-6.73-7.15-5.12-3.76,1.51-8.79,7-12.91,6.39-2.59-.36-6.88-5.2-11.07-5.39-3.27-.15-4.65,6.73-7.83,4.82-2.52-1.51-2.17-8.21-2.4-10.8-.72-8-.83-16-.76-24.05C989,115.91,987.43,103,992.59,103.55ZM917.9,128c.83-2.29,3.71-4.24,5.42-5.93,2-2,4-4,6-6,4.16-4.18,8.17-8.48,12.17-12.82,4.76-5.17,8.49-.39,12.51,3.22,8,7.18,17.07,14.48,23.34,23.3,3.56,5-6.81,11.34-9.92,13.86-5.24,4.25-10.64,8.29-15.86,12.57-2.44,2-4.09,3.66-7.39,2.37-2-.79-3.8-2.49-5.41-3.86a115.08,115.08,0,0,1-13.08-13.68C923.19,138.13,916.37,132.23,917.9,128Zm-52.33-19.27c.28-3.3-.26-12.76,5.28-10.39,4.09,1.75,9.32,3.51,12.91,6.12,8.6,6.27,17,14.8,24.22,22.73,4.29,4.7-9.11,15-12.21,16.55-4.84,2.46-8.88,5.69-14,7.69-3,1.17-12.22,8.33-15.42,4.65-2.28-2.62-1.81-9.41-1.94-12.6A268.82,268.82,0,0,1,865.57,108.71Zm-1.07,75.64c.5-3.31,1.17-6.58,1.81-9.86,1.33-6.74,5.73-5.57,10.94-3.09,12.49,5.95,21.69,14.17,31.21,24,4.61,4.74-3.85,11.71-6.92,14.22q-7.14,5.85-14.62,11.31a81.32,81.32,0,0,1-9.78,5.82c-2.24,1.17-5.74,2.45-8.3,2-3.78-.74-3.72-5.06-4.13-8.08A127.53,127.53,0,0,1,864.5,184.35Zm-251.75-78,4,.65a9.62,9.62,0,0,1,3.14,1.21l15.92,10.26a2.62,2.62,0,0,0,2.82-.11l14.41-11c.75-.57,1.41-.27,1.47.67l2.59,44a1.61,1.61,0,0,1-1.62,1.72h-9.26l-3.44,0-29.92-.36a1.76,1.76,0,0,1-1.72-1.75l-.13-43.79A1.42,1.42,0,0,1,612.75,106.38Zm-61.62,11.44L577,103.28a2.34,2.34,0,0,1,2.69.39l19.23,20a4.19,4.19,0,0,1,1,2.95l-2.6,25a2,2,0,0,1-1.89,1.71H557.68a2.15,2.15,0,0,1-2-1.69l-5.71-31.31A2.58,2.58,0,0,1,551.13,117.82Zm-9.51,98.29a2.59,2.59,0,0,1-1.43,2.41l-12.25,5.41a9.83,9.83,0,0,1-3.3.69H505.17a2.63,2.63,0,0,1-2.31-1.58,10.35,10.35,0,0,1-.52-3.29l1.57-43.18a1.08,1.08,0,0,1,1.63-1l24.76,11.1a9.85,9.85,0,0,1,2.72,2l5.82,6.42a6,6,0,0,1,1.29,3ZM503.93,105.19a1.15,1.15,0,0,1,1.68-1.07l12,4.94a8.37,8.37,0,0,1,2.71,2l17.58,20.42a5.93,5.93,0,0,1,1.23,3l.72,12.24a2.71,2.71,0,0,1-1.47,2.42l-8.25,3.73a9.5,9.5,0,0,1-3.28.71h-23.6a1.62,1.62,0,0,1-1.63-1.71ZM179.8,120.54a144.79,144.79,0,0,1,13.14-9.91c5.67-4,11.73-7.95,14.5-7.95s7.8,4.42,12.4,8.78a104,104,0,0,1,10.56,10.85,9.81,9.81,0,0,1,1.21,9.65c-2.35,4.94-2.46,4.88-4.8,9.82s-2.63,4.79-5,9.73A9.36,9.36,0,0,1,214,156.6c-8.41,0-8.43-.44-16.84-.24a9,9,0,0,1-7.77-4.83c-2.72-5.57-3.38-5.25-6.11-10.83s-2.21-5.83-4.94-11.41C176.94,126.46,177.36,122.53,179.8,120.54ZM127,176.71c-.06-3.15,2.22-5.76,5.14-5.5,3.11.27,0,.31,6,1.77,2.75.66,7.28,4.2,12.08,8.74,3.55,3.36,7.56,6.95,10.83,10.49,5.63,6.11,4.45,6.11,9.29,11.87a5.09,5.09,0,0,1-.52,7.54c-5.19,4.31-5.15,4-11.18,7.42-4.19,2.4-8.6,5.11-12.34,5.11-6.44,0-6.39,0-12.77-.16-3.16,0-5.32-2.64-5.39-5.79-.13-6.92-.71-6.91-.84-13.82s-.15-6.92-.28-13.84S127.15,183.62,127,176.71Zm3.93-72.49c3.12.27-.11.65,6,2.11,2.75.66,7.35,3.92,12.15,8.46,3.55,3.36,7.54,7,10.81,10.51,5.63,6.11,5.21,5.46,10,11.22a7.1,7.1,0,0,1-.48,9c-4.89,4.68-4.83,4.46-11.09,7.9a28.06,28.06,0,0,1-13,3.73c-11.39,0-6.47-.18-13-.4a5.32,5.32,0,0,1-5.4-5.5c-.13-6.92-.09-6.92-.23-13.83s-.87-6.91-1-13.82.05-6.92-.08-13.83C125.6,106.63,128,104,130.94,104.22ZM92.66,372c-3.42,3.27-3,3.48-7.36,5.89a19.39,19.39,0,0,1-9,2.55c-8,0-4.54.06-9.08.17a4.09,4.09,0,0,1-4-4.11c-.09-4.84-.17-4.84-.27-9.69s-.41-4.83-.5-9.68.15-4.85.06-9.69a3.48,3.48,0,0,1,3.64-3.76c2.19.19,0,0,4.29,1,1.92.47,5,3.15,8.38,6.33,2.49,2.35,5.05,5.09,7.34,7.57,4,4.28,3.75,3.72,7.14,7.76A4.17,4.17,0,0,1,92.66,372Zm44-9c-1.65,3.46-1.46,3.55-3.1,7s-1.83,3.37-3.47,6.82a6.87,6.87,0,0,1-5.78,3.45c-5.9,0-5.89.27-11.78.4a7.42,7.42,0,0,1-5.94-3.72c-1.91-3.91-1.81-4-3.72-7.86s-1.66-4-3.57-7.94a4.8,4.8,0,0,1,1.37-5.78c4.46-3.65,4.14-4,8.88-7.33,4-2.78,8.24-5,10.18-5s5.47,2.54,8.7,5.6c3.85,3.64,4.08,3.45,7.55,7.46C137.45,357.68,137.62,360.94,136.68,362.93ZM180,366.88c-.11,4.95-.11,4.95-.32,9.9-.08,2.21-2.27,3.78-4.48,3.78-4.22,0-4.22-.11-8.44-.11s-4.23,0-8.45,0-4.22.2-8.45.2a4.08,4.08,0,0,1-4.18-3.9c0-4.95.18-4.95.14-9.89s.14-5,.1-9.91-.3-4.94-.3-9.89c.07-2.21,1.43-2.76,3.2-1.44,5.5,4.08,5.66,3.86,11.16,7.94a5.62,5.62,0,0,0,6.35-.06c5.5-4.08,5.45-4.16,10.95-8.24,1.77-1.31,3.64-.4,3.64,1.81-.17,5-.72,4.93-.93,9.87S180.14,361.92,180,366.88Zm10.4-148.33c-2.73-5.58-2.67-5.61-5.39-11.19s-3.22-5.33-5.95-10.91a7.61,7.61,0,0,1,2.12-8.73,145.7,145.7,0,0,1,13.12-9.89c5.68-4,11.56-7.62,14.33-7.62s7.85,3.77,12.45,8.13c5.5,5.2,5.16,5.52,10.12,11.24,2.07,2.38,3.17,6.58,1.81,9.43-2.34,4.93-2.92,4.66-5.26,9.59s-2.52,4.85-4.87,9.78c-1.35,2.84-4.57,5.43-7.72,5.44-8.41,0-8.41.5-16.82.51C195.21,224.34,191.81,221.38,190.43,218.55Zm55,153.51a36.06,36.06,0,0,1-7.79,5.28c-2.94,1.69-6.09,3.07-8.71,3.07-4.51,0-4.47.3-8.94.46a4.39,4.39,0,0,1-4.19-4.22c-.1-4.85.31-4.86.21-9.7s-.14-4.85-.23-9.69-.6-4.83-.69-9.67a3.36,3.36,0,0,1,3.84-3.4c2.19.19,0-.35,4.31.67,1.92.46,4.9,3.23,8.26,6.41,2.48,2.36,5.11,5,7.4,7.5,3.95,4.27,3.82,3.65,7.21,7.69A4,4,0,0,1,245.39,372.06Zm44.08-8.93c-1.64,3.46-2,3.29-3.64,6.74s-1.2,3.67-2.84,7.12a7.47,7.47,0,0,1-5.89,3.87c-5.89,0-5.89-.11-11.78-.32a6.94,6.94,0,0,1-5.74-3.57c-1.91-3.91-2-3.86-3.92-7.76s-2-3.87-3.9-7.78a5.66,5.66,0,0,1,1.37-6.36,102.4,102.4,0,0,1,9.24-6.87c4-2.78,8.21-4.95,10.15-4.95s5.39,2.54,8.61,5.59c3.85,3.65,3.68,3.79,7.16,7.79A6.49,6.49,0,0,1,289.47,363.13ZM293.8,190c-.34,7.07-.93,7-1.39,14.1s-.28,7.08-.6,14.14a5.4,5.4,0,0,1-5.57,5.39c-6,0-6,.67-12.05.68s-6-.67-12.07-.65-6,.41-12.06.4a5.81,5.81,0,0,1-5.69-5.8c-.05-7.07,0-7.07-.08-14.13s-.07-7.07-.13-14.13.09-7.07.09-14.14c.12-3.15,2.18-4.45,4.72-2.57,7.85,5.82,7.4,6.43,15.25,12.25,2.53,1.88,6.78,1.34,9.32-.54,7.85-5.83,8-5.63,15.84-11.45,2.54-1.88,4.2-.85,4.3,2.3C293.46,182.87,294.13,182.89,293.8,190Zm-.4-66.51c-.3,7.06,0,7.08-.12,14.15s.08,7.08-.21,14.15c-.12,3.15-3.26,5.75-6.41,5.75-6,0-6-.34-12.06-.34s-6,.47-12.06.47-6-.56-12.06-.56a5.47,5.47,0,0,1-5.77-5.34c-.05-7.06-.29-7.06-.35-14.12s.14-7.07.08-14.14-.3-7.07-.3-14.13c.1-3.16,2.57-4.26,5.1-2.38,7.85,5.82,7.57,6.2,15.42,12a9,9,0,0,0,9.69,0l15.71-11.65c2.53-1.87,4.07-1.18,4.07,2C293.89,116.38,293.7,116.37,293.4,123.44Zm38.32,233.39c-.23,4.95-.09,5-.35,9.91s-.18,4.95-.4,9.9a4.42,4.42,0,0,1-4.11,4.29c-4.22,0-4.22,0-8.44,0s-4.22-.26-8.45-.24-4.22-.12-8.45-.13a3.85,3.85,0,0,1-3.83-4c0-4.94,0-4.94-.05-9.89s-.15-4.95-.19-9.9-.21-5-.21-9.9c.08-2.2,1.8-3.19,3.57-1.88,5.5,4.08,5.22,4.46,10.72,8.54a6.24,6.24,0,0,0,6.73.14c5.5-4.08,5.24-4.43,10.74-8.51,1.77-1.31,3.54-.49,3.62,1.72C332.46,351.91,332,351.89,331.72,356.83Zm137.5,20.85-5.77,2.62a6.77,6.77,0,0,1-2.3.49H444.62a1.13,1.13,0,0,1-1.14-1.2l1.61-32.68a.79.79,0,0,1,1.17-.74l8.42,3.45a6.11,6.11,0,0,1,1.9,1.37l12.31,14.31a4.18,4.18,0,0,1,.86,2.11l.5,8.58A1.86,1.86,0,0,1,469.22,377.68Zm41.29,1.77a1.37,1.37,0,0,1-1.33,1.2H482.74a1.51,1.51,0,0,1-1.43-1.19l-4-21.93a1.79,1.79,0,0,1,.83-1.77l18.12-10.19a1.64,1.64,0,0,1,1.88.28l13.47,14a3,3,0,0,1,.71,2.07Zm40.76,1.47h-8.9l-21-.26a1.22,1.22,0,0,1-1.21-1.21l-.09-30.68a1,1,0,0,1,1.19-1l2.83.45a6.94,6.94,0,0,1,2.2.85l11.15,7.19a1.85,1.85,0,0,0,2-.08l10.1-7.73c.53-.41,1-.2,1,.47l1.81,30.82A1.12,1.12,0,0,1,551.27,380.92ZM559,223.37l-1.68-4.87c-.3-.89-.74-2.38-1-3.3l-5-20.83a2.93,2.93,0,0,1,.95-2.73l21.87-17a2.46,2.46,0,0,1,2.76-.07l15.78,11.18c.77.55,2,1.52,2.67,2.16l5.32,4.87a3.48,3.48,0,0,1,1,2.86l-5.06,28a2.12,2.12,0,0,1-2,1.68L561.28,225A2.59,2.59,0,0,1,559,223.37Zm57.83,153.21-8.58,3.79a6.82,6.82,0,0,1-2.31.49H592.3a1.86,1.86,0,0,1-1.62-1.11,7.39,7.39,0,0,1-.36-2.31l1.1-30.24a.75.75,0,0,1,1.14-.71l17.34,7.77a7.1,7.1,0,0,1,1.91,1.39l4.07,4.5a4.24,4.24,0,0,1,.91,2.09l1,12.66A1.81,1.81,0,0,1,616.83,376.58Zm43-16.06-3.54,19.58a1.48,1.48,0,0,1-1.42,1.18l-23.32-.15A1.83,1.83,0,0,1,630,380l-1.17-3.41c-.22-.63-.52-1.67-.67-2.31l-3.52-14.6a2.06,2.06,0,0,1,.67-1.91l15.32-11.94a1.7,1.7,0,0,1,1.93,0l11.05,7.83a22.44,22.44,0,0,1,1.87,1.51l3.73,3.41A2.43,2.43,0,0,1,659.88,360.52Zm-1.47-135.28H614a1.66,1.66,0,0,1-1.66-1.72l.58-18.08c0-.94.06-2.49.07-3.43l.25-20.91a1,1,0,0,1,1.55-.92l4.69,2.45a15.07,15.07,0,0,1,2.79,2l10,9.33A2.11,2.11,0,0,0,635,194l17.86-13.82a1,1,0,0,1,1.65.65l2.37,13.92c.15.93.36,2.47.46,3.41L660,223.53A1.52,1.52,0,0,1,658.41,225.24Zm41.22,156.05H668.55a1.16,1.16,0,0,1-1.17-1.2l.41-12.67c0-.66,0-1.74.05-2.4l.18-14.64a.68.68,0,0,1,1.08-.65l3.29,1.71a11.47,11.47,0,0,1,2,1.38l7,6.53a1.47,1.47,0,0,0,1.84.08l12.51-9.68a.66.66,0,0,1,1.15.45l1.66,9.76c.11.65.26,1.72.33,2.38l1.86,17.75A1.07,1.07,0,0,1,699.63,381.29Zm132.89-5.6c-3.39,1.72-6.22,4-9.78,5.38-2.1.82-8.56,5.84-10.8,3.26-1.59-1.84-1.26-6.59-1.36-8.82a188.61,188.61,0,0,1,.79-24.35c.2-2.3-.19-8.93,3.69-7.27,2.87,1.22,6.53,2.46,9.05,4.29,6,4.39,11.92,10.37,17,15.92C844.08,367.39,834.69,374.59,832.52,375.69Zm50.17,0c-3.67,3-7.45,5.8-11.1,8.8-1.71,1.4-2.87,2.56-5.17,1.66a14.86,14.86,0,0,1-3.8-2.7,82.13,82.13,0,0,1-9.16-9.58c-1.74-2.06-6.51-6.19-5.44-9.16.58-1.61,2.6-3,3.8-4.16l4.19-4.16c2.91-2.94,5.73-6,8.53-9,3.33-3.62,5.94-.27,8.76,2.26,5.6,5,12,10.14,16.34,16.32C892.14,369.46,884.88,373.88,882.69,375.65Zm48.17,7.74a6.49,6.49,0,0,1-1.87,0,3,3,0,0,1-1.65-1.09c-2-2.06-2.19-4.71-5-3.58-2.63,1-6.15,4.88-9,4.47-1.82-.25-4.83-3.64-7.76-3.77-2.29-.11-3.26,4.71-5.49,3.37-1.76-1.05-1.52-5.75-1.68-7.56-.5-5.59-.58-11.23-.53-16.84,0-2.19-1.11-11.23,2.51-10.85,1.71.19,3.6,2.8,4.94,3.78,2.2,1.61,4.72,5,7.38,5.78,4.21,1.3,7.41-5.59,9.5-8.33,1-1.27,2.5-3.69,4.4-3.17,1.72.46,2.24,3.33,2.72,4.81,3.35,10.28,3.29,20.26,3.54,30.9C932.84,382.58,931.9,383.11,930.86,383.39Zm34.53-166.34c-3,2.9-9.6,11.25-14.2,11-4.14-.22-9.18-6-12-8.6-4.43-4.17-8.6-8.62-12.59-13.21-2.24-2.57-7.06-8.83-5.16-12.63a13,13,0,0,1,3.89-5c2.4-1.72,4.82-3.41,7.23-5.11,4.77-3.36,9.67-6.66,14.11-10.46,1.86-1.6,3.65-4.14,6.41-2.94,1.84.79,3.19,2.4,4.63,3.68,7.85,7,14.72,12.53,20.24,21.84C982,202.78,968,214.5,965.39,217.05Zm31.19,154.64q-5,4.1-10.24,7.92a57.54,57.54,0,0,1-6.85,4.08c-1.57.81-4,1.72-5.82,1.37-2.65-.51-2.6-3.54-2.89-5.66a89.46,89.46,0,0,1-.15-25.42c.35-2.31.82-4.61,1.27-6.9.93-4.72,4-3.9,7.66-2.16,8.75,4.16,15.19,9.92,21.86,16.81C1004.65,365.05,998.72,369.93,996.58,371.69ZM997.83,225c-3.55.62-4.33-2.78-4.46-4.95-.44-6.89-.68-13.79-1.27-20.68-.34-3.87-4.71-23.56,3.13-21.93,3.91.81,13.47,13,15.43,12.6,4.81-1,17.85-27.32,23.25-14.24,6.23,15.11,7.07,32.57,5.77,48.69-.32,4-5.51,3.49-7.83,2.14-1.65-1-2.26-5-3.78-5.49-1.87-.58-10,5.21-13.43,4.78a7.89,7.89,0,0,1-4.24-1.58c-1.09-.73-3.68-3.21-4.74-3.52C1003.23,220.08,1001.6,224.32,997.83,225Zm43.47,151.91c-2.09,2-6.73,7.87-10,7.71-2.9-.16-6.43-4.21-8.37-6a126.41,126.41,0,0,1-8.82-9.25c-1.57-1.8-4.94-6.18-3.61-8.84a9.14,9.14,0,0,1,2.72-3.48c1.68-1.21,3.38-2.39,5.07-3.58,3.34-2.36,6.77-4.67,9.88-7.33,1.3-1.12,2.56-2.9,4.49-2.06a12.89,12.89,0,0,1,3.24,2.58c5.5,4.92,10.31,8.78,14.18,15.3C1052.92,366.89,1043.14,375.1,1041.3,376.89Zm52,5.19c-.22,2.79-3.86,2.45-5.48,1.5-1.16-.67-1.59-3.51-2.65-3.84-1.31-.41-7,3.65-9.41,3.35a5.49,5.49,0,0,1-3-1.11c-.76-.51-2.57-2.25-3.32-2.47-1.7-.5-2.84,2.47-5.49,2.93-2.48.44-3-1.95-3.12-3.46-.3-4.83-.47-9.66-.89-14.49-.23-2.71-3.3-16.5,2.2-15.36,2.73.57,9.43,9.1,10.81,8.83,3.36-.67,12.5-19.14,16.28-10C1093.65,358.56,1094.24,370.79,1093.33,382.08Zm138-12.91c-9.2,10.52-18.83,14.14-24.37,15.39a3.89,3.89,0,0,1-4.71-3.77c-.07-6.9-.34-20.27-1.28-28.45a3.9,3.9,0,0,1,4.57-4.33c5.49,1.08,14.76,4.62,25.65,15.82A4,4,0,0,1,1231.29,369.17Zm16-262.35c7.84,1.53,21.07,6.59,36.62,22.59a5.63,5.63,0,0,1,.21,7.61c-13.13,15-26.89,20.2-34.8,22a5.55,5.55,0,0,1-6.72-5.39c-.11-9.84-.49-28.94-1.83-40.62A5.55,5.55,0,0,1,1247.24,106.82Zm28.3,260.84c-3,4-9,9.82-12.94,13.51a5.67,5.67,0,0,1-7.8-.06c-3.89-3.72-9.71-9.62-12.8-14.32a5.62,5.62,0,0,1,1.41-7.58c3.67-2.71,9.49-7.12,13.94-11a5.67,5.67,0,0,1,7.7.31A109.16,109.16,0,0,1,1275.61,361,5.63,5.63,0,0,1,1275.54,367.66Zm-13.48-143.81c-2.93.56-9.12,1.1-13.21,1.42a3.44,3.44,0,0,1-3.69-3.67l3-42.88a3.43,3.43,0,0,1,5.13-2.75c8.07,4.62,24.31,14.26,32.12,21.27a3.18,3.18,0,0,1,1.11,2.42C1286.29,212.39,1266.5,223,1262.06,223.85Zm61.76,154.48a2.11,2.11,0,0,1-1.43,1.51c-5.79,1.83-24,2.3-29.92,2.41a2.21,2.21,0,0,1-2.23-1.83c-.9-5.21-3.17-20.08-1.19-28.05a2.24,2.24,0,0,1,3-1.57,40.36,40.36,0,0,1,9.09,4.61,2.23,2.23,0,0,0,2.82-.08c3.18-2.76,6.89-5.84,8.8-8.25a2.22,2.22,0,0,1,3.69.26C1320.49,354.41,1325.31,372.25,1323.82,378.33Zm28.08-179.85c-5.05,6.39-15.59,15.58-22,22.34a6.76,6.76,0,0,1-10.62-1c-4.85-7.66-10.63-17.37-15-24.21a6.74,6.74,0,0,1,2.49-9.53,149.74,149.74,0,0,0,19.05-13.11,6.71,6.71,0,0,1,8.26-.14c5.32,4,13.89,12,17.95,17.6A6.71,6.71,0,0,1,1351.9,198.48Zm0-63.61c-4.35,5.78-12.84,14-18.48,19.29a8.1,8.1,0,0,1-11.13-.08c-5.55-5.32-13.86-13.74-18.27-20.46a8,8,0,0,1,2-10.82c5.23-3.87,13.55-10.16,19.9-15.68a8.09,8.09,0,0,1,11,.43,158.47,158.47,0,0,1,15.08,17.76A8.07,8.07,0,0,1,1352,134.87Zm24.35,246.2c-2.06.39-6.39.77-9.26,1a2.4,2.4,0,0,1-2.58-2.57l2.1-30a2.41,2.41,0,0,1,3.6-1.92c5.65,3.23,17,10,22.5,14.89a2.26,2.26,0,0,1,.77,1.69C1393.26,373,1379.4,380.47,1376.3,381.07Zm62.92-17.77c-3.54,4.47-10.92,10.91-15.41,15.64a4.71,4.71,0,0,1-7.43-.73c-3.4-5.36-7.45-12.17-10.47-17a4.72,4.72,0,0,1,1.74-6.67A105.12,105.12,0,0,0,1421,345.4a4.7,4.7,0,0,1,5.79-.1,74,74,0,0,1,12.57,12.33A4.7,4.7,0,0,1,1439.22,363.3Zm47.32,15.77c-7.78,3.67-17.68,5.32-31.49,3.49a4.07,4.07,0,0,1-3.43-3.63c-.71-6.94.61-17.86,2.29-24.4a4.11,4.11,0,0,1,6-2.58,27.3,27.3,0,0,1,3.59,2.39,4.1,4.1,0,0,0,5.48-.21c2.53-2.45,5.84-5.52,8.49-7.74a4.12,4.12,0,0,1,6.6,2.11c1.14,4.13,1.79,9.34,2.57,11.46a43.54,43.54,0,0,1,2.41,11.36C1489.1,372.92,1488,378.39,1486.54,379.07Zm137.32.78c-14.3,1.91-21.87,1.19-23.76-.26s-3-26.41-.62-34.87a2.18,2.18,0,0,1,2.3-1.58c5.59.51,23.25,4.49,24,34.48A2.18,2.18,0,0,1,1623.86,379.85Zm9.81-276.1a3.12,3.12,0,0,1,3.29-2.26c8,.73,33.18,6.42,34.24,49.23a3.14,3.14,0,0,1-2.73,3.19c-20.41,2.73-31.21,1.7-33.91-.38S1630.29,115.83,1633.67,103.75Zm.19,77.22c.2-2.44,2.19-10.52,10.21-8.42s34.26,27.37,30.61,51.57c-19.91,2.34-32.29.92-36.39.28a2,2,0,0,1-1.68-1.76C1635.91,216.07,1633.16,189.65,1633.86,181ZM1661,378.82s-15.42,1-22.53,0c-2-2.28-9.49-32.71,13-33.85S1661,378.82,1661,378.82Zm44.26.69c-11.76.38-27.9,1.42-30.37.57-1.69-17.49-.48-34.33,2.55-35.26,2.48-.76,10.33,5.61,14.15,9s10.35-10.21,11.51-10C1707.47,344.7,1708.25,366.78,1705.23,379.51Zm20.26-156.19c-8.29,2.4-28.27,1.35-33.43.65-10.69-3.29-3.56-51,16.8-51C1730.2,174.74,1730.15,220.08,1725.49,223.32Zm17.63-44.45c5.7,0,18.76,14.67,22.78,14.67s11.42-18,13.73-17.09c6.38,2.42,8.37,20,4,46.06,0,0-34.83,2.17-40.53,1.45S1737.43,178.87,1743.12,178.87ZM1774.25,380c-14,1.63-22.62.64-25.49.19a1.39,1.39,0,0,1-1.17-1.24c-.5-4.59-2.43-23.1-1.93-29.18.14-1.7,1.53-7.37,7.15-5.89S1776.8,363,1774.25,380Zm35.58-.57c-5.8,1.69-19.8.95-23.41.46-7.49-2.3-2.5-35.73,11.77-35.73C1813.13,345.39,1813.09,377.14,1809.83,379.41Zm40.74-.57s-24.4,1.53-28.39,1-4-31.58,0-31.58,13.14,10.28,16,10.28,8-12.59,9.61-12C1852.22,348.28,1853.62,360.59,1850.57,378.84Z"/></g></g></svg>