<svg xmlns="http://www.w3.org/2000/svg" width="960" height="200" viewBox="0 0 960 200"><title>mobile</title><g id="e1977f66-5726-4773-b51e-ea4f09f555f5" data-name="cutout back"><rect width="960" height="200"/></g><g id="ba0c77dc-c5a6-4dcf-9f48-ddc715dc5968" data-name="cutout"><path d="M410.14,100.84l-.4.4h-3.2l-.4-.4V79.37L408,75.61,396.7,89.24,385.42,75.61l1.84,3.76v21.47l-.4.4h-3.2l-.4-.4V71.65l.4-.4h3.2l.4.4L398.66,86l-1.44-3.12,8.92-11.27.4-.4h3.2l.4.4Z" style="fill:#fff"/><path d="M434.94,91.64a10,10,0,1,1-10-10A9.71,9.71,0,0,1,434.94,91.64Zm-4,0a6,6,0,1,0-6,6.4A6.19,6.19,0,0,0,430.94,91.64Z" style="fill:#fff"/><path d="M458.86,91.64c0,5.76-4,10-9.8,10a9,9,0,0,1-5.52-1.84v1l-.4.4h-3l-.4-.4v-31l3.8-.6v12.4l-2.08,4a9.18,9.18,0,0,1,7.6-4C454.82,81.65,458.86,85.88,458.86,91.64Zm-4,0c0-3.44-2.36-6.4-5.8-6.4a6.9,6.9,0,0,0-5.52,2.4v8a6.9,6.9,0,0,0,5.52,2.4C452.5,98,454.86,95.08,454.86,91.64Z" style="fill:#fff"/><path d="M469.06,82.45v18.39l-.4.4h-3l-.4-.4V85.64h-1.8l-.4-.4V82.45l.4-.41h5.2Zm.72-8-2.52,2.52h-.64l-2.52-2.52v-.64l2.52-2.52h.64l2.52,2.52Z" style="fill:#fff"/><path d="M483.66,101.24a6.61,6.61,0,0,1-2.68.4c-5.08,0-5.6-3.64-5.6-7.2V69.85l3.8-.6V94c0,3.44.56,4,2.2,4a4.26,4.26,0,0,0,1.88-.36l.4.4Z" style="fill:#fff"/><path d="M493.06,82.45v18.39l-.4.4h-3l-.4-.4V85.64h-1.8l-.4-.4V82.45l.4-.41h5.2Zm.72-8-2.52,2.52h-.64l-2.52-2.52v-.64l2.52-2.52h.64l2.52,2.52Z" style="fill:#fff"/><path d="M512.7,96.44a3.88,3.88,0,0,0,2.08,2.2l-.8,3a6.82,6.82,0,0,1-4.36-2.6,7.25,7.25,0,0,1-5.56,2.6c-2.16,0-5.48-1-5.48-5s4.28-5.72,10.32-6.32V85.76a7.61,7.61,0,0,0-3.6-.72,11.92,11.92,0,0,0-6.08,1.6l-.4-.4.8-3.44a19,19,0,0,1,6.48-1.15c5,0,6.6,2.15,6.6,4.91ZM508.9,96V92.88c-3.56.6-6.52,1.24-6.52,3.52a2,2,0,0,0,2.28,2.24A5.15,5.15,0,0,0,508.9,96Z" style="fill:#fff"/><path d="M523.78,82.45V96.84a32,32,0,0,1-3.2,14.8h-3.4l-.4-.6a32.31,32.31,0,0,0,3.2-14.2V85.64h-1.8l-.4-.4V82.45l.4-.41h5.2Zm.72-8L522,76.93h-.64l-2.52-2.52v-.64l2.52-2.52H522l2.52,2.52Z" style="fill:#fff"/><path d="M543.42,96.44a3.88,3.88,0,0,0,2.08,2.2l-.8,3a6.82,6.82,0,0,1-4.36-2.6,7.25,7.25,0,0,1-5.56,2.6c-2.16,0-5.48-1-5.48-5s4.28-5.72,10.32-6.32V85.76A7.61,7.61,0,0,0,536,85a11.92,11.92,0,0,0-6.08,1.6l-.4-.4.8-3.44a19,19,0,0,1,6.48-1.15c5,0,6.6,2.15,6.6,4.91Zm-3.8-.44V92.88c-3.56.6-6.52,1.24-6.52,3.52a2,2,0,0,0,2.28,2.24A5.15,5.15,0,0,0,539.62,96Z" style="fill:#fff"/><path d="M577.53,89.24v11.6l-.4.4h-3l-.4-.4V89.24c0-2.64-.56-4-2.8-4s-4.27,1.52-5.71,3.2v12.4l-.4.4h-3l-.4-.4V89.24c0-2.64-.56-4-2.8-4s-4.28,1.52-5.72,3.2v12.4l-.4.4h-3l-.4-.4V82.45l.4-.41h3l.4.41-2.08,4c1.76-2.44,5-4.79,8.2-4.79,3,0,4.72,1.07,5.56,3.15a10.2,10.2,0,0,1,6.75-3.15C576.09,81.65,577.53,84.29,577.53,89.24Z" style="fill:#fff"/></g></svg>