<svg xmlns="http://www.w3.org/2000/svg" width="1920" height="250" viewBox="0 0 1920 250"><title>slide 11</title><g id="efcf5a28-b0a4-40b3-b3e6-9f732567a8a6" data-name="cutout"><path d="M917.73,114.93a6,6,0,0,0-5.93,6.15,6.1,6.1,0,0,0,5.93,6.23,6.41,6.41,0,0,0,6.23-6.23A6.29,6.29,0,0,0,917.73,114.93Z"/><path d="M746.62,114.93a6,6,0,0,0-5.93,6.15,6.09,6.09,0,0,0,5.93,6.23,6.41,6.41,0,0,0,6.23-6.23A6.29,6.29,0,0,0,746.62,114.93Z"/><path d="M1195.31,114.93a6,6,0,0,0-5.89,4.9h11.78A6.06,6.06,0,0,0,1195.31,114.93Z"/><path d="M1116.08,114.93a6.29,6.29,0,0,0-6.23,6.15,6.41,6.41,0,0,0,6.23,6.23,6.1,6.1,0,0,0,5.93-6.23A6,6,0,0,0,1116.08,114.93Z"/><path d="M1009.46,114.93a6,6,0,0,0-5.93,6.15,6.1,6.1,0,0,0,5.93,6.23,6.41,6.41,0,0,0,6.23-6.23A6.29,6.29,0,0,0,1009.46,114.93Z"/><path d="M980.65,114.93a6,6,0,0,0-6,6.15,6,6,0,1,0,12,0A6,6,0,0,0,980.65,114.93Z"/><path d="M939.42,114.78A6.09,6.09,0,0,0,933.5,121a6,6,0,0,0,5.92,6.15,6.3,6.3,0,0,0,6.24-6.15A6.41,6.41,0,0,0,939.42,114.78Z"/><path d="M897.82,114.93a6,6,0,0,0-5.89,4.9h11.78A6.08,6.08,0,0,0,897.82,114.93Z"/><path d="M0,0V250H1920V0ZM638.76,125.88,629,116.14l9.74-9.82,9.81,9.82Zm32.77,3.52h-2.77V102.28h2.77Zm20.56,0h-2.55v-9.53c0-3.31-1.52-4.94-4.29-4.94-3.38-.08-5.47,1.82-5.47,5.58v8.89h-2.55V112.69h2.55v2a7.22,7.22,0,0,1,5.47-2.28c4.78,0,6.84,2.13,6.84,7.45ZM704.32,115h-3.76v14.4H698V115h-2.51v-2.31H698v-6.58h2.54v6.58h3.76Zm19.42,7.26H709.19a6.13,6.13,0,0,0,5.89,5,5.86,5.86,0,0,0,4.63-2.31h3.16a8.68,8.68,0,0,1-7.79,4.82,8.83,8.83,0,0,1-8.67-8.74,8.67,8.67,0,0,1,17.33,0Zm12.2-7.33c-3,0-5.66,1.82-5.66,5.24v9.23h-2.55V112.69h2.55V115a7.41,7.41,0,0,1,5.66-2.55Zm19.6,14.55H753v-2.74a8.11,8.11,0,0,1-6.31,3.08,8.82,8.82,0,0,1-8.66-8.74,8.7,8.7,0,0,1,8.66-8.66,8.19,8.19,0,0,1,6.31,3v-2.73h2.54Zm16.76-.08-7.44-8.58-1.64,1.59v7h-2.54V102.28h2.54v16.14h.57l6.23-6.08h3.57L766.72,119l9,10.41ZM785.68,115h-3.76v14.4h-2.55V115h-2.51v-2.31h2.51v-6.58h2.55v6.58h3.76Zm11.4,12.54L792.33,137h-3l4.75-9.5-7.41-14.81h3l5.89,11.81,5.93-11.81h3Zm17.29,1.86H811.6l-6.88-16.71h2.77L813,126l5.47-13.33h2.78Zm24.24,0h-2.54v-2a7.22,7.22,0,0,1-5.47,2.28c-4.79,0-6.84-2.13-6.84-7.45v-9.53h2.54v9.53c0,3.31,1.52,4.94,4.3,4.94,3.38,0,5.47-1.9,5.47-5.58v-8.89h2.54Zm10.61.27c-3.77,0-6.27-2.09-6.43-5h2.32c.23,1.41,1.94,2.63,4.11,2.63,2.47,0,4.1-1.11,4.1-2.63s-1.07-2.12-4.1-2.73c-4-.8-5.78-2.24-5.78-4.9s2-4.6,5.78-4.6c3.3,0,5.5,1.82,5.77,4.37h-2.32c-.23-1.14-1.48-2-3.45-2s-3.42,1-3.42,2.21,1.1,2,3.83,2.51c4.3.87,6,2.35,6,5.12C855.64,127.58,853.39,129.67,849.22,129.67Zm12.69-.76-1.83,3.46h-1.21l.72-2.89a2.09,2.09,0,0,1-1.48-2,2.11,2.11,0,0,1,4.22,0A3.21,3.21,0,0,1,861.91,128.91Zm25.15-14c-3,0-5.66,1.82-5.66,5.24v9.23h-2.55V112.69h2.55V115a7.42,7.42,0,0,1,5.66-2.55Zm19.42,7.33H891.93a6.13,6.13,0,0,0,5.89,5,5.86,5.86,0,0,0,4.63-2.31h3.15a8.65,8.65,0,0,1-7.78,4.82,8.83,8.83,0,0,1-8.67-8.74,8.67,8.67,0,0,1,17.33,0Zm20.18,7.22h-2.55v-2.74a8.11,8.11,0,0,1-6.31,3.08,8.82,8.82,0,0,1-8.66-8.74,8.7,8.7,0,0,1,8.66-8.66,8.19,8.19,0,0,1,6.31,3v-2.73h2.55Zm21.73-1.6c0,6.58-3.91,9.5-8.66,9.5a8.64,8.64,0,0,1-8.17-5.77h2.89a6,6,0,0,0,5.28,3.27c3.38,0,6-1.79,6-7v-1.1a8.22,8.22,0,0,1-6.23,2.89,8.7,8.7,0,0,1-8.66-8.66,8.82,8.82,0,0,1,8.66-8.74,8.18,8.18,0,0,1,6.23,3v-2.54h2.66ZM968,129.4h-2.55v-2a7.22,7.22,0,0,1-5.47,2.28c-4.78,0-6.84-2.13-6.84-7.45v-9.53h2.55v9.53c0,3.31,1.52,4.94,4.29,4.94,3.38,0,5.47-1.9,5.47-5.58v-8.89H968Zm12.65.42a8.82,8.82,0,0,1-8.66-8.74,8.67,8.67,0,0,1,17.33,0A8.83,8.83,0,0,1,980.65,129.82Zm16.61-.42c.08,4.79-2.28,7.75-6.57,7.75l0-2.5c2.58,0,4-2.24,4-5.25V112.69h2.66Zm-1.33-20.1a1.79,1.79,0,1,1,0-3.57,1.84,1.84,0,0,1,1.79,1.75A1.81,1.81,0,0,1,995.93,109.3Zm22.46,20.18h-2.55v-2.74a8.11,8.11,0,0,1-6.31,3.08,8.82,8.82,0,0,1-8.66-8.74,8.7,8.7,0,0,1,8.66-8.66,8.19,8.19,0,0,1,6.31,3v-2.73h2.55Zm20.17-.08H1036v-9.53c0-3.31-1.52-4.94-4.29-4.94-3.39-.08-5.48,1.82-5.48,5.58v8.89h-2.54V112.69h2.54v2a7.24,7.24,0,0,1,5.48-2.28c4.78,0,6.83,2.13,6.83,7.45ZM1050.8,115H1047v14.4h-2.55V115H1042v-2.31h2.5v-6.58H1047v6.58h3.76Zm6.23,14.4h-2.66V112.69H1057Zm-1.36-20.1a1.8,1.8,0,0,1-1.83-1.82,1.81,1.81,0,1,1,1.83,1.82Zm12,20.37c-3.76,0-6.27-2.09-6.42-5h2.32c.23,1.41,1.94,2.63,4.1,2.63,2.47,0,4.11-1.11,4.11-2.63s-1.07-2.12-4.11-2.73c-4-.8-5.77-2.24-5.77-4.9s2-4.6,5.77-4.6c3.31,0,5.51,1.82,5.78,4.37h-2.32c-.23-1.14-1.48-2-3.46-2s-3.42,1-3.42,2.21,1.11,2,3.84,2.51c4.29.87,6,2.35,6,5.12C1074.09,127.58,1071.85,129.67,1067.67,129.67Zm22.61-24.54a1.83,1.83,0,0,1,1.79,1.74,1.85,1.85,0,0,1-1.79,1.86,1.83,1.83,0,0,1-1.82-1.86A1.81,1.81,0,0,1,1090.28,105.13Zm4.26,29.44c-2.55,1.33-8.36.61-4.71-5.17h-.91V112.69h2.66V129.4c-2.7,4,.79,4,3,2.85Zm21.47-4.75a8.11,8.11,0,0,1-6.31-3.08V137h-2.54V112.69h2.54v2.73a8.19,8.19,0,0,1,6.31-3,8.7,8.7,0,0,1,8.66,8.66A8.82,8.82,0,0,1,1116,129.82Zm20.67-14.89c-3,0-5.66,1.82-5.66,5.24v9.23h-2.55V112.69H1131V115a7.42,7.42,0,0,1,5.66-2.55Zm6.23,14.47h-2.66V112.69h2.66Zm-1.37-20.1a1.8,1.8,0,0,1-1.82-1.82,1.81,1.81,0,0,1,1.82-1.75,1.84,1.84,0,0,1,1.79,1.75A1.81,1.81,0,0,1,1141.54,109.3Zm12,20.37c-3.76,0-6.27-2.09-6.42-5h2.32c.23,1.41,1.94,2.63,4.1,2.63,2.47,0,4.11-1.11,4.11-2.63s-1.07-2.12-4.11-2.73c-4-.8-5.77-2.24-5.77-4.9s2-4.6,5.77-4.6c3.31,0,5.51,1.82,5.78,4.37H1157c-.23-1.14-1.48-2-3.46-2s-3.42,1-3.42,2.21,1.1,2,3.84,2.51c4.29.87,6,2.35,6,5.12C1160,127.58,1157.73,129.67,1153.55,129.67Zm13.42-.27h-2.66V112.69H1167Zm-1.37-20.1a1.8,1.8,0,0,1-1.83-1.82,1.81,1.81,0,1,1,1.83,1.82Zm9.08,20.1h-2.55V102.28h2.55Zm7.94,0H1180V112.69h2.66Zm-1.37-20.1a1.8,1.8,0,0,1-1.82-1.82,1.81,1.81,0,0,1,1.82-1.75,1.84,1.84,0,0,1,1.79,1.75A1.81,1.81,0,0,1,1181.25,109.3Zm22.73,13h-14.56a6.14,6.14,0,0,0,5.89,5A5.88,5.88,0,0,0,1200,125h3.15a8.67,8.67,0,0,1-7.79,4.82,8.82,8.82,0,0,1-8.66-8.74,8.67,8.67,0,0,1,17.33,0Zm11.28-7.26h-3.76v14.4H1209V115h-2.51v-2.31H1209v-6.58h2.54v6.58h3.76Zm6.24,14.4h-2.67V112.69h2.67Zm-1.37-20.1a1.8,1.8,0,0,1-1.83-1.82,1.81,1.81,0,1,1,1.83,1.82Zm31.65,20.1h-2.55v-9.53c0-3.31-1.25-4.94-3.72-4.94-3.08,0-5,1.71-5,5.77v8.7H1238v-9.53c0-3.31-1.26-4.94-3.73-4.94-3.07,0-5,1.71-5,5.77v8.7h-2.55V112.69h2.55v2a6.34,6.34,0,0,1,5-2.28c2.93,0,4.75,1,5.63,3.23a6.25,6.25,0,0,1,5.66-3.23c4.33,0,6.27,2.13,6.27,7.45Zm19.61,0h-2.55v-2a7.22,7.22,0,0,1-5.47,2.28c-4.79,0-6.84-2.13-6.84-7.45v-9.53h2.55v9.53c0,3.31,1.52,4.94,4.29,4.94,3.38,0,5.47-1.9,5.47-5.58v-8.89h2.55Zm10.6.27c-3.76,0-6.27-2.09-6.42-5h2.32c.22,1.41,1.93,2.63,4.1,2.63,2.47,0,4.1-1.11,4.1-2.63s-1.06-2.12-4.1-2.73c-4-.8-5.78-2.24-5.78-4.9s2-4.6,5.78-4.6c3.3,0,5.51,1.82,5.77,4.37h-2.31c-.23-1.14-1.48-2-3.46-2s-3.42,1-3.42,2.21,1.1,2,3.84,2.51c4.29.87,6,2.35,6,5.12C1288.41,127.58,1286.17,129.67,1282,129.67Zm11-.08a2.11,2.11,0,1,1,2.09-2.12A2.12,2.12,0,0,1,1293,129.59Z"/><path d="M715.08,114.93a6,6,0,0,0-5.89,4.9H721A6.07,6.07,0,0,0,715.08,114.93Z"/></g></svg>