<svg xmlns="http://www.w3.org/2000/svg" width="1920" height="600" viewBox="0 0 1920 600"><title>slide 7</title><g id="a35dce9d-9152-47f9-93d0-514363b5ed69" data-name="cutout"><path d="M844.26,186.24c-5.16,0-9,4.44-9,9.6s3.84,9.6,9,9.6,9-4.44,9-9.6S849.42,186.24,844.26,186.24Z"/><path d="M996.36,185.94c-4.38,0-6.84,2.82-7.68,6.78l13.62-.6C1002.42,187.8,999.48,185.94,996.36,185.94Z"/><path d="M801.54,170.64h-9.06v34.2h9.06c9.12,0,16-6.84,16-17.1S810.66,170.64,801.54,170.64Z"/><path d="M1112.58,186.24c-5.16,0-9,4.44-9,9.6s3.84,9.6,9,9.6,9-4.44,9-9.6S1117.74,186.24,1112.58,186.24Z"/><path d="M660.3,170.64h-9.06v34.2h9.06c9.12,0,16-6.84,16-17.1S669.42,170.64,660.3,170.64Z"/><path d="M703,186.24c-5.16,0-9,4.44-9,9.6s3.84,9.6,9,9.6,9-4.44,9-9.6S708.18,186.24,703,186.24Z"/><path d="M0,0V600H1920V0ZM956.58,166.74l2.76-2.76,6.12,6,6.12-6,2.76,2.76v.84l-8.46,8.76H965l-8.46-8.76ZM627,206.58l-7.45,11.1-3.59-1.92v-.84l5.76-11.4h.78l4.5,2.22Zm12,0-7.44,11.1-3.59-1.92v-.84l5.76-11.4h.77l4.5,2.22Zm21.36,3.66H645.84l-.59-.6v-43.8l.59-.6H660.3c12,0,22.32,8.7,22.32,22.5S672.3,210.24,660.3,210.24Zm42.72.6a15,15,0,1,1,15-15A14.57,14.57,0,0,1,703,210.84Zm64.26-1.2-.6.6h-4.5l-.6-.6v-17.4c0-4-.84-6-4.2-6s-6.42,2.28-8.58,4.8v18.6l-.6.6h-4.5l-.6-.6v-17.4c0-4-.84-6-4.2-6s-6.42,2.28-8.58,4.8v18.6l-.6.6h-4.5l-.6-.6V182l.6-.6h4.5l.6.6-3.12,6c2.64-3.66,7.44-7.2,12.3-7.2,4.56,0,7.08,1.62,8.34,4.74,2.7-2.64,6.42-4.74,10.14-4.74,7.14,0,9.3,4,9.3,11.4Zm34.26.6H787.08l-.6-.6v-43.8l.6-.6h14.46c12,0,22.32,8.7,22.32,22.5S813.54,210.24,801.54,210.24Zm42.72.6a15,15,0,1,1,15-15A14.57,14.57,0,0,1,844.26,210.84Zm64.26-1.2-.6.6h-4.5l-.6-.6v-17.4c0-4-.84-6-4.2-6s-6.42,2.28-8.58,4.8v18.6l-.6.6h-4.5l-.6-.6v-17.4c0-4-.84-6-4.2-6s-6.42,2.28-8.58,4.8v18.6l-.6.6h-4.5l-.6-.6V182l.6-.6H871l.6.6-3.12,6c2.64-3.66,7.44-7.2,12.3-7.2,4.56,0,7.08,1.62,8.34,4.74,2.7-2.64,6.42-4.74,10.14-4.74,7.14,0,9.3,4,9.3,11.4ZM924.66,165l-5.76,11.4h-.78l-4.5-2.22v-.84l7.44-11.1,3.6,1.92Zm12,0-5.76,11.4h-.78l-4.5-2.22v-.84l7.44-11.1,3.6,1.92Zm39.9,39.84.6.6v4.2l-.6.6h-25.2l16.8-23.4H953.34l-.6-.6V182l.6-.6h25l-16.68,23.4Zm31.56-8.76-.66.6h-19c.36,4.8,4,8.76,8.82,8.76a15.37,15.37,0,0,0,8.46-2.4l.6.6v5.46a23.63,23.63,0,0,1-9.06,1.74c-8.64,0-14.7-6.36-14.7-15s5.76-15,13.8-15c5.4,0,12,2.7,12,12.12A19.69,19.69,0,0,1,1008.12,196.08Zm33.12,13.56-.6.6h-4.5l-.6-.6v-17.4c0-4-.84-6-4.8-6A12.58,12.58,0,0,0,1021,191v18.6l-.6.6h-4.5l-.6-.6V182l.6-.6h4.5l.6.6-3.12,6a17,17,0,0,1,13.5-7.2c7.74,0,9.9,4,9.9,11.4Zm13.5,0-.6.6h-4.5l-.6-.6v-46.5l5.7-.9Zm21.42,0-.6.6H1070l-13.5-16.08,12-12.72h5.16l.6.6v.72l-11,11.4,12.84,14.76Zm17.22.6a9.92,9.92,0,0,1-4,.6c-7.62,0-8.4-5.46-8.4-10.8v-36.9l5.7-.9v37.2c0,5.16.84,6,3.3,6a6.38,6.38,0,0,0,2.82-.54l.6.6Zm19.2.6a15,15,0,1,1,15-15A14.57,14.57,0,0,1,1112.58,210.84Zm41.16,0a21.16,21.16,0,0,1-8.46-1.74l.6-5.34.6-.6a11,11,0,0,0,7.44,2.88c2.7,0,5-.84,5-3.42,0-5-13.62-3.78-13.62-13.5,0-5.88,5.88-8.28,10-8.28a18.45,18.45,0,0,1,7.86,1.74v5.64l-.6.6c-2.82-2.7-5.34-3.18-7.08-3.18-2.22,0-4.44.9-4.44,3.24,0,5.28,13.62,4,13.62,13.2C1164.6,208,1159.14,210.84,1153.74,210.84Zm34.08-24.6-.6.6h-6.72v12.6c0,5.16.84,6,3.3,6a6.38,6.38,0,0,0,2.82-.54l.6.6v4.74a9.92,9.92,0,0,1-4,.6c-7.62,0-8.4-5.46-8.4-10.8v-13.2H1170l10.5-12v6.6h6.72l.6.6Zm15.6,23.4-.6.6h-4.5l-.6-.6v-22.8H1195l-.6-.6V182l.6-.6h7.8l.6.6ZM1204.5,170l-3.78,3.78h-1L1196,170v-1l3.78-3.78h1l3.78,3.78Zm20.82,40.26a9.92,9.92,0,0,1-4,.6c-7.62,0-8.4-5.46-8.4-10.8v-36.9l5.7-.9v37.2c0,5.16.84,6,3.3,6a6.38,6.38,0,0,0,2.82-.54l.6.6Zm14.1-.6-.6.6h-4.5l-.6-.6v-22.8H1231l-.6-.6V182l.6-.6h7.8l.6.6ZM1240.5,170l-3.78,3.78h-1L1232,170v-1l3.78-3.78h1l3.78,3.78Zm33.18,39.66-.6.6h-4.5l-.6-.6,3.12-6c-2.64,3.66-6.84,7.2-12.9,7.2-7.74,0-9.9-4-9.9-11.4V182l.6-.6h4.5l.6.6v17.4c0,4,.84,6,4.8,6,4.5,0,7-2.28,9.18-4.8V182l.6-.6h4.5l.6.6Zm16,1.2a21.16,21.16,0,0,1-8.46-1.74l.6-5.34.6-.6a11,11,0,0,0,7.44,2.88c2.7,0,5-.84,5-3.42,0-5-13.62-3.78-13.62-13.5,0-5.88,5.88-8.28,10-8.28a18.45,18.45,0,0,1,7.86,1.74v5.64l-.6.6c-2.82-2.7-5.34-3.18-7.08-3.18-2.22,0-4.44.9-4.44,3.24,0,5.28,13.62,4,13.62,13.2C1300.5,208,1295,210.84,1289.64,210.84Z"/><path d="M0,600V850H1920V600ZM1116.92,705.64a1.84,1.84,0,0,1,1.79,1.75,1.86,1.86,0,0,1-1.79,1.86,1.84,1.84,0,0,1-1.82-1.86A1.81,1.81,0,0,1,1116.92,705.64ZM618.5,725.82l-9.74-9.74,9.74-9.81,9.82,9.81Zm45.92,3.53-8.09-10.26h-5.05v10.26H648.5V702.22h8.89c5.17,0,8.67,3.38,8.67,8.43a7.91,7.91,0,0,1-6.23,8.17l8.28,10.53Zm22.92.07h-2.55v-2.73a8.14,8.14,0,0,1-6.31,3.08,8.82,8.82,0,0,1-8.66-8.74,8.71,8.71,0,0,1,8.66-8.67,8.17,8.17,0,0,1,6.31,3v-2.74h2.55Zm20.17-.07H705v-9.54c0-3.3-1.52-4.94-4.29-4.94-3.39-.07-5.48,1.83-5.48,5.59v8.89h-2.54V712.63h2.54v2a7.24,7.24,0,0,1,5.48-2.28c4.78,0,6.83,2.13,6.83,7.45Zm16.38,0-7.44-8.59-1.64,1.6v7h-2.54V702.22h2.54v16.15h.57l6.23-6.08h3.57l-6.87,6.65,9,10.41Zm23.22,5.17c-2.55,1.32-8.36.6-4.71-5.17h-.5v-2a7.16,7.16,0,0,1-5.47,2.28c-4.78,0-6.84-2.12-6.84-7.44v-9.54h2.55v9.54c0,3.3,1.52,4.94,4.29,4.94,3.38,0,5.47-1.9,5.47-5.59v-8.89h2.55v16.72h-.3c-2.7,3.95.79,3.95,3,2.85Zm30.44-5.17H775v-2.66a8.14,8.14,0,0,1-6.31,3.08A8.83,8.83,0,0,1,760,721a8.72,8.72,0,0,1,8.66-8.67,8.17,8.17,0,0,1,6.31,3V702.22h2.55Zm21.32.07h-2.55v-2.73a8.14,8.14,0,0,1-6.31,3.08,8.82,8.82,0,0,1-8.66-8.74,8.71,8.71,0,0,1,8.66-8.67,8.17,8.17,0,0,1,6.31,3v-2.74h2.55Zm13.52-14.55c-3,0-5.66,1.83-5.66,5.24v9.24h-2.54V712.63h2.54v2.28a7.44,7.44,0,0,1,5.66-2.55Zm12.28,14.9a8.14,8.14,0,0,1-6.31-3.08v2.66h-2.54V702.22h2.54v13.15a8.17,8.17,0,0,1,6.31-3,8.71,8.71,0,0,1,8.66,8.67A8.82,8.82,0,0,1,824.67,729.77Zm20,0A8.83,8.83,0,0,1,836,721a8.67,8.67,0,1,1,17.33,0A8.82,8.82,0,0,1,844.66,729.77Zm49-.42h-2.54v-9.54c0-3.3-1.26-4.94-3.72-4.94-3.08,0-5,1.71-5,5.78v8.7H879.8v-9.54c0-3.3-1.25-4.94-3.72-4.94-3.08,0-5,1.71-5,5.78v8.7h-2.55V712.63h2.55v2a6.34,6.34,0,0,1,5-2.28c2.93,0,4.75.95,5.62,3.23a6.27,6.27,0,0,1,5.67-3.23c4.33,0,6.26,2.13,6.26,7.45Zm12.47.42a8.82,8.82,0,0,1-8.66-8.74,8.66,8.66,0,1,1,17.32,0A8.82,8.82,0,0,1,906.1,729.77ZM926.05,715h-3.76v14.4h-2.55V715h-2.51v-2.32h2.51v-6.57h2.55v6.57h3.76Zm11.4,12.54L932.7,737h-3l4.75-9.5L927,712.63h3l5.89,11.82,5.93-11.82h3Zm17.29,1.86H952l-6.88-16.72h2.77L953.37,726l5.47-13.34h2.78Zm26,.07h-2.54v-2.73a8.15,8.15,0,0,1-6.31,3.08,8.82,8.82,0,0,1-8.66-8.74,8.71,8.71,0,0,1,8.66-8.67,8.18,8.18,0,0,1,6.31,3v-2.74h2.54Zm8.14-.07h-2.66V712.63h2.66Zm-1.37-20.1a1.79,1.79,0,1,1,1.78-1.82A1.8,1.8,0,0,1,987.46,709.25Zm8.81,19.6-1.82,3.46h-1.22l.73-2.89a2.08,2.08,0,0,1-1.49-2,2.11,2.11,0,0,1,4.22,0A3.21,3.21,0,0,1,996.27,728.85Zm33.36-1c0,6.57-3.91,9.5-8.66,9.5a8.65,8.65,0,0,1-8.17-5.78h2.89a6,6,0,0,0,5.28,3.27c3.38,0,6-1.79,6-7v-1.1a8.26,8.26,0,0,1-6.24,2.88,8.71,8.71,0,0,1-8.66-8.66,8.83,8.83,0,0,1,8.66-8.74,8.18,8.18,0,0,1,6.24,3v-2.55h2.65Zm13.12-.34L1038,737h-3l4.74-9.5-7.41-14.82h3l5.89,11.82,5.92-11.82h3Zm17.29,1.86h-2.78l-6.88-16.72h2.78l5.51,13.34,5.47-13.34h2.77Zm17.74-1.86L1073,737h-3l4.75-9.5-7.41-14.82h3l5.89,11.82,5.93-11.82h3Zm18.93,2.28a8.14,8.14,0,0,1-6.31-3.08v2.66h-2.55V702.22h2.55v13.15a8.17,8.17,0,0,1,6.31-3,8.72,8.72,0,0,1,8.66,8.67A8.83,8.83,0,0,1,1096.71,729.77Zm28.65-7.57H1110.8a6.14,6.14,0,0,0,5.89,5.06,5.86,5.86,0,0,0,4.64-2.32h3.15a8.66,8.66,0,0,1-7.79,4.83A8.82,8.82,0,0,1,1108,721a8.67,8.67,0,1,1,17.33,0Zm18.2,7.15h-2.66V712.63h2.66Zm-1.37-20.1a1.79,1.79,0,1,1,0-3.57,1.79,1.79,0,1,1,0,3.57Zm14.93,5.62c-3,0-5.66,1.83-5.66,5.24v9.24h-2.54V712.63h2.54v2.28a7.44,7.44,0,0,1,5.66-2.55Zm22.16,14.9a8.83,8.83,0,0,1-8.67-8.74,8.67,8.67,0,1,1,17.33,0A8.82,8.82,0,0,1,1179.28,729.77Zm20.86-14.9c-3,0-5.66,1.83-5.66,5.24v9.24h-2.55V712.63h2.55v2.28a7.41,7.41,0,0,1,5.66-2.55Zm19.83,13c0,6.57-3.91,9.5-8.66,9.5a8.65,8.65,0,0,1-8.17-5.78H1206a6,6,0,0,0,5.28,3.27c3.38,0,6-1.79,6-7v-1.1a8.24,8.24,0,0,1-6.23,2.88,8.7,8.7,0,0,1-8.66-8.66,8.82,8.82,0,0,1,8.66-8.74,8.16,8.16,0,0,1,6.23,3v-2.55H1220Zm21.32,1.59h-2.54v-2.73a8.15,8.15,0,0,1-6.31,3.08,8.82,8.82,0,0,1-8.66-8.74,8.71,8.71,0,0,1,8.66-8.67,8.18,8.18,0,0,1,6.31,3v-2.74h2.54Zm20.18-.07h-2.55v-9.54c0-3.3-1.52-4.94-4.29-4.94-3.38-.07-5.47,1.83-5.47,5.59v8.89h-2.55V712.63h2.55v2a7.22,7.22,0,0,1,5.47-2.28c4.79,0,6.84,2.13,6.84,7.45Zm7.75,0h-2.66V712.63h2.66Zm-1.37-20.1a1.79,1.79,0,1,1,0-3.57,1.79,1.79,0,1,1,0,3.57Zm18.17,20.1-7.45-8.59-1.63,1.6v7h-2.55V702.22h2.55v16.15h.57l6.23-6.08h3.57l-6.88,6.65,9,10.41Zm21.5.07H1305v-2.73a8.14,8.14,0,0,1-6.31,3.08A8.82,8.82,0,0,1,1290,721a8.71,8.71,0,0,1,8.66-8.67,8.17,8.17,0,0,1,6.31,3v-2.74h2.54Zm5.74.12a2.11,2.11,0,1,1,2.09-2.13A2.12,2.12,0,0,1,1313.26,729.54Z"/><path d="M0-1080.67V1.33H1920v-1082ZM1492.17-578.18a1.82,1.82,0,0,1,1.78,1.75,1.81,1.81,0,0,1-1.78,1.82,1.8,1.8,0,0,1-1.83-1.82A1.81,1.81,0,0,1,1492.17-578.18Zm1.36,6.95v16.72h-2.66v-16.72Zm-21.46-125h2.54v9.54c0,3.3,1.52,4.94,4.3,4.94,3.38,0,5.47-1.9,5.47-5.59v-8.89h2.54v16.72h-2.54v-2a7.22,7.22,0,0,1-5.47,2.27c-4.79,0-6.84-2.12-6.84-7.44ZM1461.84-687c-4-.79-5.77-2.24-5.77-4.9s2-4.59,5.77-4.59c3.31,0,5.51,1.82,5.78,4.36h-2.32c-.23-1.14-1.48-2-3.46-2s-3.42,1-3.42,2.2,1.11,2,3.84,2.51c4.29.87,6,2.36,6,5.13,0,2.93-2.24,5-6.42,5-3.76,0-6.27-2.08-6.42-5h2.32c.23,1.4,1.94,2.62,4.1,2.62,2.47,0,4.11-1.1,4.11-2.62S1464.88-686.39,1461.84-687Zm-23.9,7.49v-16.72h2.66v16.72c-2.7,4,.8,4,3,2.85v2.32c-2.55,1.33-8.36.6-4.72-5.17Zm1.37-24.28a1.84,1.84,0,0,1,1.79,1.75,1.86,1.86,0,0,1-1.79,1.86,1.83,1.83,0,0,1-1.82-1.86A1.81,1.81,0,0,1,1439.31-703.79ZM1425.17-707l3,3.34,3-3.34,1.52,1.06-4,5.1h-1.1l-4-5.1Zm2.93,20c-4-.79-5.77-2.24-5.77-4.9s2-4.59,5.77-4.59c3.31,0,5.51,1.82,5.78,4.36h-2.32c-.23-1.14-1.48-2-3.46-2s-3.42,1-3.42,2.2,1.1,2,3.84,2.51c4.29.87,6,2.36,6,5.13,0,2.93-2.24,5-6.42,5-3.76,0-6.27-2.08-6.42-5H1424c.22,1.4,1.93,2.62,4.1,2.62,2.47,0,4.1-1.1,4.1-2.62S1431.14-686.39,1428.1-687Zm4.33,112.39a1.8,1.8,0,0,1-1.82-1.82,1.8,1.8,0,0,1,1.82-1.75,1.82,1.82,0,0,1,1.78,1.75A1.81,1.81,0,0,1,1432.43-574.61Zm1.37,3.38v16.72h-2.66v-16.72Zm-6.92-5.2a1.81,1.81,0,0,1-1.78,1.82,1.8,1.8,0,0,1-1.83-1.82,1.81,1.81,0,0,1,1.83-1.75A1.82,1.82,0,0,1,1426.88-576.43Zm-21.54-119.8,5.89,11.82,5.93-11.82h3l-7.41,14.86-4.75,9.46h-3l4.75-9.5-7.41-14.82Zm10.41,121.62a1.8,1.8,0,0,1-1.83-1.82,1.81,1.81,0,0,1,1.83-1.75,1.82,1.82,0,0,1,1.78,1.75A1.81,1.81,0,0,1,1415.75-574.61Zm1.37,3.38v16.72h-2.66v-16.72Zm-24-125h2.55v2.28a7.4,7.4,0,0,1,5.66-2.54v2.5c-3,0-5.66,1.83-5.66,5.25v9.23h-2.55Zm-25.57-.26a8.15,8.15,0,0,1,6.3,3v-2.74h2.55v16.79h-.84c-2.62,3.88.84,3.88,3,2.78v2.32c-2.54,1.33-8.35.6-4.71-5.17v-2.66a8.13,8.13,0,0,1-6.3,3.08,8.83,8.83,0,0,1-8.67-8.74A8.71,8.71,0,0,1,1367.57-696.49Zm21.58,119.18v2.24h-15v-2.24Zm-60-129.71,3,3.34,3-3.34,1.52,1.06-4,5.1h-1.1l-3.95-5.1Zm2.92,20c-4-.79-5.77-2.24-5.77-4.9s2-4.59,5.77-4.59c3.31,0,5.51,1.82,5.78,4.36h-2.32c-.23-1.14-1.48-2-3.46-2s-3.42,1-3.42,2.2,1.11,2,3.84,2.51c4.3.87,6,2.36,6,5.13,0,2.93-2.25,5-6.43,5-3.76,0-6.27-2.08-6.42-5H1328c.23,1.4,1.94,2.62,4.1,2.62,2.47,0,4.11-1.1,4.11-2.62S1335.15-686.39,1332.11-687Zm-4.82,108.21a1.83,1.83,0,0,1,1.78,1.75,1.85,1.85,0,0,1-1.78,1.86,1.84,1.84,0,0,1-1.83-1.86A1.82,1.82,0,0,1,1327.29-578.79ZM1277.7-696.23h2.55v2a6.33,6.33,0,0,1,5-2.27c2.93,0,4.75,1,5.62,3.22a6.26,6.26,0,0,1,5.66-3.22c4.34,0,6.27,2.12,6.27,7.44v9.54h-2.54V-689c0-3.3-1.26-4.94-3.73-4.94-3.07,0-5,1.71-5,5.78v8.7H1289V-689c0-3.3-1.25-4.94-3.72-4.94-3.08,0-5,1.71-5,5.78v8.7h-2.55Zm11,121.62a1.8,1.8,0,0,1-1.82-1.82,1.81,1.81,0,0,1,1.82-1.75,1.83,1.83,0,0,1,1.79,1.75A1.82,1.82,0,0,1,1288.75-574.61Zm1.37,3.38v16.72h-2.66v-16.72Zm-7.75,7.18v9.54h-2.55V-564c0-3.3-1.52-4.94-4.29-4.94-3.38-.07-5.47,1.83-5.47,5.59v8.89h-2.55v-16.72h2.55v2a7.21,7.21,0,0,1,5.47-2.27C1280.32-571.49,1282.37-569.37,1282.37-564ZM1241.1-836.1c0-5.88,5.88-8.28,10-8.28a18.45,18.45,0,0,1,7.86,1.74V-837l-.6.6c-2.82-2.7-5.34-3.18-7.08-3.18-2.22,0-4.44.9-4.44,3.24,0,5.28,13.62,4,13.62,13.2,0,5.94-5.46,8.76-10.86,8.76a21.16,21.16,0,0,1-8.46-1.74l.6-5.34.6-.6a11,11,0,0,0,7.44,2.88c2.7,0,5-.84,5-3.42C1254.72-827.58,1241.1-826.38,1241.1-836.1Zm1.26,139.45a8.16,8.16,0,0,1,6.23,3v-2.55h2.66V-681c0,6.57-3.91,9.5-8.66,9.5a8.65,8.65,0,0,1-8.17-5.78h2.88a6,6,0,0,0,5.29,3.27c3.38,0,6-1.79,6-7v-1.1a8.24,8.24,0,0,1-6.23,2.88,8.7,8.7,0,0,1-8.66-8.66A8.82,8.82,0,0,1,1242.36-696.65Zm-19.76,2.74v-2.32h2.51v-6.57h2.54v6.57h3.76v2.32h-3.76v14.4h-2.54v-14.4ZM1228.3-582l3,3.34,3-3.34,1.52,1.06-4,5.1h-1.1l-4-5.1Zm-6.52-257.26a17.88,17.88,0,0,0-9.12,2.4l-.6-.6,1.2-5.16a28.52,28.52,0,0,1,9.72-1.74c7.44,0,9.9,3.24,9.9,7.38v14.82a5.82,5.82,0,0,0,3.12,3.3l-1.2,4.5a10.23,10.23,0,0,1-6.54-3.9,10.88,10.88,0,0,1-8.34,3.9c-3.24,0-8.22-1.44-8.22-7.56,0-5.94,6.42-8.58,15.48-9.48v-6.78A11.42,11.42,0,0,0,1221.78-839.28Zm-2.57,264.67a1.8,1.8,0,0,1-1.82-1.82,1.81,1.81,0,0,1,1.82-1.75,1.82,1.82,0,0,1,1.79,1.75A1.81,1.81,0,0,1,1219.21-574.61Zm1.37,3.38v16.72h-2.66v-16.72Zm-8.24-125.26c4.79,0,6.84,2.12,6.84,7.44v9.54h-2.55V-689c0-3.3-1.52-4.94-4.29-4.94-3.38-.07-5.47,1.83-5.47,5.59v8.89h-2.55v-16.72h2.55v2A7.21,7.21,0,0,1,1212.34-696.49Zm-13.66-153.89v6.6h6.72l.6.6v4.2l-.6.6h-6.72v12.6c0,5.16.84,6,3.3,6a6.38,6.38,0,0,0,2.82-.54l.6.6V-815a9.92,9.92,0,0,1-4,.6c-7.62,0-8.4-5.46-8.4-10.8v-13.2h-4.8Zm-8.53,153.89a8.15,8.15,0,0,1,6.3,3v-2.74H1199v16.79h-2.55v-2.73a8.13,8.13,0,0,1-6.3,3.08,8.83,8.83,0,0,1-8.67-8.74A8.71,8.71,0,0,1,1190.15-696.49ZM1155-843.18l.6-.6h4.5l.6.6v1.56a13.47,13.47,0,0,1,8.28-2.76c8.64,0,14.7,6.36,14.7,15s-6.06,15-14.7,15a13.75,13.75,0,0,1-11.4-6l3.12,6v15l-5.7-.9Zm1.71,158.92c.23,1.4,1.94,2.62,4.1,2.62,2.47,0,4.11-1.1,4.11-2.62s-1.07-2.13-4.11-2.74c-4-.79-5.77-2.24-5.77-4.9s2-4.59,5.77-4.59c3.31,0,5.51,1.82,5.78,4.36h-2.32c-.23-1.14-1.48-2-3.46-2s-3.42,1-3.42,2.2,1.1,2,3.84,2.51c4.29.87,6,2.36,6,5.13,0,2.93-2.24,5-6.42,5-3.76,0-6.27-2.08-6.42-5Zm-.31,109.65a1.8,1.8,0,0,1-1.82-1.82,1.81,1.81,0,0,1,1.82-1.75,1.83,1.83,0,0,1,1.79,1.75A1.82,1.82,0,0,1,1156.4-574.61Zm1.37,3.38v16.72h-2.66v-16.72ZM1136.1-844.38c5.4,0,12,2.7,12,12.12a19.69,19.69,0,0,1-.24,3.12l-.66.6h-19c.36,4.8,4,8.76,8.82,8.76a15.37,15.37,0,0,0,8.46-2.4l.6.6v5.46a23.63,23.63,0,0,1-9.06,1.74c-8.64,0-14.7-6.36-14.7-15S1128.06-844.38,1136.1-844.38Zm-7.28,144.77a1.8,1.8,0,0,1-1.83-1.82,1.81,1.81,0,0,1,1.83-1.75,1.82,1.82,0,0,1,1.78,1.75A1.81,1.81,0,0,1,1128.82-699.61Zm1.36,3.38v16.72h-2.65v-16.72ZM1119.77-706l-4,5.1h-1.1l-4-5.1,1.52-1.06,3,3.34,3-3.34Zm-11-138.42a19.46,19.46,0,0,1,7.86,1.74v5.46l-.6.6a12.07,12.07,0,0,0-7.26-2.4c-5.16,0-9,4.44-9,9.6s3.84,9.6,9,9.6a12.07,12.07,0,0,0,7.26-2.4l.6.6v5.46a19.46,19.46,0,0,1-7.86,1.74,14.57,14.57,0,0,1-15-15A14.57,14.57,0,0,1,1108.74-844.38Zm-47,1.2.6-.6h4.5l.6.6-3.12,6a17,17,0,0,1,13.5-7.2c7.74,0,9.9,4,9.9,11.4v17.4l-.6.6h-4.5l-.6-.6V-833c0-4-.84-6-4.8-6a12.58,12.58,0,0,0-9.78,4.8v18.6l-.6.6h-4.5l-.6-.6Zm19.6,143.57a1.8,1.8,0,0,1-1.83-1.82,1.81,1.81,0,0,1,1.83-1.75,1.82,1.82,0,0,1,1.78,1.75A1.81,1.81,0,0,1,1081.36-699.61Zm1.36,3.38v16.72h-2.66v-16.72Zm-6.23-.26v2.5c-3,0-5.66,1.83-5.66,5.25v9.23h-2.55v-16.72h2.55v2.28A7.41,7.41,0,0,1,1076.49-696.49Zm-16.07,9.15v-8.89H1063v16.72h-2.54v-2a7.22,7.22,0,0,1-5.47,2.27c-4.79,0-6.84-2.12-6.84-7.44v-9.54h2.54v9.54c0,3.3,1.52,4.94,4.3,4.94C1058.33-681.75,1060.42-683.65,1060.42-687.34Zm-20.26-157a14.57,14.57,0,0,1,15,15,14.57,14.57,0,0,1-15,15,14.57,14.57,0,0,1-15-15A14.57,14.57,0,0,1,1040.16-844.38Zm-45.72-17.7,5.7-.9v47.4l-.6.6H995l-.6-.6Zm-4,158.86a1.84,1.84,0,0,1,1.79,1.75,1.86,1.86,0,0,1-1.79,1.86,1.84,1.84,0,0,1-1.82-1.86A1.81,1.81,0,0,1,990.42-703.22Zm-.22,6.73a8.71,8.71,0,0,1,8.66,8.66v1.18H984.31a6.13,6.13,0,0,0,5.89,5,5.84,5.84,0,0,0,4.63-2.32H998a8.64,8.64,0,0,1-7.78,4.83,8.83,8.83,0,0,1-8.67-8.74A8.71,8.71,0,0,1,990.2-696.49ZM970-574.61a1.8,1.8,0,0,1-1.82-1.82,1.8,1.8,0,0,1,1.82-1.75,1.82,1.82,0,0,1,1.78,1.75A1.81,1.81,0,0,1,970-574.61Zm1.37,3.38v16.72h-2.66v-16.72Zm-1.14-107.86a8.14,8.14,0,0,1-6.31-3.08v2.66h-2.55v-27.13h2.55v13.15a8.16,8.16,0,0,1,6.31-3,8.7,8.7,0,0,1,8.66,8.66A8.82,8.82,0,0,1,970.21-679.09ZM965.7-851.88l7.44-11.1,3.6,1.92v.84L971-848.82h-.78L965.7-851Zm-12,0,7.44-11.1,3.6,1.92v.84L959-848.82h-.78L953.7-851Zm2,155.65h3l-7.41,14.86-4.75,9.46h-3l4.75-9.5-7.41-14.82h3l5.89,11.82ZM905.94-843.18l.6-.6H911l.6.6-3.12,6c2.64-3.66,7.44-7.2,12.3-7.2,4.56,0,7.08,1.62,8.34,4.74,2.7-2.64,6.42-4.74,10.14-4.74,7.14,0,9.3,4,9.3,11.4v17.4l-.6.6h-4.5l-.6-.6V-833c0-4-.84-6-4.2-6s-6.42,2.28-8.58,4.8v18.6l-.6.6H925l-.6-.6V-833c0-4-.84-6-4.2-6s-6.42,2.28-8.58,4.8v18.6l-.6.6h-4.5l-.6-.6Zm25.13,149.27v-2.32h2.51v-6.57h2.54v6.57h3.76v2.32h-3.76v14.4h-2.54v-14.4Zm-3.84-8.4v2.24h-15v-2.24ZM884.34-844.38a14.57,14.57,0,0,1,15,15,14.57,14.57,0,0,1-15,15,14.57,14.57,0,0,1-15-15A14.57,14.57,0,0,1,884.34-844.38ZM867.42-692.13H865.1c-.23-1.14-1.48-2-3.46-2s-3.42,1-3.42,2.2,1.11,2,3.84,2.51c4.29.87,6,2.36,6,5.13,0,2.93-2.24,5-6.42,5-3.76,0-6.27-2.08-6.42-5h2.32c.23,1.4,1.94,2.62,4.1,2.62,2.47,0,4.11-1.1,4.11-2.62s-1.07-2.13-4.11-2.74c-4-.79-5.77-2.24-5.77-4.9s2-4.59,5.77-4.59C865-696.49,867.15-694.67,867.42-692.13ZM826.56-859.38l.6-.6h14.46c12,0,22.32,8.7,22.32,22.5S853.62-815,841.62-815H827.16l-.6-.6Zm-6.83,163.15,5.51,13.34,5.47-13.34h2.77l-6.87,16.72h-2.78L817-696.23Zm7.45,119.8a1.82,1.82,0,0,1-1.79,1.82,1.8,1.8,0,0,1-1.82-1.82,1.81,1.81,0,0,1,1.82-1.75A1.83,1.83,0,0,1,827.18-576.43Zm-8.4,13.6v1.18H804.23a6.13,6.13,0,0,0,5.89,5,5.84,5.84,0,0,0,4.63-2.32h3.15a8.64,8.64,0,0,1-7.78,4.83,8.83,8.83,0,0,1-8.67-8.74,8.71,8.71,0,0,1,8.67-8.66A8.71,8.71,0,0,1,818.78-562.83Zm-21-116.26a8.83,8.83,0,0,1-8.67-8.74,8.71,8.71,0,0,1,8.67-8.66,8.17,8.17,0,0,1,6.31,3v-2.74h2.54v16.79H804v-2.73A8.15,8.15,0,0,1,797.73-679.09Zm14-27.55h2.55v27.13h-2.55Zm-1.37,128.42a1.84,1.84,0,0,1,1.79,1.75,1.86,1.86,0,0,1-1.79,1.86,1.84,1.84,0,0,1-1.82-1.86A1.81,1.81,0,0,1,810.34-578.22Zm-45.64-265,.6-.6h4.5l.6.6-3.12,6c2.64-3.66,7.44-7.2,12.3-7.2,4.56,0,7.08,1.62,8.34,4.74,2.7-2.64,6.42-4.74,10.14-4.74,7.14,0,9.3,4,9.3,11.4v17.4l-.6.6h-4.5l-.6-.6V-833c0-4-.84-6-4.2-6s-6.42,2.28-8.58,4.8v18.6l-.6.6h-4.5l-.6-.6V-833c0-4-.84-6-4.2-6s-6.42,2.28-8.58,4.8v18.6l-.6.6h-4.5l-.6-.6Zm-21.6-1.2a14.57,14.57,0,0,1,15,15,14.57,14.57,0,0,1-15,15,14.57,14.57,0,0,1-15-15A14.57,14.57,0,0,1,743.1-844.38ZM723.29-701.47a1.86,1.86,0,0,1-1.79,1.86,1.84,1.84,0,0,1-1.82-1.86,1.81,1.81,0,0,1,1.82-1.75A1.84,1.84,0,0,1,723.29-701.47Zm-38-157.91.6-.6h14.46c12,0,22.32,8.7,22.32,22.5S712.38-815,700.38-815H685.92l-.6-.6Zm23.15,305.29a8.83,8.83,0,0,1-8.67-8.74,8.71,8.71,0,0,1,8.67-8.66,8.15,8.15,0,0,1,6.3,3v-2.74h2.55v16.79h-2.55v-2.73A8.13,8.13,0,0,1,708.47-554.09Zm-.61-125.42-7.45-8.59-1.63,1.6v7h-2.55v-27.13h2.55v16.15h.57l6.23-6.08h3.57l-6.88,6.65,9,10.41ZM694-574.61a1.8,1.8,0,0,1-1.83-1.82,1.81,1.81,0,0,1,1.83-1.75,1.82,1.82,0,0,1,1.78,1.75A1.81,1.81,0,0,1,694-574.61Zm1.37,3.38v16.72h-2.66v-16.72ZM683.08-681.75c3.39,0,5.48-1.9,5.48-5.59v-8.89h2.54v16.72h-2.54v-2a7.23,7.23,0,0,1-5.48,2.27c-4.78,0-6.83-2.12-6.83-7.44v-9.54h2.54v9.54C678.79-683.39,680.31-681.75,683.08-681.75ZM668-810.3l5.76-11.4h.78l4.5,2.22v.84l-7.44,11.1-3.6-1.92Zm-12,0,5.76-11.4h.78l4.5,2.22v.84l-7.44,11.1-3.6-1.92Zm6.66,113.81a8.16,8.16,0,0,1,6.31,3v-2.74h2.54v16.79H669v-2.73a8.14,8.14,0,0,1-6.31,3.08,8.82,8.82,0,0,1-8.66-8.74A8.7,8.7,0,0,1,662.64-696.49Zm-24.28-10.15h2.54v16.15h.57l6.24-6.08h3.57l-6.88,6.65,9,10.41H650l-7.44-8.59-1.64,1.6v7h-2.54Zm2.54,125.19,3,3.34,3-3.34,1.52,1.06-3.95,5.1h-1.1l-4-5.1Zm-.58-50a2.12,2.12,0,0,1,2.13-2.09,2.11,2.11,0,0,1,2.09,2.09,2.12,2.12,0,0,1-2.09,2.13A2.13,2.13,0,0,1,640.32-631.45Zm-2.57,74.51,9.39-11.86h-9.39v-2.43h12.58v2.43l-9.39,11.86h9.62v2.43H637.75Zm-3.58-86.55v-2.74h2.54v16.79h-2.54v-2.73a8.15,8.15,0,0,1-6.31,3.08,8.83,8.83,0,0,1-8.67-8.74,8.71,8.71,0,0,1,8.67-8.66A8.17,8.17,0,0,1,634.17-643.49Zm-14.24-40a2.11,2.11,0,0,1,2.09,2.09,3.21,3.21,0,0,1-.42,1.44l-1.82,3.46h-1.22l.72-2.89a2.08,2.08,0,0,1-1.48-2A2.12,2.12,0,0,1,619.93-683.54Zm-7.14-19.64a1.82,1.82,0,0,1,1.78,1.75,1.81,1.81,0,0,1-1.78,1.82,1.8,1.8,0,0,1-1.83-1.82A1.81,1.81,0,0,1,612.79-703.18Zm1.36,6.95v16.72h-2.66v-16.72Zm-5.86,50h2.51v-6.57h2.54v6.57h3.76v2.32h-3.76v14.4H610.8v-14.4h-2.51Zm-11.12-50.26a8.15,8.15,0,0,1,6.3,3v-2.74H606v16.79h-2.55v-2.73a8.13,8.13,0,0,1-6.3,3.08,8.83,8.83,0,0,1-8.67-8.74A8.71,8.71,0,0,1,597.17-696.49Zm9,207.1c4.29.87,6,2.36,6,5.13,0,2.93-2.24,5-6.42,5-3.76,0-6.27-2.08-6.42-5h2.32c.23,1.4,1.94,2.62,4.1,2.62,2.47,0,4.11-1.1,4.11-2.62s-1.07-2.13-4.11-2.74c-4-.79-5.77-2.24-5.77-4.9s2-4.59,5.77-4.59c3.31,0,5.51,1.82,5.78,4.36h-2.32c-.23-1.14-1.48-2-3.46-2s-3.42,1-3.42,2.2S603.48-489.92,606.21-489.39Zm-10.58-157.1a8.16,8.16,0,0,1,6.31,3v-2.74h2.55v16.79h-2.55v-2.73a8.14,8.14,0,0,1-6.31,3.08,8.82,8.82,0,0,1-8.66-8.74A8.7,8.7,0,0,1,595.63-646.49ZM587.86-481.6a5.84,5.84,0,0,0,4.63-2.32h3.16a8.67,8.67,0,0,1-7.79,4.83,8.83,8.83,0,0,1-8.67-8.74,8.71,8.71,0,0,1,8.67-8.66,8.7,8.7,0,0,1,8.66,8.66v1.18H582A6.13,6.13,0,0,0,587.86-481.6Zm-25-75.15c3.38,0,5.47-1.9,5.47-5.59v-8.89h2.55v16.72h-2.55v-2a7.21,7.21,0,0,1-5.47,2.27c-4.78,0-6.84-2.12-6.84-7.44v-9.54h2.55v9.54C558.6-558.39,560.12-556.75,562.89-556.75Zm-2.58-122.76v-16.72H563v16.72Zm4.09,50v-16.72h2.66v16.72ZM559-506.64h2.54v13.15a8.16,8.16,0,0,1,6.31-3,8.7,8.7,0,0,1,8.66,8.66,8.82,8.82,0,0,1-8.66,8.74,8.14,8.14,0,0,1-6.31-3.08v2.66H559ZM577.7-637c-4-.79-5.78-2.24-5.78-4.9s2-4.59,5.78-4.59c3.3,0,5.51,1.82,5.77,4.36h-2.31c-.23-1.14-1.49-2-3.46-2s-3.42,1-3.42,2.2,1.1,2,3.84,2.51c4.29.87,6,2.36,6,5.13,0,2.93-2.24,5-6.42,5-3.76,0-6.27-2.08-6.42-5h2.32c.22,1.4,1.93,2.62,4.1,2.62,2.47,0,4.1-1.1,4.1-2.62S580.74-636.39,577.7-637Zm-2.8,74.17a8.7,8.7,0,0,1,8.66-8.66,8.71,8.71,0,0,1,8.67,8.66,8.83,8.83,0,0,1-8.67,8.74A8.82,8.82,0,0,1,574.9-562.83Zm15,61.36a1.85,1.85,0,0,1-1.78,1.86,1.84,1.84,0,0,1-1.83-1.86,1.82,1.82,0,0,1,1.83-1.75A1.83,1.83,0,0,1,589.87-501.47Zm-14-195a8.17,8.17,0,0,1,6.31,3v-13.15h2.54v27.13h-2.54v-2.66a8.15,8.15,0,0,1-6.31,3.08,8.82,8.82,0,0,1-8.66-8.74A8.7,8.7,0,0,1,575.85-696.49Zm-10.16,43.31a1.83,1.83,0,0,1,1.79,1.75,1.82,1.82,0,0,1-1.79,1.82,1.8,1.8,0,0,1-1.82-1.82A1.81,1.81,0,0,1,565.69-653.18Zm-4.09-50a1.83,1.83,0,0,1,1.79,1.75,1.82,1.82,0,0,1-1.79,1.82,1.8,1.8,0,0,1-1.82-1.82A1.8,1.8,0,0,1,561.6-703.18Zm-.24,56.95-6.88,16.72h-2.77l-6.88-16.72h2.77l5.51,13.34,5.47-13.34ZM547.5-696.49a8.7,8.7,0,0,1,8.66,8.66v1.18H541.61a6.14,6.14,0,0,0,5.89,5,5.86,5.86,0,0,0,4.64-2.32h3.15a8.67,8.67,0,0,1-7.79,4.83,8.82,8.82,0,0,1-8.66-8.74A8.7,8.7,0,0,1,547.5-696.49Zm-8.13,128.22a6.25,6.25,0,0,1,5.66-3.22c4.33,0,6.27,2.12,6.27,7.44v9.54h-2.55V-564c0-3.3-1.25-4.94-3.72-4.94-3.08,0-5,1.71-5,5.78v8.7h-2.55V-564c0-3.3-1.25-4.94-3.72-4.94-3.08,0-5,1.71-5,5.78v8.7h-2.54v-16.72h2.54v2a6.37,6.37,0,0,1,5-2.27C536.67-571.49,538.5-570.54,539.37-568.27Zm-10.23-81.34a1.8,1.8,0,0,1-1.83-1.82,1.81,1.81,0,0,1,1.83-1.75,1.82,1.82,0,0,1,1.78,1.75A1.81,1.81,0,0,1,529.14-649.61Zm1.36,3.38v16.72h-2.66v-16.72Zm-7-50L529-682.89l5.48-13.34h2.77l-6.88,16.72h-2.77l-6.88-16.72ZM515-646.49a8.7,8.7,0,0,1,8.66,8.66v1.18H509.15a6.13,6.13,0,0,0,5.89,5,5.82,5.82,0,0,0,4.63-2.32h3.16a8.67,8.67,0,0,1-7.79,4.83,8.82,8.82,0,0,1-8.66-8.74A8.7,8.7,0,0,1,515-646.49Zm-2.65,92.4a8.82,8.82,0,0,1-8.66-8.74,8.7,8.7,0,0,1,8.66-8.66,8.16,8.16,0,0,1,6.31,3v-13.15h2.54v27.13H518.7v-2.66A8.14,8.14,0,0,1,512.39-554.09Zm-7.26-142.25a2.11,2.11,0,0,1,2.09,2.09,2.11,2.11,0,0,1-2.09,2.12,2.12,2.12,0,0,1-2.12-2.12A2.11,2.11,0,0,1,505.13-696.34Zm0,12.8a2.11,2.11,0,0,1,2.09,2.09,2.12,2.12,0,0,1-2.09,2.13,2.12,2.12,0,0,1-2.12-2.13A2.11,2.11,0,0,1,505.13-683.54Zm-1.42,45.71a8.82,8.82,0,0,1-8.66,8.74,8.14,8.14,0,0,1-6.31-3.08v2.66H486.2v-27.13h2.54v13.15a8.16,8.16,0,0,1,6.31-3A8.7,8.7,0,0,1,503.71-637.83Zm-5.57,63.22a1.8,1.8,0,0,1-1.82-1.82,1.81,1.81,0,0,1,1.82-1.75,1.83,1.83,0,0,1,1.79,1.75A1.82,1.82,0,0,1,498.14-574.61Zm1.37,3.38v16.72h-2.66v-16.72ZM489.44-696.49a8.17,8.17,0,0,1,6.31,3v-2.74h2.54v16.79h-2.54v-2.73a8.15,8.15,0,0,1-6.31,3.08,8.82,8.82,0,0,1-8.66-8.74A8.7,8.7,0,0,1,489.44-696.49Zm-37.58.26h2.54v2a6.37,6.37,0,0,1,5-2.27c2.92,0,4.75,1,5.62,3.22a6.26,6.26,0,0,1,5.66-3.22c4.33,0,6.27,2.12,6.27,7.44v9.54h-2.54V-689c0-3.3-1.26-4.94-3.73-4.94-3.07,0-5,1.71-5,5.78v8.7h-2.55V-689c0-3.3-1.25-4.94-3.72-4.94-3.08,0-5,1.71-5,5.78v8.7h-2.54Zm8.76,67.14a8.82,8.82,0,0,1-8.66-8.74,8.7,8.7,0,0,1,8.66-8.66,8.16,8.16,0,0,1,6.31,3v-2.74h2.55v16.79h-2.55v-2.73A8.14,8.14,0,0,1,460.62-629.09Zm-2.07,57.86,5.51,13.34,5.47-13.34h2.77l-6.88,16.72h-2.77l-6.88-16.72ZM466.94-487c-4-.79-5.77-2.24-5.77-4.9s2-4.59,5.77-4.59c3.31,0,5.51,1.82,5.78,4.36H470.4c-.23-1.14-1.48-2-3.46-2s-3.42,1-3.42,2.2,1.11,2,3.84,2.51c4.29.87,6,2.36,6,5.13,0,2.93-2.24,5-6.42,5-3.76,0-6.27-2.08-6.42-5h2.32c.23,1.4,1.94,2.62,4.1,2.62,2.47,0,4.11-1.1,4.11-2.62S470-486.39,466.94-487Zm-28-67.51v-2a7.21,7.21,0,0,1-5.47,2.27c-4.79,0-6.84-2.12-6.84-7.44v-9.54h2.54v9.54c0,3.3,1.52,4.94,4.3,4.94,3.38,0,5.47-1.9,5.47-5.59v-8.89h2.54v16.72h-.3c-2.7,4,.8,4,3,2.85v2.32c-2.54,1.33-8.36.6-4.71-5.17Zm-4,54.9a1.8,1.8,0,0,1-1.83-1.82,1.81,1.81,0,0,1,1.83-1.75,1.82,1.82,0,0,1,1.78,1.75A1.81,1.81,0,0,1,435-499.61Zm1.37,3.38v16.72h-2.66v-16.72ZM423.61-629.51V-639c0-3.3-1.25-4.94-3.72-4.94-3.08,0-5,1.71-5,5.78v8.7h-2.54v-16.72h2.54v2a6.37,6.37,0,0,1,5-2.27c2.92,0,4.75,1,5.62,3.22a6.25,6.25,0,0,1,5.66-3.22c4.33,0,6.27,2.12,6.27,7.44v9.54H434.9V-639c0-3.3-1.26-4.94-3.73-4.94-3.08,0-5,1.71-5,5.78v8.7Zm2,113.71-3.95,5.1h-1.11l-3.95-5.1,1.52-1.06,3,3.34,3-3.34Zm17.92-113.71v-14.4h-2.51v-2.32h2.51v-6.57h2.55v6.57h3.76v2.32h-3.76v14.4Zm-4.17-67a8.71,8.71,0,0,1,8.67,8.66v1.18H433.5a6.14,6.14,0,0,0,5.89,5,5.84,5.84,0,0,0,4.64-2.32h3.15a8.65,8.65,0,0,1-7.79,4.83,8.82,8.82,0,0,1-8.66-8.74A8.7,8.7,0,0,1,439.39-696.49Zm-28.08-10.15h21.13V-704h-9.16v24.47h-2.77V-704h-9.2Zm-6.66,63.15v-2.74h2.54v16.79h-2.54v-2.73a8.14,8.14,0,0,1-6.31,3.08,8.82,8.82,0,0,1-8.66-8.74,8.7,8.7,0,0,1,8.66-8.66A8.16,8.16,0,0,1,404.65-643.49ZM383.13-558l-9.74-9.74,9.74-9.81,9.82,9.81ZM393-492.78,383.13-483l-9.74-9.74,9.74-9.81Zm-9.82-209.81,9.82,9.81L383.13-683l-9.74-9.74ZM377-646.65a8.17,8.17,0,0,1,6.23,3v-2.55h2.66V-631c0,6.57-3.92,9.5-8.67,9.5a8.63,8.63,0,0,1-8.16-5.78h2.88a6,6,0,0,0,5.28,3.27c3.39,0,6-1.79,6-7v-1.1a8.26,8.26,0,0,1-6.23,2.88,8.71,8.71,0,0,1-8.67-8.66A8.83,8.83,0,0,1,377-646.65ZM314.13-305.24l-7.71,7.71H303l-7.71-7.71v-3.43l7.71-7.71h3.43l7.71,7.71Zm0-530.07-7.71,7.72H303l-7.71-7.72v-3.42l7.71-7.72h3.43l7.71,7.72Zm71.52,405.87H383.1v-2.73a8.13,8.13,0,0,1-6.3,3.08,8.83,8.83,0,0,1-8.67-8.74,8.71,8.71,0,0,1,8.67-8.66,8.15,8.15,0,0,1,6.3,3v-2.74h2.55Zm13.79.35a8.13,8.13,0,0,1-6.3-3.08v10.26h-2.55v-24.32h2.55v2.74a8.15,8.15,0,0,1,6.3-3,8.71,8.71,0,0,1,8.67,8.66A8.83,8.83,0,0,1,399.44-429.09Zm11.49-120.6c4.79,0,7.6-2.85,7.6-7.63v-24.32h2.78v24.32c0,6.53-3.84,10.41-10.38,10.41Zm3.3,120.18h-2.55v-27.13h2.55Zm-2.08-56.92H415a5.77,5.77,0,0,0,5.85,4.49c3.3,0,5.93-1.94,5.93-5.09,0-2.51-1.64-3.88-5.93-5.21-5.06-1.56-7.79-3.46-7.79-7.56s3.11-7.26,7.79-7.26a7.34,7.34,0,0,1,7.48,6h-3a4.73,4.73,0,0,0-4.44-3.19,4.61,4.61,0,0,0-4.9,4.48c0,2.36,1.63,3.42,4.9,4.44,5.05,1.6,8.81,3.58,8.81,8.33s-3.91,7.86-8.81,7.86A8.51,8.51,0,0,1,412.15-486.43Zm10,56.92h-2.66v-16.72h2.66Zm-1.37-20.1a1.8,1.8,0,0,1-1.82-1.82,1.81,1.81,0,0,1,1.82-1.75,1.83,1.83,0,0,1,1.79,1.75A1.82,1.82,0,0,1,420.8-449.61Zm21.58,20.1h-2.54V-439c0-3.3-1.52-4.94-4.3-4.94-3.38-.07-5.47,1.83-5.47,5.59v8.89h-2.54v-16.72h2.54v2a7.21,7.21,0,0,1,5.47-2.27c4.79,0,6.84,2.12,6.84,7.44Zm-2-58.32a8.71,8.71,0,0,1,8.67-8.66,8.7,8.7,0,0,1,8.66,8.66,8.82,8.82,0,0,1-8.66,8.74A8.83,8.83,0,0,1,440.34-487.83Zm18.42,58.32-7.45-8.59-1.63,1.6v7h-2.54v-27.13h2.54v16.15h.57l6.23-6.08h3.57l-6.87,6.65,9,10.41Zm14.06-1.86-4.75,9.46h-3l4.75-9.5-7.41-14.82h3l5.89,11.82,5.93-11.82h3Zm1-131.46a8.7,8.7,0,0,1,8.66-8.66,8.16,8.16,0,0,1,6.31,3v-2.74h2.55v16.79h-2.55v-2.73a8.14,8.14,0,0,1-6.31,3.08A8.82,8.82,0,0,1,473.86-562.83Zm17.89,133.74a8.14,8.14,0,0,1-6.31-3.08v2.66h-2.55v-27.13h2.55v13.15a8.16,8.16,0,0,1,6.31-3,8.7,8.7,0,0,1,8.66,8.66A8.82,8.82,0,0,1,491.75-429.09Zm6.05-50a8.14,8.14,0,0,1-6.31-3.08v2.66H489v-27.13h2.54v13.15a8.16,8.16,0,0,1,6.31-3,8.7,8.7,0,0,1,8.66,8.66A8.82,8.82,0,0,1,497.8-479.09Zm9.41,49.58h-2.66v-16.72h2.66Zm-1.37-20.1a1.8,1.8,0,0,1-1.82-1.82,1.81,1.81,0,0,1,1.82-1.75,1.83,1.83,0,0,1,1.79,1.75A1.82,1.82,0,0,1,505.84-449.61Zm4.08-52.7h15v2.24h-15Zm.15,15.62v-9.54h2.55v9.54c0,3.3,1.52,4.94,4.29,4.94,3.38,0,5.47-1.9,5.47-5.59v-8.89h2.55v16.72h-2.55v-2a7.21,7.21,0,0,1-5.47,2.27C512.12-479.25,510.07-481.37,510.07-486.69Zm19.64,62.35c-2.55,1.33-8.36.6-4.71-5.17h-.5v-2a7.21,7.21,0,0,1-5.47,2.27c-4.79,0-6.84-2.12-6.84-7.44v-9.54h2.55v9.54c0,3.3,1.52,4.94,4.29,4.94,3.38,0,5.47-1.9,5.47-5.59v-8.89h2.55v16.72h-.31c-2.7,3.95.8,3.95,3,2.85Zm7.84-69.57h-3.77v14.4h-2.54v-14.4h-2.51v-2.32h2.51v-6.57h2.54v6.57h3.77Zm1-2.32h3l5.89,11.82,5.92-11.82h3L549-481.37l-4.75,9.46h-3l4.75-9.5Zm30.15,66.72h-2.54V-439c0-3.3-1.26-4.94-3.73-4.94-3.07,0-5,1.71-5,5.78v8.7h-2.55V-439c0-3.3-1.25-4.94-3.72-4.94-3.08,0-5,1.71-5,5.78v8.7h-2.54v-16.72h2.54v2a6.37,6.37,0,0,1,5-2.27c2.92,0,4.75.95,5.62,3.22a6.26,6.26,0,0,1,5.66-3.22c4.33,0,6.27,2.12,6.27,7.44Zm21.13-7.14H575.27a6.13,6.13,0,0,0,5.89,5,5.82,5.82,0,0,0,4.63-2.32H589a8.67,8.67,0,0,1-7.79,4.83,8.82,8.82,0,0,1-8.66-8.74,8.7,8.7,0,0,1,8.66-8.66,8.7,8.7,0,0,1,8.66,8.66Zm11.29-7.26h-3.76v14.4H594.8v-14.4h-2.51v-2.32h2.51v-6.57h2.55v6.57h3.76ZM619-429.51h-2.54v-2a7.21,7.21,0,0,1-5.47,2.27c-4.79,0-6.84-2.12-6.84-7.44v-9.54h2.54v9.54c0,3.3,1.52,4.94,4.3,4.94,3.38,0,5.47-1.9,5.47-5.59v-8.89H619Zm3-134.58H607.43v-2.54H622Zm2.76,134.77a2.12,2.12,0,0,1-2.12-2.13,2.11,2.11,0,0,1,2.12-2.09,2.11,2.11,0,0,1,2.09,2.09A2.12,2.12,0,0,1,624.74-429.32ZM644-479.44h-2.54v-2.73a8.15,8.15,0,0,1-6.31,3.08,8.83,8.83,0,0,1-8.67-8.74,8.71,8.71,0,0,1,8.67-8.66,8.17,8.17,0,0,1,6.31,3v-2.74H644Zm12.62-14.47h-3.76v14.4h-2.55v-14.4h-2.51v-2.32h2.51v-6.57h2.55v6.57h3.76Zm-1.64-53,4.75-9.5-7.4-14.82h3l5.89,11.82,5.92-11.82h3l-7.4,14.86L658-546.91ZM676.43-481c0,6.57-3.91,9.5-8.66,9.5a8.65,8.65,0,0,1-8.17-5.78h2.89a6,6,0,0,0,5.28,3.27c3.38,0,6-1.79,6-7v-1.1a8.24,8.24,0,0,1-6.23,2.88,8.7,8.7,0,0,1-8.66-8.66,8.82,8.82,0,0,1,8.66-8.74,8.16,8.16,0,0,1,6.23,3v-2.55h2.66Zm-1.1-82.37v8.89h-2.54v-16.72h2.54v2a7.21,7.21,0,0,1,5.47-2.27c4.79,0,6.84,2.12,6.84,7.44v9.54H685.1V-564c0-3.3-1.52-4.94-4.3-4.94C677.42-569.06,675.33-567.16,675.33-563.4Zm9.46,91.49h-3l4.75-9.5-7.41-14.82h3L688-484.41,694-496.23h3l-7.41,14.86Zm18.77-7.6c.08,4.79-2.27,7.75-6.57,7.75l0-2.51c2.59,0,4-2.24,4-5.24v-16.72h2.65Zm-1.32-20.1a1.8,1.8,0,0,1-1.83-1.82,1.81,1.81,0,0,1,1.83-1.75,1.82,1.82,0,0,1,1.78,1.75A1.81,1.81,0,0,1,702.24-499.61Zm22.45,20.17h-2.54v-2.73a8.15,8.15,0,0,1-6.31,3.08,8.82,8.82,0,0,1-8.66-8.74,8.7,8.7,0,0,1,8.66-8.66,8.17,8.17,0,0,1,6.31,3v-2.74h2.54Zm.76-75.07h-2.66v-16.72h2.66Zm-1.36-20.1a1.8,1.8,0,0,1-1.83-1.82,1.81,1.81,0,0,1,1.83-1.75,1.82,1.82,0,0,1,1.78,1.75A1.81,1.81,0,0,1,724.09-574.61Zm-2.82-104.48a8.82,8.82,0,0,1-8.66-8.74,8.7,8.7,0,0,1,8.66-8.66,8.71,8.71,0,0,1,8.67,8.66v1.18H715.39a6.13,6.13,0,0,0,5.88,5,5.84,5.84,0,0,0,4.64-2.32h3.15A8.65,8.65,0,0,1,721.27-679.09ZM732.9-555l-1.82,3.46h-1.22l.72-2.89a2.08,2.08,0,0,1-1.48-2,2.12,2.12,0,0,1,2.13-2.09,2.11,2.11,0,0,1,2.09,2.09A3.21,3.21,0,0,1,732.9-555Zm11.32,75.5h-2.66v-16.72h2.66Zm-1.36-20.1a1.8,1.8,0,0,1-1.83-1.82,1.81,1.81,0,0,1,1.83-1.75,1.82,1.82,0,0,1,1.78,1.75A1.81,1.81,0,0,1,742.86-499.61Zm-3.65-179.64c-3.76,0-6.27-2.08-6.42-5h2.32c.22,1.4,1.93,2.62,4.1,2.62,2.47,0,4.1-1.1,4.1-2.62s-1.06-2.13-4.1-2.74c-4-.79-5.78-2.24-5.78-4.9s2-4.59,5.78-4.59c3.31,0,5.51,1.82,5.77,4.36h-2.31c-.23-1.14-1.48-2-3.46-2s-3.42,1-3.42,2.2,1.1,2,3.84,2.51c4.29.87,6,2.36,6,5.13C745.63-681.33,743.39-679.25,739.21-679.25Zm8.89-2.2a2.12,2.12,0,0,1,2.13-2.09,2.11,2.11,0,0,1,2.09,2.09,3.21,3.21,0,0,1-.42,1.44l-1.82,3.46h-1.22l.72-2.89A2.08,2.08,0,0,1,748.1-681.45ZM757.79-494c-3,0-5.66,1.83-5.66,5.25v9.23h-2.55v-16.72h2.55v2.28a7.41,7.41,0,0,1,5.66-2.54Zm.91-60.1a8.15,8.15,0,0,1-6.31-3.08v2.66h-2.54v-27.13h2.54v13.15a8.17,8.17,0,0,1,6.31-3,8.7,8.7,0,0,1,8.66,8.66A8.82,8.82,0,0,1,758.7-554.09Zm9.73-123.22h2.89A6,6,0,0,0,776.6-674c3.38,0,6-1.79,6-7v-1.1a8.24,8.24,0,0,1-6.23,2.88,8.7,8.7,0,0,1-8.66-8.66,8.82,8.82,0,0,1,8.66-8.74,8.16,8.16,0,0,1,6.23,3v-2.55h2.66V-681c0,6.57-3.91,9.5-8.66,9.5A8.65,8.65,0,0,1,768.43-677.31Zm2.4,100h15v2.24h-15Zm.15,6.08h2.54v9.54c0,3.3,1.52,4.94,4.3,4.94,3.38,0,5.47-1.9,5.47-5.59v-8.89h2.54v16.72h-2.54v-2a7.21,7.21,0,0,1-5.47,2.27c-4.79,0-6.84-2.12-6.84-7.44Zm26.55,91.72H795V-489c0-3.3-1.26-4.94-3.72-4.94-3.08,0-5,1.71-5,5.78v8.7H783.7V-489c0-3.3-1.25-4.94-3.72-4.94-3.08,0-5,1.71-5,5.78v8.7h-2.55v-16.72H775v2a6.33,6.33,0,0,1,5-2.27c2.93,0,4.75.95,5.62,3.22a6.27,6.27,0,0,1,5.67-3.22c4.33,0,6.26,2.12,6.26,7.44ZM799.36-569c-3,0-5.66,1.83-5.66,5.25v9.23h-2.55v-16.72h2.55v2.28a7.41,7.41,0,0,1,5.66-2.54Zm19.49,89.55h-2.54v-2.73a8.14,8.14,0,0,1-6.31,3.08,8.82,8.82,0,0,1-8.66-8.74,8.7,8.7,0,0,1,8.66-8.66,8.16,8.16,0,0,1,6.31,3v-2.74h2.54Zm1.26-69.83c2.58,0,4-2.24,3.95-5.24v-16.72h2.66v16.72c.08,4.79-2.28,7.75-6.57,7.75Zm11.36,55.36h-3.76v14.4h-2.55v-14.4h-2.5v-2.32h2.5v-6.57h2.55v6.57h3.76Zm-1.14-68.92a8.71,8.71,0,0,1,8.66-8.66,8.16,8.16,0,0,1,6.31,3v-2.74h2.55v16.79H845.3v-2.73a8.14,8.14,0,0,1-6.31,3.08A8.83,8.83,0,0,1,830.33-562.83Zm20.56,76.18H836.33a6.14,6.14,0,0,0,5.89,5,5.84,5.84,0,0,0,4.64-2.32H850a8.65,8.65,0,0,1-7.79,4.83,8.82,8.82,0,0,1-8.66-8.74,8.7,8.7,0,0,1,8.66-8.66,8.71,8.71,0,0,1,8.67,8.66Zm-7.18-192.44a8.83,8.83,0,0,1-8.67-8.74,8.71,8.71,0,0,1,8.67-8.66,8.7,8.7,0,0,1,8.66,8.66A8.82,8.82,0,0,1,843.71-679.09Zm9.08,102.66a1.81,1.81,0,0,1,1.82-1.75,1.83,1.83,0,0,1,1.79,1.75,1.82,1.82,0,0,1-1.79,1.82A1.8,1.8,0,0,1,852.79-576.43Zm.53,5.2H856v16.72h-2.66ZM863.08-494c-3,0-5.66,1.83-5.66,5.25v9.23h-2.54v-16.72h2.54v2.28a7.43,7.43,0,0,1,5.66-2.54Zm.35-61-1.82,3.46h-1.22l.72-2.89a2.08,2.08,0,0,1-1.48-2,2.12,2.12,0,0,1,2.13-2.09,2.11,2.11,0,0,1,2.09,2.09A3.21,3.21,0,0,1,863.43-555Zm5.89,75.5h-2.66v-16.72h2.66ZM868-499.61a1.8,1.8,0,0,1-1.82-1.82,1.8,1.8,0,0,1,1.82-1.75,1.83,1.83,0,0,1,1.79,1.75A1.82,1.82,0,0,1,868-499.61Zm3.35-176.94.72-2.89a2.07,2.07,0,0,1-1.48-2,2.11,2.11,0,0,1,2.12-2.09,2.11,2.11,0,0,1,2.09,2.09,3.21,3.21,0,0,1-.41,1.44l-1.83,3.46Zm19.94,197.11H888.7v-2.73a8.15,8.15,0,0,1-6.31,3.08,8.82,8.82,0,0,1-8.66-8.74,8.7,8.7,0,0,1,8.66-8.66,8.17,8.17,0,0,1,6.31,3v-2.74h2.54Zm-3.34-74.65a8.82,8.82,0,0,1-8.66-8.74,8.7,8.7,0,0,1,8.66-8.66,8.17,8.17,0,0,1,6.31,3v-13.15h2.54v27.13h-2.54v-2.66A8.15,8.15,0,0,1,887.9-554.09Zm11,74.58h-2.55v-27.13h2.55Zm-5.09-202.66v2.66h-2.55v-27.13h2.55v13.15a8.16,8.16,0,0,1,6.31-3,8.71,8.71,0,0,1,8.66,8.66,8.83,8.83,0,0,1-8.66,8.74A8.14,8.14,0,0,1,893.83-682.17Zm7.67,105.74a1.81,1.81,0,0,1,1.83-1.75,1.82,1.82,0,0,1,1.78,1.75,1.81,1.81,0,0,1-1.78,1.82A1.8,1.8,0,0,1,901.5-576.43Zm.54,5.2h2.66v16.72H902Zm4.82,91.72H904.2v-16.72h2.66Zm-1.37-20.1a1.8,1.8,0,0,1-1.82-1.82,1.81,1.81,0,0,1,1.82-1.75,1.83,1.83,0,0,1,1.79,1.75A1.82,1.82,0,0,1,905.49-499.61Zm18.77,20.1h-12.8v-2.43l9.38-11.86h-9.38v-2.43H924v2.43l-9.39,11.86h9.61Zm1.79-82.14H911.5a6.13,6.13,0,0,0,5.89,5,5.84,5.84,0,0,0,4.63-2.32h3.16a8.67,8.67,0,0,1-7.79,4.83,8.83,8.83,0,0,1-8.67-8.74,8.71,8.71,0,0,1,8.67-8.66,8.7,8.7,0,0,1,8.66,8.66Zm1.22-117.86h-2.55v-2a7.21,7.21,0,0,1-5.47,2.27c-4.79,0-6.84-2.12-6.84-7.44v-9.54H915v9.54c0,3.3,1.52,4.94,4.29,4.94,3.38,0,5.47-1.9,5.47-5.59v-8.89h2.55Zm15.65,200h-2.54v-2a7.23,7.23,0,0,1-5.48,2.27c-4.78,0-6.83-2.12-6.83-7.44v-9.54h2.54v9.54c0,3.3,1.52,4.94,4.29,4.94,3.39,0,5.48-1.9,5.48-5.59v-8.89h2.54Zm-5.66-75h-2.77l-6.88-16.72h2.77l5.51,13.34,5.47-13.34h2.78Zm17.1-17a8.16,8.16,0,0,1,6.31,3v-2.74h2.54v16.79h-2.54v-2.73a8.14,8.14,0,0,1-6.31,3.08,8.82,8.82,0,0,1-8.66-8.74A8.7,8.7,0,0,1,954.36-571.49Zm1.22,75a8.7,8.7,0,0,1,8.66,8.66,8.82,8.82,0,0,1-8.66,8.74,8.83,8.83,0,0,1-8.67-8.74A8.71,8.71,0,0,1,955.58-496.49ZM970.71-305,962-296.25h-3.9L949.29-305v-3.89l8.76-8.76H962l8.76,8.76Zm1.47-174.5c.08,4.79-2.28,7.75-6.57,7.75l0-2.51c2.58,0,4-2.24,3.95-5.24v-16.72h2.66Zm-1.33-20.1a1.8,1.8,0,0,1-1.82-1.82,1.81,1.81,0,0,1,1.82-1.75,1.83,1.83,0,0,1,1.79,1.75A1.82,1.82,0,0,1,970.85-499.61ZM975-556.45a2.11,2.11,0,0,1,2.12-2.09,2.11,2.11,0,0,1,2.09,2.09,3.09,3.09,0,0,1-.42,1.44L977-551.55h-1.21l.72-2.89A2.07,2.07,0,0,1,975-556.45Zm18.31,77h-2.55v-2.73a8.13,8.13,0,0,1-6.3,3.08,8.83,8.83,0,0,1-8.67-8.74,8.71,8.71,0,0,1,8.67-8.66,8.15,8.15,0,0,1,6.3,3v-2.74h2.55Zm10.6.19c-3.76,0-6.27-2.08-6.42-5h2.32c.23,1.4,1.94,2.62,4.1,2.62,2.47,0,4.1-1.1,4.1-2.62s-1.06-2.13-4.1-2.74c-4-.79-5.77-2.24-5.77-4.9s2-4.59,5.77-4.59c3.31,0,5.51,1.82,5.78,4.36h-2.32c-.23-1.14-1.48-2-3.46-2s-3.42,1-3.42,2.2,1.1,2,3.84,2.51c4.29.87,6,2.36,6,5.13C1010.33-481.33,1008.09-479.25,1003.91-479.25Zm7.83-82.4H997.19a6.13,6.13,0,0,0,5.89,5,5.84,5.84,0,0,0,4.63-2.32h3.15a8.64,8.64,0,0,1-7.78,4.83,8.83,8.83,0,0,1-8.67-8.74,8.71,8.71,0,0,1,8.67-8.66,8.71,8.71,0,0,1,8.66,8.66Zm-3.61-117.6c-3.76,0-6.27-2.08-6.42-5H1004c.22,1.4,1.93,2.62,4.1,2.62,2.47,0,4.1-1.1,4.1-2.62s-1.06-2.13-4.1-2.74c-4-.79-5.77-2.24-5.77-4.9s2-4.59,5.77-4.59c3.31,0,5.51,1.82,5.78,4.36h-2.32c-.23-1.14-1.48-2-3.46-2s-3.42,1-3.42,2.2,1.1,2,3.84,2.51c4.29.87,6,2.36,6,5.13C1014.55-681.33,1012.31-679.25,1008.13-679.25Zm9.2,199.74h-2.66v-16.72h2.66Zm-1.37-20.1a1.8,1.8,0,0,1-1.83-1.82,1.81,1.81,0,0,1,1.83-1.75,1.82,1.82,0,0,1,1.78,1.75A1.81,1.81,0,0,1,1016-499.61Zm2.12-54.9h-2.54v-27.13h2.54Zm2.74-125.5-1.82,3.46h-1.22l.72-2.89a2.08,2.08,0,0,1-1.48-2,2.12,2.12,0,0,1,2.13-2.09,2.11,2.11,0,0,1,2.09,2.09A3.21,3.21,0,0,1,1020.82-680Zm.74-135.57-.6.6h-5.52l-13.5-16.08,12-12.72h5.16l.6.6v.72l-11,11.4,12.84,14.76ZM1039-474.34c-2.55,1.33-8.36.6-4.71-5.17h-.92v-16.72H1036v16.72c-2.69,3.95.8,3.95,3,2.85Zm-6.08-27.7a1.81,1.81,0,0,1,1.82-1.75,1.84,1.84,0,0,1,1.79,1.75,1.86,1.86,0,0,1-1.79,1.86A1.84,1.84,0,0,1,1032.87-502Zm6.34-59.61h-14.55a6.13,6.13,0,0,0,5.89,5,5.82,5.82,0,0,0,4.63-2.32h3.16a8.67,8.67,0,0,1-7.79,4.83,8.82,8.82,0,0,1-8.66-8.74,8.7,8.7,0,0,1,8.66-8.66,8.7,8.7,0,0,1,8.66,8.66Zm2.09-117.86h-2.54v-14.4h-2.51v-2.32h2.51v-6.57h2.54v6.57h3.77v2.32h-3.77Zm22,200h-2.54v-14.4h-5.13v14.4H1053v-14.4h-2.24v-2.32H1053v-2.28c0-4.1.12-9,6.12-8.13v2.36c-3.91-.5-3.57,3.3-3.57,5.77v2.28h7.67ZM1062-499.65a1.75,1.75,0,0,1-1.74-1.78,1.73,1.73,0,0,1,1.74-1.68,1.75,1.75,0,0,1,1.71,1.68A1.77,1.77,0,0,1,1062-499.65Zm-.11-69.34c-3.08,0-5,1.71-5,5.78v8.7h-2.54V-564c0-3.3-1.26-4.94-3.73-4.94-3.07,0-5,1.71-5,5.78v8.7H1043v-16.72h2.55v2a6.33,6.33,0,0,1,5-2.27c2.93,0,4.75,1,5.63,3.22a6.25,6.25,0,0,1,5.66-3.22c4.33,0,6.27,2.12,6.27,7.44v9.54h-2.55V-564C1065.58-567.35,1064.33-569,1061.86-569Zm18.05,89.48H1067.1v-2.43l9.39-11.86h-9.39v-2.43h12.58v2.43l-9.38,11.86h9.61Zm7,0h-2.66v-16.72h2.66Zm-1.37-20.1a1.8,1.8,0,0,1-1.82-1.82,1.81,1.81,0,0,1,1.82-1.75,1.83,1.83,0,0,1,1.79,1.75A1.82,1.82,0,0,1,1085.53-499.61Zm3.73-62H1074.7a6.14,6.14,0,0,0,5.89,5,5.84,5.84,0,0,0,4.64-2.32h3.15a8.66,8.66,0,0,1-7.79,4.83,8.82,8.82,0,0,1-8.66-8.74,8.7,8.7,0,0,1,8.66-8.66,8.71,8.71,0,0,1,8.67,8.66Zm1.37-126.75v8.89h-2.55v-16.72h2.55v2a7.21,7.21,0,0,1,5.47-2.27c4.79,0,6.84,2.12,6.84,7.44v9.54h-2.55V-689c0-3.3-1.52-4.94-4.29-4.94C1092.72-694.06,1090.63-692.16,1090.63-688.4Zm16.49,208.89h-2.55V-489c0-3.3-1.52-4.94-4.29-4.94-3.38-.07-5.47,1.83-5.47,5.59v8.89h-2.55v-16.72h2.55v2a7.21,7.21,0,0,1,5.47-2.27c4.78,0,6.84,2.12,6.84,7.44Zm1-75h-2.54V-564c0-3.3-1.52-4.94-4.3-4.94-3.38-.07-5.47,1.83-5.47,5.59v8.89h-2.54v-16.72h2.54v2a7.22,7.22,0,0,1,5.47-2.27c4.79,0,6.84,2.12,6.84,7.44Zm8.82,80.17c-2.54,1.33-8.36.6-4.71-5.17h-.91v-16.72H1114v16.72c-2.7,3.95.8,3.95,3,2.85Zm-6.08-27.7a1.82,1.82,0,0,1,1.83-1.75,1.83,1.83,0,0,1,1.78,1.75,1.85,1.85,0,0,1-1.78,1.86A1.84,1.84,0,0,1,1110.84-502Zm9.5-66.87h-3.76v14.4H1114v-14.4h-2.5v-2.32h2.5v-6.57h2.55v6.57h3.76Zm-5.13-110.18a8.82,8.82,0,0,1-8.66-8.74,8.7,8.7,0,0,1,8.66-8.66,8.69,8.69,0,0,1,8.13,5.69h-2.85a6,6,0,0,0-5.28-3.19,6.05,6.05,0,0,0-6,6.16,6.16,6.16,0,0,0,6,6.23,6,6,0,0,0,5.28-3.27h2.89A8.65,8.65,0,0,1,1115.21-679.09Zm8.17,117.4v-9.54h2.55v9.54c0,3.3,1.52,4.94,4.29,4.94,3.38,0,5.47-1.9,5.47-5.59v-8.89h2.55v16.72h-.31c-2.69,4,.8,4,3,2.85v2.32c-2.55,1.33-8.36.6-4.71-5.17h-.5v-2a7.21,7.21,0,0,1-5.47,2.27C1125.43-554.25,1123.38-556.37,1123.38-561.69Zm15,82.6a8.14,8.14,0,0,1-6.31-3.08v10.26h-2.54v-24.32h2.54v2.74a8.16,8.16,0,0,1,6.31-3,8.7,8.7,0,0,1,8.66,8.66A8.82,8.82,0,0,1,1138.39-479.09Zm4.49-200a8.83,8.83,0,0,1-8.67-8.74,8.71,8.71,0,0,1,8.67-8.66,8.71,8.71,0,0,1,8.66,8.66A8.83,8.83,0,0,1,1142.88-679.09Zm24.54,199.65h-2.54v-2.73a8.15,8.15,0,0,1-6.31,3.08,8.82,8.82,0,0,1-8.66-8.74,8.7,8.7,0,0,1,8.66-8.66,8.17,8.17,0,0,1,6.31,3v-2.74h2.54Zm3.91-89.55c-3,0-5.66,1.83-5.66,5.25v9.23h-2.54v-16.72h2.54v2.28a7.43,7.43,0,0,1,5.66-2.54Zm6.69,89.74c-3.76,0-6.27-2.08-6.42-5h2.32c.23,1.4,1.94,2.62,4.1,2.62,2.47,0,4.11-1.1,4.11-2.62s-1.07-2.13-4.11-2.74c-4-.79-5.77-2.24-5.77-4.9s2-4.59,5.77-4.59c3.31,0,5.51,1.82,5.78,4.36h-2.32c-.23-1.14-1.48-2-3.46-2s-3.42,1-3.42,2.2,1.11,2,3.84,2.51c4.3.87,6,2.36,6,5.13C1184.45-481.33,1182.2-479.25,1178-479.25Zm8.14-92h2.54v2.28a7.41,7.41,0,0,1,5.66-2.54v2.5c-3,0-5.66,1.83-5.66,5.25v9.23h-2.54Zm18.65,91.79h-2.54v-2.73a8.14,8.14,0,0,1-6.31,3.08,8.82,8.82,0,0,1-8.66-8.74,8.7,8.7,0,0,1,8.66-8.66,8.16,8.16,0,0,1,6.31,3v-2.74h2.54Zm-8.36-83.39a8.71,8.71,0,0,1,8.67-8.66,8.7,8.7,0,0,1,8.66,8.66v1.18h-14.55a6.13,6.13,0,0,0,5.89,5,5.84,5.84,0,0,0,4.63-2.32h3.16a8.67,8.67,0,0,1-7.79,4.83A8.83,8.83,0,0,1,1196.45-562.83Zm28,83.32h-2.54v-2a7.25,7.25,0,0,1-5.48,2.27c-4.78,0-6.84-2.12-6.84-7.44v-9.54h2.55v9.54c0,3.3,1.52,4.94,4.29,4.94,3.39,0,5.48-1.9,5.48-5.59v-8.89h2.54Zm7.68,0h-2.55v-27.13h2.55Zm-.88-74.74c-3.76,0-6.27-2.08-6.42-5h2.32c.23,1.4,1.94,2.62,4.1,2.62,2.47,0,4.11-1.1,4.11-2.62s-1.07-2.13-4.11-2.74c-4-.79-5.77-2.24-5.77-4.9s2-4.59,5.77-4.59c3.31,0,5.51,1.82,5.78,4.36h-2.32c-.23-1.14-1.48-2-3.46-2s-3.42,1-3.42,2.2,1.1,2,3.84,2.51c4.29.87,6,2.36,6,5.13C1237.64-556.33,1235.4-554.25,1231.22-554.25Zm6.62,50.46a1.83,1.83,0,0,1,1.78,1.75,1.85,1.85,0,0,1-1.78,1.86A1.84,1.84,0,0,1,1236-502,1.82,1.82,0,0,1,1237.84-503.79Zm4.25,29.45c-2.54,1.33-8.36.6-4.71-5.17h-.91v-16.72h2.66v16.72c-2.7,3.95.8,3.95,3,2.85Zm3.72-88.76-1.63,1.6v7h-2.55v-27.13h2.55v16.15h.57l6.23-6.08h3.57l-6.87,6.65,9,10.41h-3.42ZM1263.29-494c-3,0-5.66,1.83-5.66,5.25v9.23h-2.54v-16.72h2.54v2.28a7.43,7.43,0,0,1,5.66-2.54Zm-2.5-80.62a1.8,1.8,0,0,1-1.83-1.82,1.81,1.81,0,0,1,1.83-1.75,1.82,1.82,0,0,1,1.78,1.75A1.81,1.81,0,0,1,1260.79-574.61Zm1.36,3.38v16.72h-2.66v-16.72Zm-7.1-116.6a8.7,8.7,0,0,1,8.66-8.66,8.16,8.16,0,0,1,6.31,3v-2.74h2.55v16.79H1270v-2.73a8.14,8.14,0,0,1-6.31,3.08A8.82,8.82,0,0,1,1255.05-687.83Zm27.66,201.18h-14.55a6.13,6.13,0,0,0,5.89,5,5.82,5.82,0,0,0,4.63-2.32h3.16a8.67,8.67,0,0,1-7.79,4.83,8.82,8.82,0,0,1-8.66-8.74,8.7,8.7,0,0,1,8.66-8.66,8.7,8.7,0,0,1,8.66,8.66Zm11.29-7.26h-3.76v14.4h-2.55v-14.4h-2.51v-2.32h2.51v-6.57h2.55v6.57H1294Zm1.1-77.32h2.55v9.54c0,3.3,1.52,4.94,4.29,4.94,3.38,0,5.47-1.9,5.47-5.59v-8.89H1310v16.72h-.31c-2.7,4,.8,4,3,2.85v2.32c-2.55,1.33-8.36.6-4.72-5.17h-.49v-2a7.21,7.21,0,0,1-5.47,2.27c-4.79,0-6.84-2.12-6.84-7.44Zm18.5,91.79h-2.54v-2.73a8.14,8.14,0,0,1-6.31,3.08,8.82,8.82,0,0,1-8.66-8.74,8.7,8.7,0,0,1,8.66-8.66,8.16,8.16,0,0,1,6.31,3v-2.74h2.54Zm1.64-214.47h-3.76v14.4h-2.55v-14.4h-2.5v-2.32h2.5v-6.57h2.55v6.57h3.76Zm4.87-9.27a1.82,1.82,0,0,1,1.78,1.75,1.81,1.81,0,0,1-1.78,1.82,1.8,1.8,0,0,1-1.83-1.82A1.81,1.81,0,0,1,1320.11-703.18Zm1.36,6.95v16.72h-2.66v-16.72Zm.27,216.72h-2.66v-16.72h2.66Zm-1.37-20.1a1.8,1.8,0,0,1-1.82-1.82,1.8,1.8,0,0,1,1.82-1.75,1.83,1.83,0,0,1,1.79,1.75A1.82,1.82,0,0,1,1320.37-499.61Zm8.82,19.6-1.83,3.46h-1.21l.72-2.89a2.07,2.07,0,0,1-1.48-2,2.11,2.11,0,0,1,2.12-2.09,2.11,2.11,0,0,1,2.09,2.09A3.21,3.21,0,0,1,1329.19-480Zm2.35-69.33c-2.54,1.33-8.36.6-4.71-5.17h-.91v-16.72h2.66v16.72c-2.7,4,.8,4,3,2.85Zm6.88-4.91c-3.76,0-6.27-2.08-6.42-5h2.32c.22,1.4,1.93,2.62,4.1,2.62,2.47,0,4.1-1.1,4.1-2.62s-1.06-2.13-4.1-2.74c-4-.79-5.78-2.24-5.78-4.9s2-4.59,5.78-4.59c3.3,0,5.51,1.82,5.77,4.36h-2.31c-.23-1.14-1.49-2-3.46-2s-3.42,1-3.42,2.2,1.1,2,3.84,2.51c4.29.87,6,2.36,6,5.13C1344.84-556.33,1342.6-554.25,1338.42-554.25Zm15,60.34h-3.76v14.4h-2.55v-14.4h-2.51v-2.32h2.51v-6.57h2.55v6.57h3.76Zm-3-80.7a1.8,1.8,0,0,1-1.82-1.82,1.81,1.81,0,0,1,1.82-1.75,1.82,1.82,0,0,1,1.79,1.75A1.81,1.81,0,0,1,1350.46-574.61Zm1.37,3.38v16.72h-2.66v-16.72Zm-5.12-116.87-1.64,1.6v7h-2.54v-27.13h2.54v16.15h.57l6.23-6.08h3.57l-6.87,6.65,9,10.41h-3.42Zm13,208.59H1357v-16.72h2.66Zm-1.37-20.1a1.8,1.8,0,0,1-1.82-1.82,1.81,1.81,0,0,1,1.82-1.75,1.83,1.83,0,0,1,1.79,1.75A1.82,1.82,0,0,1,1358.29-499.61Zm1.26-61.89v7H1357v-27.13h2.55v16.15h.57l6.23-6.08h3.57l-6.88,6.65,9,10.41h-3.42l-7.45-8.59Zm16.91,82L1369-488.1l-1.63,1.6v7h-2.55v-27.13h2.55v16.15h.56l6.24-6.08h3.57l-6.88,6.65,9,10.41Zm12.72-75h-2.54v-2a7.21,7.21,0,0,1-5.47,2.27c-4.79,0-6.84-2.12-6.84-7.44v-9.54h2.54v9.54c0,3.3,1.52,4.94,4.3,4.94,3.38,0,5.47-1.9,5.47-5.59v-8.89h2.54Zm12,60.6h-3.76v14.4h-2.55v-14.4h-2.5v-2.32h2.5v-6.57h2.55v6.57h3.76Zm-4.18-69.49v8.89h-2.54v-16.72h2.54v2a7.21,7.21,0,0,1,5.47-2.27c4.79,0,6.84,2.12,6.84,7.44v9.54h-2.54V-564c0-3.3-1.52-4.94-4.3-4.94C1399.14-569.06,1397.05-567.16,1397.05-563.4Zm23.79,84h-2.55v-2.73a8.14,8.14,0,0,1-6.31,3.08,8.83,8.83,0,0,1-8.66-8.74,8.71,8.71,0,0,1,8.66-8.66,8.16,8.16,0,0,1,6.31,3v-2.74h2.55Zm-1-67.32,0-2.51c2.59,0,4-2.24,4-5.24v-16.72h2.66v16.72C1426.5-549.72,1424.15-546.76,1419.85-546.76Zm31.23,67.25h-2.54V-489c0-3.3-1.26-4.94-3.73-4.94-3.07,0-5,1.71-5,5.78v8.7h-2.55V-489c0-3.3-1.25-4.94-3.72-4.94-3.08,0-5,1.71-5,5.78v8.7H1426v-16.72h2.55v2a6.33,6.33,0,0,1,5-2.27c2.93,0,4.75.95,5.62,3.22a6.26,6.26,0,0,1,5.66-3.22c4.34,0,6.27,2.12,6.27,7.44Zm13-75h-2.55V-564c0-3.3-1.25-4.94-3.72-4.94-3.08,0-5,1.71-5,5.78v8.7h-2.55V-564c0-3.3-1.25-4.94-3.72-4.94-3.08,0-5,1.71-5,5.78v8.7H1439v-16.72h2.54v2a6.37,6.37,0,0,1,5-2.27c2.92,0,4.75,1,5.62,3.22a6.25,6.25,0,0,1,5.66-3.22c4.33,0,6.27,2.12,6.27,7.44Zm10.83,60.6h-3.76v14.4h-2.55v-14.4h-2.5v-2.32h2.5v-6.57h2.55v6.57h3.76Zm6.23,14.4h-2.66v-16.72h2.66Zm-1.36-20.1a1.8,1.8,0,0,1-1.83-1.82,1.81,1.81,0,0,1,1.83-1.75,1.82,1.82,0,0,1,1.78,1.75A1.81,1.81,0,0,1,1479.78-499.61Zm5.62-54.83h-2.55v-2.73a8.13,8.13,0,0,1-6.3,3.08,8.83,8.83,0,0,1-8.67-8.74,8.71,8.71,0,0,1,8.67-8.66,8.15,8.15,0,0,1,6.3,3v-2.74h2.55Zm12.54,74.93-7.45-8.59-1.63,1.6v7h-2.55v-27.13h2.55v16.15h.57l6.23-6.08h3.57l-6.88,6.65,9,10.41Zm1.37-74.81a2.13,2.13,0,0,1-2.13-2.13,2.12,2.12,0,0,1,2.13-2.09,2.11,2.11,0,0,1,2.09,2.09A2.12,2.12,0,0,1,1499.31-554.32ZM1512.23-494c-3,0-5.66,1.83-5.66,5.25v9.23H1504v-16.72h2.55v2.28a7.4,7.4,0,0,1,5.66-2.54Zm15.84,14.48h-.49v-2a7.21,7.21,0,0,1-5.47,2.27c-4.79,0-6.84-2.12-6.84-7.44v-9.54h2.54v9.54c0,3.3,1.52,4.94,4.3,4.94,3.38,0,5.47-1.9,5.47-5.59v-8.89h2.54v16.72h-.3c-2.7,3.95.8,3.95,3,2.85v2.32C1530.24-473,1524.42-473.74,1528.07-479.51Zm96.65,174.27-7.71,7.71h-3.43l-7.71-7.71v-3.43l7.71-7.71H1617l7.71,7.71Zm0-530.07-7.71,7.72h-3.43l-7.71-7.72v-3.42l7.71-7.72H1617l7.71,7.72Z"/></g><g id="af975437-3eac-45f8-9b88-4b34d2d27fcb" data-name="white lines"><rect x="958.75" y="-22.44" width="2.5" height="32.83" style="fill:#fff"/><rect x="958.75" y="10.4" width="2.5" height="32.83" style="fill:#fff"/><rect x="958.75" y="43.23" width="2.5" height="32.83" style="fill:#fff"/><polygon points="960 82.74 971.28 63.21 948.72 63.21 960 82.74" style="fill:#fff"/><polygon points="960 82.74 971.28 63.21 948.72 63.21 960 82.74" style="fill:#fff"/></g></svg>