<svg xmlns="http://www.w3.org/2000/svg" width="1920" height="250" viewBox="0 0 1920 250"><title>slide 9</title><g id="b064a6b4-0a54-4536-8a53-1bc8b9b1a423" data-name="cutout"><path d="M1219.54,154.47a6,6,0,0,0-5.93,6.15,6.1,6.1,0,0,0,5.93,6.23,6.41,6.41,0,0,0,6.23-6.23A6.29,6.29,0,0,0,1219.54,154.47Z"/><path d="M674,90.47a6,6,0,0,0-5.93,6.15,6.1,6.1,0,0,0,5.93,6.23,6.41,6.41,0,0,0,6.23-6.23A6.29,6.29,0,0,0,674,90.47Z"/><path d="M1228.53,90.47a6,6,0,0,0-5.93,6.15,6.09,6.09,0,0,0,5.93,6.23,6.41,6.41,0,0,0,6.23-6.23A6.29,6.29,0,0,0,1228.53,90.47Z"/><path d="M717.83,154.47a6,6,0,0,0-6,6.15,6,6,0,1,0,12,0A6,6,0,0,0,717.83,154.47Z"/><path d="M1129.48,154.47a6,6,0,0,0-6,6.15,6,6,0,1,0,12,0A6,6,0,0,0,1129.48,154.47Z"/><path d="M596.92,154.47a6,6,0,0,0-5.89,4.9h11.78A6.06,6.06,0,0,0,596.92,154.47Z"/><path d="M668.43,154.32a6.09,6.09,0,0,0-5.92,6.23,6,6,0,0,0,5.92,6.15,6.3,6.3,0,0,0,6.24-6.15A6.41,6.41,0,0,0,668.43,154.32Z"/><path d="M1278.61,90.47a6.29,6.29,0,0,0-6.23,6.15,6.41,6.41,0,0,0,6.23,6.23,6.1,6.1,0,0,0,5.93-6.23A6,6,0,0,0,1278.61,90.47Z"/><path d="M812.19,154.47a6,6,0,0,0-6,6.15,6,6,0,1,0,12,0A6,6,0,0,0,812.19,154.47Z"/><path d="M636.71,154.47a6,6,0,0,0-5.89,4.9h11.77A6.06,6.06,0,0,0,636.71,154.47Z"/><path d="M659.94,96.62A6,6,0,0,0,654,90.47a6.29,6.29,0,0,0-6.23,6.15,6.41,6.41,0,0,0,6.23,6.23A6.1,6.1,0,0,0,659.94,96.62Z"/><path d="M873.48,154.47a6,6,0,0,0-6,6.15,6,6,0,1,0,12,0A6,6,0,0,0,873.48,154.47Z"/><path d="M1109.76,154.47a6.29,6.29,0,0,0-6.23,6.15,6.41,6.41,0,0,0,6.23,6.23,6.09,6.09,0,0,0,5.92-6.23A6,6,0,0,0,1109.76,154.47Z"/><path d="M1046.76,154.47a6,6,0,0,0-6,6.15,6,6,0,1,0,12,0A6,6,0,0,0,1046.76,154.47Z"/><path d="M875.89,90.47a6,6,0,0,0-5.89,4.9h11.78A6.06,6.06,0,0,0,875.89,90.47Z"/><path d="M911.69,90.47a6,6,0,0,0-5.93,6.15,6.1,6.1,0,0,0,5.93,6.23,6.41,6.41,0,0,0,6.23-6.23A6.29,6.29,0,0,0,911.69,90.47Z"/><path d="M928.5,154.47a6,6,0,0,0-5.93,6.15,6.1,6.1,0,0,0,5.93,6.23,6.41,6.41,0,0,0,6.23-6.23A6.29,6.29,0,0,0,928.5,154.47Z"/><path d="M1009.46,90.47a6,6,0,0,0-5.93,6.15,6.1,6.1,0,0,0,5.93,6.23,6.41,6.41,0,0,0,6.23-6.23A6.29,6.29,0,0,0,1009.46,90.47Z"/><path d="M814.94,90.47A6,6,0,0,0,809,96.62a6.1,6.1,0,0,0,5.93,6.23,6.41,6.41,0,0,0,6.23-6.23A6.29,6.29,0,0,0,814.94,90.47Z"/><path d="M1090.13,90.47a6,6,0,0,0-5.92,6.15,6.09,6.09,0,0,0,5.92,6.23,6.41,6.41,0,0,0,6.23-6.23A6.29,6.29,0,0,0,1090.13,90.47Z"/><path d="M1298.63,102.85a6.41,6.41,0,0,0,6.24-6.23,6.3,6.3,0,0,0-6.24-6.15,6,6,0,0,0-5.92,6.15A6.09,6.09,0,0,0,1298.63,102.85Z"/><path d="M1075.56,154.47a6,6,0,0,0-5.93,6.15,6.1,6.1,0,0,0,5.93,6.23,6.41,6.41,0,0,0,6.23-6.23A6.29,6.29,0,0,0,1075.56,154.47Z"/><path d="M832.29,154.47a6,6,0,0,0-5.93,6.15,6.1,6.1,0,0,0,5.93,6.23,6.41,6.41,0,0,0,6.23-6.23A6.29,6.29,0,0,0,832.29,154.47Z"/><path d="M1032.26,102.85a6.1,6.1,0,0,0,5.93-6.23,6,6,0,0,0-5.93-6.15,6.29,6.29,0,0,0-6.23,6.15A6.41,6.41,0,0,0,1032.26,102.85Z"/><path d="M949.89,154.47a6,6,0,0,0-6,6.15,6,6,0,1,0,12,0A6,6,0,0,0,949.89,154.47Z"/><path d="M1387.44,90.47a6,6,0,0,0-5.93,6.15,6.1,6.1,0,0,0,5.93,6.23,6.41,6.41,0,0,0,6.23-6.23A6.29,6.29,0,0,0,1387.44,90.47Z"/><path d="M575.54,90.47a6,6,0,0,0-5.92,6.15,6.09,6.09,0,0,0,5.92,6.23,6.41,6.41,0,0,0,6.23-6.23A6.29,6.29,0,0,0,575.54,90.47Z"/><path d="M0,0V250H1920V0ZM1434.33,100.92a2.11,2.11,0,1,1-2.13,2.09A2.11,2.11,0,0,1,1434.33,100.92ZM1320.71,88.23l5.51,13.33,5.47-13.33h2.78l-6.88,16.71h-2.77l-6.88-16.71Zm-8-10.41h2.54v27.12h-2.54Zm-114,3.45a1.83,1.83,0,0,1,1.78,1.75,1.81,1.81,0,1,1-1.78-1.75Zm1.37,7v16.71h-2.66V88.23Zm-19.46,0,5.51,13.33,5.47-13.33h2.78l-6.88,16.71h-2.78l-6.87-16.71Zm-45.1,0,5.89,11.81,5.92-11.81h3l-7.41,14.85-4.75,9.46h-3l4.74-9.5-7.4-14.81Zm-12.81,0h2.51V81.65h2.54v6.58h3.77v2.31h-3.77v14.4h-2.54V90.54h-2.51Zm-76.57-7a1.84,1.84,0,0,1,1.79,1.75,1.81,1.81,0,0,1-1.79,1.82,1.8,1.8,0,0,1-1.82-1.82A1.81,1.81,0,0,1,1046.09,81.27Zm1.37,7v16.71h-2.66V88.23Zm-24.13,0h2.55V91a8.19,8.19,0,0,1,6.3-3,8.71,8.71,0,0,1,8.67,8.66,8.83,8.83,0,0,1-8.67,8.74,8.1,8.1,0,0,1-6.3-3.08v10.26h-2.55Zm-39.75,12.69a2.11,2.11,0,0,1,2.09,2.09,3.09,3.09,0,0,1-.42,1.44l-1.82,3.46h-1.21l.72-2.89a2.08,2.08,0,0,1-1.48-2A2.11,2.11,0,0,1,983.58,100.92Zm-7.14-19.65A1.83,1.83,0,0,1,978.22,83a1.8,1.8,0,1,1-1.78-1.75Zm1.37,7v16.71h-2.66V88.23ZM944,77.44l3,3.34,3-3.34,1.52,1.06-3.95,5.09h-1.1l-4-5.09Zm-9.08,3.83A1.83,1.83,0,0,1,936.65,83a1.81,1.81,0,1,1-1.78-1.75Zm1.36,7v16.71h-2.65V88.23ZM925.75,77.82h2.54v27.12h-2.54Zm-34.85-.38,3,3.34,3-3.34,1.52,1.06-3.95,5.09h-1.11l-4-5.09Zm-60.26,3.83A1.83,1.83,0,0,1,832.42,83a1.81,1.81,0,1,1-1.78-1.75Zm1.36,7v16.71h-2.66V88.23Zm-61.1-7A1.84,1.84,0,0,1,772.69,83a1.81,1.81,0,0,1-1.79,1.82,1.79,1.79,0,1,1,0-3.57Zm1.37,7v16.71h-2.66V88.23Zm-59.93,0h2.55v2.28A7.42,7.42,0,0,1,720.55,88v2.51c-3,0-5.66,1.82-5.66,5.24v9.23h-2.55Zm-114.72,0,5.51,13.33,5.47-13.33h2.78l-6.88,16.71h-2.77l-6.88-16.71Zm-8-10.41h2.55v27.12H589.6Zm-43,10.41h2.54V91a8.21,8.21,0,0,1,6.31-3,8.7,8.7,0,0,1,8.66,8.66,8.82,8.82,0,0,1-8.66,8.74,8.12,8.12,0,0,1-6.31-3.08v10.26h-2.54Zm-12.24,4c-5.05-1.56-7.79-3.46-7.79-7.56s3.12-7.26,7.79-7.26a7.36,7.36,0,0,1,7.49,6h-3a4.76,4.76,0,0,0-4.45-3.19,4.63,4.63,0,0,0-4.9,4.49c0,2.35,1.63,3.41,4.9,4.44,5,1.6,8.82,3.57,8.82,8.32s-3.92,7.87-8.82,7.87A8.51,8.51,0,0,1,525.61,98h2.89a5.78,5.78,0,0,0,5.85,4.48c3.31,0,5.93-1.94,5.93-5.09C540.28,94.91,538.65,93.55,534.35,92.22ZM497.44,81.86l9.81,9.82-9.81,9.74-9.74-9.74Zm-71.8,83.56-9.74-9.74,9.74-9.82,9.81,9.82Zm36.76,3.87a8.52,8.52,0,0,1-8.74-7.26h2.89a5.78,5.78,0,0,0,5.85,4.48c3.31,0,5.93-1.94,5.93-5.09,0-2.51-1.63-3.87-5.93-5.2-5-1.56-7.79-3.46-7.79-7.56s3.12-7.26,7.79-7.26a7.36,7.36,0,0,1,7.49,6h-3a4.76,4.76,0,0,0-4.45-3.19,4.63,4.63,0,0,0-4.9,4.49c0,2.35,1.64,3.41,4.9,4.44,5.06,1.6,8.82,3.57,8.82,8.32S467.3,169.29,462.4,169.29Zm21.09.07a8.1,8.1,0,0,1-6.3-3.08v10.26h-2.55V152.23h2.55V155a8.19,8.19,0,0,1,6.3-3,8.7,8.7,0,0,1,8.66,8.66A8.82,8.82,0,0,1,483.49,169.36Zm29-.34H510v-2.74a8.11,8.11,0,0,1-6.31,3.08,8.82,8.82,0,0,1-8.66-8.74,8.7,8.7,0,0,1,8.66-8.66,8.19,8.19,0,0,1,6.31,3v-2.73h2.54Zm7.68-.08h-2.54V141.82h2.54Zm12.35,0h-2.77l-6.88-16.71h2.77l5.51,13.33,5.47-13.33h2.78Zm17.1.42a8.82,8.82,0,0,1-8.66-8.74,8.66,8.66,0,0,1,17.32,0A8.82,8.82,0,0,1,549.65,169.36Zm17.94-.15c-3.77,0-6.27-2.09-6.43-5h2.32c.23,1.41,1.94,2.63,4.11,2.63,2.47,0,4.1-1.11,4.1-2.63s-1.06-2.12-4.1-2.73c-4-.8-5.78-2.24-5.78-4.9s2-4.6,5.78-4.6c3.3,0,5.5,1.82,5.77,4.37H571c-.23-1.14-1.48-2-3.45-2s-3.42,1-3.42,2.21,1.1,2,3.83,2.51c4.3.87,6,2.35,6,5.12C574,167.12,571.76,169.21,567.59,169.21ZM584.47,105h-2.54v-2.74a8.12,8.12,0,0,1-6.31,3.08A8.82,8.82,0,0,1,567,96.62,8.7,8.7,0,0,1,575.62,88a8.21,8.21,0,0,1,6.31,3V88.23h2.54Zm21.11,56.78H591a6.14,6.14,0,0,0,5.89,5,5.88,5.88,0,0,0,4.64-2.31h3.15a8.68,8.68,0,0,1-7.79,4.82,8.82,8.82,0,0,1-8.66-8.74,8.66,8.66,0,0,1,17.32,0Zm18.85,7.14h-2.55v-9.53c0-3.31-1.51-4.94-4.29-4.94-3.38-.08-5.47,1.82-5.47,5.58v8.89h-2.55V152.23h2.55v2a7.22,7.22,0,0,1,5.47-2.28c4.79,0,6.84,2.13,6.84,7.45Zm2.26-64h-.49v-2a7.24,7.24,0,0,1-5.48,2.28c-4.78,0-6.83-2.13-6.83-7.45V88.23h2.54v9.53c0,3.31,1.52,4.94,4.29,4.94,3.39,0,5.48-1.9,5.48-5.58V88.23h2.54v16.71h-.3c-2.7,4,.8,4,3,2.85v2.32C628.86,111.44,623,110.72,626.69,104.94Zm18.68,56.86H630.82a6.13,6.13,0,0,0,5.89,5,5.86,5.86,0,0,0,4.63-2.31h3.15a8.65,8.65,0,0,1-7.78,4.82,8.83,8.83,0,0,1-8.67-8.74,8.67,8.67,0,0,1,17.33,0Zm2.26-59.52v10.26h-2.55V88.23h2.55V91a8.19,8.19,0,0,1,6.31-3,8.7,8.7,0,0,1,8.66,8.66,8.82,8.82,0,0,1-8.66,8.74A8.11,8.11,0,0,1,647.63,102.28Zm9.94,52.19c-3,0-5.66,1.82-5.66,5.24v9.23h-2.55V152.23h2.55v2.28a7.41,7.41,0,0,1,5.66-2.55Zm19.83,12.95c0,6.58-3.91,9.5-8.66,9.5a8.64,8.64,0,0,1-8.17-5.77h2.89a6,6,0,0,0,5.28,3.27c3.38,0,6-1.79,6-7v-1.1a8.22,8.22,0,0,1-6.23,2.89,8.7,8.7,0,0,1-8.66-8.66,8.82,8.82,0,0,1,8.66-8.74,8.18,8.18,0,0,1,6.23,3v-2.54h2.66Zm-3.29-62.06a8.82,8.82,0,0,1-8.66-8.74A8.7,8.7,0,0,1,674.11,88a8.19,8.19,0,0,1,6.31,3V88.23H683V105h-2.55v-2.74A8.11,8.11,0,0,1,674.11,105.36Zm11.23,63.58h-2.65V152.23h2.65ZM684,148.84a1.8,1.8,0,0,1-1.83-1.82,1.81,1.81,0,1,1,1.83,1.82Zm3.17-48.65h2.32c.22,1.41,1.93,2.63,4.1,2.63,2.47,0,4.1-1.11,4.1-2.63s-1.06-2.12-4.1-2.73c-4-.8-5.78-2.24-5.78-4.9s2-4.6,5.78-4.6c3.31,0,5.51,1.82,5.77,4.37H697c-.23-1.14-1.48-2-3.46-2s-3.42,1-3.42,2.21,1.1,2,3.84,2.51c4.29.87,6,2.35,6,5.12,0,2.93-2.24,5-6.42,5C689.81,105.21,687.3,103.12,687.15,100.19Zm18.41,68.75H703v-9.53c0-3.31-1.52-4.94-4.29-4.94-3.38-.08-5.47,1.82-5.47,5.58v8.89H690.7V152.23h2.55v2a7.22,7.22,0,0,1,5.47-2.28c4.79,0,6.84,2.13,6.84,7.45Zm1.42-64h-2.66V88.23H707Zm-1.36-20.1A1.8,1.8,0,0,1,703.79,83a1.81,1.81,0,1,1,1.83,1.82Zm12.21,84.52a8.82,8.82,0,0,1-8.66-8.74,8.67,8.67,0,0,1,17.33,0A8.83,8.83,0,0,1,717.83,169.36Zm8.95-64.42h-2.66V88.23h2.66Zm-1.37-20.1A1.8,1.8,0,0,1,723.59,83a1.81,1.81,0,0,1,1.82-1.75A1.84,1.84,0,0,1,727.2,83,1.81,1.81,0,0,1,725.41,84.84Zm10.36,84.37c-3.76,0-6.27-2.09-6.42-5h2.32c.22,1.41,1.93,2.63,4.1,2.63,2.47,0,4.1-1.11,4.1-2.63s-1.06-2.12-4.1-2.73c-4-.8-5.78-2.24-5.78-4.9s2-4.6,5.78-4.6c3.31,0,5.51,1.82,5.77,4.37h-2.31c-.23-1.14-1.48-2-3.46-2s-3.42,1-3.42,2.21,1.1,2,3.84,2.51c4.29.87,6,2.35,6,5.12C742.19,167.12,740,169.21,735.77,169.21ZM747,104.94h-2.55V95.41c0-3.31-1.52-4.94-4.29-4.94-3.38-.08-5.47,1.82-5.47,5.58v8.89h-2.55V88.23h2.55v2A7.22,7.22,0,0,1,740.16,88c4.78,0,6.84,2.13,6.84,7.45Zm13.58,64h-2.66V152.23h2.66Zm-1.36-20.1a1.8,1.8,0,0,1-1.83-1.82,1.81,1.81,0,1,1,1.83,1.82Zm-3.29-52.48L754.29,98v7h-2.54V77.82h2.54V94h.57l6.23-6.08h3.58l-6.88,6.65,9,10.41h-3.42Zm18.22,58.11c-3,0-5.66,1.82-5.66,5.24v9.23h-2.55V152.23h2.55v2.28a7.41,7.41,0,0,1,5.66-2.55Zm20.1,14.74c-3.76,0-6.27-2.09-6.42-5h2.32c.22,1.41,1.93,2.63,4.1,2.63,2.47,0,4.1-1.11,4.1-2.63s-1.06-2.12-4.1-2.73c-4-.8-5.78-2.24-5.78-4.9s2-4.6,5.78-4.6c3.31,0,5.51,1.82,5.77,4.37h-2.31c-.23-1.14-1.48-2-3.46-2s-3.42,1-3.42,2.21,1.1,2,3.84,2.51c4.29.87,6,2.35,6,5.12C800.67,167.12,798.43,169.21,794.25,169.21Zm8.3-64.27H800V95.41c0-3.31-1.25-4.94-3.72-4.94-3.08,0-5,1.71-5,5.77v8.7h-2.55V95.41c0-3.31-1.25-4.94-3.72-4.94-3.08,0-5,1.71-5,5.77v8.7h-2.54V88.23H780v2A6.37,6.37,0,0,1,785,88c2.92,0,4.75,1,5.62,3.23A6.26,6.26,0,0,1,796.28,88c4.33,0,6.27,2.13,6.27,7.45Zm9.64,64.42a8.83,8.83,0,0,1-8.67-8.74,8.67,8.67,0,0,1,17.33,0A8.82,8.82,0,0,1,812.19,169.36Zm2.83-64a8.83,8.83,0,0,1-8.67-8.74A8.71,8.71,0,0,1,815,88a8.19,8.19,0,0,1,6.3,3V88.23h2.55V105h-2.55v-2.74A8.1,8.1,0,0,1,815,105.36Zm26.2,63.58h-2.55v-2.66a8.11,8.11,0,0,1-6.31,3.08,8.82,8.82,0,0,1-8.66-8.74,8.7,8.7,0,0,1,8.66-8.66,8.19,8.19,0,0,1,6.31,3V141.82h2.55Zm13.33-14.47c-3,0-5.66,1.82-5.66,5.24v9.23h-2.54V152.23h2.54v2.28a7.44,7.44,0,0,1,5.66-2.55Zm6.24,14.47h-2.66V152.23h2.66Zm-1.37-20.1a1.79,1.79,0,1,1,0-3.57,1.84,1.84,0,0,1,1.79,1.75A1.81,1.81,0,0,1,859.42,148.84Zm4.2-43.9h-2.55V95.41c0-3.31-1.52-4.94-4.29-4.94-3.38-.08-5.47,1.82-5.47,5.58v8.89h-2.55V88.23h2.55v2A7.22,7.22,0,0,1,856.78,88c4.78,0,6.84,2.13,6.84,7.45Zm9.86,64.42a8.82,8.82,0,0,1-8.66-8.74,8.66,8.66,0,1,1,17.32,0A8.82,8.82,0,0,1,873.48,169.36ZM884.55,97.8H870a6.14,6.14,0,0,0,5.89,5,5.88,5.88,0,0,0,4.64-2.31h3.15a8.68,8.68,0,0,1-7.79,4.82,8.82,8.82,0,0,1-8.66-8.74,8.66,8.66,0,1,1,17.32,0Zm6.86,71.41c-3.76,0-6.26-2.09-6.42-5h2.32c.23,1.41,1.94,2.63,4.1,2.63,2.47,0,4.11-1.11,4.11-2.63s-1.07-2.12-4.11-2.73c-4-.8-5.77-2.24-5.77-4.9s2-4.6,5.77-4.6c3.31,0,5.51,1.82,5.78,4.37h-2.32c-.23-1.14-1.48-2-3.46-2s-3.42,1-3.42,2.21,1.11,2,3.84,2.51c4.3.87,6,2.35,6,5.12C897.83,167.12,895.59,169.21,891.41,169.21Zm2.42-64c-3.76,0-6.27-2.09-6.42-5h2.31c.23,1.41,1.94,2.63,4.11,2.63,2.47,0,4.1-1.11,4.1-2.63s-1.06-2.12-4.1-2.73c-4-.8-5.78-2.24-5.78-4.9s2-4.6,5.78-4.6c3.3,0,5.51,1.82,5.77,4.37h-2.32c-.22-1.14-1.48-2-3.45-2s-3.42,1-3.42,2.21,1.1,2,3.84,2.51c4.29.87,6,2.35,6,5.12C900.25,103.12,898,105.21,893.83,105.21Zm10.28,63.24-1.83,3.46h-1.21l.72-2.89a2.08,2.08,0,0,1-1.48-2,2.11,2.11,0,0,1,4.21,0A3.21,3.21,0,0,1,904.11,168.45Zm7.65-63.09a8.82,8.82,0,0,1-8.66-8.74A8.7,8.7,0,0,1,911.76,88a8.19,8.19,0,0,1,6.31,3V88.23h2.55V105h-2.55v-2.74A8.11,8.11,0,0,1,911.76,105.36Zm25.67,63.58h-2.55v-2.66a8.1,8.1,0,0,1-6.3,3.08,8.83,8.83,0,0,1-8.67-8.74,8.71,8.71,0,0,1,8.67-8.66,8.19,8.19,0,0,1,6.3,3V141.82h2.55Zm9.44-71.48c-4-.8-5.77-2.24-5.77-4.9s2-4.6,5.77-4.6c3.31,0,5.51,1.82,5.78,4.37h-2.32c-.23-1.14-1.48-2-3.46-2s-3.41,1-3.41,2.21,1.1,2,3.83,2.51c4.3.87,6,2.35,6,5.12,0,2.93-2.25,5-6.43,5-3.76,0-6.26-2.09-6.42-5h2.32c.23,1.41,1.94,2.63,4.1,2.63,2.47,0,4.11-1.11,4.11-2.63S949.91,98.07,946.87,97.46Zm3,71.9a8.82,8.82,0,0,1-8.66-8.74,8.67,8.67,0,0,1,17.33,0A8.83,8.83,0,0,1,949.89,169.36ZM959.83,98v7h-2.54V77.82h2.54V94h.57l6.23-6.08h3.58l-6.88,6.65,9,10.41h-3.42l-7.44-8.58Zm27.64,71h-2.54v-9.53c0-3.31-1.26-4.94-3.73-4.94-3.07,0-5,1.71-5,5.77v8.7h-2.55v-9.53c0-3.31-1.25-4.94-3.72-4.94-3.08,0-5,1.71-5,5.77v8.7h-2.54V152.23h2.54v2a6.37,6.37,0,0,1,5-2.28c2.93,0,4.75.95,5.62,3.23A6.27,6.27,0,0,1,981.2,152c4.34,0,6.27,2.13,6.27,7.45Zm7.95,0h-2.66V152.23h2.66Zm-1.37-20.1a1.79,1.79,0,1,1,0-3.57,1.84,1.84,0,0,1,1.79,1.75A1.81,1.81,0,0,1,994.05,148.84Zm21.58,20.1h-2.54v-9.53c0-3.31-1.52-4.94-4.3-4.94-3.38-.08-5.47,1.82-5.47,5.58v8.89h-2.54V152.23h2.54v2a7.22,7.22,0,0,1,5.47-2.28c4.79,0,6.84,2.13,6.84,7.45Zm2.76-63.92h-2.55v-2.74a8.1,8.1,0,0,1-6.3,3.08,8.83,8.83,0,0,1-8.67-8.74,8.71,8.71,0,0,1,8.67-8.66,8.19,8.19,0,0,1,6.3,3V88.23h2.55Zm15.71,63.92h-2.55v-2a7.2,7.2,0,0,1-5.47,2.28c-4.78,0-6.83-2.13-6.83-7.45v-9.53h2.54v9.53c0,3.31,1.52,4.94,4.29,4.94,3.38,0,5.47-1.9,5.47-5.58v-8.89h2.55Zm12.66.42a8.83,8.83,0,0,1-8.67-8.74,8.67,8.67,0,0,1,17.33,0A8.82,8.82,0,0,1,1046.76,169.36Zm16.6-.42c.08,4.79-2.28,7.75-6.57,7.75l0-2.5c2.58,0,4-2.24,4-5.25V152.23h2.66Zm-1.33-20.1a1.8,1.8,0,0,1-1.82-1.82,1.81,1.81,0,0,1,1.82-1.75,1.84,1.84,0,0,1,1.79,1.75A1.81,1.81,0,0,1,1062,148.84Zm4.43-43.9h-2.55V95.41c0-3.31-1.25-4.94-3.72-4.94-3.08,0-5,1.71-5,5.77v8.7h-2.54V88.23h2.54v2a6.37,6.37,0,0,1,5-2.28c2.92,0,4.75,1,5.62,3.23a6.27,6.27,0,0,1,5.66-3.23c4.33,0,6.27,2.13,6.27,7.45v9.53h-2.54V95.41c0-3.31-1.26-4.94-3.73-4.94-3.07,0-5,1.71-5,5.77Zm18,64.08h-2.55v-2.74a8.11,8.11,0,0,1-6.31,3.08,8.82,8.82,0,0,1-8.66-8.74,8.7,8.7,0,0,1,8.66-8.66,8.19,8.19,0,0,1,6.31,3v-2.73h2.55Zm14.57-64h-2.54v-2.74a8.12,8.12,0,0,1-6.31,3.08,8.82,8.82,0,0,1-8.66-8.74,8.7,8.7,0,0,1,8.66-8.66,8.21,8.21,0,0,1,6.31,3V88.23h2.54Zm10.62,64.34a8.12,8.12,0,0,1-6.31-3.08v10.26h-2.54V152.23h2.54V155a8.21,8.21,0,0,1,6.31-3,8.7,8.7,0,0,1,8.66,8.66A8.82,8.82,0,0,1,1109.68,169.36Zm9.56-64.42h-2.55V95.41c0-3.31-1.52-4.94-4.29-4.94-3.38-.08-5.47,1.82-5.47,5.58v8.89h-2.55V88.23h2.55v2A7.22,7.22,0,0,1,1112.4,88c4.79,0,6.84,2.13,6.84,7.45Zm10.24,64.42a8.82,8.82,0,0,1-8.66-8.74,8.66,8.66,0,0,1,17.32,0A8.82,8.82,0,0,1,1129.48,169.36Zm24.7-.42h-12.8v-2.43l9.38-11.85h-9.38v-2.43H1154v2.43l-9.38,11.85h9.61Zm7,0h-2.66V152.23h2.66Zm-1.37-20.1A1.8,1.8,0,0,1,1158,147a1.81,1.81,0,0,1,1.82-1.75,1.84,1.84,0,0,1,1.79,1.75A1.81,1.81,0,0,1,1159.8,148.84Zm-1.57-43.63c-3.76,0-6.27-2.09-6.42-5h2.32c.22,1.41,1.93,2.63,4.1,2.63,2.47,0,4.1-1.11,4.1-2.63s-1.06-2.12-4.1-2.73c-4-.8-5.78-2.24-5.78-4.9s2-4.6,5.78-4.6c3.3,0,5.51,1.82,5.77,4.37h-2.31c-.23-1.14-1.49-2-3.46-2s-3.42,1-3.42,2.21,1.1,2,3.84,2.51c4.29.87,6,2.35,6,5.12C1164.65,103.12,1162.41,105.21,1158.23,105.21Zm15.6,49.33h-3.77v14.4h-2.54v-14.4H1165v-2.31h2.51v-6.58h2.54v6.58h3.77Zm11.39,12.54-4.75,9.46h-3l4.75-9.5-7.41-14.81h3L1183.7,164l5.93-11.81h3Zm17.29,1.86h-2.77l-6.88-16.71h2.78l5.51,13.33,5.47-13.33h2.77Zm1.74-68.75h2.31c.23,1.41,1.94,2.63,4.11,2.63,2.47,0,4.1-1.11,4.1-2.63s-1.06-2.12-4.1-2.73c-4-.8-5.78-2.24-5.78-4.9s2-4.6,5.78-4.6c3.3,0,5.51,1.82,5.77,4.37h-2.32c-.22-1.14-1.48-2-3.45-2s-3.42,1-3.42,2.21,1.1,2,3.83,2.51c4.3.87,6,2.35,6,5.12,0,2.93-2.24,5-6.42,5C1206.91,105.21,1204.4,103.12,1204.25,100.19ZM1228.47,169h-2.55v-2.74a8.11,8.11,0,0,1-6.31,3.08,8.82,8.82,0,0,1-8.66-8.74,8.7,8.7,0,0,1,8.66-8.66,8.19,8.19,0,0,1,6.31,3v-2.73h2.55Zm-8.53-72.4A8.7,8.7,0,0,1,1228.6,88a8.19,8.19,0,0,1,6.31,3V88.23h2.54V105h-.83c-2.62,3.88.83,3.88,3,2.77v2.32c-2.55,1.33-8.36.61-4.71-5.17v-2.66a8.11,8.11,0,0,1-6.31,3.08A8.82,8.82,0,0,1,1219.94,96.62Zm19.13,72.59c-3.76,0-6.27-2.09-6.42-5H1235c.22,1.41,1.93,2.63,4.1,2.63,2.47,0,4.1-1.11,4.1-2.63s-1.06-2.12-4.1-2.73c-4-.8-5.78-2.24-5.78-4.9s2-4.6,5.78-4.6c3.3,0,5.51,1.82,5.77,4.37h-2.31c-.23-1.14-1.49-2-3.46-2s-3.42,1-3.42,2.21,1.1,2,3.84,2.51c4.29.87,6,2.35,6,5.12C1245.49,167.12,1243.25,169.21,1239.07,169.21Zm24.81-.27h-2.66V152.23h2.66Zm-1.37-20.1a1.8,1.8,0,0,1-1.82-1.82,1.81,1.81,0,0,1,1.82-1.75,1.84,1.84,0,0,1,1.79,1.75A1.81,1.81,0,0,1,1262.51,148.84Zm-3-43.63c-3.76,0-6.27-2.09-6.42-5h2.31c.23,1.41,1.94,2.63,4.11,2.63,2.47,0,4.1-1.11,4.1-2.63s-1.06-2.12-4.1-2.73c-4-.8-5.78-2.24-5.78-4.9s2-4.6,5.78-4.6c3.3,0,5.51,1.82,5.77,4.37h-2.31c-.23-1.14-1.49-2-3.46-2s-3.42,1-3.42,2.21,1.1,2,3.84,2.51c4.29.87,6,2.35,6,5.12C1265.88,103.12,1263.64,105.21,1259.46,105.21Zm18,49.26c-3,0-5.66,1.82-5.66,5.24v9.23h-2.55V152.23h2.55v2.28a7.41,7.41,0,0,1,5.66-2.55Zm1.08-49.11a8.1,8.1,0,0,1-6.3-3.08v10.26h-2.55V88.23h2.55V91a8.19,8.19,0,0,1,6.3-3,8.71,8.71,0,0,1,8.67,8.66A8.83,8.83,0,0,1,1278.53,105.36ZM1298.71,88a8.19,8.19,0,0,1,6.31,3V88.23h2.54V105H1305v-2.74a8.11,8.11,0,0,1-6.31,3.08,8.82,8.82,0,0,1-8.66-8.74A8.7,8.7,0,0,1,1298.71,88Zm.85,66.58h-3.76v14.4h-2.54v-14.4h-2.51v-2.31h2.51v-6.58h2.54v6.58h3.76ZM1319.17,169h-2.55v-2.74a8.1,8.1,0,0,1-6.3,3.08,8.83,8.83,0,0,1-8.67-8.74,8.71,8.71,0,0,1,8.67-8.66,8.19,8.19,0,0,1,6.3,3v-2.73h2.55Zm30.25-.08h-2.55v-9.53c0-3.31-1.25-4.94-3.72-4.94-3.08,0-5,1.71-5,5.77v8.7h-2.54v-9.53c0-3.31-1.26-4.94-3.73-4.94-3.07,0-5,1.71-5,5.77v8.7h-2.55V152.23h2.55v2a6.34,6.34,0,0,1,5-2.28c2.93,0,4.75.95,5.63,3.23a6.25,6.25,0,0,1,5.66-3.23c4.33,0,6.27,2.13,6.27,7.45Zm.36-64h-.49v-2a7.23,7.23,0,0,1-5.47,2.28c-4.79,0-6.84-2.13-6.84-7.45V88.23h2.54v9.53c0,3.31,1.52,4.94,4.3,4.94,3.38,0,5.47-1.9,5.47-5.58V88.23h2.54v16.71h-.3c-2.7,4,.8,4,3,2.85v2.32C1352,111.44,1346.13,110.72,1349.78,104.94Zm10,64.27c-3.76,0-6.27-2.09-6.42-5h2.32c.23,1.41,1.94,2.63,4.1,2.63,2.47,0,4.1-1.11,4.1-2.63s-1.06-2.12-4.1-2.73c-4-.8-5.77-2.24-5.77-4.9s2-4.6,5.77-4.6c3.31,0,5.51,1.82,5.78,4.37h-2.32c-.23-1.14-1.48-2-3.46-2s-3.42,1-3.42,2.21,1.1,2,3.84,2.51c4.29.87,6,2.35,6,5.12C1366.25,167.12,1364,169.21,1359.83,169.21Zm8.72-81h2.55v2.28a7.42,7.42,0,0,1,5.66-2.55v2.51c-3,0-5.66,1.82-5.66,5.24v9.23h-2.55Zm16.36,80.71h-2.55v-2a7.22,7.22,0,0,1-5.47,2.28c-4.79,0-6.84-2.13-6.84-7.45v-9.53h2.55v9.53c0,3.31,1.52,4.94,4.29,4.94,3.38,0,5.47-1.9,5.47-5.58v-8.89h2.55Zm-6.06-72.32a8.7,8.7,0,0,1,8.66-8.66,8.19,8.19,0,0,1,6.31,3V88.23h2.55V105h-2.55v-2.74a8.11,8.11,0,0,1-6.31,3.08A8.82,8.82,0,0,1,1378.85,96.62Zm16.66,72.59c-3.76,0-6.27-2.09-6.42-5h2.32c.23,1.41,1.94,2.63,4.1,2.63,2.47,0,4.11-1.11,4.11-2.63s-1.07-2.12-4.11-2.73c-4-.8-5.77-2.24-5.77-4.9s2-4.6,5.77-4.6c3.31,0,5.51,1.82,5.78,4.37H1399c-.23-1.14-1.48-2-3.46-2s-3.42,1-3.42,2.21,1.1,2,3.84,2.51c4.29.87,6,2.35,6,5.12C1401.93,167.12,1399.69,169.21,1395.51,169.21ZM1409,90.54h-3.76v14.4h-2.54V90.54h-2.51V88.23h2.51V81.65h2.54v6.58H1409Zm15.75,53.63c-3.91-.49-3.57,3.31-3.57,5.78v2.28h3.38v2.31h-3.38v14.4h-2.54v-14.4h-2.25v-2.31h2.25V150c0-4.11.11-9,6.11-8.13Zm1.31-39.23v-2.66a8.09,8.09,0,0,1-6.3,3.08,8.82,8.82,0,0,1-8.66-8.74,8.7,8.7,0,0,1,8.66-8.66,8.17,8.17,0,0,1,6.3,3V88.23h2.55V105h-.84c-2.62,3.88.84,3.88,3,2.77v2.32C1428.21,111.44,1422.4,110.72,1426,104.94Zm9.83,64.42a8.83,8.83,0,0,1-8.67-8.74,8.67,8.67,0,0,1,17.33,0A8.82,8.82,0,0,1,1435.87,169.36Zm27.51-.42h-2.55v-9.53c0-3.31-1.52-4.94-4.29-4.94-3.38-.08-5.47,1.82-5.47,5.58v8.89h-2.55V152.23h2.55v2a7.22,7.22,0,0,1,5.47-2.28c4.79,0,6.84,2.13,6.84,7.45Zm21.12.08H1482v-2.74a8.11,8.11,0,0,1-6.31,3.08,8.82,8.82,0,0,1-8.66-8.74,8.7,8.7,0,0,1,8.66-8.66,8.19,8.19,0,0,1,6.31,3v-2.73h2.54Zm10.61.19c-3.76,0-6.27-2.09-6.42-5H1491c.23,1.41,1.94,2.63,4.11,2.63,2.47,0,4.1-1.11,4.1-2.63s-1.06-2.12-4.1-2.73c-4-.8-5.78-2.24-5.78-4.9s2-4.6,5.78-4.6c3.3,0,5.51,1.82,5.77,4.37h-2.31c-.23-1.14-1.49-2-3.46-2s-3.42,1-3.42,2.21,1.1,2,3.84,2.51c4.29.87,6,2.35,6,5.12C1501.53,167.12,1499.29,169.21,1495.11,169.21Zm11-.08a2.11,2.11,0,1,1,2.09-2.12A2.12,2.12,0,0,1,1506.13,169.13Z"/><path d="M1475.58,154.47a6,6,0,0,0-5.93,6.15,6.09,6.09,0,0,0,5.93,6.23,6.41,6.41,0,0,0,6.23-6.23A6.29,6.29,0,0,0,1475.58,154.47Z"/><path d="M1419.66,90.47a6,6,0,0,0-5.93,6.15,6.1,6.1,0,0,0,5.93,6.23,6.41,6.41,0,0,0,6.23-6.23A6.29,6.29,0,0,0,1419.66,90.47Z"/><path d="M1435.87,154.47a6.05,6.05,0,0,0-6,6.15,6,6,0,1,0,12,0A6,6,0,0,0,1435.87,154.47Z"/><path d="M555.52,102.85a6.09,6.09,0,0,0,5.92-6.23,6,6,0,0,0-5.92-6.15,6.29,6.29,0,0,0-6.23,6.15A6.41,6.41,0,0,0,555.52,102.85Z"/><path d="M549.65,154.47a6,6,0,0,0-6,6.15,6,6,0,1,0,12,0A6,6,0,0,0,549.65,154.47Z"/><path d="M483.57,154.47a6.29,6.29,0,0,0-6.23,6.15,6.41,6.41,0,0,0,6.23,6.23,6.1,6.1,0,0,0,5.93-6.23A6,6,0,0,0,483.57,154.47Z"/><path d="M503.59,154.47a6,6,0,0,0-5.92,6.15,6.09,6.09,0,0,0,5.92,6.23,6.41,6.41,0,0,0,6.24-6.23A6.3,6.3,0,0,0,503.59,154.47Z"/><path d="M1310.24,154.47a6,6,0,0,0-5.93,6.15,6.1,6.1,0,0,0,5.93,6.23,6.41,6.41,0,0,0,6.23-6.23A6.29,6.29,0,0,0,1310.24,154.47Z"/></g></svg>