<svg xmlns="http://www.w3.org/2000/svg" width="1920" height="600" viewBox="0 0 1920 600"><title>slide 12</title><g id="a76425c1-23bd-4a5b-b3e3-25796d134e89" data-name="cutout"><path d="M906.78,278.69a10.34,10.34,0,0,0-8.28,3.6v12a10.34,10.34,0,0,0,8.28,3.6c5.16,0,8.7-4.44,8.7-9.6S911.94,278.69,906.78,278.69Z"/><ellipse cx="941.88" cy="288.29" rx="9" ry="9.6"/><path d="M1069.44,278.39c-4.38,0-6.84,2.82-7.68,6.78l13.62-.6C1075.5,280.25,1072.56,278.39,1069.44,278.39Z"/><path d="M1014.66,295.43a3.06,3.06,0,0,0,3.42,3.36c2,0,4.38-1,6.36-4v-4.68C1019.1,291.05,1014.66,292,1014.66,295.43Z"/><path d="M795.9,290.09c3.3,0,6.42-2.28,6.42-6s-2.82-6-6.42-6-6.42,2.28-6.42,6S792.3,290.09,795.9,290.09Z"/><ellipse cx="830.4" cy="288.29" rx="9" ry="9.6"/><ellipse cx="762.3" cy="288.29" rx="9" ry="9.6"/><path d="M797,304.25a21.19,21.19,0,0,1-6.9-.78,7.21,7.21,0,0,0-2,5.46c0,2.7,2,4.44,7.74,4.44,5.4,0,9.24-2.46,9.24-5.76C805.14,304.67,802.8,304.25,797,304.25Z"/><path d="M988.86,278.69a10.34,10.34,0,0,0-8.28,3.6v12a10.34,10.34,0,0,0,8.28,3.6c5.16,0,8.7-4.44,8.7-9.6S994,278.69,988.86,278.69Z"/><path d="M1161.18,278.69c-5.16,0-9,4.44-9,9.6s3.84,9.6,9,9.6,9-4.44,9-9.6S1166.34,278.69,1161.18,278.69Z"/><path d="M0,0V600H1920V0ZM1088.82,259.19l2.76-2.76,6.12,6,6.12-6,2.76,2.76V260l-8.46,8.76h-.84l-8.46-8.76ZM743.1,302.09l-.6.6H719.7l-.6-.6v-43.8l.6-.6h4.8l.6.6v39h17.4l.6.6Zm19.2,1.2a15,15,0,1,1,15-15A14.57,14.57,0,0,1,762.3,303.29Zm33.6,15c-8.4,0-13.2-2.88-13.2-9,0-3.3,1.86-6.06,4.38-8.22a6.46,6.46,0,0,1-.78-3.24l1.44-5.58a10.26,10.26,0,0,1-3.84-8.16c0-6.6,5.4-10.8,12-10.8,4.8,0,6.84,1.92,8.28,4l-2.4-5.1v-3l.6-.6h4.5l.6.6-.06,14.94c0,6.6-4.92,10.8-11.52,10.8a15.77,15.77,0,0,1-4.8-.78v2.52c0,2.1,2.22,2.52,5.88,2.52,6.18,0,13.92.54,13.92,7.74C810.9,313.61,804.3,318.29,795.9,318.29Zm34.5-15a15,15,0,1,1,15-15A14.57,14.57,0,0,1,830.4,303.29Zm37.32-24.6-.6.6H860.4v12.6c0,5.16.84,6,3.3,6a6.38,6.38,0,0,0,2.82-.54l.6.6v4.74a9.92,9.92,0,0,1-4,.6c-7.62,0-8.4-5.46-8.4-10.8v-13.2h-4.8l10.5-12v6.6h6.72l.6.6Zm15.6,23.4-.6.6h-4.5l-.6-.6v-22.8h-2.7l-.6-.6v-4.2l.6-.6h7.8l.6.6Zm1.08-39.66-3.78,3.78h-1l-3.78-3.78v-1l3.78-3.78h1l3.78,3.78Zm22.38,40.86a13.75,13.75,0,0,1-11.4-6l3.12,6v15l-5.7-.9v-42.9l.6-.6h4.5l.6.6v1.56a13.47,13.47,0,0,1,8.28-2.76c8.64,0,14.7,6.36,14.7,15S915.42,303.29,906.78,303.29Zm35.1,0a15,15,0,1,1,15-15A14.57,14.57,0,0,1,941.88,303.29Zm47,0a13.75,13.75,0,0,1-11.4-6l3.12,6v15l-5.7-.9v-42.9l.6-.6H980l.6.6v1.56a13.47,13.47,0,0,1,8.28-2.76c8.64,0,14.7,6.36,14.7,15S997.5,303.29,988.86,303.29Zm43.2,0a10.23,10.23,0,0,1-6.54-3.9,10.88,10.88,0,0,1-8.34,3.9c-3.24,0-8.22-1.44-8.22-7.56,0-5.94,6.42-8.58,15.48-9.48v-6.78a11.42,11.42,0,0,0-5.4-1.08,17.88,17.88,0,0,0-9.12,2.4l-.6-.6,1.2-5.16a28.52,28.52,0,0,1,9.72-1.74c7.44,0,9.9,3.24,9.9,7.38v14.82a5.82,5.82,0,0,0,3.12,3.3Zm15.3-1.2-.6.6h-4.5l-.6-.6v-22.8H1039l-.6-.6v-4.2l.6-.6h7.8l.6.6Zm1.08-39.66-3.78,3.78h-1l-3.78-3.78v-1l3.78-3.78h1l3.78,3.78Zm32.76,26.1-.66.6h-19c.36,4.8,4,8.76,8.82,8.76a15.37,15.37,0,0,0,8.46-2.4l.6.6v5.46a23.63,23.63,0,0,1-9.06,1.74c-8.64,0-14.7-6.36-14.7-15s5.76-15,13.8-15c5.4,0,12,2.7,12,12.12A19.69,19.69,0,0,1,1081.2,288.53Zm15.3,14.76a21.16,21.16,0,0,1-8.46-1.74l.6-5.34.6-.6a11,11,0,0,0,7.44,2.88c2.7,0,5-.84,5-3.42,0-5-13.62-3.78-13.62-13.5,0-5.88,5.88-8.28,10-8.28a18.45,18.45,0,0,1,7.86,1.74v5.64l-.6.6c-2.82-2.7-5.34-3.18-7.08-3.18-2.22,0-4.44.9-4.44,3.24,0,5.28,13.62,4,13.62,13.2C1107.36,300.47,1101.9,303.29,1096.5,303.29Zm24.66-1.2-.6.6h-4.5l-.6-.6v-46.5l5.7-.9Zm21.42,0-.6.6h-5.52L1123,286.61l12-12.72h5.16l.6.6v.72l-11,11.4,12.84,14.76Zm18.6,1.2a15,15,0,1,1,15-15A14.57,14.57,0,0,1,1161.18,303.29Zm29.76,0a21.16,21.16,0,0,1-8.46-1.74l.6-5.34.6-.6a11,11,0,0,0,7.44,2.88c2.7,0,5-.84,5-3.42,0-5-13.62-3.78-13.62-13.5,0-5.88,5.88-8.28,10-8.28a18.45,18.45,0,0,1,7.86,1.74v5.64l-.6.6c-2.82-2.7-5.34-3.18-7.08-3.18-2.22,0-4.44.9-4.44,3.24,0,5.28,13.62,4,13.62,13.2C1201.8,300.47,1196.34,303.29,1190.94,303.29Z"/></g></svg>