<svg xmlns="http://www.w3.org/2000/svg" viewBox="0 0 1920 1080"><defs><style>.cls-1{fill:#fff;}</style></defs><title>slide 4</title><g id="cutout"><path d="M728.1,305.44c5.16,0,9-4.44,9-9.6s-3.84-9.6-9-9.6-9,4.44-9,9.6S722.94,305.44,728.1,305.44Z"/><path d="M1059.27,515.7c-4.38,0-6.84,2.82-7.68,6.78l13.62-.6C1065.33,517.56,1062.39,515.7,1059.27,515.7Z"/><path d="M467.53,185.94c-4.38,0-6.84,2.82-7.68,6.78l13.62-.6C473.59,187.8,470.65,185.94,467.53,185.94Z"/><path d="M909.33,515.7c-4.38,0-6.84,2.82-7.68,6.78l13.62-.6C915.39,517.56,912.45,515.7,909.33,515.7Z"/><path d="M915.14,684.56a6,6,0,0,0-5.89,4.9H921A6.07,6.07,0,0,0,915.14,684.56Z"/><path d="M360.67,186.24a10.34,10.34,0,0,0-8.28,3.6v12a10.34,10.34,0,0,0,8.28,3.6c5.16,0,8.7-4.44,8.7-9.6S365.83,186.24,360.67,186.24Z"/><path d="M1068.92,684.56a6,6,0,0,0-5.93,6.15,6.1,6.1,0,0,0,5.93,6.23,6.41,6.41,0,0,0,6.23-6.23A6.29,6.29,0,0,0,1068.92,684.56Z"/><path d="M1022.52,750.56a6,6,0,0,0-5.93,6.15,6.1,6.1,0,0,0,5.93,6.23,6.41,6.41,0,0,0,6.23-6.23A6.29,6.29,0,0,0,1022.52,750.56Z"/><path d="M415.75,186.24c-5.16,0-9,4.44-9,9.6s3.84,9.6,9,9.6,9-4.44,9-9.6S420.91,186.24,415.75,186.24Z"/><path d="M695.08,618.56a6,6,0,0,0-5.93,6.15,6.1,6.1,0,0,0,5.93,6.23,6.41,6.41,0,0,0,6.23-6.23A6.29,6.29,0,0,0,695.08,618.56Z"/><path d="M1224.75,750.56a6,6,0,0,0-5.88,4.9h11.77A6.06,6.06,0,0,0,1224.75,750.56Z"/><path d="M1187.48,684.56a6,6,0,0,0-5.89,4.9h11.78A6.07,6.07,0,0,0,1187.48,684.56Z"/><path d="M991.9,750.56a6,6,0,0,0-5.89,4.9h11.77A6.06,6.06,0,0,0,991.9,750.56Z"/><path d="M709.52,684.56a6,6,0,0,0-5.93,6.15,6.1,6.1,0,0,0,5.93,6.23,6.41,6.41,0,0,0,6.23-6.23A6.29,6.29,0,0,0,709.52,684.56Z"/><path d="M645.07,618.56a6,6,0,0,0-5.93,6.15,6.1,6.1,0,0,0,5.93,6.23,6.41,6.41,0,0,0,6.23-6.23A6.29,6.29,0,0,0,645.07,618.56Z"/><path d="M1141.8,750.56a6,6,0,0,0-5.92,6.15,6.09,6.09,0,0,0,5.92,6.23,6.41,6.41,0,0,0,6.23-6.23A6.29,6.29,0,0,0,1141.8,750.56Z"/><path d="M1124.93,690.71a6,6,0,0,0-5.93-6.15,6.29,6.29,0,0,0-6.23,6.15,6.41,6.41,0,0,0,6.23,6.23A6.1,6.1,0,0,0,1124.93,690.71Z"/><path d="M672,684.56a6,6,0,0,0-5.93,6.15,6.1,6.1,0,0,0,5.93,6.23,6.41,6.41,0,0,0,6.23-6.23A6.29,6.29,0,0,0,672,684.56Z"/><path d="M1174.94,750.56a6,6,0,0,0-5.93,6.15,6.1,6.1,0,0,0,5.93,6.23,6.41,6.41,0,0,0,6.23-6.23A6.29,6.29,0,0,0,1174.94,750.56Z"/><path d="M281,203a3.06,3.06,0,0,0,3.42,3.36c2,0,4.38-1,6.36-4V197.7C285.43,198.6,281,199.56,281,203Z"/><path d="M867.45,756.71a6,6,0,1,0-12,0,6,6,0,1,0,12,0Z"/><path d="M707.58,816.56a6,6,0,0,0-5.89,4.9h11.78A6.06,6.06,0,0,0,707.58,816.56Z"/><path d="M846.66,684.56a6.29,6.29,0,0,0-6.23,6.15,6.41,6.41,0,0,0,6.23,6.23,6.1,6.1,0,0,0,5.93-6.23A6,6,0,0,0,846.66,684.56Z"/><path d="M878,684.56a6,6,0,0,0-5.89,4.9H883.9A6.06,6.06,0,0,0,878,684.56Z"/><path d="M680,750.56a6,6,0,0,0-5.93,6.15,6.1,6.1,0,0,0,5.93,6.23,6.41,6.41,0,0,0,6.23-6.23A6.29,6.29,0,0,0,680,750.56Z"/><path d="M802.54,816.56a6,6,0,0,0-5.89,4.9h11.78A6.06,6.06,0,0,0,802.54,816.56Z"/><path d="M833.17,816.56a6,6,0,0,0-5.93,6.15,6.1,6.1,0,0,0,5.93,6.23,6.41,6.41,0,0,0,6.23-6.23A6.29,6.29,0,0,0,833.17,816.56Z"/><path d="M773.28,690.71a6,6,0,1,0-12,0,6,6,0,1,0,12,0Z"/><path d="M738.29,816.56a6.05,6.05,0,0,0-6,6.15,6,6,0,1,0,12,0A6,6,0,0,0,738.29,816.56Z"/><path d="M983.22,303a3.06,3.06,0,0,0,3.42,3.36c2,0,4.38-1,6.36-4V297.7C987.66,298.6,983.22,299.56,983.22,303Z"/><path d="M656.17,816.56a6,6,0,0,0-5.89,4.9h11.78A6.06,6.06,0,0,0,656.17,816.56Z"/><path d="M546.07,203a3.06,3.06,0,0,0,3.42,3.36c2,0,4.38-1,6.36-4V197.7C550.51,198.6,546.07,199.56,546.07,203Z"/><path d="M937.08,220.92c5.4,0,9.24-2.46,9.24-5.76,0-2.94-2.34-3.36-8.1-3.36a21.19,21.19,0,0,1-6.9-.78,7.21,7.21,0,0,0-2,5.46C929.34,219.18,931.38,220.92,937.08,220.92Z"/><path d="M916.8,303a3.06,3.06,0,0,0,3.42,3.36c2,0,4.38-1,6.36-4V297.7C921.24,298.6,916.8,299.56,916.8,303Z"/><path d="M937.08,197.64c3.3,0,6.42-2.28,6.42-6s-2.82-6-6.42-6-6.42,2.28-6.42,6S933.48,197.64,937.08,197.64Z"/><path d="M901.11,750.56a6,6,0,0,0-5.92,6.15,6.09,6.09,0,0,0,5.92,6.23,6.41,6.41,0,0,0,6.24-6.23A6.3,6.3,0,0,0,901.11,750.56Z"/><path d="M882.72,816.56a6,6,0,0,0-5.89,4.9h11.78A6.06,6.06,0,0,0,882.72,816.56Z"/><path d="M922.51,750.56a6,6,0,0,0-5.89,4.9H928.4A6.07,6.07,0,0,0,922.51,750.56Z"/><path d="M815.5,618.56a6,6,0,0,0-5.93,6.15,6.1,6.1,0,0,0,5.93,6.23,6.41,6.41,0,0,0,6.23-6.23A6.29,6.29,0,0,0,815.5,618.56Z"/><path d="M620.58,185.94c-4.38,0-6.84,2.82-7.68,6.78l13.62-.6C626.64,187.8,623.7,185.94,620.58,185.94Z"/><path d="M754.93,624.71a6.09,6.09,0,0,0,5.92,6.23,6.41,6.41,0,0,0,6.23-6.23,6.29,6.29,0,0,0-6.23-6.15A6,6,0,0,0,754.93,624.71Z"/><path d="M1677.23,185.94c-4.38,0-6.84,2.82-7.68,6.78l13.62-.6C1683.29,187.8,1680.35,185.94,1677.23,185.94Z"/><path d="M829.71,500.4v14.4H837c5.16,0,8.1-2.64,8.1-7.2s-2.94-7.2-8.1-7.2Z"/><ellipse cx="785.22" cy="191.64" rx="6.42" ry="6"/><path d="M785.22,220.92c5.4,0,9.24-2.46,9.24-5.76,0-2.94-2.34-3.36-8.1-3.36a21.19,21.19,0,0,1-6.9-.78,7.21,7.21,0,0,0-2,5.46C777.48,219.18,779.52,220.92,785.22,220.92Z"/><path d="M1236.78,305.44c5.15,0,8.69-4.44,8.69-9.6s-3.54-9.6-8.69-9.6a10.34,10.34,0,0,0-8.28,3.6v12A10.34,10.34,0,0,0,1236.78,305.44Z"/><path d="M1363,285.94c-4.38,0-6.84,2.82-7.68,6.78l13.62-.6C1369,287.8,1366.07,285.94,1363,285.94Z"/><ellipse cx="1362.83" cy="195.84" rx="9" ry="9.6"/><path d="M1017.35,684.56a6,6,0,0,0-5.92,6.15,6.09,6.09,0,0,0,5.92,6.23,6.41,6.41,0,0,0,6.23-6.23A6.29,6.29,0,0,0,1017.35,684.56Z"/><path d="M868.08,305.44c5.16,0,9-4.44,9-9.6s-3.84-9.6-9-9.6-9,4.44-9,9.6S862.92,305.44,868.08,305.44Z"/><ellipse cx="1609.85" cy="195.84" rx="9" ry="9.6"/><path d="M794.18,618.56a6,6,0,0,0-5.93,6.15,6.1,6.1,0,0,0,5.93,6.23,6.41,6.41,0,0,0,6.23-6.23A6.29,6.29,0,0,0,794.18,618.56Z"/><path d="M1150.35,684.56a6,6,0,0,0-5.89,4.9h11.78A6.06,6.06,0,0,0,1150.35,684.56Z"/><path d="M1417,185.94c-4.38,0-6.84,2.82-7.68,6.78l13.63-.6C1423.08,187.8,1420.13,185.94,1417,185.94Z"/><path d="M796.65,750.56a6,6,0,0,0-5.88,4.9h11.77A6.06,6.06,0,0,0,796.65,750.56Z"/><path d="M810.42,203a3.06,3.06,0,0,0,3.42,3.36c2,0,4.38-1,6.36-4V197.7C814.86,198.6,810.42,199.56,810.42,203Z"/><path d="M1186.8,303a3.06,3.06,0,0,0,3.42,3.36c2,0,4.38-1,6.36-4V297.7C1191.24,298.6,1186.8,299.56,1186.8,303Z"/><path d="M1081.08,303a3.06,3.06,0,0,0,3.42,3.36c2,0,4.38-1,6.36-4V297.7C1085.52,298.6,1081.08,299.56,1081.08,303Z"/><path d="M0-.68v1082H1920V-.68ZM1672.07,169l3.78-3.78h1l3.78,3.78v1l-3.78,3.78h-1l-3.78-3.78ZM1519,166.74l2.76-2.76,6.12,6,6.12-6,2.76,2.76v.84l-8.46,8.76h-.84l-8.46-8.76Zm-64.31-3.6,5.69-.9v47.4l-.6.6h-4.5l-.59-.6ZM1437.18,169l3.78-3.78h1l3.78,3.78v1l-3.78,3.78h-1l-3.78-3.78Zm-123.43,13,.61-.6h4.5l.6.6v1.56a13.45,13.45,0,0,1,8.27-2.76c8.64,0,14.7,6.36,14.7,15s-6.06,15-14.7,15a13.77,13.77,0,0,1-11.4-6l3.13,6v15l-5.71-.9Zm-33-1.2a15,15,0,1,1-15,15A14.56,14.56,0,0,1,1280.76,180.84Zm9.12,106-.6-.6V282l.6-.6h7.79l.61.6v27.6l-.61.6h-4.49l-.6-.6v-22.8ZM1250,169l3.78-3.78h1l3.78,3.78v1l-3.78,3.78h-1L1250,170Zm-1,17.82-.6-.6V182l.6-.6h7.8l.6.6v21.6a48.06,48.06,0,0,1-4.8,22.2h-5.1l-.6-.9a48.46,48.46,0,0,0,4.8-21.3v-16.8Zm1.89,510.1a5.86,5.86,0,0,0,4.64-2.31h3.15a8.65,8.65,0,0,1-7.79,4.82,8.82,8.82,0,0,1-8.66-8.74,8.67,8.67,0,0,1,17.33,0v1.18h-14.56A6.14,6.14,0,0,0,1251,696.94Zm.5-401.1c0,8.64-6,15-14.69,15a13.47,13.47,0,0,1-8.28-2.76v1.56l-.6.6h-4.5l-.6-.6v-46.5l5.7-.9v18.6l-3.12,6a13.75,13.75,0,0,1,11.4-6C1245.42,280.84,1251.47,287.2,1251.47,295.84Zm-24.81,388.91v-2.43h12.57v2.43l-9.38,11.85h9.61V699h-12.8V696.6l9.38-11.85Zm1.63-11.59,1.52-1.06,3,3.34,3-3.34,1.52,1.06-4,5.09h-1.1ZM1221.06,169l3.78-3.78h1l3.78,3.78v1l-3.78,3.78h-1l-3.78-3.78Zm-1.56,13,.6-.6h7.8l.6.6v27.6l-.6.6h-4.5l-.6-.6v-22.8h-2.7l-.6-.6Zm-13.92-7.2v6.6h6.72l.6.6v4.2l-.6.6h-6.72v12.6c0,5.16.84,6,3.3,6a6.38,6.38,0,0,0,2.82-.54l.6.6v4.74a9.92,9.92,0,0,1-4,.6c-7.62,0-8.4-5.46-8.4-10.8v-13.2h-4.8Zm-16.26,136c-3.24,0-8.22-1.44-8.22-7.56,0-5.94,6.42-8.58,15.48-9.48V287a11.42,11.42,0,0,0-5.4-1.08,17.88,17.88,0,0,0-9.12,2.4l-.6-.6,1.2-5.16a28.52,28.52,0,0,1,9.72-1.74c7.44,0,9.9,3.24,9.9,7.38V303a5.82,5.82,0,0,0,3.12,3.3l-1.2,4.5a10.23,10.23,0,0,1-6.54-3.9A10.88,10.88,0,0,1,1189.32,310.84Zm.17,366.23a1.81,1.81,0,1,1-3.61,0,1.81,1.81,0,0,1,3.61,0Zm15.92,14.48c-4-.8-5.77-2.24-5.77-4.9s2-4.6,5.77-4.6c3.31,0,5.51,1.82,5.78,4.37h-2.32c-.23-1.14-1.48-2-3.46-2s-3.42.95-3.42,2.21,1.11,2,3.84,2.5c4.3.88,6,2.36,6,5.13,0,2.93-2.24,5-6.42,5-3.76,0-6.27-2.09-6.42-5h2.32c.23,1.41,1.94,2.63,4.1,2.63,2.47,0,4.11-1.11,4.11-2.63S1208.45,692.16,1205.41,691.55ZM1177.2,182l.6-.6h4.5l.6.6-3.12,6.6c2.94-4.26,8-7.8,13.5-7.8l-.9,5.7-.6.6a11,11,0,0,0-8.88,4.5v18l-.6.6h-4.5l-.6-.6Zm-2.16,99.4.6.6v.72l-11,11.4,12.84,14.76v.72l-.6.6h-5.52l-13.5-16.08,12-12.72Zm-24.69,415.5a5.88,5.88,0,0,0,4.64-2.31h3.15a8.67,8.67,0,0,1-7.79,4.82,8.82,8.82,0,0,1-8.66-8.74,8.67,8.67,0,0,1,17.33,0v1.18h-14.56A6.14,6.14,0,0,0,1150.35,696.94Zm0-387.3v-46.5l5.7-.9v47.4l-.6.6H1151ZM1144,182l.6-.6h4.5l.6.6v17.4c0,4,.84,6,4.8,6,4.5,0,7-2.28,9.18-4.8V182l.6-.6h4.5l.6.6v27.6l-.6.6h-4.5l-.6-.6,3.12-6c-2.64,3.66-6.84,7.2-12.9,7.2-7.74,0-9.9-4-9.9-11.4Zm-12.6,128.8a21.16,21.16,0,0,1-8.46-1.74l.6-5.34.6-.6a11,11,0,0,0,7.44,2.88c2.7,0,5-.84,5-3.42,0-5-13.62-3.78-13.62-13.5,0-5.88,5.88-8.28,10-8.28a18.45,18.45,0,0,1,7.86,1.74v5.64l-.6.6c-2.82-2.7-5.34-3.18-7.08-3.18-2.22,0-4.44.9-4.44,3.24,0,5.28,13.62,4,13.62,13.2C1142.28,308,1136.82,310.84,1131.42,310.84Zm10.08-43.26-8.46,8.76h-.84l-8.46-8.76v-.84l2.76-2.76,6.12,6,6.12-6,2.76,2.76Zm-9.3-86.14h5.16l.6.6v.72l-11,11.4,12.84,14.76v.72l-.6.6h-5.52l-13.5-16.08Zm-19.5-18.3,5.7-.9v47.4l-.6.6h-4.5l-.6-.6ZM1106.34,269l3.78-3.78h1l3.78,3.78v1l-3.78,3.78h-1l-3.78-3.78Zm-1.56,13,.6-.6h7.8l.6.6v27.6l-.6.6h-4.5l-.6-.6v-22.8h-2.7l-.6-.6Zm-25.26-100,.6-.6h4.5l.6.6-3.12,6.6c2.94-4.26,8-7.8,13.5-7.8l-.9,5.7-.6.6a11,11,0,0,0-8.88,4.5v18l-.6.6h-4.5l-.6-.6Zm5.94,103.9a17.88,17.88,0,0,0-9.12,2.4l-.6-.6,1.2-5.16a28.52,28.52,0,0,1,9.72-1.74c7.44,0,9.9,3.24,9.9,7.38V303a5.82,5.82,0,0,0,3.12,3.3l-1.2,4.5a10.23,10.23,0,0,1-6.54-3.9,10.88,10.88,0,0,1-8.34,3.9c-3.24,0-8.22-1.44-8.22-7.56,0-5.94,6.42-8.58,15.48-9.48V287A11.42,11.42,0,0,0,1085.46,285.94Zm-7.59,232.94c0-5.88,5.88-8.28,10-8.28a18.45,18.45,0,0,1,7.86,1.74V518l-.6.6c-2.82-2.7-5.34-3.18-7.08-3.18-2.22,0-4.44.9-4.44,3.24,0,5.28,13.62,4,13.62,13.2,0,5.94-5.46,8.76-10.86,8.76a21.16,21.16,0,0,1-8.46-1.74l.6-5.34.6-.6a11,11,0,0,0,7.44,2.88c2.7,0,5-.84,5-3.42C1091.49,527.4,1077.87,528.6,1077.87,518.88ZM1062.6,169l3.78-3.78h1l3.78,3.78v1l-3.78,3.78h-1L1062.6,170ZM1061,182l.6-.6h7.8l.6.6v27.6l-.6.6h-4.5l-.6-.6v-22.8h-2.7l-.6-.6Zm-4.44,100,.6-.6h4.5l.6.6-3.12,6.6c2.94-4.26,8-7.8,13.5-7.8l-.9,5.7-.6.6a11,11,0,0,0-8.88,4.5v18l-.6.6h-4.5l-.6-.6Zm-2.49,216.74,3.78-3.78h1l3.78,3.78v1l-3.78,3.78h-1l-3.78-3.78Zm-9.69-233.54,3.78,3.78v1l-3.78,3.78h-1l-3.78-3.78v-1l3.78-3.78Zm-5.7,21.6-.6-.6V282l.6-.6h7.8l.6.6v27.6l-.6.6H1042l-.6-.6v-22.8ZM1029,516a12.58,12.58,0,0,0-9.78,4.8v18.6l-.6.6h-4.5l-.6-.6V511.8l.6-.6h4.5l.6.6-3.12,6a17,17,0,0,1,13.5-7.2c7.74,0,9.9,4,9.9,11.4v17.4l-.6.6h-4.5l-.6-.6V522C1033.77,518,1032.93,516,1029,516Zm-11.54,183.45a8.82,8.82,0,0,1-8.66-8.74,8.7,8.7,0,0,1,8.66-8.66,8.19,8.19,0,0,1,6.31,3v-2.73h2.54v16.79h-2.54v-2.74A8.11,8.11,0,0,1,1017.43,699.45ZM1033,169l3.78-3.78h1l3.78,3.78v1l-3.78,3.78h-1L1033,170Zm-1.56,13,.6-.6h7.8l.6.6v27.6l-.6.6h-4.5l-.6-.6v-22.8h-2.7l-.6-.6Zm-13.92-7.2v6.6h6.72l.6.6v4.2l-.6.6h-6.72v12.6c0,5.16.84,6,3.3,6a6.38,6.38,0,0,0,2.82-.54l.6.6v4.74a9.92,9.92,0,0,1-4,.6c-7.62,0-8.4-5.46-8.4-10.8v-13.2H1007Zm-13,107.2.6-.6h5.34l10,25.56-.9-6.06,7.74-19.5h5.4l.6.6v.6l-11.52,27.6H1016l-11.46-27.6Zm2.37,243.56a15,15,0,1,1-15-15A14.57,14.57,0,0,1,1006.89,525.6Zm-8.76,156.45v2.51c-3,0-5.67,1.82-5.67,5.24V699h-2.54V682.32h2.54v2.28A7.44,7.44,0,0,1,998.13,682.05ZM987.6,285.94a17.88,17.88,0,0,0-9.12,2.4l-.6-.6,1.2-5.16a28.52,28.52,0,0,1,9.72-1.74c7.44,0,9.9,3.24,9.9,7.38V303a5.82,5.82,0,0,0,3.12,3.3l-1.2,4.5a10.23,10.23,0,0,1-6.54-3.9,10.88,10.88,0,0,1-8.34,3.9c-3.24,0-8.22-1.44-8.22-7.56,0-5.94,6.42-8.58,15.48-9.48V287A11.42,11.42,0,0,0,987.6,285.94ZM976,182l.6-.6h4.5l.6.6-3.12,6a17,17,0,0,1,13.5-7.2c7.74,0,9.9,4,9.9,11.4v17.4l-.6.6h-4.5l-.6-.6v-17.4c0-4-.84-6-4.8-6a12.58,12.58,0,0,0-9.78,4.8v18.6l-.6.6h-4.5l-.6-.6ZM959,169l3.78-3.78h1l3.78,3.78v1l-3.78,3.78h-1L959,170Zm-1.56,13,.6-.6h7.8l.6.6v27.6l-.6.6h-4.5l-.6-.6v-22.8h-2.7l-.6-.6Zm4.38,98.8a18.45,18.45,0,0,1,7.86,1.74v5.64l-.6.6c-2.82-2.7-5.34-3.18-7.08-3.18-2.22,0-4.44.9-4.44,3.24,0,5.28,13.62,4,13.62,13.2,0,5.94-5.46,8.76-10.86,8.76a21.16,21.16,0,0,1-8.46-1.74l.6-5.34.6-.6a11,11,0,0,0,7.44,2.88c2.7,0,5-.84,5-3.42,0-5-13.62-3.78-13.62-13.5C951.9,283.24,957.78,280.84,961.86,280.84Zm-34.38-75.46,1.44-5.58a10.26,10.26,0,0,1-3.84-8.16c0-6.6,5.4-10.8,12-10.8,4.8,0,6.84,1.92,8.28,4l-2.4-5.1v-3l.6-.6h4.5l.6.6-.06,14.94c0,6.6-4.92,10.8-11.52,10.8a15.77,15.77,0,0,1-4.8-.78v2.52c0,2.1,2.22,2.52,5.88,2.52,6.18,0,13.92.54,13.92,7.74,0,6.72-6.6,11.4-15,11.4s-13.2-2.88-13.2-9c0-3.3,1.86-6.06,4.38-8.22A6.46,6.46,0,0,1,927.48,205.38Zm4.8,82.84V303a5.82,5.82,0,0,0,3.12,3.3l-1.2,4.5a10.23,10.23,0,0,1-6.54-3.9,10.88,10.88,0,0,1-8.34,3.9c-3.24,0-8.22-1.44-8.22-7.56,0-5.94,6.42-8.58,15.48-9.48V287a11.42,11.42,0,0,0-5.4-1.08,17.88,17.88,0,0,0-9.12,2.4l-.6-.6,1.2-5.16a28.52,28.52,0,0,1,9.72-1.74C929.82,280.84,932.28,284.08,932.28,288.22ZM928.21,695a2.11,2.11,0,1,1-2.13,2.09A2.11,2.11,0,0,1,928.21,695Zm-13.07,1.93a5.86,5.86,0,0,0,4.63-2.31h3.16a8.68,8.68,0,0,1-7.79,4.82,8.83,8.83,0,0,1-8.67-8.74,8.67,8.67,0,0,1,17.33,0v1.18H909.25A6.13,6.13,0,0,0,915.14,696.94Zm-21.93-8.89,6.23-6.08H903l-6.87,6.65,9,10.41h-3.42l-7.45-8.58L892.64,692v7H890.1V671.91h2.54v16.14Zm2.32-162.45c0-8.64,5.76-15,13.8-15,5.4,0,12,2.7,12,12.12a19.69,19.69,0,0,1-.24,3.12l-.66.6h-19c.36,4.8,4,8.76,8.82,8.76a15.37,15.37,0,0,0,8.46-2.4l.6.6v5.46a23.63,23.63,0,0,1-9.06,1.74C901.59,540.6,895.53,534.24,895.53,525.6Zm21.62,151.47a1.85,1.85,0,0,1-1.79,1.86,1.81,1.81,0,1,1,1.79-1.86ZM891.9,182l.6-.6H897l.6.6v17.4c0,4,.84,6,4.8,6,4.5,0,7-2.28,9.18-4.8V182l.6-.6h4.5l.6.6v27.6l-.6.6h-4.5l-.6-.6,3.12-6c-2.64,3.66-6.84,7.2-12.9,7.2-7.74,0-9.9-4-9.9-11.4Zm6.18,92.8v6.6h6.72l.6.6v4.2l-.6.6h-6.72v12.6c0,5.16.84,6,3.3,6a6.38,6.38,0,0,0,2.82-.54l.6.6v4.74a9.92,9.92,0,0,1-4,.6c-7.62,0-8.4-5.46-8.4-10.8v-13.2h-4.8ZM886.94,744.93a1.8,1.8,0,0,1-1.82-1.82,1.81,1.81,0,0,1,1.82-1.75,1.84,1.84,0,0,1,1.79,1.75A1.81,1.81,0,0,1,886.94,744.93Zm1.37,3.39V765h-2.66V748.32ZM878.85,516.6l-.6-.6v-4.2l.6-.6h7.8l.6.6v27.6l-.6.6h-4.5l-.6-.6V516.6Zm1-16.86v-1l3.78-3.78h1l3.78,3.78v1l-3.78,3.78h-1Zm-6.93-313.8a17.88,17.88,0,0,0-9.12,2.4l-.6-.6,1.2-5.16a28.52,28.52,0,0,1,9.72-1.74c7.44,0,9.9,3.24,9.9,7.38V203a5.82,5.82,0,0,0,3.12,3.3l-1.2,4.5a10.23,10.23,0,0,1-6.54-3.9,10.88,10.88,0,0,1-8.34,3.9c-3.24,0-8.22-1.44-8.22-7.56,0-5.94,6.42-8.58,15.48-9.48V187A11.42,11.42,0,0,0,872.88,185.94Zm-4.8,94.9a15,15,0,1,1-15,15A14.57,14.57,0,0,1,868.08,280.84Zm-.82,401.21v2.51c-3,0-5.66,1.82-5.66,5.24V699h-2.55V682.32h2.55v2.28A7.41,7.41,0,0,1,867.26,682.05ZM863.07,521.4v18l-.6.6H858l-.6-.6V511.8l.6-.6h4.5l.6.6L860,518.4c2.94-4.26,8-7.8,13.5-7.8l-.9,5.7-.6.6A11,11,0,0,0,863.07,521.4Zm-11.7-13.8c0,8-5.76,12.6-14.4,12.6h-7.26v19.2l-.6.6h-4.8l-.6-.6V495.6l.6-.6H837C845.61,495,851.37,499.56,851.37,507.6Zm-3.23,123.5a2.11,2.11,0,1,1-2.09-2.09A2.11,2.11,0,0,1,848.14,631.1ZM835,625.55c-4-.8-5.78-2.24-5.78-4.9s2-4.6,5.78-4.6c3.3,0,5.51,1.82,5.77,4.37h-2.31c-.23-1.14-1.48-2-3.46-2s-3.42.95-3.42,2.21,1.1,2,3.84,2.5c4.29.88,6,2.36,6,5.13,0,2.93-2.24,5-6.42,5-3.76,0-6.27-2.09-6.42-5h2.32c.22,1.41,1.93,2.63,4.1,2.63,2.47,0,4.1-1.11,4.1-2.63S838.07,626.16,835,625.55ZM835.68,169l3.78-3.78h1L844.2,169v1l-3.78,3.78h-1L835.68,170Zm-1.56,13,.6-.6h7.8l.6.6v27.6l-.6.6H838l-.6-.6v-22.8h-2.7l-.6-.6Zm6.66,118.6V282l.6-.6h4.5l.6.6v27.6l-.6.6h-4.5l-.6-.6,3.12-6c-2.64,3.66-6.84,7.2-12.9,7.2-7.74,0-9.9-4-9.9-11.4V282l.6-.6h4.5l.6.6v17.4c0,4,.84,6,4.8,6C836.1,305.44,838.62,303.16,840.78,300.64Zm-26-114.7a17.88,17.88,0,0,0-9.12,2.4l-.6-.6,1.2-5.16a28.52,28.52,0,0,1,9.72-1.74c7.44,0,9.9,3.24,9.9,7.38V203a5.82,5.82,0,0,0,3.12,3.3l-1.2,4.5a10.23,10.23,0,0,1-6.54-3.9,10.88,10.88,0,0,1-8.34,3.9c-3.24,0-8.22-1.44-8.22-7.56,0-5.94,6.42-8.58,15.48-9.48V187A11.42,11.42,0,0,0,814.8,185.94Zm-4.2,95.5H816l.6.6v.6l-11.52,27.6h-5.82l-11.46-27.6V282l.6-.6h5.34l10,25.56-.9-6.06Zm-14,481.5a5.86,5.86,0,0,0,4.64-2.31h3.15a8.65,8.65,0,0,1-7.79,4.82,8.82,8.82,0,0,1-8.66-8.74,8.67,8.67,0,0,1,17.33,0v1.18H790.77A6.13,6.13,0,0,0,796.65,762.94Zm-24.31-12.19v-2.43h12.57v2.43l-9.38,11.85h9.61V765h-12.8V762.6l9.38-11.85Zm8.08-469.31.6.6v27.6l-.6.6h-4.5l-.6-.6v-22.8h-2.7l-.6-.6V282l.6-.6ZM773.58,270v-1l3.78-3.78h1L782.1,269v1l-3.78,3.78h-1Zm1.52,346.34h2.55v2.28a7.42,7.42,0,0,1,5.66-2.55v2.51c-3,0-5.66,1.82-5.66,5.24V633H775.1Zm3.39,125.12,3-3.34,1.51,1.06-4,5.09h-1.1L774,739.16l1.52-1.06Zm.31-47.16h2.31c.23,1.41,1.94,2.63,4.11,2.63,2.47,0,4.1-1.11,4.1-2.63s-1.06-2.12-4.1-2.73c-4-.8-5.78-2.24-5.78-4.9s2-4.6,5.78-4.6c3.3,0,5.51,1.82,5.77,4.37h-2.32c-.22-1.14-1.48-2-3.45-2s-3.42.95-3.42,2.21,1.1,2,3.84,2.5c4.29.88,6,2.36,6,5.13,0,2.93-2.24,5-6.42,5C781.46,699.3,779,697.21,778.8,694.28Zm15.46-60.83a8.83,8.83,0,0,1-8.67-8.74,8.71,8.71,0,0,1,8.67-8.66,8.19,8.19,0,0,1,6.3,3V605.91h2.55V633h-2.55v-2.66A8.1,8.1,0,0,1,794.26,633.45ZM775.62,205.38l1.44-5.58a10.26,10.26,0,0,1-3.84-8.16c0-6.6,5.4-10.8,12-10.8,4.8,0,6.84,1.92,8.28,4l-2.4-5.1v-3l.6-.6h4.5l.6.6-.06,14.94c0,6.6-4.92,10.8-11.52,10.8a15.77,15.77,0,0,1-4.8-.78v2.52c0,2.1,2.22,2.52,5.88,2.52,6.18,0,13.92.54,13.92,7.74,0,6.72-6.6,11.4-15,11.4s-13.2-2.88-13.2-9c0-3.3,1.86-6.06,4.38-8.22A6.46,6.46,0,0,1,775.62,205.38Zm-8.38,413.67v-2.73h2.54v16.79h-2.54v-2.74a8.11,8.11,0,0,1-6.31,3.08,8.82,8.82,0,0,1-8.66-8.74,8.7,8.7,0,0,1,8.66-8.66A8.19,8.19,0,0,1,767.24,619.05Zm-22.53,59.88a1.79,1.79,0,1,1,0-3.57,1.84,1.84,0,0,1,1.79,1.75A1.81,1.81,0,0,1,744.71,678.93Zm1.37,3.39V699h-2.66V682.32ZM743.83,633h-2.77l-6.88-16.71H737l5.51,13.33,5.47-13.33h2.78ZM731.64,765.45a8.82,8.82,0,0,1-8.66-8.74,8.7,8.7,0,0,1,8.66-8.66,8.21,8.21,0,0,1,6.31,3v-2.73h2.54v16.79H738v-2.74A8.12,8.12,0,0,1,731.64,765.45Zm-.53-68.51a6,6,0,0,0,5.28-3.26h2.88a8.62,8.62,0,0,1-8.16,5.77,8.83,8.83,0,0,1-8.67-8.74,8.66,8.66,0,0,1,16.8-3h-2.85a6,6,0,0,0-5.28-3.19,6,6,0,0,0-6,6.15A6.16,6.16,0,0,0,731.11,696.94Zm33.71-415.5.6.6v4.2l-.6.6H758.1v12.6c0,5.16.84,6,3.3,6a6.38,6.38,0,0,0,2.82-.54l.6.6v4.74a9.92,9.92,0,0,1-4,.6c-7.62,0-8.4-5.46-8.4-10.8v-13.2h-4.8l10.5-12v6.6ZM752.73,699V682.32h2.66V699c.07,4.79-2.28,7.75-6.58,7.75l0-2.5C751.36,704.28,752.8,702,752.73,699Zm1.33-20.1a1.8,1.8,0,0,1-1.83-1.82,1.81,1.81,0,1,1,1.83,1.82ZM740,182l.6-.6h4.5l.6.6-3.12,6a17,17,0,0,1,13.5-7.2c7.74,0,9.9,4,9.9,11.4v17.4l-.6.6h-4.5l-.6-.6v-17.4c0-4-.84-6-4.8-6a12.58,12.58,0,0,0-9.78,4.8v18.6l-.6.6h-4.5l-.6-.6Zm-16.92-13,3.78-3.78h1l3.78,3.78v1l-3.78,3.78h-1L723.12,170Zm-1.56,13,.6-.6H730l.6.6v27.6l-.6.6h-4.5l-.6-.6v-22.8h-2.7l-.6-.6Zm6.54,98.8a15,15,0,1,1-15,15A14.57,14.57,0,0,1,728.1,280.84ZM709.6,699.45a8.82,8.82,0,0,1-8.66-8.74,8.7,8.7,0,0,1,8.66-8.66,8.21,8.21,0,0,1,6.31,3v-2.73h2.54v16.79h-2.54v-2.74A8.12,8.12,0,0,1,709.6,699.45Zm-14.44-20.52a1.79,1.79,0,1,1,0-3.57,1.83,1.83,0,0,1,1.78,1.75A1.81,1.81,0,0,1,695.16,678.93Zm1.37,3.39V699h-2.66V682.32Zm-1.38-48.87a8.82,8.82,0,0,1-8.66-8.74,8.7,8.7,0,0,1,8.66-8.66,8.19,8.19,0,0,1,6.31,3v-2.73H704v16.79h-2.55v-2.74A8.11,8.11,0,0,1,695.15,633.45Zm-6.57,38.46V699H686V671.91Zm26-38.61c-3.76,0-6.27-2.09-6.42-5h2.32c.22,1.41,1.93,2.63,4.1,2.63,2.47,0,4.1-1.11,4.1-2.63s-1.06-2.12-4.1-2.73c-4-.8-5.78-2.24-5.78-4.9s2-4.6,5.78-4.6c3.31,0,5.51,1.82,5.77,4.37h-2.31c-.23-1.14-1.48-2-3.46-2s-3.42.95-3.42,2.21,1.1,2,3.84,2.5c4.29.88,6,2.36,6,5.13C721,631.21,718.79,633.3,714.61,633.3ZM672,182l.6-.6h4.5l.6.6-3.12,6c2.64-3.66,7.44-7.2,12.3-7.2,4.56,0,7.08,1.62,8.34,4.74,2.7-2.64,6.42-4.74,10.14-4.74,7.14,0,9.3,4,9.3,11.4v17.4l-.6.6h-4.5l-.6-.6v-17.4c0-4-.84-6-4.2-6s-6.42,2.28-8.58,4.8v18.6l-.6.6h-4.5l-.6-.6v-17.4c0-4-.84-6-4.2-6s-6.42,2.28-8.58,4.8v18.6l-.6.6h-4.5l-.6-.6Zm-1.86,100L667,288c2.65-3.66,7.44-7.2,12.3-7.2,4.56,0,7.08,1.62,8.34,4.74,2.7-2.64,6.42-4.74,10.14-4.74,7.14,0,9.3,4,9.3,11.4v17.4l-.6.6H702l-.6-.6v-17.4c0-4-.84-6-4.2-6s-6.42,2.28-8.58,4.8v18.6l-.6.6h-4.5l-.6-.6v-17.4c0-4-.84-6-4.2-6s-6.42,2.28-8.58,4.8v18.6l-.6.6H665l-.59-.6V282l.59-.6h4.5Zm1.91,417.41a8.82,8.82,0,0,1-8.66-8.74,8.71,8.71,0,0,1,8.66-8.66,8.19,8.19,0,0,1,6.31,3v-2.73h2.55v16.79h-2.55v-2.74A8.11,8.11,0,0,1,672.05,699.45Zm-11.28,48.6v2.51c-3,0-5.66,1.82-5.66,5.24V765h-2.55V748.32h2.55v2.28A7.42,7.42,0,0,1,660.77,748.05Zm-3.23-63.42V699H655v-14.4h-2.5v-2.31H655v-6.58h2.55v6.58h3.76v2.31Zm-12.39-51.18a8.83,8.83,0,0,1-8.67-8.74,8.71,8.71,0,0,1,8.67-8.66,8.19,8.19,0,0,1,6.3,3v-2.73H654v16.79h-2.55v-2.74A8.1,8.1,0,0,1,645.15,633.45Zm-1.75,58.1c-4-.8-5.77-2.24-5.77-4.9s2-4.6,5.77-4.6c3.31,0,5.51,1.82,5.78,4.37h-2.32c-.23-1.14-1.48-2-3.46-2s-3.42.95-3.42,2.21,1.11,2,3.84,2.5c4.29.88,6,2.36,6,5.13,0,2.93-2.24,5-6.42,5-3.76,0-6.27-2.09-6.42-5h2.32c.23,1.41,1.94,2.63,4.1,2.63,2.47,0,4.11-1.11,4.11-2.63S646.44,692.16,643.4,691.55Zm15.35-65.7v-9.53h2.55v9.53c0,3.31,1.52,4.94,4.29,4.94,3.38,0,5.47-1.9,5.47-5.58v-8.89h2.55V633h-2.55v-2a7.22,7.22,0,0,1-5.47,2.28C660.8,633.3,658.75,631.17,658.75,625.85Zm17.56,14.93,0-2.5c2.58,0,4-2.25,4-5.25V616.32h2.66V633C683,637.82,680.6,640.78,676.31,640.78Zm5.24-27.85a1.79,1.79,0,1,1,0-3.57,1.84,1.84,0,0,1,1.79,1.75A1.81,1.81,0,0,1,681.55,612.93Zm-22-431.49h5.16l.6.6v.72l-11,11.4,12.84,14.76v.72l-.6.6h-5.52l-13.5-16.08Zm-19.5-18.3,5.7-.9v47.4l-.6.6h-4.5l-.6-.6Zm-4,105.88,3.78-3.78h1l3.78,3.78v1l-3.78,3.78h-1L636.13,270Zm-1.56,13,.6-.6H643l.6.6v27.6l-.6.6h-4.5l-.6-.6v-22.8h-2.7l-.6-.6Zm-8.23,402.52c-3.38-.08-5.47,1.82-5.47,5.58V699h-2.55V682.32h2.55v2a7.22,7.22,0,0,1,5.47-2.28c4.79,0,6.84,2.13,6.84,7.45V699h-2.55V689.5C630.63,686.19,629.11,684.56,626.34,684.56ZM581.17,189.12c0-5.88,5.87-8.28,10-8.28a18.41,18.41,0,0,1,7.85,1.74v5.64l-.6.6c-2.82-2.7-5.34-3.18-7.08-3.18-2.22,0-4.43.9-4.43,3.24,0,5.28,13.61,4,13.61,13.2,0,5.94-5.45,8.76-10.85,8.76a21.16,21.16,0,0,1-8.46-1.74l.6-5.34.6-.6A11,11,0,0,0,589.8,206c2.7,0,5-.84,5-3.42C594.79,197.64,581.17,198.84,581.17,189.12Zm-94.14-26,5.7-.9v47.4l-.6.6h-4.5l-.6-.6Zm.3,100.84,2.76,2.76v.84l-8.46,8.76h-.84l-8.46-8.76v-.84l2.76-2.76,6.12,6Zm-19.8-83.14c5.4,0,12,2.7,12,12.12a19.69,19.69,0,0,1-.24,3.12l-.66.6h-19c.36,4.8,4,8.76,8.82,8.76a15.37,15.37,0,0,0,8.46-2.4l.6.6v5.46a23.63,23.63,0,0,1-9.06,1.74c-8.64,0-14.7-6.36-14.7-15S459.49,180.84,467.53,180.84ZM438,169l3.78-3.78h1l3.78,3.78v1l-3.78,3.78h-1L438,170Zm-262,1-.6.6h-14.4v39l-.6.6h-4.8l-.6-.6v-39h-14.4l-.6-.6v-4.2l.6-.6h34.8l.6.6Zm14.1,39.6-.6.6h-4.5l-.6-.6v-22.8h-2.7l-.6-.6V182l.6-.6h7.8l.6.6ZM191.23,170l-3.78,3.78h-1L182.71,170v-1l3.78-3.78h1l3.78,3.78Zm14.7,39.66-.6.6h-4.5l-.6-.6v-46.5l5.7-.9Zm21.42,0-.6.6h-5.52l-13.5-16.08,12-12.72h5.16l.6.6v.72l-11,11.4,12.84,14.76Zm13,1.2a21.16,21.16,0,0,1-8.46-1.74l.6-5.34.6-.6a11,11,0,0,0,7.44,2.88c2.7,0,5-.84,5-3.42,0-5-13.62-3.78-13.62-13.5,0-5.88,5.88-8.28,10-8.28a18.45,18.45,0,0,1,7.86,1.74v5.64l-.6.6c-2.82-2.7-5.34-3.18-7.08-3.18-2.22,0-4.44.9-4.44,3.24,0,5.28,13.62,4,13.62,13.2C251.17,208,245.71,210.84,240.31,210.84Zm30.78-.6a9.92,9.92,0,0,1-4,.6c-7.62,0-8.4-5.46-8.4-10.8v-36.9l5.7-.9v37.2c0,5.16.84,6,3.3,6a6.38,6.38,0,0,0,2.82-.54l.6.6Zm27.3.6a10.23,10.23,0,0,1-6.54-3.9,10.88,10.88,0,0,1-8.34,3.9c-3.24,0-8.22-1.44-8.22-7.56,0-5.94,6.42-8.58,15.48-9.48V187a11.42,11.42,0,0,0-5.4-1.08,17.88,17.88,0,0,0-9.12,2.4l-.6-.6,1.2-5.16a28.52,28.52,0,0,1,9.72-1.74c7.44,0,9.9,3.24,9.9,7.38V203a5.82,5.82,0,0,0,3.12,3.3Zm15.3-1.2-.6.6h-4.5l-.6-.6v-22.8h-2.7l-.6-.6V182l.6-.6h7.8l.6.6ZM314.77,170,311,173.76h-1L306.25,170v-1l3.78-3.78h1l3.78,3.78Zm14.82,36.48-3.78,3.78h-1l-3.78-3.78v-1l3.78-3.78h1l3.78,3.78Zm0-20.28L325.81,190h-1l-3.78-3.78v-1l3.78-3.78h1l3.78,3.78Zm31.08,24.66a13.75,13.75,0,0,1-11.4-6l3.12,6v15l-5.7-.9V182l.6-.6h4.5l.6.6v1.56a13.47,13.47,0,0,1,8.28-2.76c8.64,0,14.7,6.36,14.7,15S369.31,210.84,360.67,210.84Zm36.48-24.3-.6.6a11,11,0,0,0-8.88,4.5v18l-.6.6h-4.5l-.6-.6V182l.6-.6h4.5l.6.6-3.12,6.6c2.94-4.26,8-7.8,13.5-7.8Zm18.6,24.3a15,15,0,1,1,15-15A14.57,14.57,0,0,1,415.75,210.84Zm19.2,14.1a48.46,48.46,0,0,0,4.8-21.3v-16.8h-2.7l-.6-.6V182l.6-.6h7.8l.6.6v21.6a48.06,48.06,0,0,1-4.8,22.2h-5.1Zm26.76,84.7-.6.6h-4.5l-.6-.6,3.12-6c-2.64,3.66-6.84,7.2-12.9,7.2-7.74,0-9.9-4-9.9-11.4V282l.6-.6h4.5l.6.6v17.4c0,4,.84,6,4.8,6,4.5,0,7-2.28,9.18-4.8V282l.6-.6h4.5l.6.6Zm30.6-4.8.6.6v4.2l-.6.6h-25.2l16.8-23.4H469.09l-.6-.6V282l.6-.6h25l-16.68,23.4Zm14.22-123.4h5.16l.6.6v.72l-11,11.4,12.84,14.76v.72l-.6.6H508l-13.5-16.08ZM516,907.07l-7.71,7.71h-3.43l-7.71-7.71v-3.43l7.71-7.71h3.43l7.71,7.71Zm0-379-7.71,7.71h-3.43l-7.71-7.71v-3.42l7.71-7.72h3.43l7.71,7.72Zm-8.34-217.27a21.16,21.16,0,0,1-8.46-1.74l.6-5.34.6-.6a11,11,0,0,0,7.44,2.88c2.7,0,5-.84,5-3.42,0-5-13.62-3.78-13.62-13.5,0-5.88,5.88-8.28,10-8.28a18.45,18.45,0,0,1,7.86,1.74v5.64l-.6.6c-2.82-2.7-5.34-3.18-7.08-3.18-2.22,0-4.44.9-4.44,3.24,0,5.28,13.62,4,13.62,13.2C518.53,308,513.07,310.84,507.67,310.84Zm14-110.8v-13.2h-4.8l10.5-12v6.6h6.72l.6.6v4.2l-.6.6h-6.72v12.6c0,5.16.84,6,3.3,6a6.38,6.38,0,0,0,2.82-.54l.6.6v4.74a9.92,9.92,0,0,1-4,.6C522.43,210.84,521.65,205.38,521.65,200Zm13.08,109.6-.6.6h-4.5l-.6-.6v-22.8h-2.7l-.6-.6V282l.6-.6h7.8l.6.6ZM535.81,270,532,273.76h-1L527.29,270v-1l3.78-3.78h1l3.78,3.78Zm17.1,39.66-.6.6h-4.5l-.6-.6v-22.8h-2.7l-.6-.6V282l.6-.6h7.8l.6.6ZM554,270l-3.78,3.78h-1L545.47,270v-1l3.78-3.78h1L554,269Zm.72-52.6c0-2.58,1.62-5.1,5.88-7.44a9.5,9.5,0,0,1-3.66-3,10.88,10.88,0,0,1-8.34,3.9c-3.24,0-8.22-1.44-8.22-7.56,0-5.94,6.42-8.58,15.48-9.48V187a11.42,11.42,0,0,0-5.4-1.08,17.88,17.88,0,0,0-9.12,2.4l-.6-.6,1.2-5.16a28.52,28.52,0,0,1,9.72-1.74c7.44,0,9.9,3.24,9.9,7.38V203a5.82,5.82,0,0,0,3.12,3.3l-1.2,4.5c-3.18,1.56-3.78,3.18-3.78,4.26,0,2.88,1.86,3.54,4.5,3.54l.6.6v3.6l-.6.6C558.55,223.44,554.71,221.82,554.71,217.38ZM579,827.51l-9.74-9.74L579,808l9.81,9.82Zm0-66-9.74-9.74L579,742l9.81,9.82Zm0-66-9.74-9.74L579,676l9.81,9.82Zm0-66-9.74-9.74L579,610l9.81,9.82Zm26-319.87-.6.6H600l-.61-.6v-17.4c0-4-.84-6-4.19-6s-6.42,2.28-8.58,4.8v18.6l-.6.6h-4.5l-.6-.6v-17.4c0-4-.84-6-4.2-6s-6.42,2.28-8.58,4.8v18.6l-.6.6H563l-.6-.6V282l.6-.6h4.5l.6.6L565,288c2.64-3.66,7.44-7.2,12.3-7.2,4.56,0,7.08,1.62,8.34,4.74,2.7-2.64,6.42-4.74,10.14-4.74,7.13,0,9.29,4,9.29,11.4Zm15.54-128.8c5.4,0,12,2.7,12,12.12a19.69,19.69,0,0,1-.24,3.12l-.66.6h-19c.36,4.8,4,8.76,8.82,8.76a15.37,15.37,0,0,0,8.46-2.4l.6.6v5.46a23.63,23.63,0,0,1-9.06,1.74c-8.64,0-14.7-6.36-14.7-15S612.54,180.84,620.58,180.84ZM624,305.44a6.44,6.44,0,0,0,2.82-.54l.6.6v4.74a9.92,9.92,0,0,1-4,.6c-7.62,0-8.4-5.46-8.4-10.8v-13.2h-4.8l10.5-12v6.6h6.72l.59.6v4.2l-.59.6h-6.72v12.6C620.65,304.6,621.49,305.44,624,305.44ZM609,605.91h3.34l17,23.32V605.91h2.77V633h-3.34l-17-23.33V633H609Zm3.61,66V699h-2.77V671.91Zm0,159.12h-2.77V803.91h2.77Zm0-76.18V765h-2.77V737.91h2.77v12.8l11.78-12.8h3.46l-10.75,11.93,13,15.19h-3.46l-11.36-13.14ZM633.18,831h-2.55V821.5c0-3.31-1.52-4.94-4.29-4.94-3.38-.08-5.47,1.82-5.47,5.58V831h-2.55V814.32h2.55v2a7.22,7.22,0,0,1,5.47-2.28c4.79,0,6.84,2.13,6.84,7.45Zm12.24-14.4h-3.76V831h-2.55v-14.4H636.6v-2.31h2.51v-6.58h2.55v6.58h3.76Zm1.82-51.6h-2.55v-2a7.22,7.22,0,0,1-5.47,2.28c-4.78,0-6.84-2.13-6.84-7.45v-9.53h2.55v9.53c0,3.31,1.52,4.94,4.29,4.94,3.38,0,5.47-1.9,5.47-5.58v-8.89h2.55Zm17.59,58.86H650.28a6.14,6.14,0,0,0,5.89,5.05,5.88,5.88,0,0,0,4.64-2.31H664a8.68,8.68,0,0,1-7.79,4.82,8.82,8.82,0,0,1-8.66-8.74,8.66,8.66,0,0,1,17.32,0ZM667,765h-2.66V748.32H667Zm-1.37-20.1a1.8,1.8,0,0,1-1.82-1.82,1.81,1.81,0,0,1,1.82-1.75,1.84,1.84,0,0,1,1.79,1.75A1.81,1.81,0,0,1,665.63,744.93ZM677,816.56c-3,0-5.66,1.82-5.66,5.24V831h-2.54V814.32h2.54v2.28a7.42,7.42,0,0,1,5.66-2.55Zm-5.62-59.85a8.7,8.7,0,0,1,8.66-8.66,8.19,8.19,0,0,1,6.31,3v-2.73h2.55v16.79h-2.55v-2.74a8.11,8.11,0,0,1-6.31,3.08A8.82,8.82,0,0,1,671.41,756.71ZM695.31,831h-2.55V821.5c0-3.31-1.52-4.94-4.29-4.94-3.38-.08-5.47,1.82-5.47,5.58V831h-2.55V814.32H683v2a7.22,7.22,0,0,1,5.47-2.28c4.79,0,6.84,2.13,6.84,7.45Zm20.94-7.14H701.69a6.14,6.14,0,0,0,5.89,5.05,5.86,5.86,0,0,0,4.64-2.31h3.15a8.65,8.65,0,0,1-7.79,4.82,8.82,8.82,0,0,1-8.66-8.74,8.67,8.67,0,0,1,17.33,0Zm-3.35-73.33c-3.07,0-5,1.71-5,5.77V765h-2.55V755.5c0-3.31-1.25-4.94-3.72-4.94-3.08,0-5,1.71-5,5.77V765h-2.54V748.32h2.54v2a6.37,6.37,0,0,1,5-2.28c2.92,0,4.75,1,5.62,3.23a6.27,6.27,0,0,1,5.66-3.23c4.33,0,6.27,2.13,6.27,7.45V765h-2.54V755.5C716.63,752.19,715.37,750.56,712.9,750.56Zm14.63,66.07h-3.76V831h-2.54v-14.4h-2.51v-2.31h2.51v-6.58h2.54v6.58h3.76Zm10.76,14.82a8.83,8.83,0,0,1-8.67-8.74,8.67,8.67,0,0,1,17.33,0A8.82,8.82,0,0,1,738.29,831.45Zm12.8-66.15c-3.76,0-6.26-2.09-6.42-5H747c.23,1.41,1.94,2.63,4.1,2.63,2.47,0,4.11-1.11,4.11-2.63s-1.07-2.12-4.11-2.73c-4-.8-5.77-2.24-5.77-4.9s2-4.6,5.77-4.6c3.31,0,5.51,1.82,5.78,4.37h-2.32c-.23-1.14-1.48-2-3.46-2s-3.42.95-3.42,2.21,1.11,2,3.84,2.5c4.3.88,6,2.36,6,5.13C757.52,763.21,755.27,765.3,751.09,765.3Zm7.53-74.59a8.66,8.66,0,1,1,17.32,0,8.66,8.66,0,1,1-17.32,0Zm9,140.59c-3.76,0-6.27-2.09-6.42-5h2.32c.23,1.41,1.94,2.63,4.1,2.63,2.47,0,4.11-1.11,4.11-2.63s-1.07-2.12-4.11-2.73c-4-.8-5.77-2.24-5.77-4.9s2-4.6,5.77-4.6c3.31,0,5.51,1.82,5.78,4.37h-2.32c-.23-1.14-1.48-2-3.46-2s-3.42.95-3.42,2.21,1.1,2,3.84,2.5c4.29.88,6,2.36,6,5.13C774,829.21,771.8,831.3,767.62,831.3Zm17.82-.27h-2.77l-6.88-16.71h2.78l5.51,13.33,5.47-13.33h2.77Zm25.77-7.14H796.65a6.14,6.14,0,0,0,5.89,5.05,5.88,5.88,0,0,0,4.64-2.31h3.15a8.67,8.67,0,0,1-7.79,4.82,8.82,8.82,0,0,1-8.66-8.74,8.67,8.67,0,0,1,17.33,0ZM807,689.46v-2.55h14.55v2.55Zm15.46,127.17h-3.76V831h-2.54v-14.4h-2.51v-2.31h2.51v-6.58h2.54v6.58h3.76Zm1.68-51.6h-2.55V755.5c0-3.31-1.52-4.94-4.29-4.94-3.39-.08-5.48,1.82-5.48,5.58V765h-2.54V748.32h2.54v2a7.24,7.24,0,0,1,5.48-2.28c4.78,0,6.84,2.13,6.84,7.45Zm.26-131.92h-2.55v-2.74a8.11,8.11,0,0,1-6.31,3.08,8.82,8.82,0,0,1-8.66-8.74,8.7,8.7,0,0,1,8.66-8.66,8.19,8.19,0,0,1,6.31,3v-2.73h2.55Zm17.67,198h-2.55v-2.74a8.1,8.1,0,0,1-6.3,3.08,8.83,8.83,0,0,1-8.67-8.74,8.71,8.71,0,0,1,8.67-8.66,8.19,8.19,0,0,1,6.3,3v-2.73h2.55ZM840.54,765l-7.44-8.58L831.46,758v7h-2.54V737.91h2.54v16.14H832l6.23-6.08h3.57L835,754.62,844,765Zm9.69,66h-2.66V814.32h2.66Zm-1.36-20.1a1.8,1.8,0,0,1-1.83-1.82,1.81,1.81,0,1,1,1.83,1.82ZM846.44,765V737.91H849V765Zm.14-65.58a8.1,8.1,0,0,1-6.3-3.08v10.26h-2.55V682.32h2.55v2.73a8.19,8.19,0,0,1,6.3-3,8.71,8.71,0,0,1,8.67,8.66A8.83,8.83,0,0,1,846.58,699.45Zm6.2,57.26a8.67,8.67,0,0,1,17.33,0,8.67,8.67,0,1,1-17.33,0ZM870.45,831H867.9V821.5c0-3.31-1.52-4.94-4.29-4.94-3.38-.08-5.47,1.82-5.47,5.58V831h-2.55V814.32h2.55v2a7.22,7.22,0,0,1,5.47-2.28c4.79,0,6.84,2.13,6.84,7.45Zm-1.1-140.32a8.66,8.66,0,1,1,17.32,0v1.18H872.12a6.14,6.14,0,0,0,5.89,5.05,5.88,5.88,0,0,0,4.64-2.31h3.15a8.68,8.68,0,0,1-7.79,4.82A8.82,8.82,0,0,1,869.35,690.71Zm15.39,118.36a1.85,1.85,0,0,1-1.79,1.86,1.81,1.81,0,1,1,1.79-1.86Zm6.64,14.82H876.83a6.14,6.14,0,0,0,5.89,5.05,5.88,5.88,0,0,0,4.64-2.31h3.15a8.68,8.68,0,0,1-7.79,4.82,8.82,8.82,0,0,1-8.66-8.74,8.66,8.66,0,1,1,17.32,0Zm4.41,7.33a2.11,2.11,0,1,1,2.09-2.12A2.12,2.12,0,0,1,895.79,831.22ZM910,765H907.5v-2.66a8.11,8.11,0,0,1-6.31,3.08,8.82,8.82,0,0,1-8.66-8.74,8.7,8.7,0,0,1,8.66-8.66,8.19,8.19,0,0,1,6.31,3V737.91H910Zm21.13-7.14H916.62a6.13,6.13,0,0,0,5.89,5.05,5.84,5.84,0,0,0,4.63-2.31h3.16a8.68,8.68,0,0,1-7.79,4.82,8.82,8.82,0,0,1-8.66-8.74,8.66,8.66,0,1,1,17.32,0Zm2.76-237.09v18.6l-.6.6h-4.5l-.6-.6V511.8l.6-.6h4.5l.6.6-3.12,6c2.64-3.66,7.44-7.2,12.3-7.2,4.56,0,7.08,1.62,8.34,4.74,2.7-2.64,6.42-4.74,10.14-4.74,7.14,0,9.3,4,9.3,11.4v17.4l-.6.6h-4.5l-.6-.6V522c0-4-.84-6-4.2-6s-6.42,2.28-8.58,4.8v18.6l-.6.6h-4.5l-.6-.6V522c0-4-.84-6-4.2-6S936.09,518.28,933.93,520.8ZM950,765h-2.55V755.5c0-3.31-1.52-4.94-4.29-4.94-3.38-.08-5.47,1.82-5.47,5.58V765h-2.55V748.32h2.55v2a7.22,7.22,0,0,1,5.47-2.28c4.79,0,6.84,2.13,6.84,7.45Zm12.24-14.4h-3.77V765H956v-14.4h-2.51v-2.31H956v-6.58h2.54v6.58h3.77Zm-9.62-64.74-2.66,3V699h-2.77V671.91H950v12.8l11.78-12.8h3.46l-10.76,11.93,13,15.19H964ZM968.49,765h-2.66V748.32h2.66Zm-1.37-20.1a1.79,1.79,0,1,1,0-3.57,1.84,1.84,0,0,1,1.79,1.75A1.81,1.81,0,0,1,967.12,744.93Zm14,5.7h-3.76V765h-2.55v-14.4h-2.5v-2.31h2.5v-6.58h2.55v6.58h3.76Zm-4.56-51.33c-4.79,0-6.84-2.13-6.84-7.45v-9.53h2.55v9.53c0,3.31,1.52,4.94,4.29,4.94,3.38,0,5.47-1.9,5.47-5.58v-8.89h2.55V699h-2.55v-2A7.22,7.22,0,0,1,976.58,699.3Zm24,58.59H986a6.13,6.13,0,0,0,5.89,5.05,5.86,5.86,0,0,0,4.63-2.31h3.15a8.65,8.65,0,0,1-7.78,4.82,8.83,8.83,0,0,1-8.67-8.74,8.67,8.67,0,0,1,17.33,0Zm.61-80.78a1.81,1.81,0,0,1,1.82-1.75,1.84,1.84,0,0,1,1.79,1.75,1.81,1.81,0,0,1-1.79,1.82A1.8,1.8,0,0,1,1001.17,677.11Zm.53,5.21h2.66V699h-2.66Zm10.14,68.31h-3.76V765h-2.54v-14.4H1003v-2.31h2.51v-6.58h2.54v6.58h3.76Zm19.61,14.48h-2.54v-2.74a8.12,8.12,0,0,1-6.31,3.08,8.82,8.82,0,0,1-8.66-8.74,8.7,8.7,0,0,1,8.66-8.66,8.21,8.21,0,0,1,6.31,3v-2.73h2.54Zm10.6.19c-3.76,0-6.26-2.09-6.42-5H1038c.23,1.41,1.94,2.63,4.1,2.63,2.47,0,4.11-1.11,4.11-2.63s-1.07-2.12-4.11-2.73c-4-.8-5.77-2.24-5.77-4.9s2-4.6,5.77-4.6c3.31,0,5.51,1.82,5.78,4.37h-2.32c-.23-1.14-1.48-2-3.46-2s-3.42.95-3.42,2.21,1.11,2,3.84,2.5c4.3.88,6,2.36,6,5.13C1048.48,763.21,1046.23,765.3,1042.05,765.3ZM1056.53,699H1054V689.5c0-3.31-1.25-4.94-3.72-4.94-3.08,0-5,1.71-5,5.77V699h-2.55V689.5c0-3.31-1.25-4.94-3.72-4.94-3.08,0-5,1.71-5,5.77V699h-2.54V682.32H1034v2a6.37,6.37,0,0,1,5-2.28c2.92,0,4.75,1,5.62,3.23a6.26,6.26,0,0,1,5.66-3.23c4.33,0,6.27,2.13,6.27,7.45ZM1045.47,525.6c0-8.64,5.76-15,13.8-15,5.4,0,12,2.7,12,12.12a19.69,19.69,0,0,1-.24,3.12l-.66.6h-19c.36,4.8,4,8.76,8.82,8.76a15.37,15.37,0,0,0,8.46-2.4l.6.6v5.46a23.63,23.63,0,0,1-9.06,1.74C1051.53,540.6,1045.47,534.24,1045.47,525.6ZM1066.87,765h-2.66V748.32h2.66Zm-1.37-20.1a1.79,1.79,0,1,1,0-3.57,1.84,1.84,0,0,1,1.79,1.75A1.81,1.81,0,0,1,1065.5,744.93Zm-5.17-54.22a8.71,8.71,0,0,1,8.67-8.66,8.19,8.19,0,0,1,6.3,3v-2.73h2.55v16.79h-2.55v-2.74a8.1,8.1,0,0,1-6.3,3.08A8.83,8.83,0,0,1,1060.33,690.71Zm20.1,59.85c-3,0-5.66,1.82-5.66,5.24V765h-2.54V748.32h2.54v2.28a7.44,7.44,0,0,1,5.66-2.55Zm8-51.26c-3.76,0-6.27-2.09-6.42-5h2.32c.23,1.41,1.94,2.63,4.1,2.63,2.47,0,4.11-1.11,4.11-2.63s-1.07-2.12-4.11-2.73c-4-.8-5.77-2.24-5.77-4.9s2-4.6,5.77-4.6c3.31,0,5.51,1.82,5.78,4.37h-2.32c-.23-1.14-1.48-2-3.46-2s-3.42.95-3.42,2.21,1.1,2,3.84,2.5c4.29.88,6,2.36,6,5.13C1094.87,697.21,1092.63,699.3,1088.45,699.3Zm14.14,66.15a8.83,8.83,0,0,1-8.67-8.74,8.66,8.66,0,0,1,16.8-3h-2.85a6,6,0,0,0-5.28-3.19,6.05,6.05,0,0,0-6,6.15,6.17,6.17,0,0,0,6,6.23,6,6,0,0,0,5.28-3.26h2.88A8.62,8.62,0,0,1,1102.59,765.45Zm10-69.08v10.26h-2.55V682.32h2.55v2.73a8.19,8.19,0,0,1,6.31-3,8.7,8.7,0,0,1,8.66,8.66,8.82,8.82,0,0,1-8.66,8.74A8.11,8.11,0,0,1,1112.62,696.37Zm17,68.66h-2.54V755.5c0-3.31-1.52-4.94-4.3-4.94-3.38,0-5.47,1.9-5.47,5.58V765h-2.54V736.39h2.54v13.94a7.22,7.22,0,0,1,5.47-2.28c4.79,0,6.84,2.13,6.84,7.45Zm1.79-82.71h2.55v2.28a7.42,7.42,0,0,1,5.66-2.55v2.51c-3,0-5.66,1.82-5.66,5.24V699h-2.55Zm19.34,82.79h-2.54v-2.74a8.12,8.12,0,0,1-6.31,3.08,8.83,8.83,0,0,1-8.67-8.74,8.71,8.71,0,0,1,8.67-8.66,8.21,8.21,0,0,1,6.31,3v-2.73h2.54Zm13.53-14.55c-3,0-5.66,1.82-5.66,5.24V765h-2.55V748.32h2.55v2.28a7.42,7.42,0,0,1,5.66-2.55ZM1165,699h-2.54V671.91H1165v16.14h.57l6.23-6.08h3.58l-6.88,6.65,9,10.41h-3.42l-7.44-8.58L1165,692Zm18.89,66.08h-2.55v-2.74a8.11,8.11,0,0,1-6.31,3.08,8.82,8.82,0,0,1-8.66-8.74,8.7,8.7,0,0,1,8.66-8.66,8.19,8.19,0,0,1,6.31,3v-2.73h2.55Zm-5-74.4a8.66,8.66,0,0,1,17.32,0v1.18h-14.55a6.13,6.13,0,0,0,5.89,5.05,5.84,5.84,0,0,0,4.63-2.31h3.16a8.68,8.68,0,0,1-7.79,4.82A8.82,8.82,0,0,1,1178.82,690.71Zm21.8,74.32-7.44-8.58-1.64,1.59v7H1189V737.91h2.54v16.14h.57l6.23-6.08h3.58l-6.88,6.65,9,10.41Zm13.38-14.4h-3.76V765h-2.55v-14.4h-2.5v-2.31h2.5v-6.58h2.55v6.58H1214Zm19.42,7.26h-14.55a6.13,6.13,0,0,0,5.88,5.05,5.86,5.86,0,0,0,4.64-2.31h3.15a8.65,8.65,0,0,1-7.79,4.82,8.82,8.82,0,0,1-8.66-8.74,8.67,8.67,0,0,1,17.33,0Zm12.2-7.33c-3,0-5.67,1.82-5.67,5.24V765h-2.54V748.32H1240v2.28a7.44,7.44,0,0,1,5.67-2.55Zm6.23,14.47h-2.66V748.32h2.66Zm-1.37-20.1a1.79,1.79,0,1,1,0-3.57,1.84,1.84,0,0,1,1.79,1.75A1.81,1.81,0,0,1,1250.48,744.93Zm12,20.37c-3.76,0-6.27-2.09-6.42-5h2.31c.23,1.41,1.94,2.63,4.11,2.63,2.47,0,4.1-1.11,4.1-2.63s-1.06-2.12-4.1-2.73c-4-.8-5.78-2.24-5.78-4.9s2-4.6,5.78-4.6c3.3,0,5.51,1.82,5.77,4.37H1266c-.23-1.14-1.49-2-3.46-2s-3.42.95-3.42,2.21,1.1,2,3.84,2.5c4.29.88,6,2.36,6,5.13C1268.91,763.21,1266.67,765.3,1262.49,765.3Zm11-.08a2.11,2.11,0,1,1,2.09-2.12A2.12,2.12,0,0,1,1273.51,765.22Zm5-66.19h-2.54V689.5c0-3.31-1.52-4.94-4.29-4.94-3.39-.08-5.48,1.82-5.48,5.58V699h-2.54V682.32h2.54v2a7.24,7.24,0,0,1,5.48-2.28c4.78,0,6.83,2.13,6.83,7.45Zm4-402.95-.66.6h-19c.36,4.8,4,8.76,8.82,8.76A15.39,15.39,0,0,0,1280,303l.59.6v5.46a23.58,23.58,0,0,1-9.05,1.74c-8.64,0-14.7-6.36-14.7-15s5.76-15,13.79-15c5.41,0,12,2.7,12,12.12A19.69,19.69,0,0,1,1282.43,296.08Zm12.43,403-7.44-8.58-1.64,1.59v7h-2.54V671.91h2.54v16.14h.57l6.23-6.08h3.57l-6.87,6.65,9,10.41Zm4.5-429-3.78,3.78h-1l-3.78-3.78v-1l3.78-3.78h1l3.78,3.78ZM1303.3,699h-2.55V671.91h2.55Zm21.31.08h-2.54v-2.74a8.11,8.11,0,0,1-6.31,3.08,8.82,8.82,0,0,1-8.66-8.74,8.7,8.7,0,0,1,8.66-8.66,8.19,8.19,0,0,1,6.31,3v-2.73h2.54Zm-8.15-416.47V282l.59-.6h5.34l10,25.56-.9-6.06,7.74-19.5h5.4l.6.6v.6l-11.52,27.6h-5.82Zm18.76,416.66c-3.76,0-6.27-2.09-6.42-5h2.32c.22,1.41,1.93,2.63,4.1,2.63,2.47,0,4.1-1.11,4.1-2.63s-1.06-2.12-4.1-2.73c-4-.8-5.78-2.24-5.78-4.9s2-4.6,5.78-4.6c3.3,0,5.51,1.82,5.77,4.37h-2.31c-.23-1.14-1.49-2-3.46-2s-3.42.95-3.42,2.21,1.1,2,3.84,2.5c4.29.88,6,2.36,6,5.13C1341.64,697.21,1339.4,699.3,1335.22,699.3Zm11-.08a2.11,2.11,0,1,1,2.09-2.12A2.12,2.12,0,0,1,1346.24,699.22Zm28.47-403.14-.66.6h-19c.36,4.8,4,8.76,8.82,8.76a15.37,15.37,0,0,0,8.46-2.4l.6.6v5.46a23.63,23.63,0,0,1-9.06,1.74c-8.64,0-14.7-6.36-14.7-15s5.76-15,13.8-15c5.4,0,12,2.7,12,12.12A19.69,19.69,0,0,1,1374.71,296.08Zm-11.88-85.24a15,15,0,1,1,15-15A14.56,14.56,0,0,1,1362.83,210.84Zm34.2,75.7-.6.6a11,11,0,0,0-8.88,4.5v18l-.6.6h-4.5l-.6-.6V282l.6-.6h4.5l.6.6-3.12,6.6c2.94-4.26,8-7.8,13.5-7.8Zm2.58-100-.6.6a11,11,0,0,0-8.88,4.5v18l-.59.6H1385l-.61-.6V182l.61-.6h4.5l.59.6-3.12,6.6c3-4.26,8-7.8,13.5-7.8Zm1.92,102.58c0-5.88,5.88-8.28,10-8.28a18.45,18.45,0,0,1,7.86,1.74v5.64l-.6.6c-2.82-2.7-5.34-3.18-7.08-3.18-2.22,0-4.44.9-4.44,3.24,0,5.28,13.62,4,13.62,13.2,0,5.94-5.46,8.76-10.86,8.76a21.16,21.16,0,0,1-8.46-1.74l.6-5.34.6-.6a11,11,0,0,0,7.44,2.88c2.7,0,5-.84,5-3.42C1415.15,297.64,1401.53,298.84,1401.53,289.12Zm21.31,235.57v3.42l-7.71,7.71h-3.43l-7.71-7.71v-3.42l7.71-7.72h3.43Zm0,382.38-7.71,7.71h-3.43l-7.71-7.71v-3.43l7.71-7.71h3.43l7.71,7.71Zm-4.92-701.63a15.41,15.41,0,0,0,8.46-2.4l.59.6v5.46a23.61,23.61,0,0,1-9,1.74c-8.64,0-14.7-6.36-14.7-15s5.76-15,13.79-15c5.41,0,12,2.7,12,12.12a19.69,19.69,0,0,1-.24,3.12l-.66.6h-19C1409.46,201.48,1413.05,205.44,1417.92,205.44Zm22.85,104.8a9.92,9.92,0,0,1-4,.6c-7.62,0-8.4-5.46-8.4-10.8v-36.9l5.7-.9v37.2c0,5.16.84,6,3.3,6a6.38,6.38,0,0,0,2.82-.54l.6.6Zm3.85-100.6-.61.6h-4.49l-.6-.6v-22.8h-2.7l-.6-.6V182l.6-.6H1444l.61.6Zm26.33,100-.6.6h-4.5l-.6-.6,3.12-6c-2.64,3.66-6.84,7.2-12.9,7.2-7.74,0-9.9-4-9.9-11.4V282l.6-.6h4.5l.6.6v17.4c0,4,.84,6,4.8,6,4.5,0,7-2.28,9.18-4.8V282l.6-.6h4.5l.6.6Zm-8.76-115.48,12-12.72h5.16l.6.6v.72l-11,11.4,12.84,14.76v.72l-.6.6h-5.52Zm23,112.3-3.78,3.78h-1l-3.78-3.78v-1l3.78-3.78h1l3.78,3.78Zm10.14-96.82-.6.6h-1.92c-3.9,1.74-4.68,3.66-4.68,4.86,0,2.88,1.86,3.54,4.5,3.54l.6.6v3.6l-.6.6c-5.64,0-9.48-1.62-9.48-6.06,0-2.7,1.75-5.34,6.48-7.74v-22.8h-2.69l-.61-.6V182l.61-.6h7.79l.6.6Zm1-39.66-3.78,3.78h-1l-3.78-3.78v-1l3.78-3.78h1l3.78,3.78ZM1539,204.84l.6.6v4.2l-.6.6h-25.2l16.8-23.4h-14.82l-.6-.6V182l.6-.6h25l-16.68,23.4Zm49.86,4.8-.6.6h-4.5l-.6-.6v-17.4c0-4-.84-6-4.2-6s-6.42,2.28-8.58,4.8v18.6l-.6.6h-4.5l-.6-.6v-17.4c0-4-.84-6-4.2-6s-6.42,2.28-8.58,4.8v18.6l-.6.6h-4.5l-.6-.6V182l.6-.6h4.5l.6.6-3.12,6c2.64-3.66,7.44-7.2,12.3-7.2,4.56,0,7.08,1.62,8.34,4.74,2.7-2.64,6.42-4.74,10.14-4.74,7.14,0,9.3,4,9.3,11.4Zm21,1.2a15,15,0,1,1,15-15A14.57,14.57,0,0,1,1609.85,210.84Zm47.58-1.2-.6.6h-4.5l-.6-.6v-17.4c0-4-.84-6-4.8-6a12.58,12.58,0,0,0-9.78,4.8v18.6l-.6.6h-4.5l-.6-.6V182l.6-.6h4.5l.6.6-3.12,6a17,17,0,0,1,13.5-7.2c7.74,0,9.9,4,9.9,11.4ZM1689,196.08l-.66.6h-19c.36,4.8,4,8.76,8.82,8.76a15.37,15.37,0,0,0,8.46-2.4l.6.6v5.46a23.63,23.63,0,0,1-9.06,1.74c-8.64,0-14.7-6.36-14.7-15s5.76-15,13.8-15c5.4,0,12,2.7,12,12.12A19.69,19.69,0,0,1,1689,196.08Zm49.8,13.56-.6.6h-4.5l-.6-.6v-17.4c0-4-.84-6-4.2-6s-6.42,2.28-8.58,4.8v18.6l-.6.6h-4.5l-.6-.6v-17.4c0-4-.84-6-4.2-6s-6.42,2.28-8.58,4.8v18.6l-.6.6h-4.5l-.6-.6V182l.6-.6h4.5l.6.6-3.12,6c2.64-3.66,7.44-7.2,12.3-7.2,4.56,0,7.08,1.62,8.34,4.74,2.7-2.64,6.42-4.74,10.14-4.74,7.14,0,9.3,4,9.3,11.4Zm15.36,1.2a21.16,21.16,0,0,1-8.46-1.74l.6-5.34.6-.6a11,11,0,0,0,7.44,2.88c2.7,0,5-.84,5-3.42,0-5-13.62-3.78-13.62-13.5,0-5.88,5.88-8.28,10-8.28a18.45,18.45,0,0,1,7.86,1.74v5.64l-.6.6c-2.82-2.7-5.34-3.18-7.08-3.18-2.22,0-4.44.9-4.44,3.24,0,5.28,13.62,4,13.62,13.2C1765,208,1759.55,210.84,1754.15,210.84Zm25.5-4.26-7.44,11.1-3.6-1.92v-.84l5.76-11.4h.78l4.5,2.22Z"/><path d="M1315.69,684.56a6,6,0,0,0-5.93,6.15,6.09,6.09,0,0,0,5.93,6.23,6.41,6.41,0,0,0,6.23-6.23A6.29,6.29,0,0,0,1315.69,684.56Z"/><path d="M731.56,750.56a6,6,0,0,0-5.93,6.15,6.1,6.1,0,0,0,5.93,6.23,6.41,6.41,0,0,0,6.23-6.23A6.29,6.29,0,0,0,731.56,750.56Z"/><path d="M868.5,203a3.06,3.06,0,0,0,3.42,3.36c2,0,4.38-1,6.36-4V197.7C872.94,198.6,868.5,199.56,868.5,203Z"/><ellipse cx="1280.76" cy="195.84" rx="9" ry="9.6"/><path d="M1327.73,205.44c5.16,0,8.7-4.44,8.7-9.6s-3.54-9.6-8.7-9.6a10.32,10.32,0,0,0-8.27,3.6v12A10.32,10.32,0,0,0,1327.73,205.44Z"/><path d="M982.89,525.6c0,5.16,3.84,9.6,9,9.6s9-4.44,9-9.6-3.84-9.6-9-9.6S982.89,520.44,982.89,525.6Z"/><path d="M1251,684.56a6,6,0,0,0-5.89,4.9h11.78A6.06,6.06,0,0,0,1251,684.56Z"/><path d="M1270.67,285.94c-4.38,0-6.84,2.82-7.67,6.78l13.62-.6C1276.74,287.8,1273.79,285.94,1270.67,285.94Z"/></g><g id="white_lines" data-name="white lines"><rect class="cls-1" x="1155.76" y="525.15" width="34.37" height="2.5"/><rect class="cls-1" x="1190.14" y="525.15" width="34.37" height="2.5"/><rect class="cls-1" x="1224.51" y="525.15" width="34.37" height="2.5"/><rect class="cls-1" x="1258.88" y="525.15" width="34.37" height="2.5"/><rect class="cls-1" x="1293.26" y="525.15" width="34.37" height="2.5"/><rect class="cls-1" x="1327.63" y="525.15" width="34.37" height="2.5"/><rect class="cls-1" x="1362" y="525.15" width="34.37" height="2.5"/><rect class="cls-1" x="1412.17" y="543.44" width="2.5" height="34.49"/><rect class="cls-1" x="1412.17" y="577.93" width="2.5" height="34.49"/><rect class="cls-1" x="1412.17" y="612.42" width="2.5" height="34.49"/><rect class="cls-1" x="1412.17" y="646.9" width="2.5" height="34.49"/><rect class="cls-1" x="1412.17" y="681.39" width="2.5" height="34.49"/><rect class="cls-1" x="1412.17" y="715.88" width="2.5" height="34.49"/><rect class="cls-1" x="1412.17" y="750.36" width="2.5" height="34.49"/><rect class="cls-1" x="1412.17" y="784.85" width="2.5" height="34.49"/><rect class="cls-1" x="1412.17" y="819.34" width="2.5" height="34.49"/><rect class="cls-1" x="1412.17" y="853.83" width="2.5" height="34.49"/><rect class="cls-1" x="1362.81" y="904.11" width="33.57" height="2.5"/><rect class="cls-1" x="1329.24" y="904.11" width="33.57" height="2.5"/><rect class="cls-1" x="1295.67" y="904.11" width="33.57" height="2.5"/><rect class="cls-1" x="1262.11" y="904.11" width="33.57" height="2.5"/><rect class="cls-1" x="1228.54" y="904.11" width="33.57" height="2.5"/><rect class="cls-1" x="1194.97" y="904.11" width="33.57" height="2.5"/><rect class="cls-1" x="1161.4" y="904.11" width="33.57" height="2.5"/><rect class="cls-1" x="1127.84" y="904.11" width="33.57" height="2.5"/><rect class="cls-1" x="1094.27" y="904.11" width="33.57" height="2.5"/><rect class="cls-1" x="1060.7" y="904.11" width="33.57" height="2.5"/><rect class="cls-1" x="1027.13" y="904.11" width="33.57" height="2.5"/><rect class="cls-1" x="993.57" y="904.11" width="33.57" height="2.5"/><rect class="cls-1" x="960" y="904.11" width="33.57" height="2.5"/><rect class="cls-1" x="926.43" y="904.11" width="33.57" height="2.5"/><rect class="cls-1" x="892.87" y="904.11" width="33.57" height="2.5"/><rect class="cls-1" x="859.3" y="904.11" width="33.57" height="2.5"/><rect class="cls-1" x="825.73" y="904.11" width="33.57" height="2.5"/><rect class="cls-1" x="792.16" y="904.11" width="33.57" height="2.5"/><rect class="cls-1" x="758.6" y="904.11" width="33.57" height="2.5"/><rect class="cls-1" x="725.03" y="904.11" width="33.57" height="2.5"/><rect class="cls-1" x="691.46" y="904.11" width="33.57" height="2.5"/><rect class="cls-1" x="657.89" y="904.11" width="33.57" height="2.5"/><rect class="cls-1" x="624.33" y="904.11" width="33.57" height="2.5"/><rect class="cls-1" x="590.76" y="904.11" width="33.57" height="2.5"/><rect class="cls-1" x="557.19" y="904.11" width="33.57" height="2.5"/><rect class="cls-1" x="523.62" y="904.11" width="33.57" height="2.5"/><rect class="cls-1" x="505.33" y="853.83" width="2.5" height="34.49"/><rect class="cls-1" x="505.33" y="819.34" width="2.5" height="34.49"/><rect class="cls-1" x="505.33" y="784.85" width="2.5" height="34.49"/><rect class="cls-1" x="505.33" y="750.36" width="2.5" height="34.49"/><rect class="cls-1" x="505.33" y="715.88" width="2.5" height="34.49"/><rect class="cls-1" x="505.33" y="681.39" width="2.5" height="34.49"/><rect class="cls-1" x="505.33" y="646.9" width="2.5" height="34.49"/><rect class="cls-1" x="505.33" y="612.42" width="2.5" height="34.49"/><rect class="cls-1" x="505.33" y="577.93" width="2.5" height="34.49"/><rect class="cls-1" x="505.33" y="543.44" width="2.5" height="34.49"/><rect class="cls-1" x="523.63" y="525.15" width="32.84" height="2.5"/><rect class="cls-1" x="556.47" y="525.15" width="32.84" height="2.5"/><rect class="cls-1" x="589.31" y="525.15" width="32.84" height="2.5"/><rect class="cls-1" x="622.15" y="525.15" width="32.84" height="2.5"/><rect class="cls-1" x="655" y="525.15" width="32.84" height="2.5"/><rect class="cls-1" x="687.84" y="525.15" width="32.84" height="2.5"/><rect class="cls-1" x="720.68" y="525.15" width="32.84" height="2.5"/></g></svg>