<svg xmlns="http://www.w3.org/2000/svg" width="1920" height="1080" viewBox="0 0 1920 1080"><title>slide 13</title><g id="aeec58b8-11b9-4559-90ff-b374d81e674b" data-name="cutout"><path d="M1268.11,200.94a3.06,3.06,0,0,0,3.42,3.36c2,0,4.38-1,6.36-4v-4.68C1272.55,196.56,1268.11,197.52,1268.11,200.94Z"/><ellipse cx="901.27" cy="189.6" rx="6.42" ry="6"/><path d="M902.41,209.76a21.19,21.19,0,0,1-6.9-.78,7.21,7.21,0,0,0-2,5.46c0,2.7,2,4.44,7.74,4.44,5.4,0,9.24-2.46,9.24-5.76C910.51,210.18,908.17,209.76,902.41,209.76Z"/><ellipse cx="867.67" cy="193.8" rx="9" ry="9.6"/><path d="M1183.81,200.94a3.06,3.06,0,0,0,3.42,3.36c2,0,4.38-1,6.36-4v-4.68C1188.25,196.56,1183.81,197.52,1183.81,200.94Z"/><path d="M1116,200.94a3.06,3.06,0,0,0,3.42,3.36c2,0,4.38-1,6.36-4v-4.68C1120.39,196.56,1116,197.52,1116,200.94Z"/><path d="M1047.25,184.2c-5.16,0-9,4.44-9,9.6s3.84,9.6,9,9.6,9-4.44,9-9.6S1052.41,184.2,1047.25,184.2Z"/><path d="M631.58,200.94A3.05,3.05,0,0,0,635,204.3c2,0,4.38-1,6.36-4v-4.68C636,196.56,631.58,197.52,631.58,200.94Z"/><path d="M0,0V1080H1920V0ZM1249.39,172.8v6.6h6.72l.6.6v4.2l-.6.6h-6.72v12.6c0,5.16.84,6,3.3,6a6.38,6.38,0,0,0,2.82-.54l.6.6v4.74a9.92,9.92,0,0,1-4,.6c-7.62,0-8.4-5.46-8.4-10.8V184.8h-4.8Zm-87-5.82,3.78-3.78h1l3.78,3.78v1l-3.78,3.78h-1l-3.78-3.78Zm-1.56,13,.6-.6h7.8l.6.6v27.6l-.6.6h-4.5l-.6-.6V184.8h-2.7l-.6-.6ZM1140,180l.6-.6h4.5l.6.6-3.12,6.6c2.94-4.26,8-7.8,13.5-7.8l-.9,5.7-.6.6a11,11,0,0,0-8.88,4.5v18l-.6.6h-4.5l-.6-.6Zm-62.4,0,.6-.6h5.34l10,25.56-.9-6.06,7.74-19.5h5.4l.6.6v.6l-11.52,27.6H1089l-11.46-27.6ZM364.24,514.81c.31-.73,5.25-3.29,6-3.06,8.67,2.62,36.71,25.75,53.32,45.56a8.4,8.4,0,0,1,.08,2.13,107,107,0,0,1-22.36,20.74,11.09,11.09,0,0,1-1.52.62H365.34c-.12-.08-.93-.87-.94-1.11C363.81,554.07,363.59,516.36,364.24,514.81Zm60.19,139.07c-1,3-12.66,14.79-24.1,23.52a8.1,8.1,0,0,1-2.3,1.2H366c-.43,0-1.26-1.16-1.29-1.58-.67-8.93-1.4-65.6-.09-67.29.8-1,6.71-3.47,7.41-3.08,15.76,8.62,41.16,32,52.32,44.91A9.35,9.35,0,0,1,424.43,653.88Zm15.42-114.69c1-1.11,32.73-28.85,34.24-29.59.69-.33,8,.09,8.36.33,4.13,2.55,32.13,33,32.11,33a8.53,8.53,0,0,1-.32,2.37c-.85,2.31-10.61,21.87-18.22,35.36a7.59,7.59,0,0,1-1.51.74h-35c-.11,0-1-.49-1.08-.53-8.32-14.14-17.66-36.68-18.41-39.29A7.78,7.78,0,0,1,439.85,539.19Zm75.68,101.36c-.09.59-11.39,27.73-17.17,37.21a6.64,6.64,0,0,1-2,1.34h-35.8a16.32,16.32,0,0,1-1.76-1.23c-3.41-4.14-12.37-24.3-17.27-35.38a6.92,6.92,0,0,1,.58-2.55c.88-2.46,29.43-32.4,32.31-32.86.4-.06,5.56.07,6.23.55,9.78,7,27.42,23,34.62,30.65A4,4,0,0,1,515.53,640.55Zm83.83,36.63c0,.55-1.76,1.78-2.27,1.78H537.9a5.32,5.32,0,0,1-2.13-2.11c-.15-.9-.13-38.51,1.08-62.45,0-.66,2.65-1.95,3-1.71,8.24,5.72,17.67,14,22.9,17,.43.24,3.29,0,4.74-.12s25.47-18.84,28.13-19.37a5.07,5.07,0,0,1,2.43,1.57C599.41,634,600.13,661,599.36,677.18Zm.31-97.93a5.7,5.7,0,0,1-1.73,1.85H537.12c-.53-.24-1.7-1-1.7-1.26-.32-23.23.27-45.92,1.46-64.59,0-.38,3.11-2.83,3.53-2.45,6.4,5.7,19.21,18.09,20.46,19.39.7.72,4.76.29,5.15.19,2.85-.74,17.9-12.1,30.14-19.06.36-.2,1.93,1.27,2.05,1.76C599.24,519.24,600,563.23,599.67,579.25Zm19.6-373.39a30.49,30.49,0,0,1-14.15,2.94c-12,0-22.32-9.3-22.32-23.1s10.32-23.1,22.32-23.1A30.9,30.9,0,0,1,619,165.54v5.76l-.6.6c-4.62-2.52-8-3.6-13.25-3.6-9.12,0-16,7.14-16,17.4s6.9,17.4,16,17.4a24.67,24.67,0,0,0,8.15-1.14V188.1l.61-.6h4.79l.6.6ZM649,208.8a10.23,10.23,0,0,1-6.54-3.9,10.88,10.88,0,0,1-8.34,3.9c-3.24,0-8.21-1.44-8.21-7.56,0-5.94,6.41-8.58,15.47-9.48V185a11.42,11.42,0,0,0-5.4-1.08,17.9,17.9,0,0,0-9.12,2.4l-.59-.6,1.2-5.16a28.46,28.46,0,0,1,9.71-1.74c7.44,0,9.9,3.24,9.9,7.38V201a5.82,5.82,0,0,0,3.12,3.3Zm19-.6a9.92,9.92,0,0,1-4,.6c-7.62,0-8.4-5.46-8.4-10.8V161.1l5.7-.9v37.2c0,5.16.84,6,3.3,6a6.38,6.38,0,0,0,2.82-.54l.6.6Zm30.18-.6-.6.6h-4.5l-.6-.6,3.12-6c-2.64,3.66-6.84,7.2-12.9,7.2-7.74,0-9.9-4-9.9-11.4V180l.6-.6h4.5l.6.6v17.4c0,4,.84,6,4.8,6,4.5,0,7-2.28,9.18-4.8V180l.6-.6h4.5l.6.6Zm23.52-23.4-.6.6h-6.72v12.6c0,5.16.84,6,3.3,6a6.38,6.38,0,0,0,2.82-.54l.6.6v4.74a9.92,9.92,0,0,1-4,.6c-7.62,0-8.4-5.46-8.4-10.8V184.8h-4.8l10.5-12v6.6h6.72l.6.6Zm15.6,23.4-.6.6h-4.5l-.6-.6V184.8h-2.7l-.6-.6V180l.6-.6h7.8l.6.6Zm1.08-39.66-3.78,3.78h-1l-3.78-3.78v-1l3.78-3.78h1l3.78,3.78Zm34.38,39.66-.6.6h-4.5l-.6-.6V190.2c0-4-.84-6-4.8-6a12.58,12.58,0,0,0-9.78,4.8v18.6l-.6.6h-4.5l-.6-.6V180l.6-.6h4.5l.6.6-3.12,6a17,17,0,0,1,13.5-7.2c7.74,0,9.9,4,9.9,11.4Zm15.9,0-.6.6h-4.5l-.6-.6V184.8h-2.7l-.6-.6V180l.6-.6h7.8l.6.6Zm1.08-39.66L786,171.72h-1l-3.78-3.78v-1L785,163.2h1l3.78,3.78Zm16.56,40.86a21.16,21.16,0,0,1-8.46-1.74l.6-5.34.6-.6a11,11,0,0,0,7.44,2.88c2.7,0,5-.84,5-3.42,0-5-13.62-3.78-13.62-13.5,0-5.88,5.88-8.28,10-8.28a18.45,18.45,0,0,1,7.86,1.74v5.64l-.6.6c-2.82-2.7-5.34-3.18-7.08-3.18-2.22,0-4.44.9-4.44,3.24,0,5.28,13.62,4,13.62,13.2C817.15,206,811.69,208.8,806.29,208.8Zm42.18-.6a9.92,9.92,0,0,1-4,.6c-7.62,0-8.4-5.46-8.4-10.8V161.1l5.7-.9v37.2c0,5.16.84,6,3.3,6a6.38,6.38,0,0,0,2.82-.54l.6.6Zm19.2.6a15,15,0,1,1,15-15A14.57,14.57,0,0,1,867.67,208.8Zm33.6,15c-8.4,0-13.2-2.88-13.2-9,0-3.3,1.86-6.06,4.38-8.22a6.46,6.46,0,0,1-.78-3.24l1.44-5.58a10.26,10.26,0,0,1-3.84-8.16c0-6.6,5.4-10.8,12-10.8,4.8,0,6.84,1.92,8.28,4l-2.4-5.1v-3l.6-.6h4.5l.6.6-.06,14.94c0,6.6-4.92,10.8-11.52,10.8a15.77,15.77,0,0,1-4.8-.78v2.52c0,2.1,2.22,2.52,5.88,2.52,6.18,0,13.92.54,13.92,7.74C916.27,219.12,909.67,223.8,901.27,223.8Zm34.5-15a15,15,0,1,1,15-15A14.57,14.57,0,0,1,935.77,208.8Zm37.32-24.6-.6.6h-6.72v12.6c0,5.16.84,6,3.3,6a6.38,6.38,0,0,0,2.82-.54l.6.6v4.74a9.92,9.92,0,0,1-4,.6c-7.62,0-8.4-5.46-8.4-10.8V184.8h-4.8l10.5-12v6.6h6.72l.6.6Zm15.6,23.4-.6.6h-4.5l-.6-.6V184.8h-2.7l-.6-.6V180l.6-.6h7.8l.6.6Zm1.08-39.66L986,171.72h-1l-3.78-3.78v-1L985,163.2h1l3.78,3.78Zm22.38,40.86a13.75,13.75,0,0,1-11.4-6l3.12,6v15l-5.7-.9V180l.6-.6h4.5l.6.6v1.56a13.47,13.47,0,0,1,8.28-2.76c8.64,0,14.7,6.36,14.7,15S1020.79,208.8,1012.15,208.8Zm20.1-15a15,15,0,1,1,15,15A14.57,14.57,0,0,1,1032.25,193.8Zm75.45,405.55a107.46,107.46,0,0,1-22.37,20.74,11.37,11.37,0,0,1-1.51.61h-34.43c-.13-.07-.93-.86-.94-1.1-.59-25.62-.81-63.34-.16-64.89.3-.73,5.24-3.29,6-3.06,8.67,2.63,36.71,25.76,53.31,45.57A8.36,8.36,0,0,1,1107.7,599.35Zm2.55-398.11c0-5.94,6.42-8.58,15.48-9.48V185a11.42,11.42,0,0,0-5.4-1.08,17.88,17.88,0,0,0-9.12,2.4l-.6-.6,1.2-5.16a28.52,28.52,0,0,1,9.72-1.74c7.44,0,9.9,3.24,9.9,7.38V201a5.82,5.82,0,0,0,3.12,3.3l-1.2,4.5a10.23,10.23,0,0,1-6.54-3.9,10.88,10.88,0,0,1-8.34,3.9C1115.23,208.8,1110.25,207.36,1110.25,201.24Zm85,383.37c-.84,2.3-10.61,21.86-18.21,35.35a7.87,7.87,0,0,1-1.51.74h-35c-.11,0-1-.48-1.08-.52-8.32-14.15-17.67-36.69-18.42-39.3a7.41,7.41,0,0,1-.15-2.39c1-1.11,32.73-28.85,34.23-29.58.7-.34,8,.08,8.37.32,4.13,2.56,32.12,33,32.1,33A8.28,8.28,0,0,1,1195.28,584.61Zm5.93-375.81a10.23,10.23,0,0,1-6.54-3.9,10.88,10.88,0,0,1-8.34,3.9c-3.24,0-8.22-1.44-8.22-7.56,0-5.94,6.42-8.58,15.48-9.48V185a11.42,11.42,0,0,0-5.4-1.08,17.88,17.88,0,0,0-9.12,2.4l-.6-.6,1.2-5.16a28.52,28.52,0,0,1,9.72-1.74c7.44,0,9.9,3.24,9.9,7.38V201a5.82,5.82,0,0,0,3.12,3.3Zm12.3-1.2-.6.6h-4.5l-.6-.6V180l.6-.6h4.5l.6.6-3.12,6a17,17,0,0,1,13.5-7.2c7.74,0,9.9,4,9.9,11.4v17.4l-.6.6h-4.5l-.6-.6V190.2c0-4-.84-6-4.8-6a12.58,12.58,0,0,0-9.78,4.8Zm65.11,411.86a5.77,5.77,0,0,1-1.73,1.84h-60.82c-.54-.24-1.7-1-1.71-1.25-.32-23.23.28-45.93,1.46-64.59,0-.39,3.11-2.83,3.54-2.45,6.4,5.69,19.21,18.09,20.46,19.38.69.73,4.76.29,5.15.19,2.85-.73,17.9-12.09,30.14-19.06.36-.2,1.92,1.27,2.05,1.76C1278.19,559.44,1279,603.43,1278.62,619.46Zm6.89-410.66a10.23,10.23,0,0,1-6.54-3.9,10.88,10.88,0,0,1-8.34,3.9c-3.24,0-8.22-1.44-8.22-7.56,0-5.94,6.42-8.58,15.48-9.48V185a11.42,11.42,0,0,0-5.4-1.08,17.88,17.88,0,0,0-9.12,2.4l-.6-.6,1.2-5.16a28.52,28.52,0,0,1,9.72-1.74c7.44,0,9.9,3.24,9.9,7.38V201a5.82,5.82,0,0,0,3.12,3.3Zm14.76,0a21.16,21.16,0,0,1-8.46-1.74l.6-5.34.6-.6a11,11,0,0,0,7.44,2.88c2.7,0,5-.84,5-3.42,0-5-13.62-3.78-13.62-13.5,0-5.88,5.88-8.28,10-8.28a18.48,18.48,0,0,1,7.86,1.74v5.64l-.6.6c-2.82-2.7-5.34-3.18-7.08-3.18-2.22,0-4.44.9-4.44,3.24,0,5.28,13.62,4,13.62,13.2C1311.13,206,1305.67,208.8,1300.27,208.8ZM1412.65,596c-1,3-12.66,14.78-24.09,23.52a8.48,8.48,0,0,1-2.3,1.19h-32c-.42,0-1.26-1.15-1.29-1.57-.66-8.94-1.4-65.6-.09-67.29.81-1,6.71-3.47,7.41-3.09,15.76,8.63,41.16,32,52.33,44.92A8.89,8.89,0,0,1,1412.65,596Zm89-13.83c-.09.59-11.39,27.72-17.18,37.2a6.3,6.3,0,0,1-2,1.34h-35.8a16.75,16.75,0,0,1-1.76-1.22c-3.42-4.14-12.38-24.31-17.27-35.39a7.09,7.09,0,0,1,.57-2.54c.89-2.46,29.43-32.4,32.32-32.86.39-.06,5.55.06,6.23.55,9.78,7,27.41,23,34.61,30.64A4.06,4.06,0,0,1,1501.66,582.16Zm79.92,37.36c0,.55-1.75,1.78-2.26,1.78h-59.19a5.27,5.27,0,0,1-2.14-2.11c-.14-.89-.13-38.5,1.09-62.45,0-.65,2.64-1.94,3-1.71,8.24,5.72,17.68,14.06,22.9,17,.43.24,3.29,0,4.74-.13s25.47-18.83,28.14-19.37a5.06,5.06,0,0,1,2.43,1.58C1581.64,576.33,1582.35,603.38,1581.58,619.52Z"/><path d="M1012.15,184.2a10.34,10.34,0,0,0-8.28,3.6v12a10.34,10.34,0,0,0,8.28,3.6c5.16,0,8.7-4.44,8.7-9.6S1017.31,184.2,1012.15,184.2Z"/><ellipse cx="935.77" cy="193.8" rx="9" ry="9.6"/></g><g id="b5ef94ad-80ce-483f-ba0b-d36d1c5d5249" data-name="other content"><rect x="269.51" y="426.32" width="424.5" height="336.24" style="fill:none;stroke:#4d4d4d;stroke-miterlimit:10"/><rect x="941.09" y="461.52" width="747.61" height="246.94" transform="translate(2629.79 1169.98) rotate(-180)" style="fill:none;stroke:#4d4d4d;stroke-miterlimit:10"/><path d="M742.4,581.55l-1.6-.09v-1.31h3v14.29h-1.4Z" style="fill:#999"/><path d="M755.32,590.4a4.34,4.34,0,0,1-4.58,4.2,4.28,4.28,0,0,1-4.54-4.2,3.9,3.9,0,0,1,2.18-3.6,3.66,3.66,0,0,1-1.82-3.12,3.92,3.92,0,0,1,4.18-3.72,4,4,0,0,1,4.22,3.72,3.76,3.76,0,0,1-1.84,3.12A4,4,0,0,1,755.32,590.4Zm-1.4,0a2.89,2.89,0,0,0-3.18-2.84,2.84,2.84,0,0,0-3.14,2.84,2.89,2.89,0,0,0,3.14,2.88A3,3,0,0,0,753.92,590.4ZM748,583.68c0,1.54,1.16,2.42,2.74,2.42s2.78-.88,2.78-2.42-1.2-2.36-2.78-2.36S748,582.1,748,583.68Z" style="fill:#999"/><path d="M762.82,594.66c-4.06,0-6-2.74-6-7.4s1.94-7.43,6-7.43,6,2.87,6,7.43S766.88,594.66,762.82,594.66Zm0-13.37c-3.16,0-4.56,2.33-4.56,6s1.4,5.94,4.56,5.94,4.56-2.2,4.56-5.94S766,581.29,762.82,581.29Z" style="fill:#999"/><path d="M773.54,586.46c-1.88,0-2.82-1.22-2.82-3.26s.94-3.18,2.82-3.18,2.82,1.18,2.82,3.18S775.42,586.46,773.54,586.46Zm-2,8h1.58l9.8-13.94h-1.56Zm2-13.24c-1.1,0-1.62.76-1.62,2s.52,2.08,1.62,2.08,1.64-.8,1.64-2.08S774.66,581.2,773.54,581.2Zm7.74,13.34c-1.88,0-2.82-1.22-2.82-3.26s.94-3.18,2.82-3.18,2.82,1.18,2.82,3.18S783.16,594.54,781.28,594.54Zm0-5.26c-1.1,0-1.62.76-1.62,2s.52,2.08,1.62,2.08,1.64-.8,1.64-2.08S782.4,589.28,781.28,589.28Z" style="fill:#999"/><path d="M458.65,822c0-4.8,7.2-4.8,7.2-8.22a2.63,2.63,0,0,0-2.74-2.9,2.73,2.73,0,0,0-2.86,2.9h-1.52a4.11,4.11,0,0,1,4.38-4.36,4,4,0,0,1,4.32,4.36c0,4.64-7.14,4.64-7.14,8.22v.62h7.06V824h-8.7Z" style="fill:#999"/><path d="M474.93,824.2c-4.06,0-6-2.74-6-7.4s1.94-7.42,6-7.42,6,2.86,6,7.42S479,824.2,474.93,824.2Zm0-13.36c-3.16,0-4.56,2.32-4.56,6s1.4,5.94,4.56,5.94,4.56-2.2,4.56-5.94S478.09,810.84,474.93,810.84Z" style="fill:#999"/><path d="M488.33,824.2c-4.06,0-6-2.74-6-7.4s1.94-7.42,6-7.42,6,2.86,6,7.42S492.39,824.2,488.33,824.2Zm0-13.36c-3.16,0-4.56,2.32-4.56,6s1.4,5.94,4.56,5.94,4.56-2.2,4.56-5.94S491.49,810.84,488.33,810.84Z" style="fill:#999"/><path d="M499.05,816c-1.88,0-2.82-1.22-2.82-3.26s.94-3.18,2.82-3.18,2.82,1.18,2.82,3.18S500.93,816,499.05,816Zm-2,8h1.59l9.8-13.94h-1.56Zm2-13.24c-1.1,0-1.62.76-1.62,2s.52,2.08,1.62,2.08,1.64-.8,1.64-2.08S500.17,810.74,499.05,810.74Zm7.74,13.34c-1.88,0-2.82-1.22-2.82-3.26s.94-3.18,2.82-3.18,2.82,1.18,2.82,3.18S508.67,824.08,506.79,824.08Zm0-5.26c-1.1,0-1.62.76-1.62,2s.52,2.08,1.62,2.08,1.64-.8,1.64-2.08S507.91,818.82,506.79,818.82Z" style="fill:#999"/><line x1="279.67" y1="797.62" x2="682.64" y2="797.62" style="fill:none;stroke:#4d4d4d;stroke-miterlimit:10"/><polygon points="281.86 805.1 268.9 797.62 281.86 790.14 281.86 805.1" style="fill:#4d4d4d"/><polygon points="680.45 805.1 693.41 797.62 680.45 790.14 680.45 805.1" style="fill:#4d4d4d"/><path d="M1739.83,580.38a4.2,4.2,0,0,1,3.78,4.36,4.25,4.25,0,0,1-4.56,4.44h-3.74v-1.4h3.74a3,3,0,0,0,0-6.08h-1.58l3.2-5.4h-5.36v-1.4h7.78Z" style="fill:#999"/><path d="M1751.57,585.2H1745v-1.4l6.44-8.9H1753v8.9h2.06v1.4H1753v4h-1.46Zm0-1.4v-6.72l-4.82,6.72Z" style="fill:#999"/><path d="M1762.59,589.4c-4.06,0-6-2.74-6-7.4s1.94-7.42,6-7.42,6,2.86,6,7.42S1766.65,589.4,1762.59,589.4Zm0-13.36c-3.16,0-4.56,2.32-4.56,6s1.4,5.94,4.56,5.94,4.56-2.2,4.56-5.94S1765.75,576,1762.59,576Z" style="fill:#999"/><path d="M1773.31,581.2c-1.88,0-2.82-1.22-2.82-3.26s.94-3.18,2.82-3.18,2.82,1.18,2.82,3.18S1775.19,581.2,1773.31,581.2Zm-2,8h1.58l9.8-13.94h-1.56Zm2-13.24c-1.1,0-1.62.76-1.62,2s.52,2.08,1.62,2.08,1.64-.8,1.64-2.08S1774.43,575.94,1773.31,575.94Zm7.74,13.34c-1.88,0-2.82-1.22-2.82-3.26s.94-3.18,2.82-3.18,2.82,1.18,2.82,3.18S1782.93,589.28,1781.05,589.28Zm0-5.26c-1.1,0-1.62.76-1.62,2s.52,2.08,1.62,2.08,1.64-.8,1.64-2.08S1782.17,584,1781.05,584Z" style="fill:#999"/><line x1="951.72" y1="740.33" x2="1677.77" y2="740.33" style="fill:none;stroke:#4d4d4d;stroke-miterlimit:10"/><polygon points="953.91 747.81 940.96 740.33 953.91 732.85 953.91 747.81" style="fill:#4d4d4d"/><polygon points="1675.58 747.81 1688.54 740.33 1675.58 732.85 1675.58 747.81" style="fill:#4d4d4d"/><line x1="726.01" y1="437.08" x2="726.01" y2="751.79" style="fill:none;stroke:#4d4d4d;stroke-miterlimit:10"/><polygon points="718.53 439.27 726.01 426.32 733.49 439.27 718.53 439.27" style="fill:#4d4d4d"/><polygon points="718.53 749.61 726.01 762.56 733.49 749.61 718.53 749.61" style="fill:#4d4d4d"/><path d="M1294.57,760.39l-1.6-.1V759h3v14.28h-1.4Z" style="fill:#999"/><path d="M1304.73,769.29h-6.56v-1.4l6.44-8.9h1.58v8.9h2.06v1.4h-2.06v4h-1.46Zm0-1.4v-6.72l-4.82,6.72Z" style="fill:#999"/><path d="M1315.75,773.49c-4.06,0-6-2.74-6-7.4s1.94-7.42,6-7.42,6,2.86,6,7.42S1319.81,773.49,1315.75,773.49Zm0-13.36c-3.16,0-4.56,2.32-4.56,6s1.4,5.94,4.56,5.94,4.56-2.2,4.56-5.94S1318.91,760.13,1315.75,760.13Z" style="fill:#999"/><path d="M1326.47,765.29c-1.88,0-2.82-1.22-2.82-3.26s.94-3.18,2.82-3.18,2.82,1.18,2.82,3.18S1328.35,765.29,1326.47,765.29Zm-2,8H1326l9.8-13.94h-1.56Zm2-13.24c-1.1,0-1.62.76-1.62,2s.52,2.08,1.62,2.08,1.64-.8,1.64-2.08S1327.59,760,1326.47,760Zm7.74,13.34c-1.88,0-2.82-1.22-2.82-3.26s.94-3.18,2.82-3.18,2.82,1.18,2.82,3.18S1336.09,773.37,1334.21,773.37Zm0-5.26c-1.1,0-1.62.76-1.62,2s.52,2.08,1.62,2.08,1.64-.8,1.64-2.08S1335.33,768.11,1334.21,768.11Z" style="fill:#999"/><line x1="1719.27" y1="470.1" x2="1719.27" y2="699.71" style="fill:none;stroke:#4d4d4d;stroke-miterlimit:10"/><polygon points="1711.79 472.29 1719.27 459.33 1726.75 472.29 1711.79 472.29" style="fill:#4d4d4d"/><polygon points="1711.79 697.52 1719.27 710.47 1726.75 697.52 1711.79 697.52" style="fill:#4d4d4d"/></g></svg>