<svg xmlns="http://www.w3.org/2000/svg" viewBox="0 0 1920 575"><defs><style>.cls-1{fill:none;stroke:#fff;stroke-miterlimit:10;stroke-width:2.5px;}</style></defs><title>slide 2</title><g id="cutout"><path d="M1132.65,191.28a3.06,3.06,0,0,0,3.42,3.36c2,0,4.38-1,6.36-4V186C1137.09,186.9,1132.65,187.86,1132.65,191.28Z"/><path d="M989.11,425.6a6.1,6.1,0,0,0-5.93,6.23,6,6,0,0,0,5.93,6.16,6.3,6.3,0,0,0,6.23-6.16A6.42,6.42,0,0,0,989.11,425.6Z"/><path d="M1206.24,425.75a6,6,0,0,0-5.93,6.16,6.1,6.1,0,0,0,5.93,6.23,6.42,6.42,0,0,0,6.23-6.23A6.3,6.3,0,0,0,1206.24,425.75Z"/><path d="M805.64,306.14a6.16,6.16,0,0,0,6-6.23,6,6,0,1,0-12,0A6.16,6.16,0,0,0,805.64,306.14Z"/><path d="M907.63,293.75a6,6,0,0,0-5.93,6.16,6.11,6.11,0,0,0,5.93,6.23,6.41,6.41,0,0,0,6.23-6.23A6.3,6.3,0,0,0,907.63,293.75Z"/><path d="M865.26,359.75a6,6,0,0,0-5.89,4.91h11.78A6.06,6.06,0,0,0,865.26,359.75Z"/><path d="M1197.15,191.28a3.06,3.06,0,0,0,3.42,3.36c2,0,4.38-1,6.36-4V186C1201.59,186.9,1197.15,187.86,1197.15,191.28Z"/><path d="M791.24,294.67c0-7.79-3.12-10.91-10.91-10.91h-4.44v21.81h4.44C788.12,305.57,791.24,302.46,791.24,294.67Z"/><path d="M1052,359.75a6,6,0,0,0-5.93,6.16,6.1,6.1,0,0,0,5.93,6.23,6.42,6.42,0,0,0,6.23-6.23A6.3,6.3,0,0,0,1052,359.75Z"/><path d="M1161.36,425.75a6,6,0,0,0-5.93,6.16,6.11,6.11,0,0,0,5.93,6.23,6.42,6.42,0,0,0,6.23-6.23A6.3,6.3,0,0,0,1161.36,425.75Z"/><path d="M862.05,174.24c-4.38,0-6.84,2.82-7.68,6.78l13.62-.6C868.11,176.1,865.17,174.24,862.05,174.24Z"/><path d="M1073.39,372.14a6.16,6.16,0,0,0,6-6.23,6,6,0,1,0-12,0A6.16,6.16,0,0,0,1073.39,372.14Z"/><path d="M1112.76,293.75a6.06,6.06,0,0,0-6,6.16,6,6,0,1,0,12,0A6.05,6.05,0,0,0,1112.76,293.75Z"/><path d="M1239.14,359.75a6.05,6.05,0,0,0-6,6.16,6,6,0,1,0,12,0A6.06,6.06,0,0,0,1239.14,359.75Z"/><path d="M1012.13,365.91a6.3,6.3,0,0,0-6.23-6.16,6,6,0,0,0-5.93,6.16,6.11,6.11,0,0,0,5.93,6.23A6.41,6.41,0,0,0,1012.13,365.91Z"/><path d="M1010.46,425.75a6,6,0,0,0-5.93,6.16,6.11,6.11,0,0,0,5.93,6.23,6.41,6.41,0,0,0,6.23-6.23A6.3,6.3,0,0,0,1010.46,425.75Z"/><path d="M1165.84,359.75a6,6,0,0,0-5.89,4.91h11.78A6.06,6.06,0,0,0,1165.84,359.75Z"/><path d="M1368.56,174.24c-4.38,0-6.84,2.82-7.68,6.78l13.62-.6C1374.62,176.1,1371.68,174.24,1368.56,174.24Z"/><path d="M794.89,425.75a6.06,6.06,0,0,0-6,6.16,6,6,0,1,0,12,0A6.05,6.05,0,0,0,794.89,425.75Z"/><path d="M746,191.28a3.06,3.06,0,0,0,3.42,3.36c2,0,4.38-1,6.36-4V186C750.45,186.9,746,187.86,746,191.28Z"/><path d="M769.58,415.76h-4.45v21.81h4.45c7.79,0,10.9-3.11,10.9-10.9S777.37,415.76,769.58,415.76Z"/><polygon points="805.49 360.78 814.8 360.78 810.16 350.45 805.49 360.78"/><path d="M1059.48,425.75a6,6,0,0,0-5.93,6.16,6.11,6.11,0,0,0,5.93,6.23,6.41,6.41,0,0,0,6.23-6.23A6.3,6.3,0,0,0,1059.48,425.75Z"/><path d="M1448.9,191.28a3.06,3.06,0,0,0,3.42,3.36c2,0,4.38-1,6.36-4V186C1453.34,186.9,1448.9,187.86,1448.9,191.28Z"/><path d="M0,0V586H1920V0ZM1251,157.33l3.78-3.79h1l3.78,3.79v1l-3.78,3.77h-1l-3.78-3.77Zm-16,11.81a19.45,19.45,0,0,1,7.85,1.74v5.46l-.59.6a12.11,12.11,0,0,0-7.26-2.4c-5.16,0-9,4.44-9,9.6s3.84,9.6,9,9.6a12.11,12.11,0,0,0,7.26-2.4l.59.6v5.46a19.45,19.45,0,0,1-7.85,1.74,15,15,0,0,1,0-30Zm-9,185a1.79,1.79,0,1,1,0-3.57,1.79,1.79,0,1,1,0,3.57Zm1.33,3.38v16.72c.08,4.79-2.28,7.75-6.57,7.75l0-2.51c2.58,0,4-2.24,3.95-5.24V357.51Zm-25.72-183.27a17.88,17.88,0,0,0-9.12,2.4l-.6-.6,1.2-5.16a28.52,28.52,0,0,1,9.72-1.74c7.44,0,9.9,3.24,9.9,7.38v14.82a5.78,5.78,0,0,0,3.12,3.3l-1.21,4.5a10.28,10.28,0,0,1-6.54-3.9,10.85,10.85,0,0,1-8.33,3.9c-3.24,0-8.22-1.44-8.22-7.56,0-5.94,6.42-8.58,15.48-9.48v-6.78A11.42,11.42,0,0,0,1201.53,174.24Zm-25.8-16.91,3.78-3.79h1l3.78,3.79v1l-3.78,3.77h-1l-3.78-3.77Zm-19.08-5.88,5.7-.91v37.2c0,5.16.84,6,3.3,6a6.38,6.38,0,0,0,2.82-.54l.6.6v4.74a9.92,9.92,0,0,1-4,.6c-7.62,0-8.4-5.46-8.4-10.8Zm-4,199.11a1.79,1.79,0,0,1,0,3.57,1.79,1.79,0,1,1,0-3.57ZM1137,174.24a17.88,17.88,0,0,0-9.12,2.4l-.6-.6,1.2-5.16a28.52,28.52,0,0,1,9.72-1.74c7.44,0,9.9,3.24,9.9,7.38v14.82a5.82,5.82,0,0,0,3.12,3.3l-1.2,4.5a10.23,10.23,0,0,1-6.54-3.9,10.88,10.88,0,0,1-8.34,3.9c-3.24,0-8.22-1.44-8.22-7.56,0-5.94,6.42-8.58,15.48-9.48v-6.78A11.42,11.42,0,0,0,1137,174.24Zm-6.34,126.51c-4-.8-5.77-2.25-5.77-4.91s2-4.59,5.77-4.59c3.31,0,5.51,1.82,5.78,4.37h-2.32c-.23-1.14-1.48-2-3.46-2s-3.42.95-3.42,2.2,1.11,2,3.84,2.51c4.29.88,6,2.36,6,5.13,0,2.93-2.24,5-6.42,5-3.76,0-6.27-2.09-6.42-5h2.32c.23,1.41,1.94,2.62,4.1,2.62,2.47,0,4.11-1.1,4.11-2.62S1133.73,301.35,1130.69,300.75Zm-16.76-137.61v6.6h6.72l.6.6v4.2l-.6.6h-6.72v12.6c0,5.16.84,6,3.3,6a6.38,6.38,0,0,0,2.82-.54l.6.6v4.74a9.92,9.92,0,0,1-4,.6c-7.62,0-8.4-5.46-8.4-10.8v-13.2h-4.8Zm7.49,136.77a8.67,8.67,0,1,1-17.33,0,8.67,8.67,0,0,1,17.33,0Zm-42.71-122.49c0-5.88,5.88-8.28,10-8.28a18.45,18.45,0,0,1,7.86,1.74v5.64l-.6.6c-2.82-2.7-5.34-3.18-7.08-3.18-2.22,0-4.44.9-4.44,3.24,0,5.28,13.62,4,13.62,13.2,0,5.94-5.46,8.76-10.86,8.76a21.16,21.16,0,0,1-8.46-1.74l.6-5.34.6-.6a11,11,0,0,0,7.44,2.88c2.7,0,5-.84,5-3.42C1092.33,185.94,1078.71,187.14,1078.71,177.42Zm-5.24,108h15v2.25h-15Zm8.58,80.48a8.66,8.66,0,1,1-17.32,0,8.66,8.66,0,1,1,17.32,0Zm-20.29-72.08v-2.32h2.51v-6.57h2.55v6.57h3.76v2.32h-3.76v14.4h-2.55v-14.4Zm-15.93-123.49.6-.6h4.5l.6.6-3.12,6a17,17,0,0,1,13.5-7.2c7.74,0,9.9,4,9.9,11.4v17.4l-.6.6h-4.5l-.6-.6v-17.4c0-4-.84-6-4.8-6a12.58,12.58,0,0,0-9.78,4.8v18.6l-.6.6h-4.5l-.6-.6Zm6.24,204.31a8.82,8.82,0,0,1-8.66-8.74,8.7,8.7,0,0,1,8.66-8.66,8.16,8.16,0,0,1,6.31,3V347.1h2.54v27.13h-2.54v-2.66A8.14,8.14,0,0,1,1052.07,374.65ZM1042,291.51h2.55v2.74a8.16,8.16,0,0,1,6.31-3,8.7,8.7,0,0,1,8.66,8.66,8.82,8.82,0,0,1-8.66,8.74,8.14,8.14,0,0,1-6.31-3.08v10.26H1042Zm-1.59,80.29v2.43h-12.81V371.8l9.39-11.86h-9.39v-2.43h12.58v2.43l-9.39,11.86Zm-5.7-63.57V281.1h2.54v27.13Zm-5.76-150.9,3.78-3.79h1l3.78,3.79v1l-3.78,3.77h-1l-3.78-3.77Zm-1.56,13,.6-.6h7.8l.6.6v27.6l-.6.6h-4.5l-.6-.6v-22.8H1028l-.6-.6Zm-12.67,121.17h2.55v9.54c0,3.3,1.52,4.94,4.29,4.94,3.38,0,5.47-1.9,5.47-5.59v-8.89h2.55v16.72H1027v-2a7.22,7.22,0,0,1-5.47,2.28c-4.79,0-6.84-2.13-6.84-7.45Zm-2.28,16.72H1009l-7.45-8.59-1.63,1.6v7h-2.55V281.1h2.55v16.15h.57l6.23-6.08h3.57l-6.88,6.65ZM983.07,170.34l.6-.6h4.5l.6.6v17.4c0,4,.84,6,4.8,6,4.5,0,7-2.28,9.18-4.8v-18.6l.6-.6h4.5l.6.6v27.6l-.6.6h-1.92c-3.9,1.74-4.68,3.66-4.68,4.86,0,2.88,1.86,3.54,4.5,3.54l.6.6v3.6l-.6.6c-5.64,0-9.48-1.62-9.48-6.06,0-2.7,1.74-5.34,6.48-7.74l3.12-6c-2.64,3.66-6.84,7.2-12.9,7.2-7.74,0-9.9-4-9.9-11.4Zm3.87,130.41c-4-.8-5.77-2.25-5.77-4.91s2-4.59,5.77-4.59c3.31,0,5.51,1.82,5.78,4.37H990.4c-.23-1.14-1.48-2-3.46-2s-3.42.95-3.42,2.2,1.1,2,3.84,2.51c4.29.88,6,2.36,6,5.13,0,2.93-2.24,5-6.42,5-3.76,0-6.27-2.09-6.42-5h2.32c.23,1.41,1.93,2.62,4.1,2.62,2.47,0,4.1-1.1,4.1-2.62S990,301.35,986.94,300.75ZM915.39,157.33l3.78-3.79h1l3.78,3.79v1l-3.78,3.77h-1l-3.78-3.77Zm-34.44,13,.6-.6h4.5l.6.6-3.12,6a17,17,0,0,1,13.5-7.2c7.74,0,9.9,4,9.9,11.4v17.4l-.6.6h-4.5l-.6-.6v-17.4c0-4-.84-6-4.8-6a12.58,12.58,0,0,0-9.78,4.8v18.6l-.6.6h-4.5l-.6-.6Zm7.19,123.49v-2.32h2.51v-6.57h2.54v6.57H897v2.32h-3.76v14.4h-2.54v-14.4Zm-1.29,60.3a1.79,1.79,0,1,1,0-3.57,1.79,1.79,0,0,1,0,3.57Zm1.36,3.38v16.72h-2.66V357.51Zm6.65,16.72V357.51h2.66v16.72C897.6,379,895.25,382,891,382l0-2.51C893.5,379.47,894.94,377.23,894.86,374.23Zm1.33-20.1a1.79,1.79,0,1,1,0-3.57,1.79,1.79,0,1,1,0,3.57Zm-34.14-185c5.4,0,12,2.7,12,12.12a19.69,19.69,0,0,1-.24,3.12l-.66.6h-19c.36,4.8,4,8.76,8.82,8.76a15.37,15.37,0,0,0,8.46-2.4l.6.6v5.46a23.63,23.63,0,0,1-9.06,1.74c-8.64,0-14.7-6.36-14.7-15S854,169.14,862.05,169.14Zm3.21,203a5.86,5.86,0,0,0,4.64-2.32h3.15a8.66,8.66,0,0,1-7.79,4.83,8.82,8.82,0,0,1-8.66-8.74,8.67,8.67,0,0,1,17.33,0v1.18H859.37A6.14,6.14,0,0,0,865.26,372.14Zm-9.57-80.89a8.15,8.15,0,0,1,6.3,3v-2.74h2.55v16.8H862v-2.74a8.13,8.13,0,0,1-6.3,3.08,8.83,8.83,0,0,1-8.67-8.74A8.71,8.71,0,0,1,855.69,291.25Zm-9.39,66.26h2.55v2.28a7.41,7.41,0,0,1,5.66-2.54v2.5c-3,0-5.66,1.83-5.66,5.25v9.23H846.3ZM799.59,170.34l.6-.6h4.5l.6.6-3.12,6c2.64-3.66,7.44-7.2,12.3-7.2,4.56,0,7.08,1.62,8.34,4.74,2.7-2.64,6.42-4.74,10.14-4.74,7.14,0,9.3,4,9.3,11.4v17.4l-.6.6h-4.5l-.6-.6v-17.4c0-4-.84-6-4.2-6s-6.42,2.28-8.58,4.8v18.6l-.6.6h-4.5l-.6-.6v-17.4c0-4-.84-6-4.2-6s-6.42,2.28-8.58,4.8v18.6l-.6.6h-4.5l-.6-.6Zm6,120.91a8.7,8.7,0,0,1,8.66,8.66,8.66,8.66,0,1,1-17.32,0A8.7,8.7,0,0,1,805.64,291.25Zm-11.51,3.42c0,9.68-4,13.56-13.8,13.56h-7.22V281.1h7.22C790.17,281.1,794.13,285,794.13,294.67ZM771.27,157.33l3.78-3.79h1l3.78,3.79v1L776,162.06h-1l-3.78-3.77Zm-1.56,13,.6-.6h7.8l.6.6v27.6l-.6.6h-4.5l-.6-.6v-22.8h-2.7l-.6-.6ZM462,194.88,454.6,206l-3.6-1.92v-.84l5.76-11.4h.78L462,194Zm12,0L466.6,206l-3.6-1.92v-.84l5.76-11.4h.78L474,194Zm21.36,3.66H480.94l-.6-.6V154.15l.6-.61H495.4c12,0,22.32,8.7,22.32,22.5S507.4,198.54,495.4,198.54Zm30.6,0-3.78-3.78v-1L526,190h1l3.78,3.78v1L527,198.54Zm45.24,0H565.9l-.6-.6-5.76-14.7h-16.8L537,197.94l-.6.6H531l-.6-.6,17.46-43.79.6-.61h5.28l.6.61,17.46,43.79Zm11.82-3.78-3.78,3.78h-1l-3.78-3.78v-1l3.78-3.78h1l3.78,3.78Zm21.36,3.78H590l-.6-.6V154.15l.6-.61h14.46c12,0,22.32,8.7,22.32,22.5S616.42,198.54,604.42,198.54Zm35.34-3.78L636,198.54h-1l-3.78-3.78v-1L635,190h1l3.78,3.78Zm14.64-41.45-5.76,11.39h-.78l-4.5-2.22v-.84l7.44-11.1,3.6,1.92Zm12,0-5.76,11.39h-.78l-4.5-2.22v-.84l7.44-11.1,3.6,1.92Zm35.39,29.63-.6.6H682l-.61-.6v-4.2l.61-.6h19.19l.6.6Zm32.82-8.4-.6.6h-6.72v12.6c0,5.16.84,6,3.3,6a6.38,6.38,0,0,0,2.82-.54l.6.6v4.74a9.92,9.92,0,0,1-4,.6c-7.62,0-8.4-5.46-8.4-10.8v-13.2h-4.8l10.5-12v6.6H734l.6.6Zm22.26,20.7a10.88,10.88,0,0,1-8.34,3.9c-3.24,0-8.22-1.44-8.22-7.56,0-5.94,6.42-8.58,15.48-9.48v-6.78a11.42,11.42,0,0,0-5.4-1.08,17.88,17.88,0,0,0-9.12,2.4l-.6-.6,1.2-5.16a28.52,28.52,0,0,1,9.72-1.74c7.44,0,9.9,3.24,9.9,7.38v14.82a5.82,5.82,0,0,0,3.12,3.3l-1.2,4.5A10.23,10.23,0,0,1,756.87,195.24Zm12.71,245h-7.22V413.1h7.22c9.84,0,13.79,3.88,13.79,13.57S779.42,440.23,769.58,440.23Zm25.31.42a8.83,8.83,0,0,1-8.67-8.74,8.67,8.67,0,0,1,17.33,0A8.82,8.82,0,0,1,794.89,440.65Zm4.56-66.42h-3l12.19-27.13h3l12.2,27.13h-3L816,363.44H804.31Zm33,66h-2.55v-9.54c0-3.3-1.25-4.94-3.72-4.94-3.08,0-5,1.71-5,5.78v8.7h-2.54v-9.54c0-3.3-1.26-4.94-3.73-4.94-3.08,0-5,1.71-5,5.78v8.7h-2.55V423.51h2.55v2a6.31,6.31,0,0,1,5-2.28c2.93,0,4.75.95,5.63,3.23a6.23,6.23,0,0,1,5.66-3.23c4.33,0,6.27,2.12,6.27,7.44Zm7.94,0h-2.66V423.51h2.66ZM839,420.13a1.79,1.79,0,1,1,0-3.57,1.79,1.79,0,1,1,0,3.57Zm1.94-45.9h-2.55v-2A7.22,7.22,0,0,1,833,374.5c-4.78,0-6.84-2.13-6.84-7.45v-9.54h2.55v9.54c0,3.3,1.52,4.94,4.29,4.94,3.38,0,5.47-1.9,5.47-5.59v-8.89H841Zm2.24-66h-2.55v-9.54c0-3.3-1.25-4.94-3.72-4.94-3.08,0-5,1.71-5,5.78v8.7h-2.55v-9.54c0-3.3-1.25-4.94-3.72-4.94-3.08,0-5,1.71-5,5.78v8.7h-2.54V291.51h2.54v2a6.34,6.34,0,0,1,5-2.28c2.92,0,4.75.95,5.62,3.23a6.24,6.24,0,0,1,5.66-3.23c4.33,0,6.27,2.12,6.27,7.44Zm17.41,132h-2.55v-9.54c0-3.3-1.52-4.94-4.29-4.94-3.39-.07-5.48,1.83-5.48,5.59v8.89h-2.54V423.51h2.54v2a7.2,7.2,0,0,1,5.48-2.28c4.78,0,6.84,2.12,6.84,7.44Zm12.92-1.86-4.75,9.46h-3l4.75-9.5-7.4-14.82h3L872,435.33,878,423.51h3Zm4.18-64.14V347.1h2.54v27.13Zm.15-80.48c-3.38-.07-5.47,1.83-5.47,5.59v8.89h-2.55V291.51h2.55v2a7.18,7.18,0,0,1,5.47-2.28c4.79,0,6.84,2.12,6.84,7.44v9.54h-2.55v-9.54C882.17,295.39,880.65,293.75,877.88,293.75Zm17.17,146.48-7.44-8.59-1.64,1.6v7h-2.54V413.1H886v16.15h.57l6.23-6.08h3.57l-6.87,6.65,9,10.41Zm21.51.08H914v-2.74a8.12,8.12,0,0,1-6.3,3.08,8.83,8.83,0,0,1-8.67-8.74,8.71,8.71,0,0,1,8.67-8.66,8.14,8.14,0,0,1,6.3,3v-2.74h2.55Zm0-66.08H914v-2a7.2,7.2,0,0,1-5.47,2.28c-4.78,0-6.83-2.13-6.83-7.45v-9.54h2.54v9.54c0,3.3,1.52,4.94,4.29,4.94,3.38,0,5.47-1.9,5.47-5.59v-8.89h2.55Zm0-65.92H914v-2.74a8.12,8.12,0,0,1-6.3,3.08,8.83,8.83,0,0,1-8.67-8.74,8.71,8.71,0,0,1,8.67-8.66,8.14,8.14,0,0,1,6.3,3v-2.74h2.55Zm.57-110.37v-22.8h-2.7l-.6-.6v-4.2l.6-.6h7.8l.6.6v27.6l-.6.6h-4.5Zm10,242.56c-3.76,0-6.27-2.09-6.42-5h2.32c.23,1.41,1.94,2.62,4.1,2.62,2.47,0,4.11-1.1,4.11-2.62s-1.07-2.13-4.11-2.73c-4-.8-5.77-2.25-5.77-4.91s2-4.59,5.77-4.59c3.31,0,5.51,1.82,5.78,4.37h-2.32c-.23-1.14-1.48-2-3.46-2s-3.42.95-3.42,2.2,1.11,2,3.84,2.51c4.3.88,6,2.36,6,5.13C933.58,438.41,931.34,440.5,927.16,440.5Zm0-66c-3.76,0-6.27-2.09-6.42-5h2.32c.23,1.41,1.94,2.62,4.1,2.62,2.47,0,4.11-1.1,4.11-2.62s-1.07-2.13-4.11-2.73c-4-.8-5.77-2.25-5.77-4.91s2-4.59,5.77-4.59c3.31,0,5.51,1.82,5.78,4.37h-2.32c-.23-1.14-1.48-2-3.46-2s-3.42.95-3.42,2.2,1.11,2,3.84,2.51c4.3.88,6,2.36,6,5.13C933.58,372.41,931.34,374.5,927.16,374.5Zm0-66c-3.76,0-6.27-2.09-6.42-5h2.32c.23,1.41,1.94,2.62,4.1,2.62,2.47,0,4.11-1.1,4.11-2.62s-1.07-2.13-4.11-2.73c-4-.8-5.77-2.25-5.77-4.91s2-4.59,5.77-4.59c3.31,0,5.51,1.82,5.78,4.37h-2.32c-.23-1.14-1.48-2-3.46-2s-3.42.95-3.42,2.2,1.11,2,3.84,2.51c4.3.88,6,2.36,6,5.13C933.58,306.41,931.34,308.5,927.16,308.5ZM938,179.34v18.6l-.6.6h-4.5l-.6-.6v-27.6l.6-.6h4.5l.6.6-3.12,6a17,17,0,0,1,13.5-7.2c7.74,0,9.9,4,9.9,11.4v17.4l-.6.6h-4.5l-.6-.6v-17.4c0-4-.84-6-4.8-6A12.58,12.58,0,0,0,938,179.34Zm11,116.77h14.55v2.55H949Zm14.55,134.55H949v-2.55h14.55Zm0-66H949v-2.55h14.55Zm10.66-166.72-.6.6h-4.5l-.6-.6v-22.8h-2.7l-.6-.6v-4.2l.6-.6h7.8l.6.6Zm1.08-39.65-3.78,3.77h-1l-3.78-3.77v-1l3.78-3.79h1l3.78,3.79ZM982,357.51l5.51,13.34L993,357.51h2.77l-6.87,16.72H986.1l-6.87-16.72Zm16.07,81.2c0,6.57-3.91,9.5-8.66,9.5a8.64,8.64,0,0,1-8.17-5.78h2.89a6,6,0,0,0,5.28,3.27c3.38,0,6-1.78,6-7v-1.1a8.22,8.22,0,0,1-6.23,2.89,8.71,8.71,0,0,1-8.66-8.67,8.82,8.82,0,0,1,8.66-8.74,8.16,8.16,0,0,1,6.23,3v-2.55h2.66Zm-.75-72.8a8.7,8.7,0,0,1,8.66-8.66,8.17,8.17,0,0,1,6.31,3v-2.74h2.54v16.8h-2.54v-2.74a8.15,8.15,0,0,1-6.31,3.08A8.82,8.82,0,0,1,997.32,365.91Zm22.07,74.4h-2.55v-2.74a8.12,8.12,0,0,1-6.3,3.08,8.82,8.82,0,0,1-8.66-8.74,8.7,8.7,0,0,1,8.66-8.66,8.14,8.14,0,0,1,6.3,3v-2.74h2.55Zm3.57-66.08h-2.66V357.51H1023Zm-1.36-20.1a1.79,1.79,0,1,1,0-3.57,1.79,1.79,0,0,1,0,3.57Zm11.32,71.62c-3,0-5.66,1.83-5.66,5.25v9.23h-2.55V423.51h2.55v2.28a7.41,7.41,0,0,1,5.66-2.54Zm8.7,14.75c-3.76,0-6.27-2.09-6.42-5h2.32c.23,1.41,1.94,2.62,4.1,2.62,2.47,0,4.11-1.1,4.11-2.62s-1.07-2.13-4.11-2.73c-4-.8-5.77-2.25-5.77-4.91s2-4.59,5.77-4.59c3.31,0,5.51,1.82,5.78,4.37h-2.32c-.23-1.14-1.48-2-3.46-2s-3.42.95-3.42,2.2,1.1,2,3.84,2.51c4.29.88,6,2.36,6,5.13C1048,438.41,1045.8,440.5,1041.62,440.5Zm26.79-.19h-2.54v-2.74a8.17,8.17,0,0,1-6.31,3.08,8.83,8.83,0,0,1-8.67-8.74,8.71,8.71,0,0,1,8.67-8.66,8.19,8.19,0,0,1,6.31,3v-2.74h2.54Zm10.6.19c-3.76,0-6.27-2.09-6.42-5h2.32c.23,1.41,1.94,2.62,4.1,2.62,2.47,0,4.11-1.1,4.11-2.62s-1.07-2.13-4.11-2.73c-4-.8-5.77-2.25-5.77-4.91s2-4.59,5.77-4.59c3.31,0,5.51,1.82,5.78,4.37h-2.32c-.23-1.14-1.48-2-3.46-2s-3.42.95-3.42,2.2,1.11,2,3.84,2.51c4.29.88,6,2.36,6,5.13C1085.43,438.41,1083.19,440.5,1079,440.5Zm9.46-132.27h-2.54v-2a7.22,7.22,0,0,1-5.47,2.28c-4.79,0-6.84-2.13-6.84-7.45v-9.54h2.54v9.54c0,3.3,1.52,4.94,4.3,4.94,3.38,0,5.47-1.9,5.47-5.59v-8.89h2.54Zm7.87,0h-2.54V291.51h2.54v2.28a7.43,7.43,0,0,1,5.66-2.54v2.5c-3,0-5.66,1.83-5.66,5.25Zm7.49,132h-2.66V423.51h2.66Zm-1.37-20.1a1.79,1.79,0,1,1,0-3.57,1.79,1.79,0,1,1,0,3.57Zm-2.85-48.56v10.26h-2.55V357.51h2.55v2.74a8.16,8.16,0,0,1,6.31-3,8.7,8.7,0,0,1,8.66,8.66,8.82,8.82,0,0,1-8.66,8.74A8.14,8.14,0,0,1,1099.61,371.57Zm17.78,54.18c-3,0-5.66,1.83-5.66,5.25v9.23h-2.54V423.51h2.54v2.28a7.43,7.43,0,0,1,5.66-2.54Zm9.2-66c-3,0-5.66,1.83-5.66,5.25v9.23h-2.55V357.51h2.55v2.28a7.4,7.4,0,0,1,5.66-2.54Zm2.09,6.16a8.66,8.66,0,0,1,17.32,0,8.66,8.66,0,1,1-17.32,0Zm12.39,74.74a8.14,8.14,0,0,1-6.31-3.08v2.66h-2.55V413.1h2.55v13.15a8.16,8.16,0,0,1,6.31-3,8.7,8.7,0,0,1,8.66,8.66A8.82,8.82,0,0,1,1141.07,440.65Zm6.31-58.67,0-2.51c2.58,0,4-2.24,4-5.24V357.51H1154v16.72C1154,379,1151.67,382,1147.38,382Zm22.91,58.33h-2.55v-2.74a8.14,8.14,0,0,1-6.31,3.08,8.82,8.82,0,0,1-8.66-8.74,8.7,8.7,0,0,1,8.66-8.66,8.16,8.16,0,0,1,6.31,3v-2.74h2.55Zm4.21-73.22H1160a6.14,6.14,0,0,0,5.89,5.05,5.86,5.86,0,0,0,4.64-2.32h3.15a8.67,8.67,0,0,1-7.79,4.83,8.82,8.82,0,0,1-8.66-8.74,8.66,8.66,0,0,1,17.32,0Zm-.33-192.55v-4.2l.6-.6h7.8l.6.6v27.6l-.6.6h-4.5l-.6-.6v-22.8h-2.7ZM1178,440.23h-2.54V413.1H1178Zm2.51-66h-2.54V347.1h2.54v16.15h.57l6.23-6.08h3.57l-6.87,6.65,9,10.41h-3.42l-7.44-8.59-1.64,1.6Zm7.91,66.27c-3.77,0-6.27-2.09-6.43-5h2.32c.23,1.41,1.94,2.62,4.11,2.62,2.46,0,4.1-1.1,4.1-2.62s-1.06-2.13-4.1-2.73c-4-.8-5.78-2.25-5.78-4.91s2-4.59,5.78-4.59c3.3,0,5.5,1.82,5.77,4.37h-2.32c-.23-1.14-1.48-2-3.45-2s-3.42.95-3.42,2.2,1.1,2,3.83,2.51c4.3.88,6,2.36,6,5.13C1194.8,438.41,1192.55,440.5,1188.38,440.5Zm5.92-74.59a8.66,8.66,0,0,1,16.8-3h-2.85a6,6,0,0,0-5.28-3.2,6.06,6.06,0,0,0-6,6.16,6.17,6.17,0,0,0,6,6.23,6,6,0,0,0,5.28-3.27h2.88a8.63,8.63,0,0,1-8.16,5.78A8.83,8.83,0,0,1,1194.3,365.91Zm20.86,74.4h-2.54v-2.74a8.14,8.14,0,0,1-6.31,3.08,8.82,8.82,0,0,1-8.66-8.74,8.7,8.7,0,0,1,8.66-8.66,8.16,8.16,0,0,1,6.31,3v-2.74h2.54Zm2.78-66.08h-2.66V357.51h2.66Zm-1.37-20.1a1.79,1.79,0,1,1,0-3.57,1.79,1.79,0,1,1,0,3.57Zm9.2,86.37c-3.76,0-6.27-2.09-6.42-5h2.31c.23,1.41,1.94,2.62,4.11,2.62,2.47,0,4.1-1.1,4.1-2.62s-1.06-2.13-4.1-2.73c-4-.8-5.78-2.25-5.78-4.91s2-4.59,5.78-4.59c3.3,0,5.51,1.82,5.77,4.37h-2.32c-.22-1.14-1.48-2-3.45-2s-3.42.95-3.42,2.2,1.1,2,3.83,2.51c4.3.88,6,2.36,6,5.13C1232.19,438.41,1230,440.5,1225.77,440.5Zm13.37-65.85a8.82,8.82,0,0,1-8.66-8.74,8.66,8.66,0,1,1,17.32,0A8.82,8.82,0,0,1,1239.14,374.65Zm10.27-200.11v-4.2l.6-.6h7.79l.61.6v27.6l-.61.6h-4.49l-.6-.6v-22.8H1250Zm7.67,200c-3.76,0-6.27-2.09-6.42-5H1253c.23,1.41,1.94,2.62,4.11,2.62,2.47,0,4.1-1.1,4.1-2.62s-1.06-2.13-4.1-2.73c-4-.8-5.78-2.25-5.78-4.91s2-4.59,5.78-4.59c3.3,0,5.51,1.82,5.77,4.37h-2.31c-.23-1.14-1.49-2-3.46-2s-3.42.95-3.42,2.2,1.1,2,3.84,2.51c4.29.88,6,2.36,6,5.13C1263.5,372.41,1261.26,374.5,1257.08,374.5ZM1276,191.94a48.18,48.18,0,0,1-4.79,22.2h-5.11l-.59-.9a48.46,48.46,0,0,0,4.8-21.3v-16.8h-2.71l-.59-.6v-4.2l.59-.6h7.8l.6.6Zm1.08-33.65-3.77,3.77h-1l-3.79-3.77v-1l3.79-3.79h1l3.77,3.79Zm33.18,39.65-.6.6h-1.92c-3.9,1.74-4.68,3.66-4.68,4.86,0,2.88,1.86,3.54,4.5,3.54l.6.6v3.6l-.6.6c-5.64,0-9.48-1.62-9.48-6.06,0-2.7,1.74-5.34,6.48-7.74l3.12-6c-2.64,3.66-6.84,7.2-12.9,7.2-7.73,0-9.89-4-9.89-11.4v-17.4l.59-.6h4.5l.61.6v17.4c0,4,.84,6,4.8,6,4.49,0,7-2.28,9.17-4.8v-18.6l.6-.6h4.5l.6.6Zm27.36,1.2a21.16,21.16,0,0,1-8.46-1.74l.61-5.34.59-.6a11,11,0,0,0,7.44,2.88c2.7,0,5-.84,5-3.42,0-5-13.62-3.78-13.62-13.5,0-5.88,5.88-8.28,10-8.28a18.45,18.45,0,0,1,7.86,1.74v5.64l-.6.6c-2.82-2.7-5.34-3.18-7.08-3.18-2.22,0-4.44.9-4.44,3.24,0,5.28,13.62,4,13.62,13.2C1348.46,196.32,1343,199.14,1337.6,199.14Zm42.72-14.76-.66.6h-19c.36,4.8,4,8.76,8.82,8.76a15.37,15.37,0,0,0,8.46-2.4l.6.6v5.46a23.63,23.63,0,0,1-9.06,1.74c-8.64,0-14.7-6.36-14.7-15s5.76-15,13.8-15c5.4,0,12,2.7,12,12.12A19.69,19.69,0,0,1,1380.32,184.38Zm22.32-9.54-.6.6a11,11,0,0,0-8.88,4.5v18l-.6.6h-4.5l-.6-.6v-27.6l.6-.6h4.5l.6.6-3.12,6.6c2.94-4.26,8-7.8,13.5-7.8Zm14.7,23.1-.6.6h-4.5l-.6-.6v-22.8h-2.7l-.6-.6v-4.2l.6-.6h7.8l.6.6Zm1.08-39.65-3.78,3.77h-1l-3.78-3.77v-1l3.78-3.79h1l3.78,3.79Zm16.5,33.65a48.06,48.06,0,0,1-4.8,22.2H1425l-.6-.9a48.46,48.46,0,0,0,4.8-21.3v-16.8h-2.7l-.6-.6v-4.2l.6-.6h7.8l.6.6Zm1.08-33.65-3.78,3.77h-1l-3.78-3.77v-1l3.78-3.79h1l3.78,3.79Zm30.3,40.85a10.23,10.23,0,0,1-6.54-3.9,10.88,10.88,0,0,1-8.34,3.9c-3.24,0-8.22-1.44-8.22-7.56,0-5.94,6.42-8.58,15.48-9.48v-6.78a11.42,11.42,0,0,0-5.4-1.08,17.88,17.88,0,0,0-9.12,2.4l-.6-.6,1.2-5.16a28.52,28.52,0,0,1,9.72-1.74c7.44,0,9.9,3.24,9.9,7.38v14.82a5.82,5.82,0,0,0,3.12,3.3Z"/><path d="M604.42,158.94h-9.06v34.2h9.06c9.12,0,16-6.84,16-17.1S613.54,158.94,604.42,158.94Z"/><path d="M1143.34,365.91a6,6,0,1,0-12,0,6,6,0,1,0,12,0Z"/><path d="M1141.14,425.75a6.3,6.3,0,0,0-6.23,6.16,6.42,6.42,0,0,0,6.23,6.23,6.11,6.11,0,0,0,5.93-6.23A6,6,0,0,0,1141.14,425.75Z"/><path d="M495.4,158.94h-9.06v34.2h9.06c9.12,0,16-6.84,16-17.1S504.52,158.94,495.4,158.94Z"/><path d="M1050.89,306.14a6.1,6.1,0,0,0,5.93-6.23,6,6,0,0,0-5.93-6.16,6.3,6.3,0,0,0-6.23,6.16A6.42,6.42,0,0,0,1050.89,306.14Z"/><path d="M1106,359.75a6.3,6.3,0,0,0-6.23,6.16,6.42,6.42,0,0,0,6.23,6.23,6.11,6.11,0,0,0,5.93-6.23A6,6,0,0,0,1106,359.75Z"/><polygon points="550.42 163.69 544.84 177.84 557.44 177.84 549.58 157.75 550.42 163.69"/><path d="M907.63,425.75a6,6,0,0,0-5.93,6.16,6.11,6.11,0,0,0,5.93,6.23,6.41,6.41,0,0,0,6.23-6.23A6.3,6.3,0,0,0,907.63,425.75Z"/><path d="M855.61,306.14a6.41,6.41,0,0,0,6.23-6.23,6.3,6.3,0,0,0-6.23-6.16,6,6,0,0,0-5.93,6.16A6.11,6.11,0,0,0,855.61,306.14Z"/></g><g id="white_lines" data-name="white lines"><polyline class="cls-1" points="613.95 230.53 613.95 428.87 737.59 428.87"/><polyline class="cls-1" points="549.62 230.53 549.62 361.72 779.99 361.72"/><polyline class="cls-1" points="487.94 230.53 487.94 297.23 755.58 297.23"/><polyline class="cls-1" points="613.95 230.53 613.95 428.87 737.59 428.87"/><polyline class="cls-1" points="549.62 230.53 549.62 361.72 779.99 361.72"/><polyline class="cls-1" points="487.94 230.53 487.94 297.23 755.58 297.23"/></g></svg>