<svg xmlns="http://www.w3.org/2000/svg" width="49.41" height="49.04" viewBox="0 0 49.41 49.04"><title>nowjapan</title><g id="f1b1f74c-0c72-435e-850d-5a5ec26bc83f" data-name="Layer 2"><g id="b41db3cf-eb97-41b2-931b-f5315688d0d0" data-name="content"><path d="M49.41,24.67C49.54,38,38,49.38,24.11,49a24.52,24.52,0,1,1,25.3-24.36ZM20,6.93l-1.5-.66c-.47.9-1.41,2-.39,2.72s1.21,2.26,2.51,2.79a3,3,0,0,1-3-.9c-.64-.58-1.17-1.33-2.12-1.49a2.86,2.86,0,0,0-2.85-1.26c1.16.68,1.38,2.08,2.4,3.12.21-.81-.43-1.59.48-1.9,1.24,1.26,1.7,3.07,3.08,4.26a1.23,1.23,0,0,1,.09,2c-.38.39-.56,1-1.08,1.25.05.85,1,1.4.75,2.06-.79.8-1.4,1.51-2.72,1.42,1.27.87,1,2.2,1.95,2.91s2.15.35,3.16.26c.6.77,0,1.39.15,2-.62.27-1.16-.36-1.74.23.86.5,1.63,1.07,1.08,2.34-.54-.68-1.05-1.36-1.91-.87-1.17.67-.25,1.66-.14,2.49-1.15.57-2.14-.16-3.17-.08-.53.05-.93-.52-1.08-1.08-.41-1.49-.71-3,.13-4.44a9.53,9.53,0,0,0,1.37-3.38,6.2,6.2,0,0,0-2-5.43c-1.35-1.4-2.58-2.18-4.81-1.47a7,7,0,0,1,3,2c1.3,1.33,2.4,2.81,1.82,4.84-.44,1.55-1.3,2.75-3,2.93-.08.64.74,1.15-.16,1.69-.55.33-.54,1-.19,1.65a5.72,5.72,0,0,1,.38,1.57c.67,2.7,1.8,5,4.57,6.32.93.42,2.15.31,2.9,1.34a5.88,5.88,0,0,1-2.91,2.85c.08,2.25.1,2.15,2.1,2.1,1.22,0,2.32-.67,3.55-.29,0-.31.05-.47,0-.58-.82-1.88-.79-2,1-2.92.44-.22.93-.42,1.06-.88.35-1.2,1.31-1.39,2.32-1.68a6.77,6.77,0,0,0,2-1,2.82,2.82,0,0,1,4.24.44c-1.64,1-.25,2.61-.67,3.94-.64,2,1,2.6,2.31,3.5a8.12,8.12,0,0,1,2.75-.33,1,1,0,0,0,1-.82c.06-.49-.3-.68-.66-.91s-1.23-.26-1.41-.67a1.28,1.28,0,0,1,0-1,27.25,27.25,0,0,0,1.13-3.45c.4-2-.58-3.7-1.66-5.29s-1.18-1.66.22-3.2a3.88,3.88,0,0,0,3.68-.15,3.11,3.11,0,0,1,1.32-.49,1.9,1.9,0,0,0,2-1.82c-1.51-1.6-1.62-1.61-2.9.06-.68.89-1.5.66-2.84.5,1.06-1.81-.29-3.62.72-5.62,1.57.86,1.28-.93,2-1.39.9-.54.63-1.15.19-1.67-1-1.26-2.33-2-4.05-1.49a5.14,5.14,0,0,1-1.24-1.95c-.49-.38-1,.23-1.57-.55-.22-.28.72-.71.31-1.24-.4-.26-.76-.32-1.18.25A1.2,1.2,0,0,1,31.27,12c-.45,1,1.69.37.86,1.5-1.73-.24-2.25-.66-2.53-2.12,0-.18.07-.55-.1-.51C28.18,11.17,28.43,10,28,9.4a1.26,1.26,0,0,0-1.43-.57c.93,1.5,1.2,2.92-.08,4.27l0,0c-1.35-.51-1.55-2.38-3.13-2.66-.14,0-.22-.59-.27-.92s0-.64-.25-.7c-1.18-.22-1.11-1.1-1.18-2a.77.77,0,0,0-.85-.69c-.55,0-.9.24-.87.84Z" style="fill:#fff"/><path d="M20,7c1.08.42,1.1.43.64,1.39a.67.67,0,0,0,.07.71c.27.53.52,1.06.92,1.87-1.22-.49-1.78-1.06-1.66-2.18.07-.6.05-1.22.07-1.82Z" style="fill:#fff"/><path d="M26.52,13.1A1.7,1.7,0,0,1,28,14.68c-1.26,0-1.06-1.1-1.45-1.61Z" style="fill:#fff"/></g></g></svg>