<svg xmlns="http://www.w3.org/2000/svg" width="960" height="200" viewBox="0 0 960 200"><title>desktop</title><g id="a85cfe40-7846-4ed5-9061-deb203b03266" data-name="cutout back"><rect width="960" height="200"/></g><g id="b994d459-eec9-4bbd-80d8-7b3e1998ecd8" data-name="cutout"><path d="M368.42,71.65v29.19l-.4.4h-3.2l-.4-.4V71.65l.4-.4H368Zm18.71,29.59h-4.71l-12.8-15.6L382.1,71.25h4.51v.6L374.74,85.13l-3.52.51,3.52.52,12.39,14.68Z" style="fill:#fff"/><path d="M409.13,91.64a10,10,0,1,1-10-10A9.7,9.7,0,0,1,409.13,91.64Zm-4,0a6,6,0,1,0-6,6.4A6.19,6.19,0,0,0,405.14,91.64Z" style="fill:#fff"/><path d="M442,89.24v11.6l-.4.4h-3l-.4-.4V89.24c0-2.64-.56-4-2.8-4s-4.28,1.52-5.71,3.2v12.4l-.41.4h-3l-.4-.4V89.24c0-2.64-.56-4-2.8-4s-4.28,1.52-5.72,3.2v12.4l-.4.4h-3l-.4-.4V82.45l.4-.41h3l.4.41-2.08,4c1.76-2.44,5-4.79,8.2-4.79,3,0,4.72,1.07,5.56,3.15a10.16,10.16,0,0,1,6.75-3.15C440.53,81.65,442,84.29,442,89.24Z" style="fill:#fff"/><path d="M465.89,91.64c0,5.76-4,10-9.79,10a9.16,9.16,0,0,1-7.6-4l2.08,4v10l-3.8-.6V82.45l.4-.41h3l.4.41v1a9,9,0,0,1,5.52-1.83C461.86,81.65,465.89,85.88,465.89,91.64Zm-4,0c0-3.44-2.35-6.4-5.79-6.4a6.9,6.9,0,0,0-5.52,2.4v8A6.9,6.9,0,0,0,456.1,98C459.54,98,461.89,95.08,461.89,91.64Z" style="fill:#fff"/><path d="M476.1,82.45v18.39l-.4.4h-3l-.4-.4V85.64h-1.8l-.4-.4V82.45l.4-.41h5.2Zm.72-8-2.52,2.52h-.64l-2.52-2.52v-.64l2.52-2.52h.64l2.52,2.52Z" style="fill:#fff"/><path d="M498.93,100.84l-.4.4h-3l-.41-.4,2.08-4a10.52,10.52,0,0,1-8.59,4.8c-5.16,0-6.6-2.64-6.6-7.6V82.45l.4-.41h3l.4.41V94c0,2.64.56,4,3.2,4,3,0,4.68-1.52,6.11-3.2V82.45l.41-.41h3l.4.41Z" style="fill:#fff"/><path d="M514.62,85.24l-.4.4h-4.48V94c0,3.44.56,4,2.2,4a4.26,4.26,0,0,0,1.88-.36l.4.4v3.16a6.61,6.61,0,0,1-2.68.4c-5.08,0-5.6-3.64-5.6-7.2v-8.8h-3.2l7-8V82h4.48l.4.41Z" style="fill:#fff"/><path d="M535.61,89.72a13,13,0,0,1-.15,2.08l-.45.4H522.34A6,6,0,0,0,528.22,98a10.25,10.25,0,0,0,5.64-1.6l.39.4v3.64a15.67,15.67,0,0,1-6,1.16c-5.76,0-9.8-4.24-9.8-10s3.84-10,9.2-10C531.22,81.65,535.61,83.45,535.61,89.72Zm-13.11-.16,9.08-.4a3.72,3.72,0,0,0-4-4.12C524.7,85,523.06,86.92,522.5,89.56Z" style="fill:#fff"/><path d="M541.94,86.84c2-2.84,5.36-5.19,9-5.19l-.6,3.79-.4.4a7.34,7.34,0,0,0-5.92,3v12l-.4.4h-3l-.4-.4V82.45l.4-.41h3l.4.41Z" style="fill:#fff"/><path d="M560.14,82.45v18.39l-.4.4h-3l-.4-.4V85.64h-1.8l-.4-.4V82.45l.4-.41h5.2Zm.72-8-2.52,2.52h-.64l-2.52-2.52v-.64l2.52-2.52h.64l2.52,2.52Z" style="fill:#fff"/><path d="M583,100.84l-.4.4h-3l-.41-.4,2.08-4a10.52,10.52,0,0,1-8.59,4.8c-5.16,0-6.6-2.64-6.6-7.6V82.45l.4-.41h3l.4.41V94c0,2.64.56,4,3.2,4,3,0,4.68-1.52,6.11-3.2V82.45l.41-.41h3l.4.41Z" style="fill:#fff"/><path d="M594,82.45v18.39l-.4.4h-3l-.4-.4V85.64h-1.8l-.4-.4V82.45l.4-.41h5.2Zm.72-8-2.52,2.52h-.64L589,74.41v-.64l2.52-2.52h.64l2.52,2.52Z" style="fill:#fff"/></g></svg>