<svg xmlns="http://www.w3.org/2000/svg" width="1920" height="1080" viewBox="0 0 1920 1080"><title>slide 6</title><g id="ff7085a0-27d9-41d7-bde3-6bcbd1da50e3" data-name="cutout"><path d="M0,1080v600H1920V1080Zm956.58,166.74,2.76-2.76,6.12,6,6.12-6,2.76,2.76v.84l-8.46,8.76H965l-8.46-8.76ZM627,1286.58l-7.45,11.1-3.59-1.92v-.84l5.76-11.4h.78l4.5,2.22Zm12,0-7.44,11.1-3.59-1.92v-.84l5.76-11.4h.77l4.5,2.22Zm21.36,3.66H645.84l-.59-.6v-43.8l.59-.6H660.3c12,0,22.32,8.7,22.32,22.5S672.3,1290.24,660.3,1290.24Zm42.72.6a15,15,0,1,1,15-15A14.57,14.57,0,0,1,703,1290.84Zm64.26-1.2-.6.6h-4.5l-.6-.6v-17.4c0-4-.84-6-4.2-6s-6.42,2.28-8.58,4.8v18.6l-.6.6h-4.5l-.6-.6v-17.4c0-4-.84-6-4.2-6s-6.42,2.28-8.58,4.8v18.6l-.6.6h-4.5l-.6-.6V1262l.6-.6h4.5l.6.6-3.12,6c2.64-3.66,7.44-7.2,12.3-7.2,4.56,0,7.08,1.62,8.34,4.74,2.7-2.64,6.42-4.74,10.14-4.74,7.14,0,9.3,4,9.3,11.4Zm34.26.6H787.08l-.6-.6v-43.8l.6-.6h14.46c12,0,22.32,8.7,22.32,22.5S813.54,1290.24,801.54,1290.24Zm42.72.6a15,15,0,1,1,15-15A14.57,14.57,0,0,1,844.26,1290.84Zm64.26-1.2-.6.6h-4.5l-.6-.6v-17.4c0-4-.84-6-4.2-6s-6.42,2.28-8.58,4.8v18.6l-.6.6h-4.5l-.6-.6v-17.4c0-4-.84-6-4.2-6s-6.42,2.28-8.58,4.8v18.6l-.6.6h-4.5l-.6-.6V1262l.6-.6H871l.6.6-3.12,6c2.64-3.66,7.44-7.2,12.3-7.2,4.56,0,7.08,1.62,8.34,4.74,2.7-2.64,6.42-4.74,10.14-4.74,7.14,0,9.3,4,9.3,11.4ZM924.66,1245l-5.76,11.4h-.78l-4.5-2.22v-.84l7.44-11.1,3.6,1.92Zm12,0-5.76,11.4h-.78l-4.5-2.22v-.84l7.44-11.1,3.6,1.92Zm39.9,39.84.6.6v4.2l-.6.6h-25.2l16.8-23.4H953.34l-.6-.6V1262l.6-.6h25l-16.68,23.4Zm31.56-8.76-.66.6h-19c.36,4.8,4,8.76,8.82,8.76a15.37,15.37,0,0,0,8.46-2.4l.6.6v5.46a23.63,23.63,0,0,1-9.06,1.74c-8.64,0-14.7-6.36-14.7-15s5.76-15,13.8-15c5.4,0,12,2.7,12,12.12A19.69,19.69,0,0,1,1008.12,1276.08Zm33.12,13.56-.6.6h-4.5l-.6-.6v-17.4c0-4-.84-6-4.8-6a12.58,12.58,0,0,0-9.78,4.8v18.6l-.6.6h-4.5l-.6-.6V1262l.6-.6h4.5l.6.6-3.12,6a17,17,0,0,1,13.5-7.2c7.74,0,9.9,4,9.9,11.4Zm13.5,0-.6.6h-4.5l-.6-.6v-46.5l5.7-.9Zm21.42,0-.6.6H1070l-13.5-16.08,12-12.72h5.16l.6.6v.72l-11,11.4,12.84,14.76Zm17.22.6a9.92,9.92,0,0,1-4,.6c-7.62,0-8.4-5.46-8.4-10.8v-36.9l5.7-.9v37.2c0,5.16.84,6,3.3,6a6.38,6.38,0,0,0,2.82-.54l.6.6Zm19.2.6a15,15,0,1,1,15-15A14.57,14.57,0,0,1,1112.58,1290.84Zm41.16,0a21.16,21.16,0,0,1-8.46-1.74l.6-5.34.6-.6a11,11,0,0,0,7.44,2.88c2.7,0,5-.84,5-3.42,0-5-13.62-3.78-13.62-13.5,0-5.88,5.88-8.28,10-8.28a18.45,18.45,0,0,1,7.86,1.74v5.64l-.6.6c-2.82-2.7-5.34-3.18-7.08-3.18-2.22,0-4.44.9-4.44,3.24,0,5.28,13.62,4,13.62,13.2C1164.6,1288,1159.14,1290.84,1153.74,1290.84Zm34.08-24.6-.6.6h-6.72v12.6c0,5.16.84,6,3.3,6a6.38,6.38,0,0,0,2.82-.54l.6.6v4.74a9.92,9.92,0,0,1-4,.6c-7.62,0-8.4-5.46-8.4-10.8v-13.2H1170l10.5-12v6.6h6.72l.6.6Zm15.6,23.4-.6.6h-4.5l-.6-.6v-22.8H1195l-.6-.6V1262l.6-.6h7.8l.6.6Zm1.08-39.66-3.78,3.78h-1L1196,1250v-1l3.78-3.78h1l3.78,3.78Zm20.82,40.26a9.92,9.92,0,0,1-4,.6c-7.62,0-8.4-5.46-8.4-10.8v-36.9l5.7-.9v37.2c0,5.16.84,6,3.3,6a6.38,6.38,0,0,0,2.82-.54l.6.6Zm14.1-.6-.6.6h-4.5l-.6-.6v-22.8H1231l-.6-.6V1262l.6-.6h7.8l.6.6Zm1.08-39.66-3.78,3.78h-1L1232,1250v-1l3.78-3.78h1l3.78,3.78Zm33.18,39.66-.6.6h-4.5l-.6-.6,3.12-6c-2.64,3.66-6.84,7.2-12.9,7.2-7.74,0-9.9-4-9.9-11.4V1262l.6-.6h4.5l.6.6v17.4c0,4,.84,6,4.8,6,4.5,0,7-2.28,9.18-4.8V1262l.6-.6h4.5l.6.6Zm16,1.2a21.16,21.16,0,0,1-8.46-1.74l.6-5.34.6-.6a11,11,0,0,0,7.44,2.88c2.7,0,5-.84,5-3.42,0-5-13.62-3.78-13.62-13.5,0-5.88,5.88-8.28,10-8.28a18.45,18.45,0,0,1,7.86,1.74v5.64l-.6.6c-2.82-2.7-5.34-3.18-7.08-3.18-2.22,0-4.44.9-4.44,3.24,0,5.28,13.62,4,13.62,13.2C1300.5,1288,1295,1290.84,1289.64,1290.84Z"/><path d="M489.36,386a6,6,0,0,0-5.92,6.15,6.09,6.09,0,0,0,5.92,6.23,6.41,6.41,0,0,0,6.23-6.23A6.29,6.29,0,0,0,489.36,386Z"/><path d="M495.13,436a6.29,6.29,0,0,0-6.23,6.15,6.41,6.41,0,0,0,6.23,6.23,6.09,6.09,0,0,0,5.92-6.23A6,6,0,0,0,495.13,436Z"/><path d="M491.82,648.39a6.1,6.1,0,0,0,5.93-6.23,6,6,0,0,0-5.93-6.15,6.29,6.29,0,0,0-6.23,6.15A6.41,6.41,0,0,0,491.82,648.39Z"/><path d="M597.09,386a6,6,0,0,0-5.93,6.15,6.1,6.1,0,0,0,5.93,6.23,6.41,6.41,0,0,0,6.23-6.23A6.29,6.29,0,0,0,597.09,386Z"/><path d="M518.55,517.16a6.3,6.3,0,0,0-6.24-6.15,6,6,0,0,0-5.92,6.15,6.09,6.09,0,0,0,5.92,6.23A6.41,6.41,0,0,0,518.55,517.16Z"/><path d="M595.56,448.39a6.41,6.41,0,0,0,6.23-6.23,6.29,6.29,0,0,0-6.23-6.15,6,6,0,0,0-5.93,6.15A6.1,6.1,0,0,0,595.56,448.39Z"/><path d="M497.87,586a6.29,6.29,0,0,0-6.23,6.15,6.41,6.41,0,0,0,6.23,6.23,6.09,6.09,0,0,0,5.93-6.23A6,6,0,0,0,497.87,586Z"/><path d="M1138.47,598.39a6.09,6.09,0,0,0,5.92-6.23,6,6,0,0,0-5.92-6.15,6.3,6.3,0,0,0-6.24,6.15A6.41,6.41,0,0,0,1138.47,598.39Z"/><path d="M1080.59,511a6,6,0,0,0-5.89,4.9h11.78A6.06,6.06,0,0,0,1080.59,511Z"/><path d="M509.15,440.91h11.78a6,6,0,0,0-11.78,0Z"/><path d="M439.39,386a6,6,0,0,0-5.89,4.9h11.78A6.06,6.06,0,0,0,439.39,386Z"/><path d="M488.68,517.16a6.29,6.29,0,0,0-6.23-6.15,6,6,0,0,0-5.93,6.15,6.1,6.1,0,0,0,5.93,6.23A6.41,6.41,0,0,0,488.68,517.16Z"/><path d="M449,598.39a6.16,6.16,0,0,0,6-6.23,6,6,0,1,0-12,0A6.17,6.17,0,0,0,449,598.39Z"/><path d="M460.55,436a6,6,0,0,0-5.93,6.15,6.1,6.1,0,0,0,5.93,6.23,6.41,6.41,0,0,0,6.23-6.23A6.29,6.29,0,0,0,460.55,436Z"/><path d="M1136.1,240.71c-4.38,0-6.84,2.82-7.68,6.78l13.62-.6C1142.16,242.57,1139.22,240.71,1136.1,240.71Z"/><path d="M376.91,448.24a6.29,6.29,0,0,0,6.23-6.15,6.41,6.41,0,0,0-6.23-6.23,6.1,6.1,0,0,0-5.93,6.23A6,6,0,0,0,376.91,448.24Z"/><path d="M398.27,436a6,6,0,0,0-5.93,6.15,6.09,6.09,0,0,0,5.93,6.23,6.41,6.41,0,0,0,6.23-6.23A6.29,6.29,0,0,0,398.27,436Z"/><path d="M1242.28,398.24a6.29,6.29,0,0,0,6.23-6.15,6.41,6.41,0,0,0-6.23-6.23,6.09,6.09,0,0,0-5.92,6.23A6,6,0,0,0,1242.28,398.24Z"/><path d="M1217.4,257.75a3.06,3.06,0,0,0,3.42,3.36c2,0,4.38-1,6.36-4v-4.68C1221.84,253.37,1217.4,254.33,1217.4,257.75Z"/><path d="M1169,260.21c5.16,0,8.7-4.44,8.7-9.6s-3.54-9.6-8.7-9.6a10.34,10.34,0,0,0-8.28,3.6v12A10.34,10.34,0,0,0,1169,260.21Z"/><path d="M1190.07,398.39a6.41,6.41,0,0,0,6.23-6.23,6.29,6.29,0,0,0-6.23-6.15,6,6,0,0,0-5.93,6.15A6.1,6.1,0,0,0,1190.07,398.39Z"/><path d="M399.52,648.39a6.1,6.1,0,0,0,5.93-6.23,6,6,0,0,0-5.93-6.15,6.29,6.29,0,0,0-6.23,6.15A6.41,6.41,0,0,0,399.52,648.39Z"/><path d="M568,586a6.3,6.3,0,0,0-6.24,6.15,6.41,6.41,0,0,0,6.24,6.23,6.09,6.09,0,0,0,5.92-6.23A6,6,0,0,0,568,586Z"/><path d="M547.5,386a6,6,0,0,0-5.89,4.9h11.78A6.06,6.06,0,0,0,547.5,386Z"/><path d="M575.77,386a6,6,0,0,0-5.92,6.15,6.09,6.09,0,0,0,5.92,6.23,6.41,6.41,0,0,0,6.23-6.23A6.29,6.29,0,0,0,575.77,386Z"/><path d="M577.56,517.16a6,6,0,1,0,12,0,6,6,0,1,0-12,0Z"/><path d="M587.86,586a6,6,0,0,0-5.89,4.9h11.78A6.07,6.07,0,0,0,587.86,586Z"/><path d="M1158.49,598.39a6.41,6.41,0,0,0,6.23-6.23,6.29,6.29,0,0,0-6.23-6.15,6,6,0,0,0-5.93,6.15A6.1,6.1,0,0,0,1158.49,598.39Z"/><path d="M1136.87,392.16a6,6,0,1,0,12,0,6,6,0,1,0-12,0Z"/><path d="M376.72,636a6,6,0,0,0-5.93,6.15,6.1,6.1,0,0,0,5.93,6.23,6.41,6.41,0,0,0,6.23-6.23A6.29,6.29,0,0,0,376.72,636Z"/><path d="M884.34,260.21c5.16,0,9-4.44,9-9.6s-3.84-9.6-9-9.6-9,4.44-9,9.6S879.18,260.21,884.34,260.21Z"/><path d="M1030.55,511a6,6,0,0,0-5.89,4.9h11.78A6.07,6.07,0,0,0,1030.55,511Z"/><path d="M857.64,242.51c0-10.26-6.9-17.1-16-17.1h-9.06v34.2h9.06C850.74,259.61,857.64,252.77,857.64,242.51Z"/><path d="M776.3,385.86a6.1,6.1,0,0,0-5.93,6.23,6,6,0,0,0,5.93,6.15,6.29,6.29,0,0,0,6.23-6.15A6.41,6.41,0,0,0,776.3,385.86Z"/><path d="M838.92,523.39a6.41,6.41,0,0,0,6.23-6.23,6.29,6.29,0,0,0-6.23-6.15,6,6,0,0,0-5.93,6.15A6.1,6.1,0,0,0,838.92,523.39Z"/><path d="M809.92,586a6,6,0,0,0-5.92,6.15,6.09,6.09,0,0,0,5.92,6.23,6.41,6.41,0,0,0,6.24-6.23A6.3,6.3,0,0,0,809.92,586Z"/><path d="M843.71,386a6.05,6.05,0,0,0-6,6.15,6,6,0,1,0,12,0A6,6,0,0,0,843.71,386Z"/><path d="M970.28,386a6.29,6.29,0,0,0-6.23,6.15,6.41,6.41,0,0,0,6.23,6.23,6.1,6.1,0,0,0,5.93-6.23A6,6,0,0,0,970.28,386Z"/><path d="M581.16,636a6,6,0,0,0-5.89,4.9h11.78A6.07,6.07,0,0,0,581.16,636Z"/><path d="M917.39,511a6,6,0,0,0-5.89,4.9h11.78A6.07,6.07,0,0,0,917.39,511Z"/><path d="M900.21,398.39a6.1,6.1,0,0,0,5.93-6.23,6,6,0,0,0-5.93-6.15,6.29,6.29,0,0,0-6.23,6.15A6.41,6.41,0,0,0,900.21,398.39Z"/><path d="M887.82,511a6,6,0,0,0-5.92,6.15,6.09,6.09,0,0,0,5.92,6.23,6.41,6.41,0,0,0,6.23-6.23A6.29,6.29,0,0,0,887.82,511Z"/><path d="M882.31,586a6,6,0,0,0-5.92,6.15,6.09,6.09,0,0,0,5.92,6.23,6.41,6.41,0,0,0,6.23-6.23A6.29,6.29,0,0,0,882.31,586Z"/><path d="M1003.08,511a6,6,0,0,0-5.89,4.9H1009A6.06,6.06,0,0,0,1003.08,511Z"/><path d="M990.2,386a6,6,0,0,0-5.89,4.9h11.77A6.06,6.06,0,0,0,990.2,386Z"/><path d="M662.56,398.39a6.41,6.41,0,0,0,6.23-6.23,6.29,6.29,0,0,0-6.23-6.15,6,6,0,0,0-5.92,6.15A6.09,6.09,0,0,0,662.56,398.39Z"/><path d="M716.4,242.51c0-10.26-6.9-17.1-16-17.1h-9.06v34.2h9.06C709.5,259.61,716.4,252.77,716.4,242.51Z"/><path d="M667.47,585.86a6.09,6.09,0,0,0-5.93,6.23,6,6,0,0,0,5.93,6.15,6.29,6.29,0,0,0,6.23-6.15A6.41,6.41,0,0,0,667.47,585.86Z"/><path d="M714.62,517.16a6.29,6.29,0,0,0-6.23-6.15,6,6,0,0,0-5.93,6.15,6.1,6.1,0,0,0,5.93,6.23A6.41,6.41,0,0,0,714.62,517.16Z"/><path d="M635.05,586a6,6,0,0,0-5.93,6.15,6.1,6.1,0,0,0,5.93,6.23,6.41,6.41,0,0,0,6.23-6.23A6.29,6.29,0,0,0,635.05,586Z"/><path d="M627.78,448.39a6.41,6.41,0,0,0,6.23-6.23,6.29,6.29,0,0,0-6.23-6.15,6,6,0,0,0-5.93,6.15A6.1,6.1,0,0,0,627.78,448.39Z"/><path d="M715.76,586a6,6,0,0,0-5.93,6.15,6.1,6.1,0,0,0,5.93,6.23,6.41,6.41,0,0,0,6.23-6.23A6.29,6.29,0,0,0,715.76,586Z"/><path d="M758.78,523.39a6.1,6.1,0,0,0,5.93-6.23,6,6,0,0,0-5.93-6.15,6.29,6.29,0,0,0-6.23,6.15A6.41,6.41,0,0,0,758.78,523.39Z"/><path d="M1040.16,260.21c5.16,0,9-4.44,9-9.6s-3.84-9.6-9-9.6-9,4.44-9,9.6S1035,260.21,1040.16,260.21Z"/><path d="M804.23,515.91H816a6,6,0,0,0-11.77,0Z"/><path d="M743.1,260.21c5.16,0,9-4.44,9-9.6s-3.84-9.6-9-9.6-9,4.44-9,9.6S737.94,260.21,743.1,260.21Z"/><path d="M715.39,390.91h11.77a6,6,0,0,0-11.77,0Z"/><path d="M797.65,386a6,6,0,0,0-5.93,6.15,6.1,6.1,0,0,0,5.93,6.23,6.41,6.41,0,0,0,6.23-6.23A6.29,6.29,0,0,0,797.65,386Z"/><path d="M842.22,586a6,6,0,0,0-5.89,4.9h11.78A6.06,6.06,0,0,0,842.22,586Z"/><path d="M1205.12,511a6,6,0,0,0-5.89,4.9H1211A6.07,6.07,0,0,0,1205.12,511Z"/><path d="M954.28,523.39a6.41,6.41,0,0,0,6.24-6.23,6.3,6.3,0,0,0-6.24-6.15,6,6,0,0,0-5.92,6.15A6.09,6.09,0,0,0,954.28,523.39Z"/><path d="M1367.49,386a6,6,0,0,0-5.93,6.15,6.1,6.1,0,0,0,5.93,6.23,6.41,6.41,0,0,0,6.23-6.23A6.29,6.29,0,0,0,1367.49,386Z"/><path d="M1476.47,511a6,6,0,0,0-5.93,6.15,6.1,6.1,0,0,0,5.93,6.23,6.41,6.41,0,0,0,6.23-6.23A6.29,6.29,0,0,0,1476.47,511Z"/><path d="M1304.68,586a6,6,0,0,0-5.93,6.15,6.09,6.09,0,0,0,5.93,6.23,6.41,6.41,0,0,0,6.23-6.23A6.29,6.29,0,0,0,1304.68,586Z"/><path d="M955.58,598.39a6.16,6.16,0,0,0,6-6.23,6,6,0,1,0-12,0A6.16,6.16,0,0,0,955.58,598.39Z"/><path d="M1195.88,586a6,6,0,0,0-5.92,6.15,6.09,6.09,0,0,0,5.92,6.23,6.41,6.41,0,0,0,6.24-6.23A6.3,6.3,0,0,0,1195.88,586Z"/><path d="M0-.67v1082H1920V-.67ZM1492.17,501.82a1.79,1.79,0,1,1-1.83,1.75A1.82,1.82,0,0,1,1492.17,501.82Zm1.36,6.95v16.72h-2.66V508.77Zm-21.46-125h2.54v9.54c0,3.3,1.52,4.94,4.3,4.94,3.38,0,5.47-1.9,5.47-5.59v-8.89h2.54v16.72h-2.54v-2a7.22,7.22,0,0,1-5.47,2.27c-4.79,0-6.84-2.12-6.84-7.44ZM1461.84,393c-4-.79-5.77-2.24-5.77-4.9s2-4.59,5.77-4.59c3.31,0,5.51,1.82,5.78,4.36h-2.32c-.23-1.14-1.48-2-3.46-2s-3.42,1-3.42,2.2,1.11,2,3.84,2.51c4.29.87,6,2.36,6,5.13,0,2.93-2.24,5-6.42,5-3.76,0-6.27-2.08-6.42-5h2.32c.23,1.4,1.94,2.62,4.1,2.62,2.47,0,4.11-1.1,4.11-2.62S1464.88,393.61,1461.84,393Zm-23.9,7.49V383.77h2.66v16.72c-2.7,3.95.8,3.95,3,2.85v2.32c-2.55,1.33-8.36.6-4.72-5.17Zm1.37-24.28a1.84,1.84,0,0,1,1.79,1.75,1.86,1.86,0,0,1-1.79,1.86,1.83,1.83,0,0,1-1.82-1.86A1.81,1.81,0,0,1,1439.31,376.21ZM1425.17,373l3,3.34,3-3.34,1.52,1.06-4,5.1h-1.1l-4-5.1Zm2.93,20c-4-.79-5.77-2.24-5.77-4.9s2-4.59,5.77-4.59c3.31,0,5.51,1.82,5.78,4.36h-2.32c-.23-1.14-1.48-2-3.46-2s-3.42,1-3.42,2.2,1.1,2,3.84,2.51c4.29.87,6,2.36,6,5.13,0,2.93-2.24,5-6.42,5-3.76,0-6.27-2.08-6.42-5H1424c.22,1.4,1.93,2.62,4.1,2.62,2.47,0,4.1-1.1,4.1-2.62S1431.14,393.61,1428.1,393Zm4.33,112.39a1.79,1.79,0,1,1,0-3.57,1.79,1.79,0,0,1,0,3.57Zm1.37,3.38v16.72h-2.66V508.77Zm-6.92-5.2a1.81,1.81,0,1,1-1.78-1.75A1.81,1.81,0,0,1,1426.88,503.57Zm-21.54-119.8,5.89,11.82,5.93-11.82h3l-7.41,14.86-4.75,9.46h-3l4.75-9.5-7.41-14.82Zm10.41,121.62a1.79,1.79,0,1,1,1.78-1.82A1.8,1.8,0,0,1,1415.75,505.39Zm1.37,3.38v16.72h-2.66V508.77Zm-24-125h2.55v2.28a7.4,7.4,0,0,1,5.66-2.54V386c-3,0-5.66,1.83-5.66,5.25v9.23h-2.55Zm-25.57-.26a8.15,8.15,0,0,1,6.3,3v-2.74h2.55v16.79h-.84c-2.62,3.88.84,3.88,3,2.78v2.32c-2.54,1.33-8.35.6-4.71-5.17v-2.66a8.13,8.13,0,0,1-6.3,3.08,8.83,8.83,0,0,1-8.67-8.74A8.71,8.71,0,0,1,1367.57,383.51Zm21.58,119.18v2.24h-15v-2.24Zm-60-129.71,3,3.34,3-3.34,1.52,1.06-4,5.1h-1.1l-3.95-5.1Zm2.92,20c-4-.79-5.77-2.24-5.77-4.9s2-4.59,5.77-4.59c3.31,0,5.51,1.82,5.78,4.36h-2.32c-.23-1.14-1.48-2-3.46-2s-3.42,1-3.42,2.2,1.11,2,3.84,2.51c4.3.87,6,2.36,6,5.13,0,2.93-2.25,5-6.43,5-3.76,0-6.27-2.08-6.42-5H1328c.23,1.4,1.94,2.62,4.1,2.62,2.47,0,4.11-1.1,4.11-2.62S1335.15,393.61,1332.11,393Zm-4.82,108.21a1.83,1.83,0,0,1,1.78,1.75,1.81,1.81,0,1,1-3.61,0A1.82,1.82,0,0,1,1327.29,501.21ZM1277.7,383.77h2.55v2a6.33,6.33,0,0,1,5-2.27c2.93,0,4.75.95,5.62,3.22a6.26,6.26,0,0,1,5.66-3.22c4.34,0,6.27,2.12,6.27,7.44v9.54h-2.54V391c0-3.3-1.26-4.94-3.73-4.94-3.07,0-5,1.71-5,5.78v8.7H1289V391c0-3.3-1.25-4.94-3.72-4.94-3.08,0-5,1.71-5,5.78v8.7h-2.55Zm11,121.62a1.79,1.79,0,1,1,0-3.57,1.79,1.79,0,1,1,0,3.57Zm1.37,3.38v16.72h-2.66V508.77Zm-7.75,7.18v9.54h-2.55V516c0-3.3-1.52-4.94-4.29-4.94-3.38-.07-5.47,1.83-5.47,5.59v8.89h-2.55V508.77h2.55v2a7.21,7.21,0,0,1,5.47-2.27C1280.32,508.51,1282.37,510.63,1282.37,516ZM1241.1,243.9c0-5.88,5.88-8.28,10-8.28a18.45,18.45,0,0,1,7.86,1.74V243l-.6.6c-2.82-2.7-5.34-3.18-7.08-3.18-2.22,0-4.44.9-4.44,3.24,0,5.28,13.62,4,13.62,13.2,0,5.94-5.46,8.76-10.86,8.76a21.16,21.16,0,0,1-8.46-1.74l.6-5.34.6-.6a11,11,0,0,0,7.44,2.88c2.7,0,5-.84,5-3.42C1254.72,252.42,1241.1,253.62,1241.1,243.9Zm1.26,139.45a8.16,8.16,0,0,1,6.23,3v-2.55h2.66V399c0,6.57-3.91,9.5-8.66,9.5a8.65,8.65,0,0,1-8.17-5.78h2.88a6,6,0,0,0,5.29,3.27c3.38,0,6-1.79,6-7v-1.1a8.24,8.24,0,0,1-6.23,2.88,8.7,8.7,0,0,1-8.66-8.66A8.82,8.82,0,0,1,1242.36,383.35Zm-19.76,2.74v-2.32h2.51V377.2h2.54v6.57h3.76v2.32h-3.76v14.4h-2.54v-14.4ZM1228.3,498l3,3.34,3-3.34,1.52,1.06-4,5.1h-1.1l-4-5.1Zm-6.52-257.26a17.88,17.88,0,0,0-9.12,2.4l-.6-.6,1.2-5.16a28.52,28.52,0,0,1,9.72-1.74c7.44,0,9.9,3.24,9.9,7.38v14.82a5.82,5.82,0,0,0,3.12,3.3l-1.2,4.5a10.23,10.23,0,0,1-6.54-3.9,10.88,10.88,0,0,1-8.34,3.9c-3.24,0-8.22-1.44-8.22-7.56,0-5.94,6.42-8.58,15.48-9.48V241.8A11.42,11.42,0,0,0,1221.78,240.72Zm-2.57,264.67a1.79,1.79,0,1,1,0-3.57,1.79,1.79,0,1,1,0,3.57Zm1.37,3.38v16.72h-2.66V508.77Zm-8.24-125.26c4.79,0,6.84,2.12,6.84,7.44v9.54h-2.55V391c0-3.3-1.52-4.94-4.29-4.94-3.38-.07-5.47,1.83-5.47,5.59v8.89h-2.55V383.77h2.55v2A7.21,7.21,0,0,1,1212.34,383.51Zm-13.66-153.89v6.6h6.72l.6.6V241l-.6.6h-6.72v12.6c0,5.16.84,6,3.3,6a6.38,6.38,0,0,0,2.82-.54l.6.6V265a9.92,9.92,0,0,1-4,.6c-7.62,0-8.4-5.46-8.4-10.8v-13.2h-4.8Zm-8.53,153.89a8.15,8.15,0,0,1,6.3,3v-2.74H1199v16.79h-2.55v-2.73a8.13,8.13,0,0,1-6.3,3.08,8.83,8.83,0,0,1-8.67-8.74A8.71,8.71,0,0,1,1190.15,383.51ZM1155,236.82l.6-.6h4.5l.6.6v1.56a13.47,13.47,0,0,1,8.28-2.76c8.64,0,14.7,6.36,14.7,15s-6.06,15-14.7,15a13.75,13.75,0,0,1-11.4-6l3.12,6v15l-5.7-.9Zm1.71,158.92c.23,1.4,1.94,2.62,4.1,2.62,2.47,0,4.11-1.1,4.11-2.62s-1.07-2.13-4.11-2.74c-4-.79-5.77-2.24-5.77-4.9s2-4.59,5.77-4.59c3.31,0,5.51,1.82,5.78,4.36h-2.32c-.23-1.14-1.48-2-3.46-2s-3.42,1-3.42,2.2,1.1,2,3.84,2.51c4.29.87,6,2.36,6,5.13,0,2.93-2.24,5-6.42,5-3.76,0-6.27-2.08-6.42-5Zm-.31,109.65a1.79,1.79,0,1,1,0-3.57,1.79,1.79,0,1,1,0,3.57Zm1.37,3.38v16.72h-2.66V508.77ZM1136.1,235.62c5.4,0,12,2.7,12,12.12a19.69,19.69,0,0,1-.24,3.12l-.66.6h-19c.36,4.8,4,8.76,8.82,8.76a15.37,15.37,0,0,0,8.46-2.4l.6.6v5.46a23.63,23.63,0,0,1-9.06,1.74c-8.64,0-14.7-6.36-14.7-15S1128.06,235.62,1136.1,235.62Zm-7.28,144.77a1.79,1.79,0,1,1,1.78-1.82A1.8,1.8,0,0,1,1128.82,380.39Zm1.36,3.38v16.72h-2.65V383.77ZM1119.77,374l-4,5.1h-1.1l-4-5.1,1.52-1.06,3,3.34,3-3.34Zm-11-138.42a19.46,19.46,0,0,1,7.86,1.74v5.46l-.6.6a12.07,12.07,0,0,0-7.26-2.4c-5.16,0-9,4.44-9,9.6s3.84,9.6,9,9.6a12.07,12.07,0,0,0,7.26-2.4l.6.6v5.46a19.46,19.46,0,0,1-7.86,1.74,15,15,0,0,1,0-30Zm-47,1.2.6-.6h4.5l.6.6-3.12,6a17,17,0,0,1,13.5-7.2c7.74,0,9.9,4,9.9,11.4v17.4l-.6.6h-4.5l-.6-.6V247c0-4-.84-6-4.8-6a12.58,12.58,0,0,0-9.78,4.8v18.6l-.6.6h-4.5l-.6-.6Zm19.6,143.57a1.79,1.79,0,1,1,1.78-1.82A1.8,1.8,0,0,1,1081.36,380.39Zm1.36,3.38v16.72h-2.66V383.77Zm-6.23-.26V386c-3,0-5.66,1.83-5.66,5.25v9.23h-2.55V383.77h2.55v2.28A7.41,7.41,0,0,1,1076.49,383.51Zm-16.07,9.15v-8.89H1063v16.72h-2.54v-2a7.22,7.22,0,0,1-5.47,2.27c-4.79,0-6.84-2.12-6.84-7.44v-9.54h2.54v9.54c0,3.3,1.52,4.94,4.3,4.94C1058.33,398.25,1060.42,396.35,1060.42,392.66Zm-20.26-157a15,15,0,1,1-15,15A14.57,14.57,0,0,1,1040.16,235.62Zm-45.72-17.7,5.7-.9v47.4l-.6.6H995l-.6-.6Zm-4,158.86a1.84,1.84,0,0,1,1.79,1.75,1.86,1.86,0,0,1-1.79,1.86,1.84,1.84,0,0,1-1.82-1.86A1.81,1.81,0,0,1,990.42,376.78Zm-.22,6.73a8.71,8.71,0,0,1,8.66,8.66v1.18H984.31a6.13,6.13,0,0,0,5.89,5,5.84,5.84,0,0,0,4.63-2.32H998a8.64,8.64,0,0,1-7.78,4.83,8.83,8.83,0,0,1-8.67-8.74A8.71,8.71,0,0,1,990.2,383.51ZM970,505.39a1.79,1.79,0,1,1,0-3.57,1.79,1.79,0,0,1,0,3.57Zm1.37,3.38v16.72h-2.66V508.77Zm-1.14-107.86a8.14,8.14,0,0,1-6.31-3.08v2.66h-2.55V373.36h2.55v13.15a8.16,8.16,0,0,1,6.31-3,8.7,8.7,0,0,1,8.66,8.66A8.82,8.82,0,0,1,970.21,400.91ZM965.7,228.12l7.44-11.1,3.6,1.92v.84L971,231.18h-.78L965.7,229Zm-12,0,7.44-11.1,3.6,1.92v.84L959,231.18h-.78L953.7,229Zm2,155.65h3l-7.41,14.86-4.75,9.46h-3l4.75-9.5-7.41-14.82h3l5.89,11.82ZM905.94,236.82l.6-.6H911l.6.6-3.12,6c2.64-3.66,7.44-7.2,12.3-7.2,4.56,0,7.08,1.62,8.34,4.74,2.7-2.64,6.42-4.74,10.14-4.74,7.14,0,9.3,4,9.3,11.4v17.4l-.6.6h-4.5l-.6-.6V247c0-4-.84-6-4.2-6s-6.42,2.28-8.58,4.8v18.6l-.6.6H925l-.6-.6V247c0-4-.84-6-4.2-6s-6.42,2.28-8.58,4.8v18.6l-.6.6h-4.5l-.6-.6Zm25.13,149.27v-2.32h2.51V377.2h2.54v6.57h3.76v2.32h-3.76v14.4h-2.54v-14.4Zm-3.84-8.4v2.24h-15v-2.24ZM884.34,235.62a15,15,0,1,1-15,15A14.57,14.57,0,0,1,884.34,235.62ZM867.42,387.87H865.1c-.23-1.14-1.48-2-3.46-2s-3.42,1-3.42,2.2,1.11,2,3.84,2.51c4.29.87,6,2.36,6,5.13,0,2.93-2.24,5-6.42,5-3.76,0-6.27-2.08-6.42-5h2.32c.23,1.4,1.94,2.62,4.1,2.62,2.47,0,4.11-1.1,4.11-2.62s-1.07-2.13-4.11-2.74c-4-.79-5.77-2.24-5.77-4.9s2-4.59,5.77-4.59C865,383.51,867.15,385.33,867.42,387.87ZM826.56,220.62l.6-.6h14.46c12,0,22.32,8.7,22.32,22.5S853.62,265,841.62,265H827.16l-.6-.6Zm-6.83,163.15,5.51,13.34,5.47-13.34h2.77l-6.87,16.72h-2.78L817,383.77Zm7.45,119.8a1.82,1.82,0,0,1-1.79,1.82,1.79,1.79,0,1,1,0-3.57A1.83,1.83,0,0,1,827.18,503.57Zm-8.4,13.6v1.18H804.23a6.13,6.13,0,0,0,5.89,5,5.84,5.84,0,0,0,4.63-2.32h3.15a8.64,8.64,0,0,1-7.78,4.83,8.83,8.83,0,0,1-8.67-8.74,8.67,8.67,0,0,1,17.33,0Zm-21-116.26a8.83,8.83,0,0,1-8.67-8.74,8.71,8.71,0,0,1,8.67-8.66,8.17,8.17,0,0,1,6.31,3v-2.74h2.54v16.79H804v-2.73A8.15,8.15,0,0,1,797.73,400.91Zm14-27.55h2.55v27.13h-2.55Zm-1.37,128.42a1.84,1.84,0,0,1,1.79,1.75,1.86,1.86,0,0,1-1.79,1.86,1.84,1.84,0,0,1-1.82-1.86A1.81,1.81,0,0,1,810.34,501.78Zm-45.64-265,.6-.6h4.5l.6.6-3.12,6c2.64-3.66,7.44-7.2,12.3-7.2,4.56,0,7.08,1.62,8.34,4.74,2.7-2.64,6.42-4.74,10.14-4.74,7.14,0,9.3,4,9.3,11.4v17.4l-.6.6h-4.5l-.6-.6V247c0-4-.84-6-4.2-6s-6.42,2.28-8.58,4.8v18.6l-.6.6h-4.5l-.6-.6V247c0-4-.84-6-4.2-6s-6.42,2.28-8.58,4.8v18.6l-.6.6h-4.5l-.6-.6Zm-21.6-1.2a15,15,0,1,1-15,15A14.57,14.57,0,0,1,743.1,235.62ZM723.29,378.53a1.86,1.86,0,0,1-1.79,1.86,1.84,1.84,0,0,1-1.82-1.86,1.81,1.81,0,0,1,1.82-1.75A1.84,1.84,0,0,1,723.29,378.53Zm-38-157.91.6-.6h14.46c12,0,22.32,8.7,22.32,22.5S712.38,265,700.38,265H685.92l-.6-.6Zm23.15,305.29a8.83,8.83,0,0,1-8.67-8.74,8.71,8.71,0,0,1,8.67-8.66,8.15,8.15,0,0,1,6.3,3v-2.74h2.55v16.79h-2.55v-2.73A8.13,8.13,0,0,1,708.47,525.91Zm-.61-125.42-7.45-8.59-1.63,1.6v7h-2.55V373.36h2.55v16.15h.57l6.23-6.08h3.57l-6.88,6.65,9,10.41ZM694,505.39a1.79,1.79,0,1,1,1.78-1.82A1.8,1.8,0,0,1,694,505.39Zm1.37,3.38v16.72h-2.66V508.77ZM683.08,398.25c3.39,0,5.48-1.9,5.48-5.59v-8.89h2.54v16.72h-2.54v-2a7.23,7.23,0,0,1-5.48,2.27c-4.78,0-6.83-2.12-6.83-7.44v-9.54h2.54v9.54C678.79,396.61,680.31,398.25,683.08,398.25ZM668,269.7l5.76-11.4h.78l4.5,2.22v.84l-7.44,11.1-3.6-1.92Zm-12,0,5.76-11.4h.78l4.5,2.22v.84l-7.44,11.1-3.6-1.92Zm6.66,113.81a8.16,8.16,0,0,1,6.31,3v-2.74h2.54v16.79H669v-2.73a8.14,8.14,0,0,1-6.31,3.08,8.82,8.82,0,0,1-8.66-8.74A8.7,8.7,0,0,1,662.64,383.51Zm-24.28-10.15h2.54v16.15h.57l6.24-6.08h3.57l-6.88,6.65,9,10.41H650l-7.44-8.59-1.64,1.6v7h-2.54Zm2.54,125.19,3,3.34,3-3.34,1.52,1.06-3.95,5.1h-1.1l-4-5.1Zm-.58-50a2.11,2.11,0,1,1,2.13,2.13A2.12,2.12,0,0,1,640.32,448.55Zm-2.57,74.51,9.39-11.86h-9.39v-2.43h12.58v2.43l-9.39,11.86h9.62v2.43H637.75Zm-3.58-86.55v-2.74h2.54v16.79h-2.54v-2.73a8.15,8.15,0,0,1-6.31,3.08,8.83,8.83,0,0,1-8.67-8.74,8.71,8.71,0,0,1,8.67-8.66A8.17,8.17,0,0,1,634.17,436.51Zm-14.24-40.05a2.11,2.11,0,0,1,2.09,2.09,3.21,3.21,0,0,1-.42,1.44l-1.82,3.46h-1.22l.72-2.89a2.08,2.08,0,0,1-1.48-2A2.12,2.12,0,0,1,619.93,396.46Zm-7.14-19.64a1.79,1.79,0,1,1-1.83,1.75A1.82,1.82,0,0,1,612.79,376.82Zm1.36,6.95v16.72h-2.66V383.77Zm-5.86,50h2.51V427.2h2.54v6.57h3.76v2.32h-3.76v14.4H610.8v-14.4h-2.51Zm-11.12-50.26a8.15,8.15,0,0,1,6.3,3v-2.74H606v16.79h-2.55v-2.73a8.13,8.13,0,0,1-6.3,3.08,8.83,8.83,0,0,1-8.67-8.74A8.71,8.71,0,0,1,597.17,383.51Zm9,207.1c4.29.87,6,2.36,6,5.13,0,2.93-2.24,5-6.42,5-3.76,0-6.27-2.08-6.42-5h2.32c.23,1.4,1.94,2.62,4.1,2.62,2.47,0,4.11-1.1,4.11-2.62s-1.07-2.13-4.11-2.74c-4-.79-5.77-2.24-5.77-4.9s2-4.59,5.77-4.59c3.31,0,5.51,1.82,5.78,4.36h-2.32c-.23-1.14-1.48-2-3.46-2s-3.42,1-3.42,2.2S603.48,590.08,606.21,590.61Zm-10.58-157.1a8.16,8.16,0,0,1,6.31,3v-2.74h2.55v16.79h-2.55v-2.73a8.14,8.14,0,0,1-6.31,3.08,8.82,8.82,0,0,1-8.66-8.74A8.7,8.7,0,0,1,595.63,433.51ZM587.86,598.4a5.84,5.84,0,0,0,4.63-2.32h3.16a8.67,8.67,0,0,1-7.79,4.83,8.83,8.83,0,0,1-8.67-8.74,8.67,8.67,0,0,1,17.33,0v1.18H582A6.13,6.13,0,0,0,587.86,598.4Zm-25-75.15c3.38,0,5.47-1.9,5.47-5.59v-8.89h2.55v16.72h-2.55v-2a7.21,7.21,0,0,1-5.47,2.27c-4.78,0-6.84-2.12-6.84-7.44v-9.54h2.55v9.54C558.6,521.61,560.12,523.25,562.89,523.25Zm-2.58-122.76V383.77H563v16.72Zm4.09,50V433.77h2.66v16.72ZM559,573.36h2.54v13.15a8.16,8.16,0,0,1,6.31-3,8.7,8.7,0,0,1,8.66,8.66,8.82,8.82,0,0,1-8.66,8.74,8.14,8.14,0,0,1-6.31-3.08v2.66H559ZM577.7,443c-4-.79-5.78-2.24-5.78-4.9s2-4.59,5.78-4.59c3.3,0,5.51,1.82,5.77,4.36h-2.31c-.23-1.14-1.49-2-3.46-2s-3.42,1-3.42,2.2,1.1,2,3.84,2.51c4.29.87,6,2.36,6,5.13,0,2.93-2.24,5-6.42,5-3.76,0-6.27-2.08-6.42-5h2.32c.22,1.4,1.93,2.62,4.1,2.62,2.47,0,4.1-1.1,4.1-2.62S580.74,443.61,577.7,443Zm-2.8,74.17a8.67,8.67,0,0,1,17.33,0,8.67,8.67,0,1,1-17.33,0Zm15,61.36a1.81,1.81,0,1,1-3.61,0,1.81,1.81,0,0,1,3.61,0Zm-14-195a8.17,8.17,0,0,1,6.31,3V373.36h2.54v27.13h-2.54v-2.66a8.15,8.15,0,0,1-6.31,3.08,8.82,8.82,0,0,1-8.66-8.74A8.7,8.7,0,0,1,575.85,383.51Zm-10.16,43.31a1.79,1.79,0,1,1,0,3.57,1.79,1.79,0,1,1,0-3.57Zm-4.09-50a1.79,1.79,0,1,1,0,3.57,1.79,1.79,0,1,1,0-3.57Zm-.24,56.95-6.88,16.72h-2.77l-6.88-16.72h2.77l5.51,13.34,5.47-13.34ZM547.5,383.51a8.7,8.7,0,0,1,8.66,8.66v1.18H541.61a6.14,6.14,0,0,0,5.89,5,5.86,5.86,0,0,0,4.64-2.32h3.15a8.67,8.67,0,0,1-7.79,4.83,8.82,8.82,0,0,1-8.66-8.74A8.7,8.7,0,0,1,547.5,383.51Zm-8.13,128.22a6.25,6.25,0,0,1,5.66-3.22c4.33,0,6.27,2.12,6.27,7.44v9.54h-2.55V516c0-3.3-1.25-4.94-3.72-4.94-3.08,0-5,1.71-5,5.78v8.7h-2.55V516c0-3.3-1.25-4.94-3.72-4.94-3.08,0-5,1.71-5,5.78v8.7h-2.54V508.77h2.54v2a6.37,6.37,0,0,1,5-2.27C536.67,508.51,538.5,509.46,539.37,511.73Zm-10.23-81.34a1.79,1.79,0,1,1,1.78-1.82A1.8,1.8,0,0,1,529.14,430.39Zm1.36,3.38v16.72h-2.66V433.77Zm-7-50L529,397.11l5.48-13.34h2.77l-6.88,16.72h-2.77l-6.88-16.72ZM515,433.51a8.7,8.7,0,0,1,8.66,8.66v1.18H509.15a6.13,6.13,0,0,0,5.89,5,5.82,5.82,0,0,0,4.63-2.32h3.16a8.67,8.67,0,0,1-7.79,4.83,8.82,8.82,0,0,1-8.66-8.74A8.7,8.7,0,0,1,515,433.51Zm-2.65,92.4a8.82,8.82,0,0,1-8.66-8.74,8.7,8.7,0,0,1,8.66-8.66,8.16,8.16,0,0,1,6.31,3V498.36h2.54v27.13H518.7v-2.66A8.14,8.14,0,0,1,512.39,525.91Zm-7.26-142.25a2.11,2.11,0,1,1-2.12,2.09A2.11,2.11,0,0,1,505.13,383.66Zm0,12.8a2.11,2.11,0,1,1-2.12,2.09A2.11,2.11,0,0,1,505.13,396.46Zm-1.42,45.71a8.82,8.82,0,0,1-8.66,8.74,8.14,8.14,0,0,1-6.31-3.08v2.66H486.2V423.36h2.54v13.15a8.16,8.16,0,0,1,6.31-3A8.7,8.7,0,0,1,503.71,442.17Zm-5.57,63.22a1.79,1.79,0,1,1,0-3.57,1.79,1.79,0,1,1,0,3.57Zm1.37,3.38v16.72h-2.66V508.77ZM489.44,383.51a8.17,8.17,0,0,1,6.31,3v-2.74h2.54v16.79h-2.54v-2.73a8.15,8.15,0,0,1-6.31,3.08,8.82,8.82,0,0,1-8.66-8.74A8.7,8.7,0,0,1,489.44,383.51Zm-37.58.26h2.54v2a6.37,6.37,0,0,1,5-2.27c2.92,0,4.75.95,5.62,3.22a6.26,6.26,0,0,1,5.66-3.22c4.33,0,6.27,2.12,6.27,7.44v9.54h-2.54V391c0-3.3-1.26-4.94-3.73-4.94-3.07,0-5,1.71-5,5.78v8.7h-2.55V391c0-3.3-1.25-4.94-3.72-4.94-3.08,0-5,1.71-5,5.78v8.7h-2.54Zm8.76,67.14a8.82,8.82,0,0,1-8.66-8.74,8.7,8.7,0,0,1,8.66-8.66,8.16,8.16,0,0,1,6.31,3v-2.74h2.55v16.79h-2.55v-2.73A8.14,8.14,0,0,1,460.62,450.91Zm-2.07,57.86,5.51,13.34,5.47-13.34h2.77l-6.88,16.72h-2.77l-6.88-16.72ZM466.94,593c-4-.79-5.77-2.24-5.77-4.9s2-4.59,5.77-4.59c3.31,0,5.51,1.82,5.78,4.36H470.4c-.23-1.14-1.48-2-3.46-2s-3.42,1-3.42,2.2,1.11,2,3.84,2.51c4.29.87,6,2.36,6,5.13,0,2.93-2.24,5-6.42,5-3.76,0-6.27-2.08-6.42-5h2.32c.23,1.4,1.94,2.62,4.1,2.62,2.47,0,4.11-1.1,4.11-2.62S470,593.61,466.94,593Zm-28-67.51v-2a7.21,7.21,0,0,1-5.47,2.27c-4.79,0-6.84-2.12-6.84-7.44v-9.54h2.54v9.54c0,3.3,1.52,4.94,4.3,4.94,3.38,0,5.47-1.9,5.47-5.59v-8.89h2.54v16.72h-.3c-2.7,4,.8,4,3,2.85v2.32c-2.54,1.33-8.36.6-4.71-5.17Zm-4,54.9a1.79,1.79,0,1,1,1.78-1.82A1.8,1.8,0,0,1,435,580.39Zm1.37,3.38v16.72h-2.66V583.77ZM423.61,450.49V441c0-3.3-1.25-4.94-3.72-4.94-3.08,0-5,1.71-5,5.78v8.7h-2.54V433.77h2.54v2a6.37,6.37,0,0,1,5-2.27c2.92,0,4.75.95,5.62,3.22a6.25,6.25,0,0,1,5.66-3.22c4.33,0,6.27,2.12,6.27,7.44v9.54H434.9V441c0-3.3-1.26-4.94-3.73-4.94-3.08,0-5,1.71-5,5.78v8.7Zm2,113.71-3.95,5.1h-1.11l-3.95-5.1,1.52-1.06,3,3.34,3-3.34Zm17.92-113.71v-14.4h-2.51v-2.32h2.51V427.2h2.55v6.57h3.76v2.32h-3.76v14.4Zm-4.17-67a8.71,8.71,0,0,1,8.67,8.66v1.18H433.5a6.14,6.14,0,0,0,5.89,5,5.84,5.84,0,0,0,4.64-2.32h3.15a8.65,8.65,0,0,1-7.79,4.83,8.82,8.82,0,0,1-8.66-8.74A8.7,8.7,0,0,1,439.39,383.51Zm-28.08-10.15h21.13V376h-9.16v24.47h-2.77V376h-9.2Zm-6.66,63.15v-2.74h2.54v16.79h-2.54v-2.73a8.14,8.14,0,0,1-6.31,3.08,8.82,8.82,0,0,1-8.66-8.74,8.7,8.7,0,0,1,8.66-8.66A8.16,8.16,0,0,1,404.65,436.51ZM383.13,522l-9.74-9.74,9.74-9.81,9.82,9.81ZM393,587.22,383.13,597l-9.74-9.74,9.74-9.81Zm-9.82-209.81,9.82,9.81L383.13,397l-9.74-9.74ZM377,433.35a8.17,8.17,0,0,1,6.23,3v-2.55h2.66V449c0,6.57-3.92,9.5-8.67,9.5a8.63,8.63,0,0,1-8.16-5.78h2.88a6,6,0,0,0,5.28,3.27c3.39,0,6-1.79,6-7v-1.1a8.26,8.26,0,0,1-6.23,2.88,8.71,8.71,0,0,1-8.67-8.66A8.83,8.83,0,0,1,377,433.35ZM314.13,774.76l-7.71,7.71H303l-7.71-7.71v-3.43l7.71-7.71h3.43l7.71,7.71Zm0-530.07-7.71,7.72H303l-7.71-7.72v-3.42l7.71-7.72h3.43l7.71,7.72Zm71.52,405.87H383.1v-2.73a8.13,8.13,0,0,1-6.3,3.08,8.83,8.83,0,0,1-8.67-8.74,8.71,8.71,0,0,1,8.67-8.66,8.15,8.15,0,0,1,6.3,3v-2.74h2.55Zm13.79.35a8.13,8.13,0,0,1-6.3-3.08v10.26h-2.55V633.77h2.55v2.74a8.15,8.15,0,0,1,6.3-3,8.71,8.71,0,0,1,8.67,8.66A8.83,8.83,0,0,1,399.44,650.91Zm11.49-120.6c4.79,0,7.6-2.85,7.6-7.63V498.36h2.78v24.32c0,6.53-3.84,10.41-10.38,10.41Zm3.3,120.18h-2.55V623.36h2.55Zm-2.08-56.92H415a5.77,5.77,0,0,0,5.85,4.49c3.3,0,5.93-1.94,5.93-5.09,0-2.51-1.64-3.88-5.93-5.21-5.06-1.56-7.79-3.46-7.79-7.56s3.11-7.26,7.79-7.26a7.34,7.34,0,0,1,7.48,6h-3a4.73,4.73,0,0,0-4.44-3.19,4.61,4.61,0,0,0-4.9,4.48c0,2.36,1.63,3.42,4.9,4.44,5.05,1.6,8.81,3.58,8.81,8.33s-3.91,7.86-8.81,7.86A8.51,8.51,0,0,1,412.15,593.57Zm10,56.92h-2.66V633.77h2.66Zm-1.37-20.1a1.79,1.79,0,1,1,0-3.57,1.79,1.79,0,1,1,0,3.57Zm21.58,20.1h-2.54V641c0-3.3-1.52-4.94-4.3-4.94-3.38-.07-5.47,1.83-5.47,5.59v8.89h-2.54V633.77h2.54v2a7.21,7.21,0,0,1,5.47-2.27c4.79,0,6.84,2.12,6.84,7.44Zm-2-58.32a8.67,8.67,0,0,1,17.33,0,8.67,8.67,0,1,1-17.33,0Zm18.42,58.32-7.45-8.59-1.63,1.6v7h-2.54V623.36h2.54v16.15h.57l6.23-6.08h3.57l-6.87,6.65,9,10.41Zm14.06-1.86-4.75,9.46h-3l4.75-9.5-7.41-14.82h3l5.89,11.82,5.93-11.82h3Zm1-131.46a8.7,8.7,0,0,1,8.66-8.66,8.16,8.16,0,0,1,6.31,3v-2.74h2.55v16.79h-2.55v-2.73a8.14,8.14,0,0,1-6.31,3.08A8.82,8.82,0,0,1,473.86,517.17Zm17.89,133.74a8.14,8.14,0,0,1-6.31-3.08v2.66h-2.55V623.36h2.55v13.15a8.16,8.16,0,0,1,6.31-3,8.7,8.7,0,0,1,8.66,8.66A8.82,8.82,0,0,1,491.75,650.91Zm6.05-50a8.14,8.14,0,0,1-6.31-3.08v2.66H489V573.36h2.54v13.15a8.16,8.16,0,0,1,6.31-3,8.7,8.7,0,0,1,8.66,8.66A8.82,8.82,0,0,1,497.8,600.91Zm9.41,49.58h-2.66V633.77h2.66Zm-1.37-20.1a1.79,1.79,0,1,1,0-3.57,1.79,1.79,0,1,1,0,3.57Zm4.08-52.7h15v2.24h-15Zm.15,15.62v-9.54h2.55v9.54c0,3.3,1.52,4.94,4.29,4.94,3.38,0,5.47-1.9,5.47-5.59v-8.89h2.55v16.72h-2.55v-2a7.21,7.21,0,0,1-5.47,2.27C512.12,600.75,510.07,598.63,510.07,593.31Zm19.64,62.35c-2.55,1.33-8.36.6-4.71-5.17h-.5v-2a7.21,7.21,0,0,1-5.47,2.27c-4.79,0-6.84-2.12-6.84-7.44v-9.54h2.55v9.54c0,3.3,1.52,4.94,4.29,4.94,3.38,0,5.47-1.9,5.47-5.59v-8.89h2.55v16.72h-.31c-2.7,4,.8,4,3,2.85Zm7.84-69.57h-3.77v14.4h-2.54v-14.4h-2.51v-2.32h2.51V577.2h2.54v6.57h3.77Zm1-2.32h3l5.89,11.82,5.92-11.82h3L549,598.63l-4.75,9.46h-3l4.75-9.5Zm30.15,66.72h-2.54V641c0-3.3-1.26-4.94-3.73-4.94-3.07,0-5,1.71-5,5.78v8.7h-2.55V641c0-3.3-1.25-4.94-3.72-4.94-3.08,0-5,1.71-5,5.78v8.7h-2.54V633.77h2.54v2a6.37,6.37,0,0,1,5-2.27c2.92,0,4.75,1,5.62,3.22a6.26,6.26,0,0,1,5.66-3.22c4.33,0,6.27,2.12,6.27,7.44Zm21.13-7.14H575.27a6.13,6.13,0,0,0,5.89,5,5.82,5.82,0,0,0,4.63-2.32H589a8.67,8.67,0,0,1-7.79,4.83,8.82,8.82,0,0,1-8.66-8.74,8.66,8.66,0,0,1,17.32,0Zm11.29-7.26h-3.76v14.4H594.8v-14.4h-2.51v-2.32h2.51V627.2h2.55v6.57h3.76ZM619,650.49h-2.54v-2a7.21,7.21,0,0,1-5.47,2.27c-4.79,0-6.84-2.12-6.84-7.44v-9.54h2.54v9.54c0,3.3,1.52,4.94,4.3,4.94,3.38,0,5.47-1.9,5.47-5.59v-8.89H619Zm3-134.58H607.43v-2.54H622Zm2.76,134.77a2.11,2.11,0,1,1,2.09-2.13A2.12,2.12,0,0,1,624.74,650.68ZM644,600.56h-2.54v-2.73a8.15,8.15,0,0,1-6.31,3.08,8.83,8.83,0,0,1-8.67-8.74,8.71,8.71,0,0,1,8.67-8.66,8.17,8.17,0,0,1,6.31,3v-2.74H644Zm12.62-14.47h-3.76v14.4h-2.55v-14.4h-2.51v-2.32h2.51V577.2h2.55v6.57h3.76Zm-1.64-53,4.75-9.5-7.4-14.82h3l5.89,11.82,5.92-11.82h3l-7.4,14.86L658,533.09ZM676.43,599c0,6.57-3.91,9.5-8.66,9.5a8.65,8.65,0,0,1-8.17-5.78h2.89a6,6,0,0,0,5.28,3.27c3.38,0,6-1.79,6-7v-1.1a8.24,8.24,0,0,1-6.23,2.88,8.7,8.7,0,0,1-8.66-8.66,8.82,8.82,0,0,1,8.66-8.74,8.16,8.16,0,0,1,6.23,3v-2.55h2.66Zm-1.1-82.37v8.89h-2.54V508.77h2.54v2a7.21,7.21,0,0,1,5.47-2.27c4.79,0,6.84,2.12,6.84,7.44v9.54H685.1V516c0-3.3-1.52-4.94-4.3-4.94C677.42,510.94,675.33,512.84,675.33,516.6Zm9.46,91.49h-3l4.75-9.5-7.41-14.82h3L688,595.59,694,583.77h3l-7.41,14.86Zm18.77-7.6c.08,4.79-2.27,7.75-6.57,7.75l0-2.51c2.59,0,4-2.24,4-5.24V583.77h2.65Zm-1.32-20.1a1.79,1.79,0,1,1,1.78-1.82A1.8,1.8,0,0,1,702.24,580.39Zm22.45,20.17h-2.54v-2.73a8.15,8.15,0,0,1-6.31,3.08,8.82,8.82,0,0,1-8.66-8.74,8.7,8.7,0,0,1,8.66-8.66,8.17,8.17,0,0,1,6.31,3v-2.74h2.54Zm.76-75.07h-2.66V508.77h2.66Zm-1.36-20.1a1.79,1.79,0,1,1,1.78-1.82A1.8,1.8,0,0,1,724.09,505.39Zm-2.82-104.48a8.82,8.82,0,0,1-8.66-8.74,8.67,8.67,0,0,1,17.33,0v1.18H715.39a6.13,6.13,0,0,0,5.88,5,5.84,5.84,0,0,0,4.64-2.32h3.15A8.65,8.65,0,0,1,721.27,400.91ZM732.9,525l-1.82,3.46h-1.22l.72-2.89a2.08,2.08,0,0,1-1.48-2,2.11,2.11,0,0,1,4.22,0A3.21,3.21,0,0,1,732.9,525Zm11.32,75.5h-2.66V583.77h2.66Zm-1.36-20.1a1.79,1.79,0,1,1,1.78-1.82A1.8,1.8,0,0,1,742.86,580.39Zm-3.65-179.64c-3.76,0-6.27-2.08-6.42-5h2.32c.22,1.4,1.93,2.62,4.1,2.62,2.47,0,4.1-1.1,4.1-2.62s-1.06-2.13-4.1-2.74c-4-.79-5.78-2.24-5.78-4.9s2-4.59,5.78-4.59c3.31,0,5.51,1.82,5.77,4.36h-2.31c-.23-1.14-1.48-2-3.46-2s-3.42,1-3.42,2.2,1.1,2,3.84,2.51c4.29.87,6,2.36,6,5.13C745.63,398.67,743.39,400.75,739.21,400.75Zm8.89-2.2a2.11,2.11,0,0,1,4.22,0,3.21,3.21,0,0,1-.42,1.44l-1.82,3.46h-1.22l.72-2.89A2.08,2.08,0,0,1,748.1,398.55ZM757.79,586c-3,0-5.66,1.83-5.66,5.25v9.23h-2.55V583.77h2.55v2.28a7.41,7.41,0,0,1,5.66-2.54Zm.91-60.1a8.15,8.15,0,0,1-6.31-3.08v2.66h-2.54V498.36h2.54v13.15a8.17,8.17,0,0,1,6.31-3,8.7,8.7,0,0,1,8.66,8.66A8.82,8.82,0,0,1,758.7,525.91Zm9.73-123.22h2.89A6,6,0,0,0,776.6,406c3.38,0,6-1.79,6-7v-1.1a8.24,8.24,0,0,1-6.23,2.88,8.7,8.7,0,0,1-8.66-8.66,8.82,8.82,0,0,1,8.66-8.74,8.16,8.16,0,0,1,6.23,3v-2.55h2.66V399c0,6.57-3.91,9.5-8.66,9.5A8.65,8.65,0,0,1,768.43,402.69Zm2.4,100h15v2.24h-15Zm.15,6.08h2.54v9.54c0,3.3,1.52,4.94,4.3,4.94,3.38,0,5.47-1.9,5.47-5.59v-8.89h2.54v16.72h-2.54v-2a7.21,7.21,0,0,1-5.47,2.27c-4.79,0-6.84-2.12-6.84-7.44Zm26.55,91.72H795V591c0-3.3-1.26-4.94-3.72-4.94-3.08,0-5,1.71-5,5.78v8.7H783.7V591c0-3.3-1.25-4.94-3.72-4.94-3.08,0-5,1.71-5,5.78v8.7h-2.55V583.77H775v2a6.33,6.33,0,0,1,5-2.27c2.93,0,4.75,1,5.62,3.22a6.27,6.27,0,0,1,5.67-3.22c4.33,0,6.26,2.12,6.26,7.44ZM799.36,511c-3,0-5.66,1.83-5.66,5.25v9.23h-2.55V508.77h2.55v2.28a7.41,7.41,0,0,1,5.66-2.54Zm19.49,89.55h-2.54v-2.73a8.14,8.14,0,0,1-6.31,3.08,8.82,8.82,0,0,1-8.66-8.74,8.7,8.7,0,0,1,8.66-8.66,8.16,8.16,0,0,1,6.31,3v-2.74h2.54Zm1.26-69.83c2.58,0,4-2.24,3.95-5.24V508.77h2.66v16.72c.08,4.79-2.28,7.75-6.57,7.75Zm11.36,55.36h-3.76v14.4h-2.55v-14.4h-2.5v-2.32h2.5V577.2h2.55v6.57h3.76Zm-1.14-68.92a8.71,8.71,0,0,1,8.66-8.66,8.16,8.16,0,0,1,6.31,3v-2.74h2.55v16.79H845.3v-2.73a8.14,8.14,0,0,1-6.31,3.08A8.83,8.83,0,0,1,830.33,517.17Zm20.56,76.18H836.33a6.14,6.14,0,0,0,5.89,5,5.84,5.84,0,0,0,4.64-2.32H850a8.65,8.65,0,0,1-7.79,4.83,8.82,8.82,0,0,1-8.66-8.74,8.67,8.67,0,0,1,17.33,0Zm-7.18-192.44a8.83,8.83,0,0,1-8.67-8.74,8.67,8.67,0,0,1,17.33,0A8.82,8.82,0,0,1,843.71,400.91Zm9.08,102.66a1.81,1.81,0,0,1,1.82-1.75,1.79,1.79,0,1,1,0,3.57A1.8,1.8,0,0,1,852.79,503.57Zm.53,5.2H856v16.72h-2.66ZM863.08,586c-3,0-5.66,1.83-5.66,5.25v9.23h-2.54V583.77h2.54v2.28a7.43,7.43,0,0,1,5.66-2.54Zm.35-61-1.82,3.46h-1.22l.72-2.89a2.08,2.08,0,0,1-1.48-2,2.11,2.11,0,0,1,4.22,0A3.21,3.21,0,0,1,863.43,525Zm5.89,75.5h-2.66V583.77h2.66ZM868,580.39a1.79,1.79,0,1,1,0-3.57,1.79,1.79,0,1,1,0,3.57Zm3.35-176.94.72-2.89a2.07,2.07,0,0,1-1.48-2,2.11,2.11,0,0,1,4.21,0,3.21,3.21,0,0,1-.41,1.44l-1.83,3.46Zm19.94,197.11H888.7v-2.73a8.15,8.15,0,0,1-6.31,3.08,8.82,8.82,0,0,1-8.66-8.74,8.7,8.7,0,0,1,8.66-8.66,8.17,8.17,0,0,1,6.31,3v-2.74h2.54Zm-3.34-74.65a8.82,8.82,0,0,1-8.66-8.74,8.7,8.7,0,0,1,8.66-8.66,8.17,8.17,0,0,1,6.31,3V498.36h2.54v27.13h-2.54v-2.66A8.15,8.15,0,0,1,887.9,525.91Zm11,74.58h-2.55V573.36h2.55Zm-5.09-202.66v2.66h-2.55V373.36h2.55v13.15a8.16,8.16,0,0,1,6.31-3,8.71,8.71,0,0,1,8.66,8.66,8.83,8.83,0,0,1-8.66,8.74A8.14,8.14,0,0,1,893.83,397.83Zm7.67,105.74a1.81,1.81,0,1,1,1.83,1.82A1.81,1.81,0,0,1,901.5,503.57Zm.54,5.2h2.66v16.72H902Zm4.82,91.72H904.2V583.77h2.66Zm-1.37-20.1a1.79,1.79,0,1,1,0-3.57,1.79,1.79,0,1,1,0,3.57Zm18.77,20.1h-12.8v-2.43l9.38-11.86h-9.38v-2.43H924v2.43l-9.39,11.86h9.61Zm1.79-82.14H911.5a6.13,6.13,0,0,0,5.89,5,5.84,5.84,0,0,0,4.63-2.32h3.16a8.67,8.67,0,0,1-7.79,4.83,8.83,8.83,0,0,1-8.67-8.74,8.67,8.67,0,0,1,17.33,0Zm1.22-117.86h-2.55v-2a7.21,7.21,0,0,1-5.47,2.27c-4.79,0-6.84-2.12-6.84-7.44v-9.54H915v9.54c0,3.3,1.52,4.94,4.29,4.94,3.38,0,5.47-1.9,5.47-5.59v-8.89h2.55Zm15.65,200h-2.54v-2a7.23,7.23,0,0,1-5.48,2.27c-4.78,0-6.83-2.12-6.83-7.44v-9.54h2.54v9.54c0,3.3,1.52,4.94,4.29,4.94,3.39,0,5.48-1.9,5.48-5.59v-8.89h2.54Zm-5.66-75h-2.77l-6.88-16.72h2.77l5.51,13.34,5.47-13.34h2.78Zm17.1-17a8.16,8.16,0,0,1,6.31,3v-2.74h2.54v16.79h-2.54v-2.73a8.14,8.14,0,0,1-6.31,3.08,8.82,8.82,0,0,1-8.66-8.74A8.7,8.7,0,0,1,954.36,508.51Zm1.22,75a8.7,8.7,0,0,1,8.66,8.66,8.67,8.67,0,1,1-17.33,0A8.71,8.71,0,0,1,955.58,583.51ZM970.71,775,962,783.75h-3.9L949.29,775V771.1l8.76-8.76H962l8.76,8.76Zm1.47-174.5c.08,4.79-2.28,7.75-6.57,7.75l0-2.51c2.58,0,4-2.24,3.95-5.24V583.77h2.66Zm-1.33-20.1a1.79,1.79,0,1,1,0-3.57,1.79,1.79,0,1,1,0,3.57ZM975,523.55a2.11,2.11,0,0,1,4.21,0,3.09,3.09,0,0,1-.42,1.44L977,528.45h-1.21l.72-2.89A2.07,2.07,0,0,1,975,523.55Zm18.31,77h-2.55v-2.73a8.13,8.13,0,0,1-6.3,3.08,8.83,8.83,0,0,1-8.67-8.74,8.71,8.71,0,0,1,8.67-8.66,8.15,8.15,0,0,1,6.3,3v-2.74h2.55Zm10.6.19c-3.76,0-6.27-2.08-6.42-5h2.32c.23,1.4,1.94,2.62,4.1,2.62,2.47,0,4.1-1.1,4.1-2.62s-1.06-2.13-4.1-2.74c-4-.79-5.77-2.24-5.77-4.9s2-4.59,5.77-4.59c3.31,0,5.51,1.82,5.78,4.36h-2.32c-.23-1.14-1.48-2-3.46-2s-3.42,1-3.42,2.2,1.1,2,3.84,2.51c4.29.87,6,2.36,6,5.13C1010.33,598.67,1008.09,600.75,1003.91,600.75Zm7.83-82.4H997.19a6.13,6.13,0,0,0,5.89,5,5.84,5.84,0,0,0,4.63-2.32h3.15a8.64,8.64,0,0,1-7.78,4.83,8.83,8.83,0,0,1-8.67-8.74,8.67,8.67,0,0,1,17.33,0Zm-3.61-117.6c-3.76,0-6.27-2.08-6.42-5H1004c.22,1.4,1.93,2.62,4.1,2.62,2.47,0,4.1-1.1,4.1-2.62s-1.06-2.13-4.1-2.74c-4-.79-5.77-2.24-5.77-4.9s2-4.59,5.77-4.59c3.31,0,5.51,1.82,5.78,4.36h-2.32c-.23-1.14-1.48-2-3.46-2s-3.42,1-3.42,2.2,1.1,2,3.84,2.51c4.29.87,6,2.36,6,5.13C1014.55,398.67,1012.31,400.75,1008.13,400.75Zm9.2,199.74h-2.66V583.77h2.66Zm-1.37-20.1a1.79,1.79,0,1,1,1.78-1.82A1.8,1.8,0,0,1,1016,580.39Zm2.12-54.9h-2.54V498.36h2.54Zm2.74-125.5-1.82,3.46h-1.22l.72-2.89a2.08,2.08,0,0,1-1.48-2,2.11,2.11,0,0,1,4.22,0A3.21,3.21,0,0,1,1020.82,400Zm.74-135.57-.6.6h-5.52l-13.5-16.08,12-12.72h5.16l.6.6v.72l-11,11.4,12.84,14.76ZM1039,605.66c-2.55,1.33-8.36.6-4.71-5.17h-.92V583.77H1036v16.72c-2.69,4,.8,4,3,2.85Zm-6.08-27.7a1.81,1.81,0,0,1,1.82-1.75,1.84,1.84,0,0,1,1.79,1.75,1.86,1.86,0,0,1-1.79,1.86A1.84,1.84,0,0,1,1032.87,578Zm6.34-59.61h-14.55a6.13,6.13,0,0,0,5.89,5,5.82,5.82,0,0,0,4.63-2.32h3.16a8.67,8.67,0,0,1-7.79,4.83,8.82,8.82,0,0,1-8.66-8.74,8.66,8.66,0,0,1,17.32,0Zm2.09-117.86h-2.54v-14.4h-2.51v-2.32h2.51V377.2h2.54v6.57h3.77v2.32h-3.77Zm22,200h-2.54v-14.4h-5.13v14.4H1053v-14.4h-2.24v-2.32H1053v-2.28c0-4.1.12-9,6.12-8.13v2.36c-3.91-.5-3.57,3.3-3.57,5.77v2.28h7.67ZM1062,580.35a1.75,1.75,0,0,1-1.74-1.78,1.73,1.73,0,0,1,1.74-1.68,1.75,1.75,0,0,1,1.71,1.68A1.77,1.77,0,0,1,1062,580.35Zm-.11-69.34c-3.08,0-5,1.71-5,5.78v8.7h-2.54V516c0-3.3-1.26-4.94-3.73-4.94-3.07,0-5,1.71-5,5.78v8.7H1043V508.77h2.55v2a6.33,6.33,0,0,1,5-2.27c2.93,0,4.75.95,5.63,3.22a6.25,6.25,0,0,1,5.66-3.22c4.33,0,6.27,2.12,6.27,7.44v9.54h-2.55V516C1065.58,512.65,1064.33,511,1061.86,511Zm18.05,89.48H1067.1v-2.43l9.39-11.86h-9.39v-2.43h12.58v2.43l-9.38,11.86h9.61Zm7,0h-2.66V583.77h2.66Zm-1.37-20.1a1.79,1.79,0,1,1,0-3.57,1.79,1.79,0,1,1,0,3.57Zm3.73-62H1074.7a6.14,6.14,0,0,0,5.89,5,5.84,5.84,0,0,0,4.64-2.32h3.15a8.66,8.66,0,0,1-7.79,4.83,8.82,8.82,0,0,1-8.66-8.74,8.67,8.67,0,0,1,17.33,0Zm1.37-126.75v8.89h-2.55V383.77h2.55v2a7.21,7.21,0,0,1,5.47-2.27c4.79,0,6.84,2.12,6.84,7.44v9.54h-2.55V391c0-3.3-1.52-4.94-4.29-4.94C1092.72,385.94,1090.63,387.84,1090.63,391.6Zm16.49,208.89h-2.55V591c0-3.3-1.52-4.94-4.29-4.94-3.38-.07-5.47,1.83-5.47,5.59v8.89h-2.55V583.77h2.55v2a7.21,7.21,0,0,1,5.47-2.27c4.78,0,6.84,2.12,6.84,7.44Zm1-75h-2.54V516c0-3.3-1.52-4.94-4.3-4.94-3.38-.07-5.47,1.83-5.47,5.59v8.89h-2.54V508.77h2.54v2a7.22,7.22,0,0,1,5.47-2.27c4.79,0,6.84,2.12,6.84,7.44Zm8.82,80.17c-2.54,1.33-8.36.6-4.71-5.17h-.91V583.77H1114v16.72c-2.7,4,.8,4,3,2.85Zm-6.08-27.7a1.81,1.81,0,0,1,3.61,0,1.81,1.81,0,1,1-3.61,0Zm9.5-66.87h-3.76v14.4H1114v-14.4h-2.5v-2.32h2.5V502.2h2.55v6.57h3.76Zm-5.13-110.18a8.82,8.82,0,0,1-8.66-8.74,8.66,8.66,0,0,1,16.79-3h-2.85a6,6,0,0,0-5.28-3.19,6.05,6.05,0,0,0-6,6.16,6.16,6.16,0,0,0,6,6.23,6,6,0,0,0,5.28-3.27h2.89A8.65,8.65,0,0,1,1115.21,400.91Zm8.17,117.4v-9.54h2.55v9.54c0,3.3,1.52,4.94,4.29,4.94,3.38,0,5.47-1.9,5.47-5.59v-8.89h2.55v16.72h-.31c-2.69,4,.8,4,3,2.85v2.32c-2.55,1.33-8.36.6-4.71-5.17h-.5v-2a7.21,7.21,0,0,1-5.47,2.27C1125.43,525.75,1123.38,523.63,1123.38,518.31Zm15,82.6a8.14,8.14,0,0,1-6.31-3.08v10.26h-2.54V583.77h2.54v2.74a8.16,8.16,0,0,1,6.31-3,8.7,8.7,0,0,1,8.66,8.66A8.82,8.82,0,0,1,1138.39,600.91Zm4.49-200a8.83,8.83,0,0,1-8.67-8.74,8.67,8.67,0,0,1,17.33,0A8.83,8.83,0,0,1,1142.88,400.91Zm24.54,199.65h-2.54v-2.73a8.15,8.15,0,0,1-6.31,3.08,8.82,8.82,0,0,1-8.66-8.74,8.7,8.7,0,0,1,8.66-8.66,8.17,8.17,0,0,1,6.31,3v-2.74h2.54Zm3.91-89.55c-3,0-5.66,1.83-5.66,5.25v9.23h-2.54V508.77h2.54v2.28a7.43,7.43,0,0,1,5.66-2.54Zm6.69,89.74c-3.76,0-6.27-2.08-6.42-5h2.32c.23,1.4,1.94,2.62,4.1,2.62,2.47,0,4.11-1.1,4.11-2.62s-1.07-2.13-4.11-2.74c-4-.79-5.77-2.24-5.77-4.9s2-4.59,5.77-4.59c3.31,0,5.51,1.82,5.78,4.36h-2.32c-.23-1.14-1.48-2-3.46-2s-3.42,1-3.42,2.2,1.11,2,3.84,2.51c4.3.87,6,2.36,6,5.13C1184.45,598.67,1182.2,600.75,1178,600.75Zm8.14-92h2.54v2.28a7.41,7.41,0,0,1,5.66-2.54V511c-3,0-5.66,1.83-5.66,5.25v9.23h-2.54Zm18.65,91.79h-2.54v-2.73a8.14,8.14,0,0,1-6.31,3.08,8.82,8.82,0,0,1-8.66-8.74,8.7,8.7,0,0,1,8.66-8.66,8.16,8.16,0,0,1,6.31,3v-2.74h2.54Zm-8.36-83.39a8.67,8.67,0,0,1,17.33,0v1.18h-14.55a6.13,6.13,0,0,0,5.89,5,5.84,5.84,0,0,0,4.63-2.32h3.16a8.67,8.67,0,0,1-7.79,4.83A8.83,8.83,0,0,1,1196.45,517.17Zm28,83.32h-2.54v-2a7.25,7.25,0,0,1-5.48,2.27c-4.78,0-6.84-2.12-6.84-7.44v-9.54h2.55v9.54c0,3.3,1.52,4.94,4.29,4.94,3.39,0,5.48-1.9,5.48-5.59v-8.89h2.54Zm7.68,0h-2.55V573.36h2.55Zm-.88-74.74c-3.76,0-6.27-2.08-6.42-5h2.32c.23,1.4,1.94,2.62,4.1,2.62,2.47,0,4.11-1.1,4.11-2.62s-1.07-2.13-4.11-2.74c-4-.79-5.77-2.24-5.77-4.9s2-4.59,5.77-4.59c3.31,0,5.51,1.82,5.78,4.36h-2.32c-.23-1.14-1.48-2-3.46-2s-3.42,1-3.42,2.2,1.1,2,3.84,2.51c4.29.87,6,2.36,6,5.13C1237.64,523.67,1235.4,525.75,1231.22,525.75Zm6.62,50.46a1.83,1.83,0,0,1,1.78,1.75,1.81,1.81,0,1,1-3.61,0A1.82,1.82,0,0,1,1237.84,576.21Zm4.25,29.45c-2.54,1.33-8.36.6-4.71-5.17h-.91V583.77h2.66v16.72c-2.7,4,.8,4,3,2.85Zm3.72-88.76-1.63,1.6v7h-2.55V498.36h2.55v16.15h.57l6.23-6.08h3.57l-6.87,6.65,9,10.41h-3.42ZM1263.29,586c-3,0-5.66,1.83-5.66,5.25v9.23h-2.54V583.77h2.54v2.28a7.43,7.43,0,0,1,5.66-2.54Zm-2.5-80.62a1.79,1.79,0,1,1,1.78-1.82A1.8,1.8,0,0,1,1260.79,505.39Zm1.36,3.38v16.72h-2.66V508.77Zm-7.1-116.6a8.7,8.7,0,0,1,8.66-8.66,8.16,8.16,0,0,1,6.31,3v-2.74h2.55v16.79H1270v-2.73a8.14,8.14,0,0,1-6.31,3.08A8.82,8.82,0,0,1,1255.05,392.17Zm27.66,201.18h-14.55a6.13,6.13,0,0,0,5.89,5,5.82,5.82,0,0,0,4.63-2.32h3.16a8.67,8.67,0,0,1-7.79,4.83,8.82,8.82,0,0,1-8.66-8.74,8.66,8.66,0,0,1,17.32,0Zm11.29-7.26h-3.76v14.4h-2.55v-14.4h-2.51v-2.32h2.51V577.2h2.55v6.57H1294Zm1.1-77.32h2.55v9.54c0,3.3,1.52,4.94,4.29,4.94,3.38,0,5.47-1.9,5.47-5.59v-8.89H1310v16.72h-.31c-2.7,4,.8,4,3,2.85v2.32c-2.55,1.33-8.36.6-4.72-5.17h-.49v-2a7.21,7.21,0,0,1-5.47,2.27c-4.79,0-6.84-2.12-6.84-7.44Zm18.5,91.79h-2.54v-2.73a8.14,8.14,0,0,1-6.31,3.08,8.82,8.82,0,0,1-8.66-8.74,8.7,8.7,0,0,1,8.66-8.66,8.16,8.16,0,0,1,6.31,3v-2.74h2.54Zm1.64-214.47h-3.76v14.4h-2.55v-14.4h-2.5v-2.32h2.5V377.2h2.55v6.57h3.76Zm4.87-9.27a1.79,1.79,0,1,1-1.83,1.75A1.82,1.82,0,0,1,1320.11,376.82Zm1.36,6.95v16.72h-2.66V383.77Zm.27,216.72h-2.66V583.77h2.66Zm-1.37-20.1a1.79,1.79,0,1,1,0-3.57,1.79,1.79,0,1,1,0,3.57Zm8.82,19.6-1.83,3.46h-1.21l.72-2.89a2.07,2.07,0,0,1-1.48-2,2.11,2.11,0,0,1,4.21,0A3.21,3.21,0,0,1,1329.19,600Zm2.35-69.33c-2.54,1.33-8.36.6-4.71-5.17h-.91V508.77h2.66v16.72c-2.7,4,.8,4,3,2.85Zm6.88-4.91c-3.76,0-6.27-2.08-6.42-5h2.32c.22,1.4,1.93,2.62,4.1,2.62,2.47,0,4.1-1.1,4.1-2.62s-1.06-2.13-4.1-2.74c-4-.79-5.78-2.24-5.78-4.9s2-4.59,5.78-4.59c3.3,0,5.51,1.82,5.77,4.36h-2.31c-.23-1.14-1.49-2-3.46-2s-3.42,1-3.42,2.2,1.1,2,3.84,2.51c4.29.87,6,2.36,6,5.13C1344.84,523.67,1342.6,525.75,1338.42,525.75Zm15,60.34h-3.76v14.4h-2.55v-14.4h-2.51v-2.32h2.51V577.2h2.55v6.57h3.76Zm-3-80.7a1.79,1.79,0,1,1,0-3.57,1.79,1.79,0,1,1,0,3.57Zm1.37,3.38v16.72h-2.66V508.77Zm-5.12-116.87-1.64,1.6v7h-2.54V373.36h2.54v16.15h.57l6.23-6.08h3.57l-6.87,6.65,9,10.41h-3.42Zm13,208.59H1357V583.77h2.66Zm-1.37-20.1a1.79,1.79,0,1,1,0-3.57,1.79,1.79,0,1,1,0,3.57Zm1.26-61.89v7H1357V498.36h2.55v16.15h.57l6.23-6.08h3.57l-6.88,6.65,9,10.41h-3.42l-7.45-8.59Zm16.91,82L1369,591.9l-1.63,1.6v7h-2.55V573.36h2.55v16.15h.56l6.24-6.08h3.57l-6.88,6.65,9,10.41Zm12.72-75h-2.54v-2a7.21,7.21,0,0,1-5.47,2.27c-4.79,0-6.84-2.12-6.84-7.44v-9.54h2.54v9.54c0,3.3,1.52,4.94,4.3,4.94,3.38,0,5.47-1.9,5.47-5.59v-8.89h2.54Zm12,60.6h-3.76v14.4h-2.55v-14.4h-2.5v-2.32h2.5V577.2h2.55v6.57h3.76Zm-4.18-69.49v8.89h-2.54V508.77h2.54v2a7.21,7.21,0,0,1,5.47-2.27c4.79,0,6.84,2.12,6.84,7.44v9.54h-2.54V516c0-3.3-1.52-4.94-4.3-4.94C1399.14,510.94,1397.05,512.84,1397.05,516.6Zm23.79,84h-2.55v-2.73a8.14,8.14,0,0,1-6.31,3.08,8.83,8.83,0,0,1-8.66-8.74,8.71,8.71,0,0,1,8.66-8.66,8.16,8.16,0,0,1,6.31,3v-2.74h2.55Zm-1-67.32,0-2.51c2.59,0,4-2.24,4-5.24V508.77h2.66v16.72C1426.5,530.28,1424.15,533.24,1419.85,533.24Zm31.23,67.25h-2.54V591c0-3.3-1.26-4.94-3.73-4.94-3.07,0-5,1.71-5,5.78v8.7h-2.55V591c0-3.3-1.25-4.94-3.72-4.94-3.08,0-5,1.71-5,5.78v8.7H1426V583.77h2.55v2a6.33,6.33,0,0,1,5-2.27c2.93,0,4.75,1,5.62,3.22a6.26,6.26,0,0,1,5.66-3.22c4.34,0,6.27,2.12,6.27,7.44Zm13-75h-2.55V516c0-3.3-1.25-4.94-3.72-4.94-3.08,0-5,1.71-5,5.78v8.7h-2.55V516c0-3.3-1.25-4.94-3.72-4.94-3.08,0-5,1.71-5,5.78v8.7H1439V508.77h2.54v2a6.37,6.37,0,0,1,5-2.27c2.92,0,4.75.95,5.62,3.22a6.25,6.25,0,0,1,5.66-3.22c4.33,0,6.27,2.12,6.27,7.44Zm10.83,60.6h-3.76v14.4h-2.55v-14.4h-2.5v-2.32h2.5V577.2h2.55v6.57h3.76Zm6.23,14.4h-2.66V583.77h2.66Zm-1.36-20.1a1.79,1.79,0,1,1,1.78-1.82A1.8,1.8,0,0,1,1479.78,580.39Zm5.62-54.83h-2.55v-2.73a8.13,8.13,0,0,1-6.3,3.08,8.83,8.83,0,0,1-8.67-8.74,8.71,8.71,0,0,1,8.67-8.66,8.15,8.15,0,0,1,6.3,3v-2.74h2.55Zm12.54,74.93-7.45-8.59-1.63,1.6v7h-2.55V573.36h2.55v16.15h.57l6.23-6.08h3.57l-6.88,6.65,9,10.41Zm1.37-74.81a2.11,2.11,0,1,1,2.09-2.13A2.13,2.13,0,0,1,1499.31,525.68ZM1512.23,586c-3,0-5.66,1.83-5.66,5.25v9.23H1504V583.77h2.55v2.28a7.4,7.4,0,0,1,5.66-2.54Zm15.84,14.48h-.49v-2a7.21,7.21,0,0,1-5.47,2.27c-4.79,0-6.84-2.12-6.84-7.44v-9.54h2.54v9.54c0,3.3,1.52,4.94,4.3,4.94,3.38,0,5.47-1.9,5.47-5.59v-8.89h2.54v16.72h-.3c-2.7,4,.8,4,3,2.85v2.32C1530.24,607,1524.42,606.26,1528.07,600.49Zm96.65,174.27-7.71,7.71h-3.43l-7.71-7.71v-3.43l7.71-7.71H1617l7.71,7.71Zm0-530.07-7.71,7.72h-3.43l-7.71-7.72v-3.42l7.71-7.72H1617l7.71,7.72Z"/><path d="M1274.05,586a6,6,0,0,0-5.89,4.9h11.78A6.07,6.07,0,0,0,1274.05,586Z"/><path d="M990.61,592.16a6.29,6.29,0,0,0-6.23-6.15,6,6,0,0,0-5.93,6.15,6.1,6.1,0,0,0,5.93,6.23A6.41,6.41,0,0,0,990.61,592.16Z"/><path d="M1411.91,586a6,6,0,0,0-5.93,6.15,6.1,6.1,0,0,0,5.93,6.23,6.41,6.41,0,0,0,6.23-6.23A6.29,6.29,0,0,0,1411.91,586Z"/><path d="M1263.64,398.39a6.41,6.41,0,0,0,6.23-6.23,6.29,6.29,0,0,0-6.23-6.15,6,6,0,0,0-5.93,6.15A6.1,6.1,0,0,0,1263.64,398.39Z"/></g><g id="e483915b-2f13-4f32-baf0-ad27b00c4c34" data-name="white lines"><rect x="958.75" y="794.9" width="2.5" height="32.83" style="fill:#fff"/><rect x="958.75" y="827.73" width="2.5" height="32.83" style="fill:#fff"/><rect x="958.75" y="860.57" width="2.5" height="32.83" style="fill:#fff"/><rect x="958.75" y="893.4" width="2.5" height="32.83" style="fill:#fff"/><rect x="958.75" y="926.23" width="2.5" height="32.83" style="fill:#fff"/><rect x="958.75" y="959.07" width="2.5" height="32.83" style="fill:#fff"/><rect x="958.75" y="991.9" width="2.5" height="32.83" style="fill:#fff"/><rect x="958.75" y="1024.73" width="2.5" height="32.83" style="fill:#fff"/><rect x="958.75" y="1057.56" width="2.5" height="32.83" style="fill:#fff"/><rect x="903.32" y="771.79" width="34.21" height="2.5" style="fill:#fff"/><rect x="869.11" y="771.79" width="34.21" height="2.5" style="fill:#fff"/><rect x="834.9" y="771.79" width="34.21" height="2.5" style="fill:#fff"/><rect x="800.69" y="771.79" width="34.21" height="2.5" style="fill:#fff"/><rect x="766.48" y="771.79" width="34.21" height="2.5" style="fill:#fff"/><rect x="732.27" y="771.79" width="34.21" height="2.5" style="fill:#fff"/><rect x="698.06" y="771.79" width="34.21" height="2.5" style="fill:#fff"/><rect x="663.85" y="771.79" width="34.21" height="2.5" style="fill:#fff"/><rect x="629.64" y="771.79" width="34.21" height="2.5" style="fill:#fff"/><rect x="595.43" y="771.79" width="34.21" height="2.5" style="fill:#fff"/><rect x="561.22" y="771.79" width="34.21" height="2.5" style="fill:#fff"/><rect x="527.01" y="771.79" width="34.21" height="2.5" style="fill:#fff"/><rect x="492.8" y="771.79" width="34.21" height="2.5" style="fill:#fff"/><rect x="458.59" y="771.79" width="34.21" height="2.5" style="fill:#fff"/><rect x="424.38" y="771.79" width="34.21" height="2.5" style="fill:#fff"/><rect x="390.17" y="771.79" width="34.21" height="2.5" style="fill:#fff"/><rect x="355.96" y="771.79" width="34.21" height="2.5" style="fill:#fff"/><rect x="321.75" y="771.79" width="34.21" height="2.5" style="fill:#fff"/><rect x="303.46" y="722.94" width="2.5" height="33.07" style="fill:#fff"/><rect x="303.46" y="689.87" width="2.5" height="33.07" style="fill:#fff"/><rect x="303.46" y="656.8" width="2.5" height="33.07" style="fill:#fff"/><rect x="303.46" y="623.74" width="2.5" height="33.07" style="fill:#fff"/><rect x="303.46" y="590.67" width="2.5" height="33.07" style="fill:#fff"/><rect x="303.46" y="557.61" width="2.5" height="33.07" style="fill:#fff"/><rect x="303.46" y="524.54" width="2.5" height="33.07" style="fill:#fff"/><rect x="303.46" y="491.48" width="2.5" height="33.07" style="fill:#fff"/><rect x="303.46" y="458.41" width="2.5" height="33.07" style="fill:#fff"/><rect x="303.46" y="425.35" width="2.5" height="33.07" style="fill:#fff"/><rect x="303.46" y="392.28" width="2.5" height="33.07" style="fill:#fff"/><rect x="303.46" y="359.21" width="2.5" height="33.07" style="fill:#fff"/><rect x="303.46" y="326.15" width="2.5" height="33.07" style="fill:#fff"/><rect x="303.46" y="293.08" width="2.5" height="33.07" style="fill:#fff"/><rect x="303.46" y="260.02" width="2.5" height="33.07" style="fill:#fff"/><rect x="321.75" y="241.73" width="32.35" height="2.5" style="fill:#fff"/><rect x="354.1" y="241.73" width="32.35" height="2.5" style="fill:#fff"/><rect x="386.45" y="241.73" width="32.35" height="2.5" style="fill:#fff"/><rect x="418.8" y="241.73" width="32.35" height="2.5" style="fill:#fff"/><rect x="451.16" y="241.73" width="32.35" height="2.5" style="fill:#fff"/><rect x="483.51" y="241.73" width="32.35" height="2.5" style="fill:#fff"/><rect x="515.86" y="241.73" width="32.35" height="2.5" style="fill:#fff"/><rect x="548.21" y="241.73" width="32.35" height="2.5" style="fill:#fff"/><rect x="580.56" y="241.73" width="32.35" height="2.5" style="fill:#fff"/><rect x="1320.17" y="241.73" width="34.76" height="2.5" style="fill:#fff"/><rect x="1354.93" y="241.73" width="34.76" height="2.5" style="fill:#fff"/><rect x="1389.69" y="241.73" width="34.76" height="2.5" style="fill:#fff"/><rect x="1424.45" y="241.73" width="34.76" height="2.5" style="fill:#fff"/><rect x="1459.21" y="241.73" width="34.76" height="2.5" style="fill:#fff"/><rect x="1493.97" y="241.73" width="34.76" height="2.5" style="fill:#fff"/><rect x="1528.73" y="241.73" width="34.76" height="2.5" style="fill:#fff"/><rect x="1563.49" y="241.73" width="34.76" height="2.5" style="fill:#fff"/><rect x="1614.04" y="260.02" width="2.5" height="33.07" style="fill:#fff"/><rect x="1614.04" y="293.08" width="2.5" height="33.07" style="fill:#fff"/><rect x="1614.04" y="326.15" width="2.5" height="33.07" style="fill:#fff"/><rect x="1614.04" y="359.21" width="2.5" height="33.07" style="fill:#fff"/><rect x="1614.04" y="392.28" width="2.5" height="33.07" style="fill:#fff"/><rect x="1614.04" y="425.35" width="2.5" height="33.07" style="fill:#fff"/><rect x="1614.04" y="458.41" width="2.5" height="33.07" style="fill:#fff"/><rect x="1614.04" y="491.48" width="2.5" height="33.07" style="fill:#fff"/><rect x="1614.04" y="524.54" width="2.5" height="33.07" style="fill:#fff"/><rect x="1614.04" y="557.61" width="2.5" height="33.07" style="fill:#fff"/><rect x="1614.04" y="590.67" width="2.5" height="33.07" style="fill:#fff"/><rect x="1614.04" y="623.74" width="2.5" height="33.07" style="fill:#fff"/><rect x="1614.04" y="656.8" width="2.5" height="33.07" style="fill:#fff"/><rect x="1614.04" y="689.87" width="2.5" height="33.07" style="fill:#fff"/><rect x="1614.04" y="722.94" width="2.5" height="33.07" style="fill:#fff"/><rect x="1564.01" y="771.79" width="34.24" height="2.5" style="fill:#fff"/><rect x="1529.78" y="771.79" width="34.24" height="2.5" style="fill:#fff"/><rect x="1495.54" y="771.79" width="34.24" height="2.5" style="fill:#fff"/><rect x="1461.3" y="771.79" width="34.24" height="2.5" style="fill:#fff"/><rect x="1427.06" y="771.79" width="34.24" height="2.5" style="fill:#fff"/><rect x="1392.82" y="771.79" width="34.24" height="2.5" style="fill:#fff"/><rect x="1358.58" y="771.79" width="34.24" height="2.5" style="fill:#fff"/><rect x="1324.34" y="771.79" width="34.24" height="2.5" style="fill:#fff"/><rect x="1290.1" y="771.79" width="34.24" height="2.5" style="fill:#fff"/><rect x="1255.87" y="771.79" width="34.24" height="2.5" style="fill:#fff"/><rect x="1221.63" y="771.79" width="34.24" height="2.5" style="fill:#fff"/><rect x="1187.39" y="771.79" width="34.24" height="2.5" style="fill:#fff"/><rect x="1153.15" y="771.79" width="34.24" height="2.5" style="fill:#fff"/><rect x="1118.91" y="771.79" width="34.24" height="2.5" style="fill:#fff"/><rect x="1084.67" y="771.79" width="34.24" height="2.5" style="fill:#fff"/><rect x="1050.43" y="771.79" width="34.24" height="2.5" style="fill:#fff"/><rect x="1016.2" y="771.79" width="34.24" height="2.5" style="fill:#fff"/><rect x="981.96" y="771.79" width="34.24" height="2.5" style="fill:#fff"/></g></svg>