<svg xmlns="http://www.w3.org/2000/svg" width="1920" height="250" viewBox="0 0 1920 250"><title>slide 8</title><g id="bf1decd3-1e04-46c7-8928-80d3203f07e1" data-name="cutout"><path d="M789.94,114.87A6,6,0,0,0,784,121a6.11,6.11,0,0,0,5.93,6.23,6.42,6.42,0,0,0,6.23-6.23A6.3,6.3,0,0,0,789.94,114.87Z"/><path d="M824.74,114.87a6.3,6.3,0,0,0-6.23,6.16,6.42,6.42,0,0,0,6.23,6.23,6.1,6.1,0,0,0,5.93-6.23A6,6,0,0,0,824.74,114.87Z"/><path d="M1116.69,114.87a6,6,0,0,0-5.89,4.9h11.78A6.06,6.06,0,0,0,1116.69,114.87Z"/><path d="M1179.28,114.87a6.06,6.06,0,0,0-6,6.16,6,6,0,1,0,12,0A6.05,6.05,0,0,0,1179.28,114.87Z"/><path d="M768.62,114.87a6,6,0,0,0-5.93,6.16,6.11,6.11,0,0,0,5.93,6.23,6.42,6.42,0,0,0,6.23-6.23A6.3,6.3,0,0,0,768.62,114.87Z"/><path d="M971.76,114.87a6,6,0,0,0-5.92,6.16,6.1,6.1,0,0,0,5.92,6.23A6.41,6.41,0,0,0,978,121,6.3,6.3,0,0,0,971.76,114.87Z"/><path d="M1020.67,114.72a6.11,6.11,0,0,0-5.93,6.23,6,6,0,0,0,5.93,6.16,6.3,6.3,0,0,0,6.23-6.16A6.42,6.42,0,0,0,1020.67,114.72Z"/><path d="M1211,114.72a6.1,6.1,0,0,0-5.93,6.23,6,6,0,0,0,5.93,6.16,6.3,6.3,0,0,0,6.23-6.16A6.42,6.42,0,0,0,1211,114.72Z"/><path d="M844.66,114.87a6.06,6.06,0,0,0-6,6.16,6,6,0,1,0,12,0A6.05,6.05,0,0,0,844.66,114.87Z"/><path d="M906.1,114.87a6.05,6.05,0,0,0-6,6.16,6,6,0,1,0,12,0A6.05,6.05,0,0,0,906.1,114.87Z"/><path d="M1096.78,114.87a6.3,6.3,0,0,0-6.23,6.16,6.42,6.42,0,0,0,6.23,6.23,6.11,6.11,0,0,0,5.93-6.23A6,6,0,0,0,1096.78,114.87Z"/><path d="M1298.6,114.87a6,6,0,0,0-5.93,6.16,6.1,6.1,0,0,0,5.93,6.23,6.42,6.42,0,0,0,6.23-6.23A6.3,6.3,0,0,0,1298.6,114.87Z"/><path d="M678.41,114.87a6,6,0,0,0-5.93,6.16,6.11,6.11,0,0,0,5.93,6.23,6.42,6.42,0,0,0,6.23-6.23A6.3,6.3,0,0,0,678.41,114.87Z"/><path d="M663.17,110.65a5.45,5.45,0,0,0-5.78-5.77h-6.11v11.55h6.11A5.47,5.47,0,0,0,663.17,110.65Z"/><path d="M1232.36,114.87a6,6,0,0,0-5.93,6.16,6.11,6.11,0,0,0,5.93,6.23,6.41,6.41,0,0,0,6.23-6.23A6.3,6.3,0,0,0,1232.36,114.87Z"/><path d="M0,0V250H1920V0ZM1116.92,105.64a1.84,1.84,0,0,1,1.79,1.75,1.86,1.86,0,0,1-1.79,1.86,1.84,1.84,0,0,1-1.82-1.86A1.81,1.81,0,0,1,1116.92,105.64ZM618.5,125.82l-9.74-9.74,9.74-9.81,9.82,9.81Zm45.92,3.53-8.09-10.26h-5.05v10.26H648.5V102.22h8.89c5.17,0,8.67,3.38,8.67,8.43a7.91,7.91,0,0,1-6.23,8.17l8.28,10.53Zm22.92.07h-2.55v-2.73a8.14,8.14,0,0,1-6.31,3.08,8.82,8.82,0,0,1-8.66-8.74,8.71,8.71,0,0,1,8.66-8.67,8.17,8.17,0,0,1,6.31,3v-2.74h2.55Zm20.17-.07H705v-9.54c0-3.3-1.52-4.94-4.29-4.94-3.39-.07-5.48,1.83-5.48,5.59v8.89h-2.54V112.63h2.54v2a7.24,7.24,0,0,1,5.48-2.28c4.78,0,6.83,2.13,6.83,7.45Zm16.38,0-7.44-8.59-1.64,1.6v7h-2.54V102.22h2.54v16.15h.57l6.23-6.08h3.57l-6.87,6.65,9,10.41Zm23.22,5.17c-2.55,1.32-8.36.6-4.71-5.17h-.5v-2a7.16,7.16,0,0,1-5.47,2.28c-4.78,0-6.84-2.12-6.84-7.44v-9.54h2.55v9.54c0,3.3,1.52,4.94,4.29,4.94,3.38,0,5.47-1.9,5.47-5.59v-8.89h2.55v16.72h-.3c-2.7,4,.79,4,3,2.85Zm30.44-5.17H775v-2.66a8.14,8.14,0,0,1-6.31,3.08A8.83,8.83,0,0,1,760,121a8.72,8.72,0,0,1,8.66-8.67,8.17,8.17,0,0,1,6.31,3V102.22h2.55Zm21.32.07h-2.55v-2.73a8.14,8.14,0,0,1-6.31,3.08,8.82,8.82,0,0,1-8.66-8.74,8.71,8.71,0,0,1,8.66-8.67,8.17,8.17,0,0,1,6.31,3v-2.74h2.55Zm13.52-14.55c-3,0-5.66,1.83-5.66,5.24v9.24h-2.54V112.63h2.54v2.28a7.44,7.44,0,0,1,5.66-2.55Zm12.28,14.9a8.14,8.14,0,0,1-6.31-3.08v2.66h-2.54V102.22h2.54v13.15a8.17,8.17,0,0,1,6.31-3,8.71,8.71,0,0,1,8.66,8.67A8.82,8.82,0,0,1,824.67,129.77Zm20,0A8.83,8.83,0,0,1,836,121a8.67,8.67,0,1,1,17.33,0A8.82,8.82,0,0,1,844.66,129.77Zm49-.42h-2.54v-9.54c0-3.3-1.26-4.94-3.72-4.94-3.08,0-5,1.71-5,5.78v8.7H879.8v-9.54c0-3.3-1.25-4.94-3.72-4.94-3.08,0-5,1.71-5,5.78v8.7h-2.55V112.63h2.55v2a6.34,6.34,0,0,1,5-2.28c2.93,0,4.75,1,5.62,3.23a6.27,6.27,0,0,1,5.67-3.23c4.33,0,6.26,2.13,6.26,7.45Zm12.47.42a8.82,8.82,0,0,1-8.66-8.74,8.66,8.66,0,1,1,17.32,0A8.82,8.82,0,0,1,906.1,129.77ZM926.05,115h-3.76v14.4h-2.55V115h-2.51v-2.32h2.51v-6.57h2.55v6.57h3.76Zm11.4,12.54L932.7,137h-3l4.75-9.5L927,112.63h3l5.89,11.82,5.93-11.82h3Zm17.29,1.86H952l-6.88-16.72h2.77L953.37,126l5.47-13.34h2.78Zm26,.07h-2.54v-2.73a8.15,8.15,0,0,1-6.31,3.08,8.82,8.82,0,0,1-8.66-8.74,8.71,8.71,0,0,1,8.66-8.67,8.18,8.18,0,0,1,6.31,3v-2.74h2.54Zm8.14-.07h-2.66V112.63h2.66Zm-1.37-20.1a1.79,1.79,0,1,1,1.78-1.82A1.8,1.8,0,0,1,987.46,109.25Zm8.81,19.6-1.82,3.46h-1.22l.73-2.89a2.08,2.08,0,0,1-1.49-2,2.11,2.11,0,0,1,4.22,0A3.21,3.21,0,0,1,996.27,128.85Zm33.36-1c0,6.57-3.91,9.5-8.66,9.5a8.65,8.65,0,0,1-8.17-5.78h2.89a6,6,0,0,0,5.28,3.27c3.38,0,6-1.79,6-7v-1.1a8.26,8.26,0,0,1-6.24,2.88,8.71,8.71,0,0,1-8.66-8.66,8.83,8.83,0,0,1,8.66-8.74,8.18,8.18,0,0,1,6.24,3v-2.55h2.65Zm13.12-.34L1038,137h-3l4.74-9.5-7.41-14.82h3l5.89,11.82,5.92-11.82h3Zm17.29,1.86h-2.78l-6.88-16.72h2.78l5.51,13.34,5.47-13.34h2.77Zm17.74-1.86L1073,137h-3l4.75-9.5-7.41-14.82h3l5.89,11.82,5.93-11.82h3Zm18.93,2.28a8.14,8.14,0,0,1-6.31-3.08v2.66h-2.55V102.22h2.55v13.15a8.17,8.17,0,0,1,6.31-3,8.72,8.72,0,0,1,8.66,8.67A8.83,8.83,0,0,1,1096.71,129.77Zm28.65-7.57H1110.8a6.14,6.14,0,0,0,5.89,5.06,5.86,5.86,0,0,0,4.64-2.32h3.15a8.66,8.66,0,0,1-7.79,4.83A8.82,8.82,0,0,1,1108,121a8.67,8.67,0,1,1,17.33,0Zm18.2,7.15h-2.66V112.63h2.66Zm-1.37-20.1a1.79,1.79,0,1,1,0-3.57,1.79,1.79,0,1,1,0,3.57Zm14.93,5.62c-3,0-5.66,1.83-5.66,5.24v9.24h-2.54V112.63h2.54v2.28a7.44,7.44,0,0,1,5.66-2.55Zm22.16,14.9a8.83,8.83,0,0,1-8.67-8.74,8.67,8.67,0,1,1,17.33,0A8.82,8.82,0,0,1,1179.28,129.77Zm20.86-14.9c-3,0-5.66,1.83-5.66,5.24v9.24h-2.55V112.63h2.55v2.28a7.41,7.41,0,0,1,5.66-2.55Zm19.83,13c0,6.57-3.91,9.5-8.66,9.5a8.65,8.65,0,0,1-8.17-5.78H1206a6,6,0,0,0,5.28,3.27c3.38,0,6-1.79,6-7v-1.1a8.24,8.24,0,0,1-6.23,2.88,8.7,8.7,0,0,1-8.66-8.66,8.82,8.82,0,0,1,8.66-8.74,8.16,8.16,0,0,1,6.23,3v-2.55H1220Zm21.32,1.59h-2.54v-2.73a8.15,8.15,0,0,1-6.31,3.08,8.82,8.82,0,0,1-8.66-8.74,8.71,8.71,0,0,1,8.66-8.67,8.18,8.18,0,0,1,6.31,3v-2.74h2.54Zm20.18-.07h-2.55v-9.54c0-3.3-1.52-4.94-4.29-4.94-3.38-.07-5.47,1.83-5.47,5.59v8.89h-2.55V112.63h2.55v2a7.22,7.22,0,0,1,5.47-2.28c4.79,0,6.84,2.13,6.84,7.45Zm7.75,0h-2.66V112.63h2.66Zm-1.37-20.1a1.79,1.79,0,1,1,0-3.57,1.79,1.79,0,1,1,0,3.57Zm18.17,20.1-7.45-8.59-1.63,1.6v7h-2.55V102.22h2.55v16.15h.57l6.23-6.08h3.57l-6.88,6.65,9,10.41Zm21.5.07H1305v-2.73a8.14,8.14,0,0,1-6.31,3.08A8.82,8.82,0,0,1,1290,121a8.71,8.71,0,0,1,8.66-8.67,8.17,8.17,0,0,1,6.31,3v-2.74h2.54Zm5.74.12a2.11,2.11,0,1,1,2.09-2.13A2.12,2.12,0,0,1,1313.26,129.54Z"/></g></svg>