<svg xmlns="http://www.w3.org/2000/svg" width="1920" height="200" viewBox="0 0 1920 200"><title>website</title><g id="ef8c2de3-9f40-409b-92af-6145d22051ff" data-name="back"><rect width="1920" height="200"/></g><g id="e6ec10f4-2d1f-4aab-81f0-d61f2a390e64" data-name="content"><path d="M848.41,115.33l-.4.4h-3.2l-.4-.4L825.77,90.09l1.84,4.16v21.08l-.4.4H824l-.4-.4V86.13l.4-.4h3.2l.4.4,18.64,25.24-1.84-4.16V86.13l.4-.4H848l.4.4Z" style="fill:#fff"/><path d="M870.53,115.33l-.4.4h-3l-.4-.4,2.08-4a10.55,10.55,0,0,1-8.6,4.8c-5.16,0-6.6-2.64-6.6-7.6V96.93l.4-.4h3l.4.4v11.6c0,2.64.56,4,3.2,4,3,0,4.68-1.52,6.12-3.2V96.93l.4-.4h3l.4.4Z" style="fill:#fff"/><path d="M894.93,106.13a10,10,0,1,1-10-10A9.71,9.71,0,0,1,894.93,106.13Zm-4,0a6,6,0,1,0-6,6.4A6.19,6.19,0,0,0,890.93,106.13Z" style="fill:#fff"/><path d="M901.05,101.33c2-2.84,5.36-5.2,9-5.2l-.6,3.8-.4.4a7.34,7.34,0,0,0-5.92,3v12l-.4.4h-3l-.4-.4V96.93l.4-.4h3l.4.4Z" style="fill:#fff"/><path d="M931.85,106.13a10,10,0,1,1-10-10A9.71,9.71,0,0,1,931.85,106.13Zm-4,0a6,6,0,1,0-6,6.4A6.19,6.19,0,0,0,927.85,106.13Z" style="fill:#fff"/><path d="M954.57,115.33l-.4.4h-3l-.4-.4v-1a9,9,0,0,1-5.52,1.84c-5.76,0-9.8-4.24-9.8-10s4-10,9.8-10a9.16,9.16,0,0,1,7.6,4l-2.08-4V84.33l3.8-.6Zm-3.8-5.2v-8a6.9,6.9,0,0,0-5.52-2.4c-3.44,0-5.8,3-5.8,6.4s2.36,6.4,5.8,6.4A6.9,6.9,0,0,0,950.77,110.13Z" style="fill:#fff"/><path d="M973.49,110.93a3.88,3.88,0,0,0,2.08,2.2l-.8,3a6.82,6.82,0,0,1-4.36-2.6,7.25,7.25,0,0,1-5.56,2.6c-2.16,0-5.48-1-5.48-5s4.28-5.72,10.32-6.32v-4.52a7.61,7.61,0,0,0-3.6-.72,11.92,11.92,0,0,0-6.08,1.6l-.4-.4.8-3.44a19,19,0,0,1,6.48-1.16c5,0,6.6,2.16,6.6,4.92Zm-3.8-.44v-3.12c-3.56.6-6.52,1.24-6.52,3.52a2,2,0,0,0,2.28,2.24A5.15,5.15,0,0,0,969.69,110.49Z" style="fill:#fff"/><path d="M992.57,96.93v18.4l-.4.4h-1.28c-2.6,1.16-3.12,2.44-3.12,3.24,0,1.92,1.24,2.36,3,2.36l.4.4v2.4l-.4.4c-3.76,0-6.32-1.08-6.32-4,0-1.8,1.16-3.56,4.32-5.16v-15.2H987l-.4-.4v-2.8l.4-.4h5.2Zm.68-8-2.52,2.52h-.64l-2.52-2.52v-.64l2.52-2.52h.64l2.52,2.52Z" style="fill:#fff"/><path d="M1019.17,110.29c0,4-3.64,5.84-7.24,5.84a14.11,14.11,0,0,1-5.64-1.16l.4-3.56.4-.4a7.32,7.32,0,0,0,5,1.92c1.8,0,3.32-.56,3.32-2.28,0-3.32-9.08-2.52-9.08-9,0-3.92,3.92-5.52,6.64-5.52a12.3,12.3,0,0,1,5.24,1.16v3.76l-.4.4a6.63,6.63,0,0,0-4.72-2.12c-1.48,0-3,.6-3,2.16C1010.09,105,1019.17,104.17,1019.17,110.29Z" style="fill:#fff"/><path d="M1041.57,97.33l-7.68,18.4H1030l-7.64-18.4v-.4l.4-.4h3.56l6.68,17-.6-4,5.16-13h3.6l.4.4Z" style="fill:#fff"/><path d="M1061.37,104.21a13.13,13.13,0,0,1-.16,2.08l-.44.4h-12.68a6,6,0,0,0,5.88,5.84,10.25,10.25,0,0,0,5.64-1.6l.4.4V115a15.75,15.75,0,0,1-6,1.16c-5.76,0-9.8-4.24-9.8-10s3.84-10,9.2-10C1057,96.13,1061.37,97.93,1061.37,104.21Zm-13.12-.16,9.08-.4a3.72,3.72,0,0,0-4-4.12C1050.45,99.53,1048.81,101.41,1048.25,104.05Z" style="fill:#fff"/><path d="M1076.45,99.73l-.4.4h-4.48v8.4c0,3.44.56,4,2.2,4a4.26,4.26,0,0,0,1.88-.36l.4.4v3.16a6.61,6.61,0,0,1-2.68.4c-5.08,0-5.6-3.64-5.6-7.2v-8.8h-3.2l7-8v4.4h4.48l.4.4Z" style="fill:#fff"/><path d="M1094.37,110.93a3.88,3.88,0,0,0,2.08,2.2l-.8,3a6.82,6.82,0,0,1-4.36-2.6,7.25,7.25,0,0,1-5.56,2.6c-2.16,0-5.48-1-5.48-5s4.28-5.72,10.32-6.32v-4.52a7.61,7.61,0,0,0-3.6-.72,11.92,11.92,0,0,0-6.08,1.6l-.4-.4.8-3.44a19,19,0,0,1,6.48-1.16c5,0,6.6,2.16,6.6,4.92Zm-3.8-.44v-3.12c-3.56.6-6.52,1.24-6.52,3.52a2,2,0,0,0,2.28,2.24A5.15,5.15,0,0,0,1090.57,110.49Z" style="fill:#fff"/><path d="M1105.85,96.93v18.4l-.4.4h-3l-.4-.4v-15.2h-1.8l-.4-.4v-2.8l.4-.4h5.2Zm.72-8-2.52,2.52h-.64l-2.52-2.52v-.64l2.52-2.52h.64l2.52,2.52Z" style="fill:#fff"/><path d="M1129.48,103.73v11.6l-.4.4h-3l-.4-.4v-11.6c0-2.64-.56-4-3.2-4a8.39,8.39,0,0,0-6.52,3.2v12.4l-.4.4h-3l-.4-.4V96.93l.4-.4h3l.4.4-2.08,4a11.32,11.32,0,0,1,9-4.8C1128,96.13,1129.48,98.77,1129.48,103.73Z" style="fill:#fff"/><path d="M1150.69,104.21a13.13,13.13,0,0,1-.16,2.08l-.44.4h-12.68a6,6,0,0,0,5.88,5.84,10.25,10.25,0,0,0,5.64-1.6l.4.4V115l-.6.24c-2.92,1.24-3.48,2.92-3.48,3.76,0,1.92,1.24,2.36,3,2.36l.4.4v2.4l-.4.4c-3.76,0-6.32-1.08-6.32-4a5.69,5.69,0,0,1,2.52-4.4c-.4,0-.8,0-1.16,0-5.76,0-9.8-4.24-9.8-10s3.84-10,9.2-10C1146.29,96.13,1150.69,97.93,1150.69,104.21Zm-13.12-.16,9.08-.4a3.72,3.72,0,0,0-4-4.12C1139.77,99.53,1138.13,101.41,1137.57,104.05Z" style="fill:#fff"/></g></svg>