<svg xmlns="http://www.w3.org/2000/svg" width="35.44" height="20.6" viewBox="0 0 35.44 20.6"><title>rotate</title><g id="b5898f83-19c6-4791-a5c5-084b4c0f4100" data-name="Layer 2"><g id="f5700c66-f522-416b-9bf1-6b8c26377339" data-name="content"><path d="M18.15,4.61A28.31,28.31,0,0,0,7.08,6.38,6.62,6.62,0,0,0,5,7.55c-.56.5-.55.79,0,1.27a10.93,10.93,0,0,0,3.61,1.72,30.61,30.61,0,0,0,5.19,1.05c.63.09.86-.14.83-.78,0-1,0-1.92,0-2.87,0-.16,0-.36.15-.45s.31.07.44.17c2.55,2,5.09,4,7.65,5.94.47.36.39.59,0,.92-2.48,1.91-4.95,3.84-7.42,5.76-.18.14-.37.41-.61.29s-.16-.46-.17-.71c0-.94,0-1.87,0-2.8,0-.68-.29-.89-.88-.92a30.11,30.11,0,0,1-5.58-.93A16.09,16.09,0,0,1,2.46,12.6C-.76,10.18-.83,6.39,2.31,3.85a15.42,15.42,0,0,1,6-2.73A38.13,38.13,0,0,1,20,.08,31.36,31.36,0,0,1,30.14,2.13a10.55,10.55,0,0,1,3.52,2.18,5.13,5.13,0,0,1-.43,8.1,17.33,17.33,0,0,1-6.91,3c-.39.1-.59,0-.59-.44,0-1.19,0-2.39,0-3.59,0-.46.27-.6.64-.71A12.94,12.94,0,0,0,29.8,9.24c1.34-.85,1.35-1.36,0-2.16a19.28,19.28,0,0,0-7-2.15A26.18,26.18,0,0,0,18.15,4.61Z" style="fill:#fff"/></g></g></svg>